<?xml version="1.0" encoding="utf-8"?>
<!-- Generator: Adobe Illustrator 16.0.0, SVG Export Plug-In . SVG Version: 6.00 Build 0)  -->
<!DOCTYPE svg PUBLIC "-//W3C//DTD SVG 1.1//EN" "http://www.w3.org/Graphics/SVG/1.1/DTD/svg11.dtd">
<svg version="1.1" id="Layer_1" xmlns="http://www.w3.org/2000/svg" xmlns:xlink="http://www.w3.org/1999/xlink" x="0px" y="0px"
	 width="194.812px" height="100.537px" viewBox="0 0 194.812 100.537" enable-background="new 0 0 194.812 100.537"
	 xml:space="preserve">
<path fill="#FFFFFF" d="M186.973,100.537H7.839c-4.33,0-7.839-3.51-7.839-7.84V7.839C0,3.51,3.509,0,7.839,0h179.134
	c4.33,0,7.84,3.51,7.84,7.839v84.858C194.812,97.027,191.303,100.537,186.973,100.537z"/>
<g>
	<g>
		<g>
			<g>
				<path fill="#465661" d="M44.419,74.896c0-2.393,0-2.811-0.06-3.289c-0.061-0.539-0.18-0.777-0.718-0.897
					c-0.119-0.06-0.418-0.06-0.657-0.06c-0.18,0-0.299,0-0.299-0.119c0-0.12,0.119-0.12,0.358-0.12c0.479,0,0.956,0,1.375,0
					s0.837,0,1.076,0c0.538,0,4.007,0,4.306,0c0.299-0.06,0.598-0.06,0.718-0.12c0.06,0,0.18-0.059,0.299-0.059
					c0.06,0,0.12,0.059,0.12,0.119c0,0.119-0.061,0.299-0.12,1.017c0,0.179-0.06,0.837-0.06,1.017c0,0.06-0.06,0.18-0.18,0.18
					c-0.119,0-0.18-0.061-0.18-0.24c0-0.119,0-0.358-0.119-0.537c-0.119-0.3-0.299-0.479-1.136-0.539
					c-0.299-0.059-2.093-0.059-2.452-0.059c-0.06,0-0.119,0.059-0.119,0.179v3.946c0,0.119,0,0.18,0.119,0.18
					c0.359,0,2.332,0,2.751-0.061c0.418-0.059,0.657-0.059,0.837-0.238c0.119-0.119,0.18-0.18,0.299-0.18c0.061,0,0.12,0,0.12,0.119
					c0,0.12-0.06,0.359-0.12,1.137c0,0.299-0.06,0.957-0.06,1.076s0,0.299-0.179,0.299c-0.12,0-0.18-0.06-0.18-0.119
					c0-0.18,0-0.359-0.061-0.538c-0.059-0.3-0.299-0.538-0.956-0.599c-0.299,0-2.033-0.06-2.452-0.06c-0.06,0-0.119,0.06-0.119,0.18
					v1.256c0,0.538,0,1.974,0,2.452c0.06,1.076,0.299,1.314,2.092,1.314c0.42,0,1.196,0,1.615-0.179
					c0.419-0.18,0.658-0.538,0.777-1.136c0.061-0.18,0.061-0.24,0.18-0.24s0.119,0.12,0.119,0.299c0,0.359-0.119,1.436-0.238,1.734
					c-0.12,0.419-0.3,0.419-0.957,0.419c-1.315,0-2.213-0.06-2.99-0.06c-0.718-0.061-1.256-0.061-1.794-0.061
					c-0.179,0-0.599,0-0.957,0c-0.419,0-0.837,0.061-1.195,0.061c-0.239,0-0.358-0.061-0.358-0.18c0-0.06,0.059-0.119,0.299-0.119
					c0.238,0,0.478-0.061,0.598-0.061c0.358-0.06,0.418-0.418,0.479-0.837c0.059-0.657,0.059-1.913,0.059-3.349v-2.93H44.419z"/>
				<path fill="#465661" d="M55.004,78.364c0,1.734,0,2.571,0.299,2.811c0.238,0.18,0.837,0.3,2.033,0.3
					c0.836,0,1.375,0,1.793-0.359c0.18-0.18,0.359-0.538,0.359-0.777c0-0.119,0.061-0.18,0.18-0.18s0.119,0.119,0.119,0.299
					s-0.119,1.137-0.238,1.555c-0.12,0.299-0.18,0.359-0.957,0.359c-1.076,0-1.974,0-2.752-0.061c-0.776,0-1.375-0.059-2.033-0.059
					c-0.179,0-0.478,0-0.836,0c-0.359,0-0.719,0.059-1.077,0.059c-0.179,0-0.299-0.059-0.299-0.119c0-0.06,0.06-0.119,0.239-0.119
					c0.239,0,0.418,0,0.538-0.061c0.3-0.06,0.419-0.299,0.419-0.717c0.06-0.539,0.06-1.615,0.06-2.811v-2.332
					c0-2.033,0-2.393,0-2.811c-0.06-0.479-0.179-0.599-0.657-0.719c-0.12-0.059-0.3-0.059-0.479-0.059
					c-0.18,0-0.239-0.061-0.239-0.12c0-0.12,0.119-0.12,0.298-0.12c0.719,0,1.676,0.061,2.094,0.061
					c0.359,0,1.615-0.061,2.213-0.061c0.238,0,0.299,0.061,0.299,0.12c0,0.12-0.061,0.12-0.299,0.12c-0.18,0-0.418,0-0.598,0.059
					c-0.419,0.061-0.539,0.24-0.539,0.719c-0.06,0.418-0.06,0.777-0.06,2.811v2.212H55.004z"/>
				<path fill="#465661" d="M64.99,80.697c-1.675-1.376-2.153-3.11-2.153-4.605c0-1.076,0.358-2.93,2.034-4.305
					c1.255-1.018,2.869-1.675,5.44-1.675c1.077,0,1.735,0.06,2.512,0.179c0.657,0.061,1.196,0.24,1.733,0.24
					c0.18,0,0.24,0.119,0.24,0.179c0,0.12-0.061,0.3-0.061,0.837c-0.06,0.539,0,1.376-0.06,1.675c0,0.239-0.06,0.358-0.179,0.358
					c-0.12,0-0.18-0.119-0.18-0.358c0-0.479-0.239-1.017-0.658-1.435c-0.598-0.539-1.913-0.957-3.468-0.957
					c-1.495,0-2.452,0.359-3.229,0.957c-1.256,1.076-1.614,2.511-1.614,4.066c0,3.707,3.109,5.561,5.442,5.561
					c1.554,0,2.451-0.18,3.168-0.896c0.3-0.299,0.539-0.777,0.598-1.017c0.061-0.239,0.061-0.3,0.24-0.3
					c0.119,0,0.18,0.12,0.18,0.24c0,0.179-0.18,1.555-0.359,2.092c-0.061,0.24-0.18,0.359-0.479,0.479
					c-0.717,0.24-1.973,0.359-3.109,0.359C68.518,82.431,66.545,81.952,64.99,80.697z"/>
				<path fill="#465661" d="M77.667,78.843c-0.06,0-0.12,0-0.12,0.12l-0.836,1.793c-0.18,0.299-0.24,0.658-0.24,0.838
					c0,0.238,0.119,0.358,0.598,0.358h0.24c0.18,0,0.238,0.06,0.238,0.12c0,0.119-0.059,0.119-0.238,0.119
					c-0.479,0-1.196-0.06-1.675-0.06c-0.179,0-0.957,0.06-1.733,0.06c-0.18,0-0.3-0.06-0.3-0.119c0-0.061,0.06-0.12,0.18-0.12
					s0.299,0,0.419,0c0.717-0.12,0.956-0.478,1.256-1.196l3.946-8.371c0.179-0.359,0.3-0.539,0.419-0.539
					c0.238,0,0.299,0.12,0.418,0.42c0.359,0.717,2.87,6.158,3.887,8.191c0.599,1.196,1.017,1.375,1.315,1.436
					c0.239,0.06,0.419,0.06,0.599,0.06c0.119,0,0.18,0.06,0.18,0.12c0,0.119-0.061,0.119-0.658,0.119c-0.538,0-1.615,0-2.93-0.06
					c-0.299,0-0.479,0-0.479-0.12c0-0.06,0.06-0.119,0.18-0.119c0.119,0,0.179-0.119,0.119-0.299l-1.196-2.691
					c-0.06-0.06-0.06-0.119-0.18-0.119h-3.408V78.843z M80.896,78.125c0.059,0,0.059-0.06,0.059-0.06l-1.435-3.409
					c0-0.059-0.06-0.119-0.06-0.119c-0.06,0-0.06,0.061-0.06,0.119l-1.435,3.35c-0.061,0.06,0,0.119,0.059,0.119H80.896z"/>
				<path fill="#465661" d="M87.175,72.205c0.06-0.239,0.179-0.359,0.299-0.359c0.18,0,0.239,0.061,0.479,0.42l4.066,7.414
					l4.066-7.534c0.12-0.239,0.239-0.358,0.419-0.358c0.119,0,0.299,0.119,0.358,0.418l1.376,8.192
					c0.119,0.837,0.299,1.196,0.717,1.315s0.658,0.119,0.838,0.119c0.119,0,0.238,0.061,0.238,0.12c0,0.12-0.179,0.18-0.418,0.18
					c-0.359,0-2.512-0.06-3.109-0.12c-0.359,0-0.479-0.06-0.479-0.18c0-0.059,0.06-0.119,0.18-0.119
					c0.059-0.06,0.119-0.18,0.059-0.538l-0.837-5.741h-0.06l-3.229,5.98c-0.359,0.598-0.419,0.777-0.598,0.777
					c-0.181,0-0.359-0.239-0.599-0.658c-0.358-0.598-1.556-2.631-1.734-3.049c-0.12-0.24-1.017-1.914-1.495-2.871h-0.06
					l-0.718,5.203c-0.06,0.238-0.06,0.418-0.06,0.658c0,0.238,0.179,0.357,0.478,0.418c0.24,0.06,0.42,0.06,0.539,0.06
					s0.239,0.06,0.239,0.12c0,0.119-0.12,0.18-0.358,0.18c-0.658,0-1.316-0.061-1.615-0.061s-1.017,0.061-1.494,0.061
					c-0.18,0-0.299-0.061-0.299-0.18c0-0.061,0.059-0.12,0.238-0.12c0.12,0,0.239,0,0.479-0.06c0.418-0.061,0.539-0.598,0.598-1.017
					L87.175,72.205z"/>
				<path fill="#465661" d="M100.869,75.973c0-2.033,0-2.393,0-2.811c-0.061-0.479-0.18-0.598-0.658-0.718
					c-0.119-0.06-0.358-0.06-0.598-0.06c-0.18,0-0.24-0.061-0.24-0.119c0-0.12,0.12-0.12,0.359-0.12c0.777,0,1.734,0.06,2.213,0.06
					c0.598,0,1.854-0.06,2.512-0.06c1.914,0,2.57,0.538,2.811,0.777c0.299,0.299,0.777,0.897,0.777,1.614
					c0,1.854-1.674,3.229-3.828,3.229c-0.059,0-0.358,0-0.418,0c-0.061,0-0.18-0.06-0.18-0.12c0-0.119,0.18-0.18,0.479-0.18
					c0.838,0,2.033-0.777,2.033-2.152c0-0.418-0.06-1.315-0.896-1.973c-0.539-0.419-1.196-0.479-1.496-0.479
					c-0.238,0-0.537,0-0.656,0.06c-0.061,0.06-0.12,0.12-0.12,0.239v5.262c0,1.196,0,2.273,0.06,2.871
					c0.061,0.358,0.119,0.598,0.598,0.657c0.239,0.06,0.539,0.06,0.777,0.06c0.18,0,0.24,0.061,0.24,0.12c0,0.12-0.12,0.12-0.3,0.12
					c-1.017,0-2.093-0.061-2.512-0.061c-0.358,0-1.315,0.061-1.913,0.061c-0.18,0-0.299-0.061-0.299-0.12s0.059-0.12,0.239-0.12
					c0.239,0,0.419,0,0.538-0.06c0.299-0.06,0.418-0.299,0.418-0.718c0.061-0.537,0.061-1.614,0.061-2.811V75.973z"/>
				<path fill="#465661" d="M109.48,75.973c0-2.033,0-2.393,0-2.811c-0.061-0.479-0.18-0.598-0.658-0.718
					c-0.12-0.06-0.359-0.06-0.599-0.06c-0.179,0-0.239-0.061-0.239-0.119c0-0.12,0.12-0.12,0.359-0.12
					c0.777,0,1.734,0.06,2.213,0.06s3.826,0,4.126,0c0.299,0,0.538-0.06,0.657-0.06c0.061,0,0.18-0.06,0.24-0.06
					c0.059,0,0.119,0.06,0.119,0.119c0,0.119-0.061,0.239-0.119,0.838c0,0.119-0.061,0.717-0.061,0.896
					c0,0.06-0.06,0.239-0.18,0.239c-0.119,0-0.119-0.06-0.119-0.18c0-0.119,0-0.358-0.12-0.478c-0.119-0.24-0.239-0.42-1.017-0.479
					c-0.239-0.061-2.093-0.061-2.392-0.061c-0.06,0-0.12,0.061-0.12,0.119v3.289c0,0.061,0,0.12,0.12,0.12
					c0.358,0,2.332,0,2.631-0.06c0.359-0.061,0.599-0.061,0.718-0.18s0.18-0.18,0.239-0.18s0.12,0.061,0.12,0.12
					s-0.061,0.299-0.12,0.956c-0.06,0.24-0.06,0.777-0.06,0.897s0,0.299-0.18,0.299c-0.119,0-0.119-0.06-0.119-0.12
					c0-0.119,0-0.299-0.061-0.478c-0.06-0.239-0.299-0.479-0.837-0.538c-0.299-0.061-1.974-0.061-2.392-0.061
					c-0.061,0-0.061,0.061-0.061,0.12v1.076c0,0.479,0,1.555,0,1.974c0.061,0.896,0.479,1.137,2.033,1.137
					c0.419,0,1.017,0,1.436-0.18c0.359-0.18,0.539-0.419,0.658-0.957c0.06-0.119,0.06-0.18,0.179-0.18c0.12,0,0.12,0.18,0.12,0.299
					c0,0.299-0.12,1.196-0.18,1.495c-0.119,0.358-0.238,0.358-0.837,0.358c-1.137,0-2.034,0-2.812-0.059
					c-0.717,0-1.314-0.061-1.733-0.061c-0.18,0-0.479,0-0.837,0c-0.359,0-0.718,0.061-1.076,0.061c-0.18,0-0.3-0.061-0.3-0.12
					s0.06-0.12,0.239-0.12c0.239,0,0.419,0,0.539-0.06c0.299-0.06,0.418-0.299,0.418-0.718c0.061-0.537,0.061-1.614,0.061-2.811
					V75.973L109.48,75.973z"/>
				<path fill="#465661" d="M116.955,82.012c-0.24-0.119-0.3-0.18-0.3-0.479c0-0.717,0.06-1.555,0.06-1.793
					c0-0.18,0.061-0.359,0.18-0.359s0.18,0.12,0.18,0.239c0,0.18,0.06,0.479,0.119,0.718c0.299,0.957,1.436,1.315,2.393,1.315
					c1.315,0,2.093-0.777,2.093-1.675c0-0.598-0.179-1.136-1.495-1.854l-0.896-0.479c-1.795-0.957-2.393-1.854-2.393-3.049
					c0-1.615,1.734-2.691,3.827-2.691c0.957,0,1.733,0.119,2.153,0.239c0.119,0,0.18,0.06,0.18,0.179
					c0,0.18-0.061,0.539-0.061,1.615c0,0.299-0.061,0.418-0.18,0.418s-0.18-0.06-0.18-0.238c0-0.12-0.059-0.539-0.418-0.897
					c-0.239-0.239-0.717-0.599-1.675-0.599c-1.075,0-2.093,0.539-2.093,1.436c0,0.598,0.239,1.076,1.615,1.734l0.598,0.299
					c1.973,1.018,2.631,2.033,2.631,3.229c0,0.956-0.418,1.794-1.494,2.511c-0.719,0.479-1.734,0.539-2.512,0.539
					C118.568,82.371,117.612,82.311,116.955,82.012z"/>
				<path fill="#465661" d="M127.479,72.923l-2.271,0.06c-0.897,0-1.256,0.119-1.436,0.419c-0.18,0.179-0.238,0.358-0.238,0.479
					c-0.061,0.119-0.061,0.179-0.18,0.179c-0.12,0-0.12-0.06-0.12-0.238c0-0.24,0.3-1.496,0.3-1.615
					c0.059-0.18,0.059-0.239,0.179-0.239s0.299,0.12,0.657,0.18c0.419,0.06,1.018,0.06,1.496,0.06h6.158
					c0.479,0,0.838-0.06,1.017-0.06c0.239-0.06,0.358-0.06,0.419-0.06c0.119,0,0.119,0.06,0.119,0.299
					c0,0.299-0.06,1.256-0.06,1.614c0,0.12-0.06,0.239-0.12,0.239c-0.119,0-0.179-0.06-0.179-0.239V73.88
					c-0.06-0.358-0.419-0.778-1.794-0.778l-1.913-0.059v5.381c0,1.196,0,2.273,0.06,2.871c0.06,0.358,0.119,0.598,0.598,0.657
					c0.18,0.06,0.538,0.06,0.777,0.06c0.18,0,0.239,0.061,0.239,0.12c0,0.12-0.12,0.12-0.299,0.12c-1.017,0-2.034-0.061-2.452-0.061
					c-0.358,0-1.375,0.061-1.973,0.061c-0.18,0-0.299-0.061-0.299-0.12s0.059-0.12,0.238-0.12c0.239,0,0.419,0,0.539-0.06
					c0.299-0.06,0.418-0.299,0.418-0.718c0.061-0.537,0.061-1.614,0.061-2.811v-5.501H127.479z"/>
				<path fill="#465661" d="M134.715,75.973c0-2.033,0-2.393,0-2.811c-0.061-0.479-0.18-0.598-0.658-0.718
					c-0.119-0.06-0.358-0.06-0.598-0.06c-0.18,0-0.239-0.061-0.239-0.119c0-0.12,0.12-0.12,0.358-0.12
					c0.777,0,1.734,0.06,2.094,0.06c0.537,0,1.913-0.06,2.332-0.06c0.956,0,2.093,0.06,2.869,0.538
					c0.42,0.239,1.077,0.957,1.077,1.854c0,0.957-0.599,1.854-2.093,2.93c1.315,1.496,2.393,2.691,3.349,3.529
					c0.837,0.777,1.376,0.836,1.614,0.896c0.18,0.06,0.239,0.06,0.359,0.06c0.119,0,0.18,0.06,0.18,0.12
					c0,0.119-0.119,0.119-0.3,0.119h-1.435c-0.838,0-1.256-0.06-1.675-0.239c-0.657-0.299-1.196-0.897-2.093-1.974
					c-0.598-0.717-1.256-1.614-1.436-1.793c-0.06-0.061-0.179-0.12-0.299-0.12l-1.375-0.06c-0.061,0-0.12,0.06-0.12,0.119v0.18
					c0,1.256,0,2.272,0.06,2.811c0.061,0.418,0.12,0.658,0.599,0.717c0.239,0.061,0.538,0.061,0.718,0.061
					c0.119,0,0.18,0.06,0.18,0.119c0,0.12-0.12,0.12-0.3,0.12c-0.897,0-2.152-0.06-2.332-0.06c-0.299,0-1.255,0.06-1.854,0.06
					c-0.18,0-0.3-0.06-0.3-0.12c0-0.06,0.061-0.119,0.24-0.119c0.238,0,0.418,0,0.538-0.061c0.299-0.059,0.418-0.299,0.418-0.717
					c0.06-0.538,0.06-1.614,0.06-2.811v-2.332H134.715z M136.628,77.049c0,0.119,0.06,0.18,0.12,0.239
					c0.299,0.12,0.777,0.12,1.136,0.12c0.599,0,0.837-0.061,1.076-0.24c0.479-0.299,0.957-0.896,0.957-1.973
					c0-1.854-1.435-2.393-2.332-2.393c-0.358,0-0.718,0-0.897,0.061c-0.119,0.06-0.119,0.06-0.119,0.18v4.006H136.628z"/>
				<path fill="#465661" d="M144.881,75.973c0-2.033,0-2.393,0-2.811c-0.061-0.479-0.18-0.598-0.658-0.718
					c-0.119-0.06-0.359-0.06-0.598-0.06c-0.18,0-0.24-0.061-0.24-0.119c0-0.12,0.12-0.12,0.359-0.12c0.777,0,1.734,0.06,2.213,0.06
					s3.826,0,4.126,0c0.299,0,0.538-0.06,0.657-0.06c0.061,0,0.18-0.06,0.24-0.06c0.059,0,0.119,0.06,0.119,0.119
					c0,0.119-0.061,0.239-0.119,0.838c0,0.119-0.061,0.717-0.061,0.896c0,0.06-0.06,0.239-0.18,0.239
					c-0.119,0-0.119-0.06-0.119-0.18c0-0.119,0-0.358-0.119-0.478c-0.12-0.24-0.239-0.42-1.018-0.479
					c-0.238-0.061-2.093-0.061-2.392-0.061c-0.06,0-0.12,0.061-0.12,0.119v3.289c0,0.061,0,0.12,0.12,0.12
					c0.358,0,2.332,0,2.631-0.06c0.359-0.061,0.599-0.061,0.718-0.18c0.12-0.119,0.18-0.18,0.239-0.18s0.12,0.061,0.12,0.12
					s-0.061,0.299-0.12,0.956c-0.06,0.24-0.06,0.777-0.06,0.897s0,0.299-0.18,0.299c-0.119,0-0.119-0.06-0.119-0.12
					c0-0.119,0-0.299-0.06-0.478c-0.061-0.239-0.3-0.479-0.838-0.538c-0.299-0.061-1.974-0.061-2.392-0.061
					c-0.061,0-0.061,0.061-0.061,0.12v1.076c0,0.479,0,1.555,0,1.974c0.061,0.896,0.479,1.137,2.033,1.137
					c0.419,0,1.018,0,1.436-0.18c0.359-0.18,0.539-0.419,0.658-0.957c0.061-0.119,0.061-0.18,0.18-0.18s0.119,0.18,0.119,0.299
					c0,0.299-0.119,1.196-0.18,1.495c-0.119,0.358-0.238,0.358-0.837,0.358c-1.137,0-2.033,0-2.811-0.059
					c-0.718,0-1.315-0.061-1.734-0.061c-0.179,0-0.479,0-0.837,0s-0.718,0.061-1.076,0.061c-0.18,0-0.299-0.061-0.299-0.12
					s0.06-0.12,0.238-0.12c0.24,0,0.419,0,0.539-0.06c0.299-0.06,0.418-0.299,0.418-0.718c0.061-0.537,0.061-1.614,0.061-2.811
					V75.973L144.881,75.973z"/>
			</g>
		</g>
		<g>
			<g>
				<path fill="#184822" d="M106.191,56.957c-0.12,0.896-0.658,1.913-1.316,2.392c-0.06-1.136-0.238-2.69,1.375-3.289
					c0.898,0.657,0.599,1.974-0.299,2.512C106.191,57.914,106.25,57.555,106.191,56.957z M103.858,58.631
					c-0.06,0.419-0.12,0.718-0.299,1.076c0.837-0.358,1.017-1.256,0.299-1.913c-1.375,0.598-0.718,1.794-1.136,2.511
					C103.381,59.826,103.619,59.229,103.858,58.631z M122.875,32.559c0.299-0.717-0.24-1.794-1.196-1.734
					c-0.957,2.094,0.538,2.273,0.897,3.35c0.179-1.137,0.059-1.795-0.359-2.751C122.516,31.781,122.695,32.141,122.875,32.559z
					 M116.297,55.402c-1.137-0.359-2.033-0.299-3.289-0.18c1.614,0.538,1.794,2.512,4.604,0.896
					c-0.657-1.555-2.332-1.614-3.289-1.256C115.221,54.924,115.699,55.043,116.297,55.402z M117.732,52.232
					c1.555,0.777,2.391,0.658,3.109-0.18c-0.359-1.076-1.436-1.136-2.332-0.418c0.598-0.119,1.016-0.18,1.494,0.119
					C119.287,51.694,118.629,51.814,117.732,52.232z M109.898,56.299c1.195,1.495-1.136,2.452,1.256,4.306
					c1.136-0.3,1.914-2.452,0.299-3.349c0.299,0.717,0.239,1.495-0.06,2.271C111.394,58.512,111.334,56.957,109.898,56.299z
					 M112.41,50.797c-1.017,0.12-1.495,0.359-1.854,0.838c0.598-0.359,1.913,0.538,2.451-0.838c-0.538-0.657-1.256-0.357-1.555,0
					C111.812,50.678,112.111,50.678,112.41,50.797z M106.311,61.382c-0.838-0.239-2.332-0.239-3.408,0.598
					c1.375,0.06,2.392,2.033,4.724-0.06c-0.837-1.674-2.272-1.854-3.229-0.896C105.115,60.844,105.951,60.963,106.311,61.382z
					 M108.283,57.076c-0.657,0.239-0.896,0.718-1.135,1.375c0.717-0.657,1.614,0.24,2.032-1.494
					c-0.657-0.539-1.614-0.24-1.854,0.418C107.686,57.195,107.984,57.076,108.283,57.076z M108.104,59.408
					c-0.657,0.061-1.256,0.299-1.556,0.896c1.316,0.539,2.094,0,2.453-0.777c-0.897-1.016-2.393-0.657-2.99,0.658
					C106.729,59.527,107.506,59.349,108.104,59.408z M117.971,53.848c-0.717,0.119-0.957,0.299-1.195,0.657
					c0.957,0.419,1.494-0.12,1.793-0.657c-0.598-0.777-1.854-0.359-2.391,0.299C116.775,53.906,117.553,53.728,117.971,53.848z
					 M107.506,53.668c1.436-0.598,1.496,0.238,2.572,0.238c1.016,0,1.375-0.537,2.512-0.598c-0.658-1.674-2.632-1.674-3.588-0.957
					c0.717-0.179,1.435-0.179,2.092,0.12C109.719,52.412,108.763,52.65,107.506,53.668z M121.978,48.705
					c-0.119,0.537-0.478,0.956-0.957,1.255c1.136,0,2.093-1.076,1.435-2.272c-2.451,0.061-1.674,1.675-2.988,2.572
					C120.662,50.02,121.439,49.542,121.978,48.705z M122.217,42.904c0.598-0.718,0.598-1.436-0.061-1.974
					c-1.076,0.718-1.195,1.614-0.598,2.751c0.419-0.598,0.539-1.196,0.658-1.734C122.276,42.187,122.276,42.485,122.217,42.904z
					 M114.144,57.794c-0.538,0.06-0.956-0.06-1.495-0.239c0.539,0.717,1.256,0.896,2.153,0.479c-0.119-1.914-1.675-1.256-2.69-1.495
					C112.769,57.375,113.307,57.555,114.144,57.794z M117.911,42.725c0,0.538-0.119,1.196-0.358,1.854
					c1.016-0.896,1.136-2.392,0.239-3.169c-2.571,1.733-0.658,2.69-1.974,4.544C117.492,44.697,117.492,43.741,117.911,42.725z
					 M114.802,49.841c0.358,0.657,0.538,1.315,0.358,1.913c0.777-0.777,0.658-2.451-0.777-2.99
					c-0.119,1.676-1.555,2.213-0.299,4.246C114.922,51.814,114.981,50.977,114.802,49.841z M118.031,48.585
					c-0.718,0.598-1.615,2.033-1.615,2.751c0.777-0.957,3.051-0.18,2.99-3.887c-2.213-0.18-3.05,0.598-3.229,2.811
					C116.655,49.602,116.895,48.943,118.031,48.585z M115.101,42.426c-0.418,0.238-0.657,0.418-0.897,0.837
					c0.838,0.12,1.436-0.179,1.496-1.136c-1.017-0.539-1.734,0.119-2.033,1.016C114.024,42.725,114.503,42.485,115.101,42.426z
					 M123.233,44.997c-1.017-0.06-2.751,0.657-3.528,1.136c1.795,0.658,3.648,1.436,4.545-1.076c-0.957-0.538-1.375-1.076-2.811,0
					C122.098,44.877,122.455,44.817,123.233,44.997z M104.517,50.678c0.358,0.598,0.419,1.615,0.299,2.272
					c1.076-1.196,0.957-3.169-0.777-3.588c-1.913,2.631,0.179,2.69-0.358,4.964C104.396,53.607,104.695,52.173,104.517,50.678z
					 M106.131,48.285c0.299,0.957-0.06,1.795-0.18,2.452c0.777-1.614,1.018-2.272,0.061-3.288c-1.196,0.777-0.896,1.913-0.419,2.631
					C105.832,49.661,106.071,49.123,106.131,48.285z M109.48,44.1c0.298,0.299,0.298,1.018,0.238,1.375
					c0.838-0.896,0.359-1.854-0.418-2.271c-0.658,1.137-0.718,1.973-0.12,2.99C109.48,45.774,109.539,44.578,109.48,44.1z
					 M112.769,46.193c-1.136,0.059-2.751,1.016-3.468,2.271c1.734-1.136,3.348,0.777,5.082-2.093
					c-1.314-1.555-2.811-0.897-3.588,0.06C111.273,46.133,112.29,45.953,112.769,46.193z M114.742,44.398
					c-0.897-0.179-1.615-0.238-2.272,0.299c1.555,0.838,2.033,0,2.87,0.24c-0.18-1.076-1.375-1.436-2.152-0.777
					C113.726,43.98,114.323,44.04,114.742,44.398z M112.59,41.828c0.179,0.896-0.12,1.494-0.359,2.033
					c1.375-0.599,1.316-2.213,0.418-3.051c-2.033,1.137-0.837,2.811-1.913,3.887C111.812,43.98,112.35,42.964,112.59,41.828z
					 M123.113,43.383c1.375-0.359,1.974-0.838,2.452-2.811c-0.777-0.24-2.032-0.419-2.332,1.494c0.3-0.479,0.897-1.016,1.495-0.957
					C124.011,41.35,123.055,42.664,123.113,43.383z M120.722,34.473c0.778,0.418,1.077,1.674,1.077,2.512
					c1.195-2.811-1.137-3.708-2.033-3.528c-0.777,3.767,1.375,2.87,1.436,5.022C121.619,37.164,121.38,35.31,120.722,34.473z
					 M124.011,30.167c-0.299,0.598-0.419,1.017-0.419,1.913c0.359-0.777,1.734-0.777,0.777-2.512
					c-0.957,0.18-1.136,0.838-1.016,1.795C123.533,31.064,123.592,30.406,124.011,30.167z M124.848,32.738
					c-0.777,0.838-1.555,1.734-1.734,3.349c1.854-0.358,2.871-2.571,2.572-4.187c-1.018-0.179-2.033,0.3-2.273,2.213
					C123.771,33.576,124.369,32.918,124.848,32.738z M104.337,40.931c-0.657-0.538-1.495-0.538-2.153,0.358
					c1.197,1.436,1.975,0.598,2.932,0.419c-0.479-0.419-1.077-0.599-1.914-0.538C103.5,40.99,103.918,40.99,104.337,40.931z
					 M122.455,38.897c1.078-0.239,1.137,1.614,3.35,0.12c-0.479-1.675-1.973-1.675-2.571-0.838c0.479,0,1.136-0.299,1.675,0.239
					C124.011,38.12,122.875,38.359,122.455,38.897z M116.655,34.353c0.599-0.06,1.137,0.3,1.555,0.718
					c-0.239-1.436-1.017-1.734-2.392-1.256c0.119,2.512,1.974,1.495,2.811,2.452C118.21,35.131,117.193,34.532,116.655,34.353z
					 M117.971,31.482c-0.06,0.718-0.179,1.495,0.957,2.512c0.838-1.974-0.06-2.451-0.538-3.588c-0.777,0.239-1.555,1.794-0.598,2.75
					C117.672,32.619,117.732,31.9,117.971,31.482z"/>
				<path fill="#184822" d="M102.244,64.551c-0.239,0.061-0.479,0.061-0.718,0.12"/>
				<path fill="#184822" d="M118.39,45.416c3.647-4.127,2.392-7.057,6.339-8.611c-1.017-0.061-2.213,0.837-2.631,1.256
					c0.717-1.974,0.777-2.572,1.016-5.143c-0.658,3.289-1.912,7.176-3.229,9.029c0.119-2.571-0.239-6.039-1.495-7.834
					c1.376,3.887,1.436,8.073-0.06,10.106c-1.734,2.392-5.682,3.767-10.824,7.833c0.359-2.392,2.213-6.1,5.682-8.371
					c-2.811,1.016-4.545,4.365-5.383,5.381c0.658-7.475-0.06-7.295,0.778-12.438c-0.718,2.571-0.897,5.74-0.838,6.398
					c-0.837-1.375-2.571-2.093-3.707-2.811c1.675,1.854,3.827,1.555,3.349,5.801c-0.598,5.322-1.076,5.92-2.152,6.996
					c-2.512,2.512-3.588,5.023-3.648,8.611c-0.119-0.18-0.299-0.419-0.479-0.777c0.18-0.239,0.419-0.598,0.18-1.076
					c-0.358,0.119-0.418,0.479-0.358,0.837c-0.12-0.239-0.239-0.538-0.358-0.897c0.059,0.777,0.238,1.196,0.418,1.555
					c-0.18-0.119-0.418-0.06-0.598,0.12c0.418,0.419,0.538,0.239,0.717,0.06c0.24,0.418,0.479,0.718,0.479,1.615
					c0,0.478,0,1.016,0,1.614c0.239-0.06,0.479-0.06,0.718-0.12v-1.614c0-2.392,4.007-2.452,4.604-4.724
					c-2.213,2.512-3.109,1.195-4.604,3.229c0.06-4.126,1.495-5.979,4.604-5.86c1.734,0.06,3.289,0.3,5.322,1.734
					c-0.419-0.837-1.734-1.435-2.452-1.734c8.432-0.657,5.562-3.708,11.003-5.142c-3.946,0.357-4.844,3.288-6.937,3.887
					c0.599-0.539,1.495-1.018,2.272-3.35c-2.272,4.664-7.594,3.229-10.823,4.007c1.974-1.196,8.372-6.458,13.634-8.91
					c1.914-0.897,3.289-1.675,4.066-3.349C121.978,44.22,119.766,45.057,118.39,45.416z"/>
				<path fill="#184822" d="M83.945,57.436c1.018-0.419,2.393-0.419,4.187-0.061c-2.272,1.734-4.245,2.393-5.8,0.479
					c1.434-1.973,3.348-1.674,4.365-1.137C85.621,56.658,84.724,56.896,83.945,57.436z M84.783,55.223
					c-1.196-1.555-2.93-1.854-4.664-0.658c1.195,1.495,2.332,2.094,4.066,1.256c-0.42-0.957-1.675-1.315-2.452-1.315
					C82.631,54.266,83.887,54.684,84.783,55.223z M86.637,53.369c0.239,1.195,1.017,2.093,1.914,2.57
					c0.956-2.451-1.137-2.392-1.914-3.646c-0.717,1.255-0.358,2.811,0.837,3.288C86.816,54.924,86.637,54.086,86.637,53.369z
					 M84.244,52.232c0.121,0.598,0.42,1.076,0.778,1.495c0.777-1.495-0.18-2.033-0.718-2.632c-0.658,0.658-0.718,2.033,0.18,2.512
					C84.305,53.249,84.065,52.531,84.244,52.232z M82.988,52.412c-0.357-1.137-1.674-1.495-2.93-0.658
					c0.777,2.094,1.795,1.017,3.17,1.615c-0.359-0.957-0.957-1.316-1.675-1.436C82.212,51.934,82.57,52.113,82.988,52.412z
					 M84.724,59.408c-1.196,0-1.315,1.017-1.137,1.674c2.034,0.599,2.99-0.657,2.99-1.854c-0.777,0.061-2.093,0.479-2.452,1.196
					C84.125,60.006,84.365,59.707,84.724,59.408z M82.57,56.837c-2.93-1.076-3.05,0-4.425,0.419c1.256,1.555,3.05,1.315,3.946,0.119
					c-0.717-0.418-1.734-0.479-2.512-0.18C80.179,56.717,81.613,56.598,82.57,56.837z M77.906,51.635
					c-2.093,0.06-2.093,1.076-2.99,1.973c3.469,1.436,3.648-1.076,4.426-1.555c-1.137-0.119-2.512,0.24-3.17,0.957
					C76.412,52.113,77.01,51.754,77.906,51.635z M75.035,50.857c-0.537-0.359-1.435-0.12-1.913,0.658
					c1.435,1.494,2.153-0.18,3.05-0.061c-0.896-0.538-1.495-0.418-2.033-0.239C74.259,51.037,74.617,50.857,75.035,50.857z
					 M79.82,50.618c-0.419-1.196-1.496-1.614-2.632-1.556c0.179,0.778,0,1.615,1.734,1.734c-0.479-0.238-0.956-0.479-1.196-1.076
					C78.205,50.14,78.923,50.678,79.82,50.618z M72.703,47.449c0.838-0.539,1.795-0.419,2.393-0.24
					c-1.436-1.136-3.229-1.016-4.186,0.299c2.152,2.811,4.066,0.359,5.441,0.599C75.574,47.27,73.601,47.329,72.703,47.449z
					 M76.471,50.618c0.119-1.136-0.598-1.436-1.256-1.495c-0.238,0.598-0.119,1.375,0.539,1.495
					c-0.12-0.179-0.359-0.479-0.359-0.897C75.634,50.02,75.813,50.439,76.471,50.618z M72.584,39.436
					c-0.18,1.017-0.358,2.272,0.479,3.768c2.751-1.854,0.658-3.528,0.299-5.262c-1.734,0.299-2.631,3.049-1.136,4.424
					C71.867,41.17,72.105,40.094,72.584,39.436z M84.365,48.346c-1.077-1.375-2.153-0.718-3.29-0.299
					c0.718,2.393,2.812,0.896,4.066,1.195c-0.837-0.896-1.974-1.076-2.93-0.957C83.108,47.928,83.646,47.986,84.365,48.346z
					 M91.062,48.227c-0.478,0.537-1.017,1.315-0.837,2.631c0.479-1.137,2.033-0.239,1.674-3.229
					c-1.255-0.12-1.793,0.599-1.733,1.435C90.285,48.645,90.703,48.285,91.062,48.227z M90.644,45.236
					c-0.239,0.418-0.419,0.837-0.479,1.555c0.837-0.239,1.495-1.137,0.837-2.152c-0.777,0.119-1.137,0.657-0.957,1.314
					C90.225,45.715,90.344,45.296,90.644,45.236z M90.464,59.946c0.12,0.479,0.479,0.897,1.077,1.077
					c0.179-0.957-0.359-1.555-1.256-1.555c-0.479,1.076,0.119,1.555,0.776,1.613C90.703,60.725,90.464,60.425,90.464,59.946z
					 M89.088,60.425c-0.418-0.718-1.973-0.599-2.391,0c1.255,1.256,2.033,0.18,3.109,0.538c-0.539-0.538-1.795-0.777-2.273-0.658
					C87.952,60.186,88.61,60.186,89.088,60.425z M91.182,62.159c-0.957-0.837-2.393-1.256-3.229,0.419
					c2.632,1.973,2.87-0.359,3.827,0.537c-0.479-1.136-1.734-1.016-2.213-0.896C89.926,61.979,90.764,61.979,91.182,62.159z
					 M89.985,57.973c-1.435-0.537-2.452,0.299-2.571,1.196c2.033,0.897,2.213-0.718,3.229-0.478
					c-0.419-0.539-1.794-0.539-2.272-0.18C88.61,58.093,89.208,58.033,89.985,57.973z M78.923,47.628
					c0.299-1.974,2.332-0.478,2.093-3.827c-2.212-0.358-2.87,0.718-2.571,2.094c0.06-0.719,0.419-1.256,1.257-1.496
					C78.743,44.758,78.324,46.252,78.923,47.628z M82.869,46.252c-0.238-0.717-1.016-0.896-1.734-0.598
					c0.12,1.734,1.256,0.838,2.094,1.376c-0.359-0.778-0.838-1.017-1.436-1.136C82.152,45.834,82.631,46.014,82.869,46.252z
					 M78.205,41.529c-0.598,0.777-0.658,1.793-0.18,2.57c0.12-1.195,1.676-1.436,0.778-3.408c-1.017,0.359-1.675,1.195-1.315,2.272
					C77.547,42.426,77.787,41.828,78.205,41.529z M69.595,39.615c0.478,0.18,0.837,0.479,1.196,1.017
					c0-1.256-0.838-1.854-2.094-1.614c0,2.451,1.315,2.033,1.973,2.75C70.551,40.691,70.192,40.033,69.595,39.615z M75.455,43.621
					c0.777,0.061,1.314,0.419,1.793,1.018c-0.238-1.376-1.195-2.332-3.229-1.675c-0.061,2.093,1.136,2.69,1.914,2.931
					c0.598,0.179,1.255,0.299,1.793,1.136C77.367,44.877,76.352,43.921,75.455,43.621z M75.096,40.691
					c3.05,0.777,2.571-1.195,3.708-1.076c-0.958-0.598-2.272-0.299-2.812,0.18c0.24-0.479,0.896-0.658,1.675-0.838
					C76.112,38.299,74.736,38.897,75.096,40.691z M71.867,43.801c-0.42-1.137-1.496-1.375-2.393-0.777
					c0.359,1.375,0.896,2.99,3.289,2.332c-0.658-1.256-1.674-1.734-2.094-1.854C71.029,43.322,71.447,43.502,71.867,43.801z
					 M69.595,35.549c0.418-0.119,0.837-0.239,1.495,0.061c-0.539-1.018-1.795-0.778-2.871,0c1.495,2.332,2.393,1.793,3.947,1.195
					C71.209,35.729,70.252,35.549,69.595,35.549z M69.953,31.961c0.299,1.017,0.838,2.213,2.094,3.408
					c1.195-3.349-0.42-3.707-2.273-5.262c-0.777,1.136-0.717,3.349,0.777,4.006C70.252,33.516,70.013,33.037,69.953,31.961z
					 M74.199,35.609c0.357,0.776,0.896,1.375,2.391,1.555c-0.478-2.153-1.555-2.512-2.93-2.752
					c-0.238,0.957-0.358,2.213,1.375,2.811C74.557,36.805,74.199,36.207,74.199,35.609z M74.259,32.32
					c0.418-0.061,0.776,0.119,1.136,0.299c-0.418-0.897-1.256-1.018-2.213-0.719c0.539,2.512,1.495,1.197,2.632,1.914
					C75.514,33.098,74.797,32.439,74.259,32.32z M72.226,28.732c0.358-0.12,1.255-0.061,1.733,0.299
					c-0.238-1.137-2.152-1.256-3.109-0.479c0.359,2.093,2.272,2.332,3.648,1.973C74.02,29.51,73.002,28.971,72.226,28.732z
					 M75.215,26.699c0.359,0.179,0.539,0.717,0.658,1.136c0.299-1.077-0.06-1.555-1.017-1.734c-0.837,2.272,0.837,2.392,0.897,3.169
					C75.813,28.074,75.455,27.117,75.215,26.699z M71.508,25.145c0.418,0.059,1.017,0.598,1.256,1.016
					c-0.18-1.016-0.717-1.436-2.033-1.315c-0.359,1.614,0.777,2.153,2.152,2.332C72.644,26.34,72.285,25.562,71.508,25.145z
					 M73.242,22.034c-0.18,0.718-0.12,2.571,0.418,3.768c1.854-1.136,2.153-3.708-0.119-5.501c-1.196,0.479-1.734,2.93-0.598,4.066
					C72.823,23.828,72.823,22.871,73.242,22.034z M77.607,32.141c-0.359,0.479-0.598,1.375-0.18,2.271
					c0.119-0.717,1.436-0.896,0.777-2.75c-0.717-0.119-1.555,0.119-1.195,1.734C77.01,32.857,77.188,32.379,77.607,32.141z
					 M76.949,23.23c0.18,0.299,0.18,0.896,0.119,1.315c0.777-0.957,0.42-2.272-0.836-2.811c0.18,0.718-0.299,1.256-0.419,1.675
					c-0.358,1.314,0.599,1.435,0.538,2.512C76.77,24.785,77.01,24.188,76.949,23.23z M74.617,18.925
					c-0.18,0.957,0.119,1.495,0.479,2.452c-0.061-1.436,1.196-1.734-0.18-3.35c-1.016,0.479-1.076,1.795-0.299,2.632
					C74.498,20.24,74.318,19.583,74.617,18.925z M93.273,57.914c-0.238,0.299-0.478,0.956-0.418,2.092
					c0.239-0.418,1.376-0.896,0.838-2.69c-0.599,0-1.316,0.358-1.017,1.495C92.677,58.512,92.976,58.093,93.273,57.914z
					 M78.266,55.104c0.357-0.12,0.776-0.12,1.195,0.059c-0.838-0.836-1.674-0.598-2.272,0.061c1.256,1.494,1.974,0.358,2.99,0.598
					C79.521,55.282,78.743,55.043,78.266,55.104z M86.397,42.545c-0.06-0.717-0.837-1.136-1.733-0.957
					c-0.24,1.734,0.836,1.675,1.793,2.033c-0.119-0.957-0.717-1.375-1.076-1.555C85.859,42.066,86.158,42.307,86.397,42.545z
					 M87.594,41.708c-0.119,0.538,0,1.555,0.479,2.153c1.136-1.077,0.598-2.273-0.299-3.109c-0.42,0.357-1.018,1.135-0.42,2.032
					C87.295,42.365,87.414,41.947,87.594,41.708z M87.533,47.449c-0.238,0.777-0.119,1.733,1.197,2.392
					c0.059-0.778-0.24-1.376-0.599-1.734c0.299,0.12,0.657,0.479,0.777,0.837C88.909,48.525,88.85,47.449,87.533,47.449z
					 M76.711,31.184c2.392-0.061,2.212-2.093,2.451-3.289c-1.137-0.239-2.393,0-2.512,2.093c0.238-0.478,0.658-1.195,1.195-1.255
					C77.309,29.33,76.83,30.227,76.711,31.184z M85.74,44.817c0.479-0.239,1.016-0.06,1.494,0.18
					c-0.598-1.136-2.093-0.777-2.631-0.12c0.658,2.273,2.094,1.734,3.289,1.256C87.354,45.475,86.278,44.758,85.74,44.817z
					 M89.028,34.233c-0.776,0.657-1.017,1.974-0.896,2.87c0.538-0.957,2.512-1.137,1.614-3.408
					c-1.016-0.061-2.093,0.657-1.794,2.033C88.191,35.131,88.431,34.532,89.028,34.233z M81.973,39.854
					c0.896-1.556,2.512-1.017,2.093-4.604c-1.435-0.359-2.751,1.195-2.392,2.631c0.238-0.717,0.957-1.436,1.375-1.674
					C82.57,36.864,81.793,37.762,81.973,39.854z M83.229,43.143c0.18-0.956,1.315-1.016,0.598-2.811
					c-0.838,0.061-1.494,1.077-0.896,1.854c0-0.358,0.059-0.897,0.418-1.196C83.108,41.409,82.988,42.605,83.229,43.143z
					 M79.641,35.25c0.418,0.06,0.896,0.658,0.957,1.315c0.119-1.256-0.18-2.093-1.675-2.033c-0.119,1.017-0.718,3.229,1.555,3.289
					C80.598,36.565,80.119,35.788,79.641,35.25z M87.414,34.412c0.239-1.016-0.418-1.614-1.136-1.793
					c-1.017,1.674,0.419,2.033,0.956,3.169c-0.06-0.897-0.06-1.675-0.479-2.332C86.996,33.635,87.234,33.934,87.414,34.412z"/>
				<path fill="#184822" d="M89.865,50.08c0.12-9.508-1.195-8.611-2.332-15.01c0.18,4.844,1.436,3.827,1.795,11.422
					c-1.436-1.316-2.213-3.408-2.751-4.664c0.657,2.57,1.196,3.588,1.733,4.305c1.615,2.272,0.539,3.708,1.018,6.04
					C84.244,46.193,80,40.273,81.613,34.951c-1.076,1.734-0.717,4.664,0.12,7.176c-6.578-9.927-6.04-11.781-4.604-17.043
					c-1.137,2.512-1.555,5.562-0.837,8.014c-1.077-2.213-2.093-4.665-3.05-7.416c1.375,4.605,3.109,8.552,5.023,12.02
					c-2.273,0.12-5.023-0.119-7.475-2.93c1.674,2.512,4.364,3.349,6.756,3.469c1.854,0.119,2.273,4.424,9.449,12.497
					c-6.697-1.315-8.073-2.093-8.432-3.229c-0.598-2.033-0.598-4.186-2.094-5.501c1.734,2.333,1.137,4.604,1.974,6.339
					c-2.511-1.076-4.784-2.631-6.159-4.963c1.794,3.647,6.1,5.92,10.105,6.877c-1.793,0.657-3.887,1.375-7.176,0.657
					c3.589,1.256,7.715-0.478,9.15-0.06c2.631,0.717,3.945,1.016,6.637,6.518c-3.527-0.777-5.621-1.973-7.535-4.006
					c5.023,6.518,8.731,1.494,8.611,9.148c-0.299-0.418-0.537-0.658-0.957-0.837c0.957,1.136,0.957,1.555,0.957,2.571
					c0,0.18,0,0.419,0,0.658c0.239,0.06,0.479,0.06,0.718,0.119v-3.05C92.796,55.82,89.807,54.924,89.865,50.08z"/>
				<path fill="#184822" d="M92.796,64.91c-0.239-0.061-0.479-0.061-0.718-0.12"/>
			</g>
			<g>
				<path fill="#184822" d="M101.228,45.715c0.657,0.119,1.315,0.299,1.196,1.674c-0.599-0.837-1.555,0.359-2.033-1.734
					c0.717-0.598,1.793-0.358,2.033,0.359C102.064,45.715,101.706,45.654,101.228,45.715z M102.424,44.34
					c0.06-0.658-0.18-1.316-1.196-1.316c-0.419,1.555,0.538,1.734,1.136,1.854c-0.06-0.657-0.358-1.076-0.598-1.435
					C102.125,43.801,102.244,44.04,102.424,44.34z M103.261,46.611c0.478-1.914,2.452-1.137,1.614-3.947
					c-1.436,0.18-1.854,1.077-1.793,2.453c0.059-0.599,0.537-1.436,1.135-1.675C103.858,43.801,103.201,44.758,103.261,46.611z
					 M109.659,37.104c-0.598,0.658-1.017,1.195-1.196,2.512c0.838-0.957,2.213-0.359,1.974-2.93
					c-1.076-0.12-1.734,0.418-1.734,1.195C108.941,37.521,109.24,37.283,109.659,37.104z M115.041,36.445
					c-0.18,0.777-0.358,1.256-0.718,1.795c1.257-0.359,1.495-2.094,0.658-3.289c-0.359,1.315-2.571,0.418-2.452,3.768
					C113.605,38.359,114.203,38,115.041,36.445z M118.15,37.402c-0.239,0.479-0.658,0.539-0.896,0.658
					c0.896,0,1.435-0.119,1.435-1.256c-2.033-0.777-1.974,0.479-2.989,1.195C116.535,38,117.313,37.941,118.15,37.402z
					 M114.144,39.734c1.437,2.393,3.648,1.196,4.545,0.777c-0.718-2.152-2.392-1.854-2.989-1.436
					c0.598,0.061,1.076,0.359,1.614,0.658C116.057,39.436,115.28,39.137,114.144,39.734z M112.828,34.712
					c1.076,0,2.213-0.18,2.811-2.153c-0.896-0.299-1.674-0.238-1.973,0.479c0.299-0.18,0.657-0.239,1.017-0.239
					C113.965,32.978,113.426,33.576,112.828,34.712z M105.115,24.247c-1.316-0.599-3.35-0.239-3.469,1.974
					c3.469,1.076,2.811-1.436,5.202-0.897c-0.897-0.777-1.913-1.136-3.708-0.538C103.799,24.367,104.337,24.188,105.115,24.247z
					 M105.533,21.735c0.06,1.017,0.598,1.794,1.973,2.332c-0.836-1.076,0.12-2.69-2.271-3.408c-0.061,0.657-0.539,2.093,0.418,2.511
					C105.414,22.513,105.414,22.154,105.533,21.735z M104.576,22.752c-0.06-1.195-0.538-2.033-1.375-2.271
					c-0.658,1.016-0.539,1.733,0.479,2.271c-0.359-0.479-0.539-1.017-0.419-1.375C103.381,21.914,103.979,22.633,104.576,22.752z
					 M102.604,22.871c-0.957-0.537-1.615-0.238-1.975,0.419c1.376,1.376,1.376,0.06,2.691,0.239
					c-0.598-0.479-1.137-0.598-1.854-0.418C101.766,22.871,102.064,22.812,102.604,22.871z M105.832,18.865
					c-0.598-0.658-1.555-0.419-1.854,0.119c1.195,1.615,1.614,0.419,2.87,1.436c-0.657-1.375-1.196-1.495-2.212-1.555
					C105.115,18.686,105.473,18.805,105.832,18.865z M108.164,17.669c0.538,0.239,0.777,0.718,0.897,1.017
					c0.119-1.256-0.838-1.315-1.436-2.093c-0.358,1.435-0.478,2.452,1.137,3.647C109.002,18.984,108.763,18.506,108.164,17.669z
					 M106.131,17.191c1.734-1.436,0.658-2.99,0.718-3.888c-1.315,0.239-2.212,1.435-1.376,2.87c0.12-0.598,0.18-1.256,0.658-1.555
					C105.892,15.217,105.772,16.234,106.131,17.191z M109.539,12.945c0.598,0.479,1.018,1.076,1.256,2.75
					c0.777-2.451-1.136-3.527-2.093-4.125c-1.017,1.375-1.614,3.588,0.837,5.501C110.735,15.217,109.958,13.782,109.539,12.945z
					 M111.514,16.771c1.314-0.836,3.468,0.359,3.767-2.451c-1.017-0.299-2.333-0.658-3.289,0.957
					c0.657-0.598,1.435-0.838,2.152-0.718C112.889,14.738,111.991,15.457,111.514,16.771z M112.35,11.929
					c0.18,0.718,0.12,1.076-0.06,1.614c0.718-0.598,0.957-1.555,0-2.512c-1.733,1.017-0.479,2.213-0.718,3.109
					C111.991,13.603,112.29,12.526,112.35,11.929z M111.514,20.659c-0.539,0.419-1.436,1.733-0.838,4.425
					c0.119-2.691,2.691-2.033,2.093-5.621c-1.675,0.239-2.931,0.718-2.811,3.408C110.197,21.975,110.496,21.137,111.514,20.659z
					 M111.692,17.609c-0.538,0.06-1.376,0.479-1.675,1.195c0.718-0.418,1.436,0.18,2.332-1.195c-0.299-0.418-1.076-0.598-1.854,0.18
					C111.035,17.609,111.453,17.49,111.692,17.609z M116.535,24.008c-0.537-1.017-1.674-1.137-2.93-0.539
					c0.598,2.453,2.572,1.676,3.17,2.273c-0.18-1.495-1.137-1.974-2.213-2.033C115.52,23.469,115.878,23.648,116.535,24.008z
					 M115.041,19.702c0.18-1.017-0.119-1.794-1.854-1.733c-0.299,2.152,0.837,1.733,1.555,2.57c-0.06-0.956-0.18-1.314-0.838-2.033
					C114.562,18.686,114.742,18.984,115.041,19.702z M115.52,21.914c-0.359-0.777-0.777-1.195-1.973-0.836
					c0,1.734,1.375,1.076,2.092,1.614c-0.358-0.778-0.896-1.077-1.436-1.256C114.802,21.437,115.041,21.557,115.52,21.914z
					 M117.553,24.307c0.06-1.076,1.076-0.896,0.479-2.332c-0.598,0-0.957,0.418-0.777,1.137c0.06-0.299,0.06-0.539,0.479-0.658
					C117.492,22.633,117.313,23.529,117.553,24.307z M115.4,18.746c0.478-0.838,1.555-1.197,0.896-2.512
					c-0.598-0.061-1.436,0.299-1.137,1.375c0.061-0.299,0.18-0.658,0.539-0.777C115.34,17.311,115.28,17.789,115.4,18.746z
					 M110.316,10.732c0.299,0.18,0.479,0.538,0.599,0.838c0.239-0.897-0.479-1.376-1.077-1.436
					c-0.418,1.256,0.061,1.674,0.838,2.271C110.735,11.57,110.615,11.15,110.316,10.732z M119.406,23.947
					c0.957-1.555,2.033-0.358,2.75-2.75c-1.136-0.777-2.033-0.299-2.391,0.837c0.418-0.419,0.776-0.718,1.375-0.837
					C120.123,21.914,119.586,22.812,119.406,23.947z M116.057,19.523c-0.179,0.598-0.418,1.195,0.42,2.511
					c1.315-1.614,0.238-1.794,0-3.288c-0.896,0.358-1.495,1.555-0.838,2.152C115.58,20.359,115.759,19.882,116.057,19.523z
					 M119.586,26.699c0.119,0.956-0.119,1.674-0.598,2.332c1.315-0.838,1.793-2.631,0.537-3.768
					c-2.271,1.614-0.598,2.93-2.152,4.484C118.27,29.449,119.167,28.612,119.586,26.699z M122.217,29.15
					c-0.658-0.119-1.675-0.119-2.332,0.539c1.017-0.121,1.974,1.135,3.17-0.121c-0.061-0.956-1.316-1.555-2.094-0.836
					C121.38,28.672,121.978,28.732,122.217,29.15z M123.174,25.802c-0.539,0.239-1.495,0.837-2.153,2.153
					c0.897-0.3,3.229,0.598,3.169-2.691c-0.956-0.299-1.854-0.359-2.451,1.137C122.156,26.041,122.635,25.742,123.174,25.802z
					 M121.559,24.247c0.12,0.239,0.24,0.598,0.24,0.837c0.478-0.717,0.238-1.375-0.299-1.734c-0.539,0.718-1.077,1.375-0.539,2.751
					C121.439,25.562,121.5,24.965,121.559,24.247z M99.194,54.564c0.419,0.119,0.538,0.718,0.538,1.137
					c0.12-0.419,0.299-1.675-1.076-1.795c-0.598,2.332,0.717,1.975,0.777,2.752C99.672,55.761,99.554,54.983,99.194,54.564z
					 M101.646,56.479c-0.419,0.238-0.896,0.777-1.018,1.793c0.359-0.717,1.734,0.061,1.555-2.033
					c-0.598-0.179-1.375,0.121-1.314,0.838C100.869,56.717,101.287,56.479,101.646,56.479z M101.885,54.625
					c-0.299,0.238-0.479,0.598-0.717,1.195c0.538-0.119,1.555-0.299,1.076-1.494c-0.419-0.061-0.718,0.119-0.838,0.598
					C101.526,54.804,101.646,54.744,101.885,54.625z M119.586,19.643c0.537-1.555-0.18-2.871-1.675-3.109
					c-1.913,3.588,0.777,3.826,1.136,5.143c0.3-1.794,0.061-2.93-0.418-3.887C119.406,18.326,119.406,18.984,119.586,19.643z
					 M113.426,29.809c0.18,0.418,0.121,0.717,0,1.195c0.419-0.358,0.838-1.256,0-1.854c-1.375,0.598-0.956,1.734-0.598,2.691
					C113.247,31.064,113.367,30.525,113.426,29.809z M104.337,12.766c-0.06,0.598-0.06,1.137,0.538,1.973
					c-0.06-0.956,0.777-1.973-0.479-2.869c-1.136,0.657-1.076,1.555-0.299,2.512C104.038,13.902,104.098,12.885,104.337,12.766z
					 M104.038,15.217c-0.239-0.717-1.076-0.956-2.272-0.119c0.777,1.914,2.213,0.838,2.99,1.256
					c-0.598-1.076-1.436-1.137-2.152-1.315C103.141,14.918,103.738,15.038,104.038,15.217z"/>
				<path fill="#184822" d="M100.211,64.85c-0.358,0.061-0.657,0.061-1.017,0.12"/>
				<path fill="#184822" d="M121.201,26.998c-1.376,2.512-3.23,3.049-5.98,3.588c2.093-2.094,4.604-6.697,4.484-10.285
					c-0.479,2.631-1.436,4.783-2.152,5.979c0.18-2.093-0.479-3.11-1.675-4.246c1.436,1.854,2.153,4.425,0,6.817
					c-1.375,1.494-2.989,3.229-3.767,4.963c-0.479-8.73-5.263-12.558-0.658-18.059c-1.973,1.315-2.811,5.023-2.332,7.176
					c-1.316-2.751-2.451-4.066-4.426-7.595c1.196,3.349,3.289,5.741,4.785,10.165c-1.496-1.255-4.066-2.152-6.16-2.511
					c5.083,2.033,6.816,2.69,7.773,7.714c0.777,4.126,0.599,6.996-1.613,9.627c-1.615,1.854-4.545,5.023-6.459,7.895
					c0.061-1.376,0.18-2.572-0.359-3.768c1.018,4.126-3.468,8.85-3.468,17.281v3.109c0.359-0.06,0.658-0.06,1.017-0.119
					c0-0.119,0-0.239,0-0.359c0-0.238,0.061-0.418,0.119-0.657c0.299-0.657,0.299-0.957,0.658-1.614
					c-0.479,0.479-0.479,0.657-0.777,1.076c0-6.219,1.137-11.062,4.725-15.787c4.186-5.502,8.191-8.432,11.899-9.209
					c-1.794,0-3.946,0.777-6.1,2.272c2.632-3.647,0.599-4.066,2.751-7.654C115.041,30.107,119.467,31.184,121.201,26.998z"/>
				<path fill="#184822" d="M93.633,56.717c-1.076-1.136-2.989-0.299-2.512-3.707c1.556-0.18,2.332,0.598,2.393,1.854
					c-0.24-0.418-0.718-0.957-1.315-0.957C93.154,54.445,93.693,55.162,93.633,56.717z M92.139,51.216
					c0.358,0.12,0.896,0.777,1.016,1.675c0-1.734-0.537-2.153-1.674-2.393c-0.359,2.033,0.479,2.033,1.137,2.272
					C92.677,51.934,92.377,51.516,92.139,51.216z M95.785,52.531c-0.479,0.299-0.776,1.076-0.717,1.914
					c0.299-0.718,1.615-0.777,1.195-2.512c-0.657,0-1.494,0.119-1.375,1.315C95.009,52.95,95.307,52.592,95.785,52.531z
					 M96.982,50.318c0.119-0.836-0.18-1.854-1.854-1.555c-0.119,2.632,1.376,1.854,1.614,2.811c0.18-1.016-0.059-1.793-0.837-2.392
					C96.443,49.362,96.684,49.841,96.982,50.318z M94.65,43.442c0.717,1.076,0.418,2.032,0.299,2.989
					c0.836-1.793,1.375-3.468-0.897-4.365c-0.718,1.795-1.614,3.109,0.419,5.084C94.53,45.834,94.949,44.639,94.65,43.442z
					 M96.443,46.851c-0.658,0.18-1.017,0.419-1.256,0.957c0.838-0.06,1.795,0.239,2.094-1.077c-0.777-0.119-1.436-0.418-1.734,0.3
					C95.727,46.851,96.085,46.73,96.443,46.851z M81.434,27.535c-0.777,0.24-1.016,0.838-0.717,1.675
					c2.451,0.06,1.495-1.733,2.811-2.033c-1.256,0-2.152,0.599-2.572,1.256C80.836,28.074,81.075,27.835,81.434,27.535z
					 M78.684,25.622c0.658,0.419,1.316,0.778,3.05,0.658c-0.837-1.017-1.913-2.153-3.767-1.256c0.119,1.376,0.776,2.152,2.391,1.675
					C79.58,26.459,79.103,26.34,78.684,25.622z M84.724,13.483c0.598-0.358,1.435-1.196,0.776-2.751
					c-0.657,0.061-1.435,0.658-1.195,1.674c0-0.238,0.18-0.717,0.479-0.896C84.424,12.048,84.365,12.646,84.724,13.483z
					 M80.836,15.936c0.658-0.12,1.615,0,2.033,0.357c-1.256-1.434-2.69-0.717-3.289-0.059c0.719,2.092,2.752,1.435,4.186,1.494
					C83.049,16.413,81.912,16.055,80.836,15.936z M90.225,26.639c-0.598-1.854-2.152-1.854-2.99-1.256
					c0.359,2.691,2.272,1.375,3.229,2.213c-0.419-1.017-1.017-1.555-1.854-1.974C89.387,25.742,89.746,26.101,90.225,26.639z
					 M85.979,26.34c-0.119-1.495,0.838-1.315,1.316-1.854c0.598-0.598,0.717-1.375,0.537-2.512c-2.092-0.359-2.93,0.777-2.631,2.75
					c0.18-0.956,0.479-1.674,1.496-2.212C85.859,23.35,84.963,25.084,85.979,26.34z M80.717,13.842
					c-0.598-0.717-1.555-0.957-2.631,0.239c1.017,1.854,2.093,0.538,3.289,0.837c-0.599-1.076-1.436-1.136-2.033-0.956
					C79.88,13.662,80.299,13.662,80.717,13.842z M84.724,22.453c1.315-0.777,0.897-2.512,0.179-3.408
					c-0.837,0.418-1.674,1.614-0.896,2.75c-0.061-0.358,0.119-1.314,0.418-1.555C84.305,21.018,84.365,21.795,84.724,22.453z
					 M82.152,18.925c0.299,0.06,0.657,0.419,0.777,1.017c0.418-1.195-0.718-2.033-1.734-1.734c-0.419,1.495,0.658,1.914,1.436,2.332
					C82.75,19.643,82.391,19.225,82.152,18.925z M85.5,14.261c-0.418,0.239-0.956,0.956-0.956,2.212
					c2.212-0.896,1.435-2.271,1.854-2.87c-1.495-0.06-1.974,0.538-1.974,1.734C84.604,14.979,84.843,14.381,85.5,14.261z
					 M81.973,12.766c0.119,1.196,0.418,2.451,1.914,3.707c-0.838-1.256,1.674-3.768-1.795-5.143
					c-1.017,0.838-1.494,2.393,0.12,3.708C81.973,14.439,81.733,13.662,81.973,12.766z M90.225,9.178
					c0.299,0.119,0.539,0.718,0.539,1.495c0.418-0.957,0.238-2.093-1.137-2.811c-0.777,0.837-1.495,3.468,0.299,4.186
					C90.644,10.912,90.344,9.955,90.225,9.178z M91.002,11.749c2.871-0.299,4.305-1.196,4.007-3.946
					c-2.213-0.897-3.229,0.657-3.589,2.392c0.3-0.718,1.197-1.734,2.153-1.734C92.677,8.76,91.84,10.074,91.002,11.749z
					 M92.916,33.516c0.479,0.299,0.537,0.837,0.598,1.375c0.419-0.837,0-1.674-0.896-2.152c-0.24,0.718-1.197,1.794,0.179,3.17
					C93.334,35.189,93.154,34.054,92.916,33.516z M93.334,37.343c0.539-0.837,1.914,0.299,2.451-1.376
					c-0.479-0.479-1.494-0.479-1.912,0.3c0.358-0.3,0.836-0.479,1.255-0.3C94.59,36.027,93.693,36.326,93.334,37.343z
					 M99.075,27.715c-0.479,0.18-1.196,0.718-1.376,1.436c1.017-0.598,2.033,0.119,2.094-1.734
					c-0.838-0.418-1.376-0.119-1.675,0.658C98.417,27.835,98.656,27.775,99.075,27.715z M91.898,28.373
					c0.479-0.838,2.99-0.896,1.675-4.066c-1.614,0-2.213,1.256-2.032,2.571c0.179-0.598,0.357-1.196,1.136-1.435
					C92.258,25.922,91.84,26.878,91.898,28.373z M89.088,20.838c2.272-0.418,1.436-1.793,2.691-3.229
					c-1.375-0.479-2.87,0.479-2.87,1.734c0.478-0.897,1.017-1.256,1.794-1.555C89.807,18.566,89.028,19.164,89.088,20.838z
					 M79.701,22.453c-0.659-1.615,1.912-3.588-2.273-6.04c-1.794,2.213-0.18,4.844,1.195,5.681
					c-0.777-0.896-1.435-2.271-1.135-3.707C77.727,19.941,78.804,21.975,79.701,22.453z M93.154,61.681
					c-0.238,1.315,0.359,1.136,0.897,1.435C93.992,62.1,93.873,61.681,93.154,61.681z M81.912,22.572
					c0.658-0.06,1.196,0.359,1.675,0.718c-0.299-0.956-1.614-2.093-2.931-1.196c0.061,2.213,2.452,2.273,3.529,3.051
					C83.766,23.589,82.631,22.812,81.912,22.572z M86.936,16.652c0.418,0.119,0.718,0.718,0.957,1.196
					c0.18-1.196-0.598-2.033-1.794-2.093c-0.957,2.57,1.136,2.93,1.794,3.707C87.952,17.969,87.414,17.25,86.936,16.652z
					 M95.785,31.363c0.24-0.419,0.3-0.957-0.537-1.376c-0.598,0.599-0.777,1.556,0.179,2.033c0.18-0.419,0.12-1.017-0.06-1.495
					C95.666,30.765,95.727,31.004,95.785,31.363z M88.191,12.287c0.419,0.119,0.658,0.896,0.777,1.315
					c0.359-1.854-0.658-2.272-1.734-2.272c-0.06,1.076-0.537,2.811,1.496,3.289C88.61,13.603,88.61,12.885,88.191,12.287z
					 M89.387,37.881c0.42,0.061,0.719,0.418,0.898,0.838c-0.12-1.137-0.599-1.436-1.496-1.376c-0.059,2.332,1.196,1.794,1.615,2.811
					C90.285,39.018,89.807,38.18,89.387,37.881z M89.208,30.586c0.479,0.06,0.837,0.179,1.315,0.717
					c-0.06-1.076-1.256-1.674-2.571-1.256c0.3,3.17,2.213,2.393,2.632,3.35C90.822,32.26,90.165,31.064,89.208,30.586z
					 M87.175,38.897c-1.076-0.956-2.631-0.837-3.169,0.538c1.973,2.033,2.87,0.419,3.768,0.539
					c-0.838-0.898-1.974-1.316-2.871-0.898C85.321,38.599,86.278,38.539,87.175,38.897z M82.81,30.466
					c-0.06,0.897,0.657,1.734,1.136,2.392c0.838-1.973,0.599-3.168-1.375-3.588c-0.299,0.777-0.717,2.033,0.538,2.99
					C83.168,32.08,82.511,31.123,82.81,30.466z M81.613,32.857c-1.136-0.717-2.212-0.06-2.392,0.599
					c2.153,1.495,2.751,0.478,3.468,0.239c-0.537-0.419-1.674-0.718-2.511-0.539C80.357,32.978,81.135,32.918,81.613,32.857z
					 M85.321,29.568c0.419-0.896-0.12-1.854-0.777-2.033c-0.897,1.556-0.12,2.094,0.239,2.691c0.239-0.598,0.299-1.076,0.06-1.914
					C85.082,28.492,85.201,28.971,85.321,29.568z M79.88,30.406c0.358,0.717,0.956,1.137,1.554,1.195
					c-0.598-0.537-0.119-2.033-1.854-1.973c-0.299,0.538-0.358,1.436,0.777,1.794C80.059,31.064,79.82,30.705,79.88,30.406z
					 M86.518,30.047c-0.777,0.658-1.256,1.615-1.196,2.751c0.538-1.375,2.152-0.598,2.032-3.349
					c-0.776-0.239-1.854-0.119-1.913,1.436C85.859,30.346,86.158,30.107,86.518,30.047z"/>
				<path fill="#184822" d="M95.188,61.859c0-2.332,0.658-1.016,0.957-2.989c-0.299,0.956-0.658,1.017-0.957,1.256
					c-0.179-10.046-1.793-10.644,1.555-15.429c-1.375,1.137-2.391,3.289-2.75,4.665c-1.495-5.741-2.871-9.089-1.137-11.841
					c1.734-2.75,4.725-7.534,5.382-10.883c-0.956,3.528-5.083,9.209-6.577,11.541c-0.359-5.859,1.256-9.627-1.555-14.172
					c-2.273-3.648-1.914-8.73,0.896-13.036c-2.152,2.272-3.349,6.997-2.571,10.405c-1.136-1.615-2.99-3.528-4.665-4.485
					c5.322,5.022,6.998,9.209,7.355,12.378c-3.647-2.033-5.262-2.093-5.681-3.229c-0.657-1.854-1.854-4.664-2.511-4.904
					c0.657,0.719,1.794,4.127,2.212,5.621c-2.093-0.956-4.365-2.212-6.1-4.065c1.017,1.375,2.571,2.631,4.066,3.528
					c-1.375,0.358-2.153,0.956-3.946,1.076c2.512,0.299,3.707-1.196,5.382-0.359c5.441,2.931,6.816,1.795,6.518,6.219
					c-0.179,2.752-0.776,5.562,0.181,9.449c-1.795-2.811-3.23-4.664-4.246-5.98c-1.076-1.436-2.512-3.049-1.795-6.578
					c-0.537,1.137-0.478,2.99-0.119,4.127c-2.094-1.974-2.691-2.273-4.604-2.332c4.545,0.777,7.415,7.953,10.644,11.959
					c1.137,1.375,3.17,8.97,3.17,18v3.229c0.359,0,0.658,0.061,1.016,0.061C95.188,63.834,95.188,62.697,95.188,61.859z"/>
				<path fill="#184822" d="M95.188,65.09c-0.358,0-0.657-0.061-1.016-0.061"/>
			</g>
			<g>
				<path fill="#184822" d="M98.896,52.053c0.06-1.016,0.957-1.195,1.794-0.777c-0.538,0.18-0.18,1.316-1.914,1.495
					c0.12-0.538,0.539-1.196,1.077-1.315C99.554,51.455,99.135,51.694,98.896,52.053z M100.988,48.285
					c-1.076,0.777-1.734,2.033-1.854,2.811c0.896-1.375,2.87-0.299,2.571-3.408c-1.675-0.06-2.093,0.598-2.272,1.974
					C99.732,48.943,100.211,48.585,100.988,48.285z M94.53,40.572c-0.837-0.18-1.614,0.238-1.675,1.016
					c0.896,0.299,1.555,0.18,2.332-0.598c-0.537-0.418-1.314-0.119-1.674,0C93.752,40.632,94.172,40.572,94.53,40.572z
					 M105.772,37.881c-0.12,1.076,0.538,2.751,1.376,3.768c-0.061-1.256,1.314-3.827-1.376-5.382
					c-1.077,0.956-1.914,3.05,0.239,4.784C105.652,39.975,105.294,38.658,105.772,37.881z M115.34,26.639
					c-0.718,0.061-1.495,0.718-2.033,1.674c1.137-0.717,2.631,0.18,2.75-2.152c-0.896-0.238-1.733-0.238-2.271,0.897
					C114.144,26.758,114.742,26.459,115.34,26.639z M99.493,40.452c1.913-1.376,0.958-2.153,1.077-3.588
					c-1.436,0.06-2.033,0.897-1.675,2.093c0.06-0.658,0.419-1.256,0.957-1.436C99.373,38,99.016,39.256,99.493,40.452z
					 M101.945,35.31c0.119-1.675-1.017-3.05-3.05-2.392c0,3.826,2.153,2.213,2.571,4.724c0.418-1.854-0.239-3.408-1.195-4.007
					C101.049,33.755,101.646,34.113,101.945,35.31z M100.391,30.885c0.658,0.358,0.837,1.315,1.016,1.794
					c0.3-1.017-0.418-2.333-1.435-2.272c-0.538,1.076,0.06,1.914,0.957,2.152C100.929,31.842,100.75,31.423,100.391,30.885z
					 M98.237,30.824c-0.598,0.419-1.136,1.436-1.076,2.632c0.419-1.256,2.153-0.599,1.614-3.169c-1.315-0.3-1.793,0.657-1.674,1.793
					C97.221,31.602,97.46,31.064,98.237,30.824z M98.417,35.609c-0.299,0.418-0.358,1.314,0,1.912
					c-0.06-0.896,1.196-0.956,0.239-2.391c-0.838,0.179-0.957,0.777-0.598,1.435C97.998,36.267,97.998,35.908,98.417,35.609z
					 M97.102,38.419c-0.299-1.136-1.854-0.956-2.512-0.299c0.479,0.299,0.538,1.974,2.75,1.435
					c-0.179-0.836-0.836-1.314-1.674-1.435C96.384,38,96.862,38.18,97.102,38.419z M94.65,39.854
					c0.119-1.376-0.898-1.495-1.675-1.913c-0.299,0.657-0.479,1.674,0.897,1.793c-0.3-0.238-0.719-0.717-0.719-1.136
					C93.395,38.957,93.395,39.376,94.65,39.854z M105.354,31.722c0.299,0.538,0.419,1.196,0.239,1.734
					c0.358-0.658,1.077-1.734-0.538-2.751c-2.093,2.451-0.06,2.571-0.479,4.186C105.414,33.576,105.473,32.559,105.354,31.722z
					 M106.012,27.835c0.418,0,0.717,0.239,1.016,0.538c0-0.718-0.896-1.076-1.854-0.658c0.359,0.897,0.24,2.094,1.734,2.272
					C107.027,28.612,106.549,28.134,106.012,27.835z M107.805,28.193c0.12-0.837,1.436-0.717,0.539-2.213
					c-0.896,0-1.195,0.838-0.957,1.615c0.119-0.538,0.239-0.838,0.538-1.195C107.686,26.998,107.626,27.416,107.805,28.193z
					 M109.062,28.732c-0.658,0.358-1.017,0.957-1.495,2.631c2.93-0.299,2.033-2.332,2.631-2.931
					c-0.957-0.419-2.272-0.299-2.332,1.495C107.984,29.39,108.583,28.852,109.062,28.732z M109.958,33.814
					c-0.837-0.06-1.555,0.239-3.169,1.436c2.571,0.777,3.289,0.119,4.365-0.957c-0.598-1.017-1.914-1.794-3.17-0.18
					C108.523,33.695,109.36,33.576,109.958,33.814z M97.76,43.143c-0.18-0.896-1.137-1.256-2.033-0.657
					c0.418,1.913,1.555,0.718,2.092,1.794c-0.059-1.495-0.896-1.674-1.375-1.734C96.982,42.485,97.4,42.664,97.76,43.143z
					 M92.976,30.167c0.119,0.657,0.538,1.495,1.435,2.332c-0.537-1.495,0.718-2.512-1.733-3.468
					c-0.778,1.076-0.538,2.451,0.657,2.93C93.273,31.602,92.796,30.824,92.976,30.167z M94.65,27.236
					c0.776,0,1.195,0.299,1.613,0.777c-0.299-1.195-1.314-1.435-2.271-1.076c0,2.452,1.614,1.256,2.392,2.811
					C96.205,28.193,95.427,27.477,94.65,27.236z M97.102,25.802c-0.239,0.299-0.479,1.375-0.299,2.033
					c0.18-0.957,1.375-0.718,0.657-2.452c-0.896,0.061-1.136,0.897-0.896,1.734C96.563,26.639,96.623,26.101,97.102,25.802z
					 M103.201,31.363c1.076-1.018,1.914-2.691,0.837-4.545c-0.718,1.017-2.093,1.137-1.675,2.99
					c0.061-0.419,0.419-1.196,1.137-1.675C102.962,28.792,102.662,30.047,103.201,31.363z M100.151,21.735
					c1.435-0.599,3.468-1.614,3.109-4.903c-1.017-0.119-2.87-0.061-3.169,2.393c0.658-0.957,1.494-1.436,2.152-1.556
					C101.526,17.969,100.031,19.463,100.151,21.735z M97.46,19.702c0.538,0.18,0.778,0.479,1.017,1.077
					c0-1.137-0.358-2.033-1.973-1.975c-0.539,2.99,1.494,2.691,2.212,4.127C98.477,21.078,97.938,20.181,97.46,19.702z
					 M98.477,16.892c0.18,0.239,0.239,0.479,0.359,0.777c0.18-0.657,0.06-1.076-0.479-1.435c-0.539,0.537-0.838,1.614,0.299,2.631
					C98.716,18.027,98.597,17.311,98.477,16.892z M95.606,17.012c0.179-1.615-1.196-2.213-2.452-1.914
					c1.137,1.195,0.24,2.272,1.914,3.289c0.598-1.256,0-2.332-0.717-2.751C95.068,15.756,95.486,16.473,95.606,17.012z
					 M95.009,12.825c0.478,0.239,0.538,0.957,0.657,1.376c0.299-1.018,0-1.914-1.256-2.272c-0.059,1.136-0.418,2.152,0.957,2.81
					C95.367,14.021,95.307,13.244,95.009,12.825z M97.34,14.141c-0.478,0.539-1.135,1.196-0.956,2.871
					c0.538-1.615,2.452-0.838,2.093-3.768c-1.076,0.358-2.213,0.18-2.271,2.033C96.563,14.619,96.742,14.32,97.34,14.141z
					 M96.504,8.46c0.358,0.837,0.956,1.436,1.854,1.913c0.119-1.854-0.718-2.75-1.854-3.348c-0.838,0.837-1.018,2.811,0.896,3.348
					C96.922,9.836,96.504,9.477,96.504,8.46z M99.972,9.596c-0.3,0.777-0.239,1.496,0.18,2.213c1.017-1.375,0.3-2.152,0.419-3.349
					c-1.017,0.3-2.033,1.077-1.316,2.69C99.373,10.434,99.493,10.015,99.972,9.596z M92.497,15.875
					c-0.538-1.076,0.837-2.272-0.718-3.707c-1.136,0.777-1.375,2.512-0.238,3.169c-0.121-0.599-0.359-1.196,0-2.093
					C91.6,14.021,91.48,14.738,92.497,15.875z M92.377,22.692c-0.836-0.3-1.555,0.239-1.733,1.136
					c1.974,0.896,1.974-0.538,3.05-0.837c-1.137-0.12-1.734,0-2.393,0.419C91.48,23.051,91.959,22.752,92.377,22.692z
					 M93.395,18.865c-0.479-0.539-1.196-0.359-1.615,0.119c0.299,0.539,1.076,1.196,2.153,0.658
					c-0.359-0.479-0.897-0.658-1.315-0.777C92.855,18.805,93.095,18.805,93.395,18.865z M91.48,15.875
					c-0.658-0.717-1.555-0.479-2.094,0.119c0.898,0.359,1.197,1.555,2.812,0.897c-0.479-0.657-1.137-0.897-1.675-1.076
					C90.764,15.815,91.121,15.815,91.48,15.875z M93.573,21.137c0.3,0.42,0.599,1.137,2.033,1.376
					c-0.657-0.479-0.3-2.032-2.333-2.153c-0.478,0.658-0.179,1.795,0.659,1.975C93.752,22.034,93.514,21.615,93.573,21.137z
					 M90.644,21.557c0.358,0.299,0.897,0.657,1.794,0.537c-0.658-0.18-0.838-1.314-2.152-0.957c-0.18,0.539,0.238,1.316,1.075,1.256
					C91.121,22.214,90.703,21.914,90.644,21.557z M96.085,23.769c-1.196-0.657-1.974,0.358-1.794,1.196
					c0.777,0.299,2.152,0.717,3.289-0.419c-0.777-0.599-2.033-0.599-2.571-0.239C95.128,23.947,95.666,23.828,96.085,23.769z
					 M112.828,27.655c0.838-0.956,0.777-2.811-1.076-3.288c0.18,0.836-0.418,1.613-0.418,2.212c0.06,1.017,0.836,1.435,0.358,2.332
					c0.478-0.479,1.376-1.794,0.718-3.588C113.068,26.221,113.127,26.998,112.828,27.655z M96.384,56.957
					c0.06-0.897-0.479-1.137-1.136-1.256c-0.239,2.69,0.717,1.494,1.076,2.631c0-1.076-0.239-1.794-0.479-2.033
					C96.025,56.359,96.264,56.717,96.384,56.957z M98.537,59.768c-0.24,0.299-0.419,0.717-0.479,1.195
					c0.299-0.658,1.136-0.418,0.777-1.734c-0.539,0-0.838,0.18-0.897,1.018C98.118,60.186,98.297,59.768,98.537,59.768z
					 M98.537,11.689c-0.539-0.718-2.094-0.658-2.512,0.239c1.136,1.255,2.152,0.06,3.169,0.478
					c-0.479-0.537-1.555-0.836-2.152-0.836C97.46,11.45,97.998,11.45,98.537,11.689z M101.467,12.048
					c0.119,0.358,0.18,0.599,0.119,1.077c0.718-0.539,0.479-1.316-0.119-1.795c-1.195,0.838-0.538,1.615-0.299,2.213
					C101.406,13.064,101.406,12.526,101.467,12.048z M103.738,10.015c0.42-0.837-0.059-1.854-1.135-2.332
					c-1.615,1.734-0.3,2.452,0.418,3.528c0.598-1.137,0.299-2.033,0.061-2.512C103.56,9.059,103.68,9.596,103.738,10.015z
					 M107.148,9.297c-1.137,0.24-2.512,1.018-3.11,2.213c1.854-1.076,3.528,0.658,4.365-2.393c-1.733-0.896-3.169-0.418-3.647,0.957
					C105.772,9.477,106.131,9.237,107.148,9.297z"/>
				<path fill="#184822" d="M97.879,65.09c-0.479,0-0.957,0.059-1.436,0.059"/>
				<path fill="#184822" d="M105.115,36.087c3.587-3.708,6.696-5.322,8.311-8.73c-2.811,3.588-4.305,3.946-6.277,5.562
					c-0.359-1.076,0.597-2.751,0.179-4.904c0,2.452-0.897,4.127-1.136,5.143c-0.359,1.316-1.914,2.094-3.051,3.588
					c0.359-1.854,0.24-4.365-1.016-7.176c-2.871-6.518-2.99-10.404-1.854-13.395c0.836-2.152,2.93-2.93,4.484-7.414
					c-2.033,4.065-2.931,4.125-4.246,5.74c0.18-1.555-0.479-3.229-2.271-3.827c2.033,1.555,2.213,2.811,1.494,4.903
					c-0.598,1.734-1.375,5.322-0.359,9.09c-6.518-6.279-2.391-5.801-3.588-10.047c0.24,2.213-0.358,3.528-0.717,4.964
					c-1.076-1.495-2.332-2.931-3.289-4.126c1.494,2.57,3.469,5.561,5.502,7.773c-1.496-0.359-4.365-1.017-5.023-0.896
					c5.86,0.956,6.697,1.973,8.91,7.594c2.332,5.801,0.358,8.014-1.675,13.036c-0.299-3.468-2.212-5.8-2.571-9.269
					c-0.18-2.094,0.061-4.903-0.358-6.459c0.239,1.316-0.239,5.741,0.179,8.133c-0.957-1.674-2.092-2.75-3.289-3.289
					c3.23,2.213,4.665,8.014,4.665,9.568c-1.017-1.196-2.452-1.674-4.366-1.734c2.691,0.598,4.785,1.555,4.545,4.783
					c-0.179,2.213-1.793,5.383-1.793,17.701c-0.838-0.359-0.419-0.838-1.137-1.017c0.239,0.239,0.359,0.598,0.418,0.897
					c0.061,0.299,0.719,0.358,0.719,1.375c0,0.418,0,0.837,0,1.375c0.479,0,0.956,0,1.435-0.06c0-0.12,0-0.239,0-0.358
					c0-0.24,0.18-1.137,0.957-1.436c-0.12-0.061-0.299-0.061-0.419,0c0.12-0.18,0.239-0.479,0.18-0.896
					c-0.479,0.478-0.299,0.717-0.299,0.956c-0.18,0.06-0.299,0.179-0.419,0.299C97.879,46.73,102.424,38.897,105.115,36.087z"/>
			</g>
		</g>
		<g>
			<path fill="#465661" d="M58.113,87.154c0.598,0,1.674,0.061,3.229,0c0.24,0,0.359-0.059,0.419-0.059s0.06,0,0.06,0.059
				l-0.06,0.658v0.479c0,0.06-0.06,0.06-0.06,0.119l-0.061-0.06c0-0.239-0.059-0.358-0.059-0.478c-0.061-0.061-0.12-0.12-0.24-0.18
				c-0.18-0.061-0.358-0.061-0.538-0.061h-0.956l0,0v2.213h1.375l0.239-0.061l0.179-0.179c0.061,0,0.061,0,0.061,0.06
				c-0.061,0.359-0.061,0.777-0.119,1.256c0,0.061-0.061,0.061-0.061,0.061h-0.06c0-0.24-0.06-0.419-0.06-0.479
				c-0.12-0.12-0.18-0.18-0.24-0.18c-0.179-0.061-0.598-0.061-1.314-0.061v2.153c0,0.239,0.059,0.358,0.179,0.419
				c0.12,0.06,0.239,0.06,0.419,0.119c0.538,0.061,0.957,0,1.137-0.119l0.179-0.12l0.12-0.239l0.059-0.299
				c0.061-0.06,0.061-0.06,0.12-0.06v0.119c0,0.239-0.06,0.538-0.12,0.837c-0.059,0.24-0.179,0.359-0.418,0.299l-2.033-0.059h-1.316
				l-0.059-0.061c0-0.06,0-0.06,0-0.06l0.418-0.06c0.119,0,0.18-0.119,0.239-0.299c0.06-0.539,0.06-0.838,0.06-1.018v-3.945
				c0-0.24-0.06-0.359-0.119-0.42c-0.119-0.059-0.239-0.119-0.299-0.119h-0.358c-0.061,0-0.061-0.06-0.061-0.06
				C57.993,87.154,58.054,87.154,58.113,87.154z"/>
			<path fill="#465661" d="M63.136,91.998c0,0,0.06,0,0.06,0.061c0.061,0.598,0.3,0.957,0.778,1.076c0.179,0,0.299,0,0.478-0.061
				c0.24-0.119,0.42-0.299,0.479-0.598c0-0.119,0-0.239,0-0.299s-0.059-0.119-0.119-0.299l-0.119-0.18l-0.3-0.299
				c-0.418-0.299-0.657-0.538-0.777-0.658c-0.119-0.119-0.239-0.299-0.358-0.418c-0.239-0.539-0.239-1.017,0-1.375
				c0.239-0.359,0.598-0.539,1.136-0.599c0.239,0,0.479,0,0.778,0.06c0.238,0.061,0.299,0.061,0.299,0.12v0.478v0.479
				c0,0.061,0,0.12-0.061,0.12c-0.06,0-0.06,0-0.06,0l-0.06-0.299c-0.061-0.239-0.24-0.358-0.418-0.479
				c-0.121-0.06-0.3-0.06-0.539-0.06c-0.358,0.06-0.538,0.238-0.598,0.598v0.119c0,0.12,0.06,0.18,0.06,0.24l0.12,0.179l0.238,0.239
				c0.479,0.359,0.719,0.598,0.777,0.658c0.598,0.538,0.777,1.195,0.539,1.854c-0.24,0.538-0.719,0.837-1.376,0.896
				c-0.179,0-0.358,0-0.538,0s-0.299-0.06-0.359-0.06c-0.119-0.06-0.238-0.12-0.238-0.12l-0.061-0.059c0-0.24,0-0.599,0.061-1.018
				C63.076,92.059,63.136,91.998,63.136,91.998z"/>
			<path fill="#465661" d="M66.664,88.291c0,0,0.18,0.06,0.479,0.06h3.109l0.359-0.06c0.059,0,0.059,0,0.059,0v0.957
				c0,0.06-0.059,0.06-0.059,0.06h-0.061v-0.06v-0.24c-0.059-0.179-0.239-0.238-0.538-0.299c-0.299,0-0.657,0-1.076,0v3.528
				c0,0.419,0,0.658,0.06,0.778c0,0.119,0.06,0.179,0.119,0.179l0.18,0.06h0.3c0.06,0,0.119,0,0.119,0.061
				c0,0.059,0,0.059-0.06,0.119c-1.076,0-1.734,0-1.914,0c-0.06,0-0.119,0-0.119-0.061c0-0.059,0-0.059,0.06-0.059
				c0.239,0,0.358,0,0.419-0.061c0.06-0.06,0.119-0.299,0.119-0.777V88.77h-1.195c-0.18,0-0.3,0.06-0.359,0.119l-0.18,0.18
				l-0.06,0.18c-0.06,0.06-0.12,0.06-0.12,0c0-0.061,0-0.18,0.061-0.539c0.06-0.238,0.06-0.418,0.119-0.418
				C66.545,88.23,66.604,88.23,66.664,88.291z"/>
			<path fill="#465661" d="M71.508,88.291h0.598h0.598h0.539l0.06,0.06c0,0.06,0,0.06,0,0.06c-0.18,0-0.3,0.061-0.358,0.061
				c-0.12,0.06-0.12,0.238-0.12,0.537v3.588c0,0.359,0.06,0.539,0.12,0.539l0.059,0.06l0.539,0.06c0,0,0.06,0.061,0,0.119
				l-0.119,0.061h-1.077h-0.837l-0.061-0.061v-0.059l0.061-0.061c0.18,0,0.299,0,0.359-0.06c0.059-0.06,0.119-0.12,0.119-0.239
				c0.061-0.418,0.061-0.718,0.061-0.837v-3.409c0-0.119-0.061-0.179-0.121-0.238l-0.059-0.061l-0.299-0.06
				c-0.061,0-0.061-0.06-0.061-0.12V88.291z"/>
			<path fill="#465661" d="M74.259,88.291c0.657,0,1.255,0,1.913,0l0.061,0.06c0,0.06,0,0.06,0,0.06l-0.359,0.061l-0.119,0.06
				c-0.061,0.06-0.12,0.12-0.12,0.239v0.837v2.452c0,0.479,0.06,0.717,0.12,0.837c0.06,0.06,0.238,0.12,0.538,0.179
				c0.419,0,0.657,0,0.718,0c0.119,0,0.238-0.059,0.299-0.179c0.059-0.12,0.119-0.3,0.18-0.479l0.059-0.06
				c0.061,0,0.061,0.06,0.061,0.06c-0.061,0.538-0.061,0.837-0.119,0.956c-0.061,0.061-0.18,0.061-0.359,0.061l-1.615-0.061h-1.195
				l-0.06-0.059v-0.061l0.06-0.06c0.238,0,0.358,0,0.418-0.06c0.061-0.119,0.12-0.359,0.12-0.777v-3.528
				c0-0.179-0.06-0.299-0.12-0.358c-0.06-0.061-0.238-0.12-0.478-0.12C74.199,88.351,74.199,88.351,74.259,88.291z"/>
			<path fill="#465661" d="M80.656,88.291c0.419,0,0.838,0,1.197,0.119c0.956,0.359,1.494,1.076,1.555,2.153
				c0,0.837-0.24,1.555-0.719,2.093c-0.299,0.239-0.537,0.418-0.836,0.538c-0.24,0.12-0.539,0.179-0.898,0.179
				c-0.418,0-0.776-0.059-1.135-0.179c-0.957-0.358-1.496-1.136-1.555-2.272c0-0.777,0.238-1.436,0.717-1.973
				C79.401,88.59,80,88.351,80.656,88.291z M79.162,90.504c0,0.18,0,0.358,0.06,0.657c0.06,0.358,0.12,0.657,0.299,0.897
				c0.181,0.358,0.419,0.598,0.658,0.777c0.179,0.119,0.478,0.18,0.776,0.238c0.3,0,0.539,0,0.778-0.119
				c0.538-0.239,0.837-0.837,0.897-1.674c0.059-0.838-0.12-1.436-0.419-1.914c-0.3-0.418-0.718-0.658-1.257-0.717
				c-0.299,0-0.598,0-0.776,0.119C79.461,89.008,79.162,89.606,79.162,90.504z"/>
			<path fill="#465661" d="M85.44,87.334h1.436h0.956c0.24,0,0.42,0.061,0.599,0.061c0.419,0.119,0.718,0.299,0.837,0.479
				c0.18,0.238,0.299,0.478,0.299,0.777c0,0.418-0.06,0.836-0.299,1.135c-0.119,0.18-0.239,0.359-0.358,0.42l-0.419,0.418
				l1.256,1.614c0.359,0.419,0.539,0.658,0.718,0.778l0.12,0.119c0.18,0.119,0.418,0.18,0.776,0.238c0.06,0.061,0.06,0.061,0,0.12
				h-0.118c-0.42,0-0.778,0-1.197,0c-0.238-0.06-0.418-0.12-0.658-0.299c-0.179-0.179-0.418-0.419-0.656-0.777l-0.898-1.315
				c-0.059-0.061-0.119-0.119-0.179-0.119c-0.419,0-0.718,0-0.777,0c0,1.076,0,1.793,0.06,2.092c0.061,0.12,0.119,0.18,0.18,0.18
				l0.598,0.061c0.061,0.059,0,0.119-0.06,0.119c-0.897,0-1.675,0-2.272,0l-0.06-0.061c0-0.059,0-0.059,0-0.059l0.358-0.061
				c0.12,0,0.18-0.119,0.18-0.299c0.061-0.479,0.061-0.837,0.061-0.957v-3.946c0-0.239-0.061-0.358-0.12-0.419
				c-0.12-0.06-0.239-0.119-0.239-0.119h-0.359c-0.06,0-0.06-0.061-0.06-0.061C85.381,87.334,85.381,87.334,85.44,87.334z
				 M87.055,87.812v2.631c0.061,0.061,0.18,0.12,0.479,0.12c0.24,0,0.479,0,0.599-0.06c0.358-0.18,0.538-0.599,0.599-1.196
				c0-0.897-0.359-1.435-1.018-1.555C87.354,87.693,87.115,87.693,87.055,87.812z"/>
			<path fill="#465661" d="M92.438,88.351c0.479,0,1.314,0,2.631,0c0.18,0,0.299-0.06,0.358-0.06s0.06,0,0.06,0.06l-0.06,0.538
				v0.359c0,0.06,0,0.06-0.06,0.06l-0.061-0.06c0-0.18-0.059-0.299-0.059-0.359c-0.061-0.06-0.12-0.119-0.18-0.119
				c-0.119-0.061-0.239-0.061-0.418-0.061h-0.777l0,0v1.795h1.136l0.179-0.061l0.119-0.119c0.061,0,0.061,0,0.061,0.06
				c-0.061,0.3-0.061,0.599-0.061,1.017c0,0.061-0.059,0.061-0.059,0.061h-0.061c0-0.18,0-0.3-0.06-0.359
				c-0.06-0.061-0.119-0.119-0.179-0.119c-0.12-0.061-0.479-0.061-1.076-0.061v1.734c0,0.18,0.06,0.299,0.179,0.359
				c0.06,0.059,0.18,0.059,0.358,0.059c0.479,0,0.777,0,0.957-0.059l0.119-0.12l0.12-0.18l0.06-0.239c0-0.06,0.061-0.06,0.119-0.06
				v0.06c0,0.18-0.059,0.419-0.059,0.718c-0.061,0.239-0.18,0.299-0.359,0.239l-1.674-0.061h-1.076l-0.061-0.059
				c0-0.061,0-0.061,0-0.061h0.239c0.06,0,0.12-0.119,0.18-0.238c0.06-0.42,0.06-0.658,0.06-0.838v-3.229
				c0-0.18-0.06-0.299-0.119-0.359c-0.12-0.06-0.18-0.119-0.239-0.06h-0.3c-0.06,0-0.06-0.06-0.06-0.06
				C92.377,88.351,92.377,88.351,92.438,88.351z"/>
			<path fill="#465661" d="M96.563,91.998c0,0,0.06,0,0.06,0.061c0.061,0.598,0.299,0.957,0.777,1.076c0.18,0,0.299,0,0.479-0.061
				c0.239-0.119,0.418-0.299,0.479-0.598c0-0.119,0-0.239,0-0.299s-0.061-0.119-0.119-0.299l-0.12-0.18l-0.3-0.299
				c-0.418-0.299-0.657-0.538-0.776-0.658c-0.12-0.119-0.239-0.299-0.358-0.418c-0.24-0.539-0.24-1.017,0-1.375
				c0.238-0.359,0.656-0.539,1.135-0.599c0.24,0,0.479,0,0.778,0.06c0.239,0.061,0.299,0.061,0.299,0.12v0.478v0.479
				c0,0.061,0,0.12-0.06,0.12c-0.061,0-0.061,0-0.061,0l-0.059-0.299c-0.061-0.239-0.24-0.358-0.42-0.479
				c-0.119-0.06-0.299-0.06-0.537-0.06c-0.359,0.06-0.539,0.238-0.599,0.598v0.119c0,0.12,0.06,0.18,0.06,0.24l0.119,0.179
				l0.24,0.239c0.479,0.359,0.717,0.598,0.777,0.658c0.598,0.538,0.777,1.195,0.538,1.854c-0.239,0.538-0.718,0.837-1.376,0.896
				c-0.18,0-0.358,0-0.537,0c-0.18,0-0.299-0.06-0.359-0.06c-0.119-0.06-0.239-0.12-0.239-0.12l-0.06-0.059c0-0.24,0-0.599,0-1.018
				C96.504,92.059,96.563,91.998,96.563,91.998z"/>
			<path fill="#465661" d="M99.853,88.291h0.599h0.598h0.537l0.061,0.06c0,0.06,0,0.06,0,0.06c-0.18,0-0.299,0.061-0.359,0.061
				c-0.119,0.06-0.119,0.238-0.119,0.537v3.588c0,0.359,0.06,0.539,0.119,0.539l0.061,0.06l0.537,0.06c0,0,0.061,0.061,0,0.119
				l-0.119,0.061h-1.076h-0.837l-0.06-0.061v-0.059l0.06-0.061c0.179,0,0.299,0,0.358-0.06c0.061-0.06,0.119-0.12,0.119-0.239
				c0.061-0.418,0.061-0.718,0.061-0.837v-3.409c0-0.119-0.061-0.179-0.119-0.238l-0.061-0.061l-0.299-0.06
				c-0.06,0-0.06-0.06-0.06-0.12V88.291z"/>
			<path fill="#465661" d="M102.604,88.351h0.896h1.436c0.418,0,0.717,0.06,0.837,0.06c0.657,0.12,1.136,0.359,1.495,0.777
				c0.358,0.419,0.478,0.897,0.537,1.496c0,0.238,0,0.537-0.06,0.777c-0.298,1.314-1.255,1.973-2.81,2.032l-0.777-0.06l-0.42-0.061
				h-1.076l-0.059-0.059c0-0.061,0-0.061,0-0.061l0.299-0.06c0.06,0,0.119-0.12,0.18-0.239c0.059-0.418,0.059-0.658,0.059-0.837
				v-3.229c0-0.18-0.059-0.299-0.119-0.358c-0.119-0.06-0.18-0.12-0.239-0.12h-0.299c-0.06,0-0.06-0.06-0.06-0.06
				C102.543,88.351,102.604,88.291,102.604,88.351z M103.979,89.068c0,2.332,0,3.527,0.06,3.707s0.299,0.299,0.718,0.359
				c0.359,0,0.718,0,1.017-0.119c0.239-0.061,0.419-0.18,0.538-0.3c0.18-0.179,0.359-0.419,0.479-0.657
				c0.06-0.18,0.119-0.419,0.18-0.838c0-0.479,0-0.837-0.12-1.136c-0.06-0.239-0.179-0.479-0.358-0.657
				c-0.119-0.18-0.299-0.3-0.419-0.42c-0.358-0.179-0.777-0.357-1.256-0.418c-0.358,0-0.657,0-0.718,0.061l-0.06,0.06
				L103.979,89.068z"/>
			<path fill="#465661" d="M108.643,88.351c0.479,0,1.315,0,2.631,0c0.18,0,0.299-0.06,0.359-0.06c0.06,0,0.06,0,0.06,0.06
				l-0.06,0.538v0.359c0,0.06,0,0.06-0.061,0.06l-0.059-0.06c0-0.18-0.061-0.299-0.061-0.359c-0.06-0.06-0.119-0.119-0.18-0.119
				c-0.119-0.061-0.238-0.061-0.418-0.061h-0.777l0,0v1.795h1.136l0.18-0.061l0.12-0.119c0.059,0,0.059,0,0.059,0.06
				c-0.059,0.3-0.059,0.599-0.059,1.017c0,0.061-0.061,0.061-0.061,0.061h-0.06c0-0.18-0.06-0.3-0.06-0.359
				c-0.061-0.061-0.12-0.119-0.18-0.119c-0.119-0.061-0.479-0.061-1.076-0.061v1.734c0,0.18,0.059,0.299,0.179,0.359
				c0.06,0.059,0.18,0.059,0.358,0.059c0.479,0,0.778,0,0.898-0.059l0.119-0.12l0.119-0.18l0.06-0.239c0-0.06,0.06-0.06,0.12-0.06
				v0.06c0,0.18-0.061,0.419-0.061,0.718c-0.06,0.239-0.179,0.299-0.357,0.239l-1.676-0.061h-1.075l-0.061-0.059
				c0-0.061,0-0.061,0-0.061l0.3-0.06c0.059,0,0.119-0.12,0.179-0.239c0.06-0.418,0.06-0.658,0.06-0.837v-3.229
				c0-0.18-0.06-0.299-0.119-0.358c-0.119-0.06-0.18-0.12-0.239-0.06h-0.299c-0.06,0-0.06-0.061-0.06-0.061
				C108.583,88.351,108.583,88.351,108.643,88.351z"/>
			<path fill="#465661" d="M113.547,88.291l1.375,1.555l0.896,0.896l1.195,1.316l0.061,0.06h0.06l-0.06-3.11
				c0-0.238-0.061-0.418-0.119-0.478l-0.12-0.06l-0.358-0.061c0-0.06,0-0.06,0-0.119h0.059h1.018h0.537l0.061,0.06v0.06h-0.061
				c-0.179,0-0.298,0-0.357,0.061l-0.061,0.119c-0.06,0.119-0.06,0.239-0.06,0.418l-0.06,4.365c0,0.061-0.061,0.061-0.061,0.12
				c-0.059,0-0.119,0-0.179-0.06c-0.358-0.359-1.137-1.196-2.452-2.512l-1.076-1.195l0,0l0.06,2.989c0,0.3,0.06,0.419,0.12,0.479
				l0.06,0.06l0.179,0.061c0.18,0,0.3,0,0.3,0.059c0,0.061-0.06,0.12-0.18,0.12h-0.956h-0.719c0,0-0.059,0-0.059-0.06
				c0-0.061,0-0.061,0-0.061c0.059,0,0.119,0,0.238,0l0.18-0.059c0.119-0.061,0.18-0.24,0.18-0.539l0.06-3.826V88.41h0.3V88.291z"/>
			<path fill="#465661" d="M121.32,88.291c0.299,0,0.717,0,1.195,0.06c0.359,0.06,0.539,0.12,0.658,0.12l0.06,0.06l-0.06,0.478
				v0.658c0,0.061,0,0.119-0.061,0.119h-0.059l-0.061-0.119c0-0.418-0.239-0.717-0.658-0.896c-0.358-0.119-0.717-0.18-1.195-0.119
				c-0.299,0.06-0.479,0.119-0.658,0.238c-0.119,0.061-0.239,0.18-0.359,0.359c-0.238,0.299-0.357,0.777-0.418,1.315
				c0,0.358,0,0.718,0.119,1.017c0.061,0.238,0.18,0.479,0.359,0.658c0.358,0.478,0.837,0.777,1.375,0.836
				c0.3,0,0.539,0,0.718-0.059c0.239-0.061,0.358-0.12,0.479-0.24l0.179-0.18c0.061-0.179,0.121-0.299,0.18-0.418
				c0.061-0.06,0.12-0.06,0.12,0c0,0.18-0.06,0.479-0.12,0.838c0,0.119-0.059,0.179-0.119,0.238c-0.18,0.119-0.479,0.18-1.017,0.18
				c-0.598,0-1.076-0.061-1.436-0.18c-0.538-0.18-0.956-0.479-1.255-0.957c-0.24-0.357-0.419-0.836-0.419-1.314
				s0.06-0.838,0.179-1.137c0-0.061,0.12-0.239,0.24-0.479C119.766,88.709,120.423,88.351,121.32,88.291z"/>
			<path fill="#465661" d="M124.131,88.291h0.598h0.598h0.539l0.059,0.06c0,0.06,0,0.06,0,0.06c-0.179,0-0.299,0.061-0.358,0.061
				c-0.12,0.06-0.12,0.238-0.12,0.537v3.588c0,0.359,0.061,0.539,0.12,0.539l0.06,0.06l0.539,0.06c0,0,0.059,0.061,0,0.119
				l-0.12,0.061h-1.077h-0.836l-0.061-0.061v-0.059l0.061-0.061c0.179,0,0.299,0,0.357-0.06c0.061-0.06,0.12-0.12,0.12-0.239
				c0.06-0.418,0.06-0.718,0.06-0.837v-3.409c0-0.119-0.06-0.179-0.119-0.238l-0.061-0.061l-0.299-0.06
				c-0.059,0-0.059-0.06-0.059-0.12V88.291z"/>
			<path fill="#465661" d="M129.273,88.351c0.059,0,0.119,0,0.18,0.12l1.613,4.125c0.12,0.24,0.18,0.359,0.24,0.42
				c0.059,0.119,0.179,0.179,0.238,0.179c0.12,0,0.24,0.06,0.359,0.06h0.06c0,0.061,0,0.061-0.06,0.061h-0.239
				c-0.897,0-1.376,0-1.376-0.061v-0.06c0.061,0,0.061-0.06,0.121-0.06c0,0,0.059-0.061,0.059-0.119l-0.537-1.436h-0.061h-1.436
				l-0.06,0.06l-0.358,1.017l-0.061,0.239c0,0.12,0,0.179,0.061,0.239l0.06,0.06c0.179,0,0.239,0,0.299,0c0,0.06,0,0.06-0.06,0.12
				c-0.419,0-0.957,0-1.555,0l-0.061-0.061v-0.06h0.061c0.18,0,0.299,0,0.418-0.12c0.12-0.059,0.18-0.238,0.299-0.537l1.555-4.127
				C129.213,88.41,129.213,88.41,129.273,88.351z M128.555,91.341L128.555,91.341l1.197,0.06l-0.599-1.674l-0.06,0.059
				L128.555,91.341z"/>
			<path fill="#465661" d="M132.741,88.291c0.657,0,1.256,0,1.913,0l0.061,0.06c0,0.06,0,0.06,0,0.06l-0.359,0.061l-0.119,0.06
				c-0.06,0.06-0.119,0.12-0.119,0.239v0.837v2.452c0,0.479,0.06,0.717,0.119,0.837c0.061,0.06,0.239,0.12,0.537,0.179
				c0.42,0,0.659,0,0.719,0c0.119,0,0.239-0.059,0.299-0.179c0.061-0.12,0.119-0.3,0.18-0.479l0.06-0.06c0.06,0,0.06,0.06,0.06,0.06
				c-0.06,0.538-0.06,0.837-0.119,0.956c-0.061,0.061-0.18,0.061-0.359,0.061l-1.614-0.061h-1.196l-0.06-0.059v-0.061l0.06-0.06
				c0.239,0,0.359,0,0.419-0.06c0.06-0.119,0.12-0.359,0.12-0.777v-3.528c0-0.179-0.061-0.299-0.12-0.358
				c-0.06-0.061-0.239-0.12-0.479-0.12C132.621,88.351,132.621,88.351,132.741,88.291z"/>
		</g>
		<g>
			<path fill="#465661" d="M142.549,89.367c-1.556,0-2.871,1.137-3.051,2.691c0.539-0.24,1.256-0.479,1.974-0.598v-1.018h-0.718
				l0.061-0.238h1.734l-0.061,0.238h-0.658V91.4c0.121,0,0.24,0,0.359-0.06l0.119,0.179c0,0.061,0,0.061,0,0.12
				c-0.119,0-0.299,0-0.418,0v0.299c0.238,0,0.479,0,0.658,0l0,0l0.119-0.299h-0.061c-0.059,0-0.119,0-0.238,0
				c-0.061,0.12-0.119,0.12-0.18,0.12h-0.061v-0.061c0.061,0,0.121,0,0.18-0.119V91.52l-0.18-0.479c0-0.059-0.059-0.119-0.119-0.119
				l0,0h0.119c0.061,0,0.121,0.061,0.18,0.119l0.12,0.359l0,0l0,0l0.179-0.418h0.061l-0.18,0.418c0.061,0,0.061,0,0.119,0
				c0.061,0,0.12,0,0.18,0l0.538-1.195h0.12l0.538,1.314c0.599,0.12,1.196,0.359,1.675,0.539c-0.479-0.119-1.017-0.24-1.615-0.299
				v0.059c0.061,0.121,0.061,0.18,0.12,0.24l0,0c0.538,0.06,1.017,0.06,1.495,0.119C145.418,90.563,144.104,89.367,142.549,89.367z"
				/>
			<path fill="#465661" d="M139.438,92.118c0.599-0.06,1.315-0.12,1.974-0.18V91.64c-0.718,0.06-1.375,0.239-1.974,0.358
				C139.498,92.059,139.498,92.118,139.438,92.118z"/>
			<path fill="#465661" d="M143.564,91.461l-0.358-0.897l-0.358,0.777c0.119,0,0.299,0,0.418,0.06l0,0
				c0.06,0.061,0.119,0.18,0.18,0.239c-0.239,0-0.479-0.06-0.718-0.06l-0.12,0.299c0.419,0,0.838,0,1.196,0.06
				c-0.06-0.06-0.06-0.12-0.119-0.179L143.564,91.461z"/>
		</g>
	</g>
</g>
</svg>
