<?xml version="1.0" encoding="utf-8"?>
<!-- Generator: Adobe Illustrator 16.0.0, SVG Export Plug-In . SVG Version: 6.00 Build 0)  -->
<!DOCTYPE svg PUBLIC "-//W3C//DTD SVG 1.1//EN" "http://www.w3.org/Graphics/SVG/1.1/DTD/svg11.dtd">
<svg version="1.1" id="Layer_1" xmlns="http://www.w3.org/2000/svg" xmlns:xlink="http://www.w3.org/1999/xlink" x="0px" y="0px"
	 width="194.812px" height="100.537px" viewBox="0 0 194.812 100.537" enable-background="new 0 0 194.812 100.537"
	 xml:space="preserve">
<path fill="#FFFFFF" d="M186.973,100.537H7.84c-4.33,0-7.84-3.51-7.84-7.84V7.839C0,3.51,3.51,0,7.84,0h179.133
	c4.33,0,7.84,3.51,7.84,7.839v84.858C194.812,97.027,191.303,100.537,186.973,100.537z"/>
<g>
	<path fill="#AF3625" d="M53.727,42.275c0.002-0.006,4.453-16.51,29.033-15.903s24.479,9.104,59.577,11.935
		c0,0-14.766,5.979-37.222-3.992c-10.137-4.5-21.1-6.539-32.109-4.879c-6.013,0.904-11.138,3.47-15.304,7.875
		C56.547,38.534,54.172,40.635,53.727,42.275z"/>
	<path fill="#AF3625" d="M85.594,30.819c0,0,9.912,0.706,20.332,7.282c7.559,4.771,17.876,8.379,26.904,6.174
		c2.024-0.492,4.586-1.578,6.105-3.062c1.037-1.015,2.603-1.697,3.405-2.906c-3.013,4.822-8.989,7.316-14.466,7.586
		c-7.781,0.379-15.676-2.531-22.307-6.424c-3.088-1.816-6.166-3.562-9.471-4.951c-1.599-0.674-3.221-1.294-4.855-1.873
		C89.539,32.048,87.395,30.952,85.594,30.819z"/>
	<path fill="#AF3625" d="M18.934,73.219V49.752h2.295v23.467H18.934z"/>
	<path fill="#AF3625" d="M41.747,73.066h-2.771v-2.1c-1.266,0.711-1.947,1.1-2.05,1.156c-1.542,0.797-3.155,1.191-4.839,1.191
		c-1.68,0-3.287-0.395-4.817-1.191c-1.528-0.792-2.717-1.906-3.558-3.332c-0.842-1.428-1.262-2.927-1.262-4.491
		c0-1.588,0.432-3.106,1.29-4.552c0.86-1.447,2.058-2.557,3.595-3.334c1.538-0.777,3.121-1.162,4.752-1.162
		c1.62,0,3.201,0.385,4.745,1.153c0.14,0.086,0.853,0.475,2.144,1.177V55.5h2.771V73.066z M29.092,58.719
		c-1.1,0.545-1.955,1.338-2.572,2.371c-0.612,1.039-0.92,2.125-0.92,3.262c0,1.105,0.301,2.166,0.9,3.187
		c0.604,1.02,1.451,1.816,2.545,2.39c1.092,0.574,2.235,0.863,3.426,0.863c1.199,0,2.344-0.289,3.433-0.863
		c1.088-0.573,1.935-1.37,2.542-2.385c0.605-1.01,0.91-2.077,0.91-3.191c0-1.137-0.309-2.223-0.93-3.262
		c-0.619-1.033-1.477-1.826-2.57-2.371c-1.096-0.545-2.224-0.819-3.385-0.819C31.318,57.899,30.194,58.174,29.092,58.719z"/>
	<path fill="#AF3625" d="M59.924,70.498c-0.043-0.135-0.104-0.257-0.141-0.389c-0.676,0.303-1.365,0.486-2.074,0.486
		c-0.844,0-1.659-0.213-2.453-0.648c-0.795-0.433-1.416-1.049-1.867-1.85c-0.449-0.797-0.678-1.637-0.678-2.514v-7.307h6.985V55.68
		h-6.985v-5.937h-2.593v15.876c0,1.326,0.339,2.602,1.021,3.825c0.682,1.218,1.629,2.157,2.836,2.808
		c1.21,0.654,2.454,0.977,3.734,0.977c0.854,0,1.693-0.213,2.523-0.522C60.07,71.98,59.967,71.24,59.924,70.498z"/>
	<path fill="#AF3625" d="M70.367,55.258c1.619,0,3.197,0.385,4.734,1.162s2.745,1.886,3.618,3.333
		c0.872,1.446,1.308,2.964,1.308,4.552c0,1.556-0.424,3.049-1.27,4.48c-0.85,1.436-2.039,2.551-3.57,3.342
		c-1.532,0.799-3.137,1.191-4.82,1.191s-3.288-0.393-4.82-1.191c-1.531-0.791-2.716-1.906-3.561-3.332
		c-0.84-1.428-1.262-2.926-1.262-4.49c0-1.588,0.432-3.105,1.293-4.552c0.859-1.447,2.06-2.556,3.596-3.333
		C67.15,55.643,68.734,55.258,70.367,55.258z M66.988,58.725c-1.1,0.544-1.958,1.336-2.569,2.369
		c-0.616,1.039-0.921,2.125-0.921,3.264c0,1.104,0.3,2.165,0.902,3.186c0.6,1.02,1.445,1.816,2.541,2.391
		c1.096,0.572,2.237,0.861,3.426,0.861c1.201,0,2.347-0.289,3.435-0.861c1.089-0.574,1.935-1.371,2.545-2.387
		c0.606-1.01,0.91-2.075,0.91-3.189c0-1.139-0.311-2.225-0.929-3.264c-0.62-1.033-1.479-1.825-2.572-2.369
		c-1.097-0.547-2.225-0.82-3.389-0.82C69.217,57.904,68.091,58.178,66.988,58.725z"/>
	<path fill="#AF3625" d="M107.662,70.795c-1.115,0-2.184-0.289-3.211-0.861c-1.023-0.574-1.818-1.371-2.38-2.391
		c-0.564-1.021-0.845-2.082-0.845-3.186c0-1.139,0.285-2.225,0.861-3.264c0.576-1.033,1.378-1.825,2.411-2.369
		c1.028-0.547,2.083-0.82,3.163-0.82c0.943,0,7.373-0.068,8.459,0.09c0.037-0.915,0.02-1.674,0.014-2.736
		c-1.232,0.047-7.424,0-8.473,0c-1.529,0-3.012,0.385-4.443,1.162c-1.438,0.777-2.561,1.886-3.371,3.333
		c-0.811,1.446-1.219,2.964-1.219,4.552c0,1.564,0.394,3.062,1.184,4.49c0.789,1.426,1.898,2.541,3.335,3.332
		c1.433,0.799,2.938,1.191,4.515,1.191c1.062,0,7.42,0.261,8.426-0.1c0-0.802,0.043-1.48,0-2.371
		C115.182,70.995,108.617,70.795,107.662,70.795z"/>
	<path fill="#AF3625" d="M135.713,73.114h-2.778V71.02c-1.271,0.711-1.954,1.094-2.058,1.156c-1.546,0.791-3.166,1.19-4.854,1.19
		s-3.301-0.399-4.834-1.19c-1.536-0.797-2.727-1.906-3.57-3.339c-0.844-1.427-1.266-2.92-1.266-4.485
		c0-1.589,0.432-3.105,1.294-4.552s2.067-2.56,3.608-3.333c1.541-0.777,3.129-1.166,4.768-1.166c1.624,0,3.213,0.383,4.759,1.155
		c0.14,0.081,0.857,0.476,2.152,1.171v-2.074h2.778V73.114z M123.018,58.766c-1.105,0.547-1.966,1.338-2.582,2.376
		c-0.613,1.038-0.92,2.124-0.92,3.263c0,1.1,0.299,2.162,0.9,3.182c0.605,1.02,1.456,1.814,2.553,2.389
		c1.1,0.58,2.241,0.863,3.437,0.863c1.204,0,2.353-0.283,3.444-0.863c1.093-0.574,1.941-1.365,2.551-2.379
		c0.609-1.016,0.913-2.078,0.913-3.191c0-1.139-0.311-2.225-0.932-3.263c-0.624-1.038-1.481-1.829-2.579-2.376
		c-1.098-0.544-2.231-0.815-3.397-0.815C125.248,57.95,124.12,58.222,123.018,58.766z"/>
	<path fill="#AF3625" d="M140.39,62.881v10.191h-3.286V55.504h3.286v1.332c2.731-1.053,4.84-1.578,6.323-1.578
		c1.623,0,3.196,0.322,4.728,0.977c1.532,0.649,2.731,1.574,3.604,2.773c0.793,1.138,1.228,2.305,1.303,3.5v10.564h-3.285V62.9
		c0-0.877-0.285-1.717-0.857-2.527c-0.57-0.8-1.359-1.416-2.371-1.844c-1.016-0.428-2.054-0.641-3.121-0.641
		c-1.064,0-2.1,0.213-3.104,0.641c-1.005,0.428-1.795,1.044-2.363,1.844C140.678,61.17,140.39,62.004,140.39,62.881z"/>
	<path fill="#AF3625" d="M175.971,73.114h-2.775V71.02c-1.266,0.711-1.951,1.094-2.054,1.156c-1.546,0.791-3.163,1.19-4.846,1.19
		c-1.687,0-3.296-0.399-4.827-1.19c-1.534-0.797-2.722-1.906-3.564-3.339c-0.846-1.427-1.265-2.92-1.265-4.485
		c0-1.589,0.429-3.105,1.292-4.552s2.062-2.56,3.604-3.333c1.539-0.777,3.125-1.166,4.761-1.166c1.622,0,3.205,0.383,4.751,1.155
		c0.141,0.081,0.855,0.476,2.148,1.171v-2.074h2.775V73.114z M163.294,58.766c-1.104,0.547-1.963,1.338-2.579,2.376
		c-0.611,1.038-0.92,2.124-0.92,3.263c0,1.1,0.299,2.162,0.901,3.182c0.602,1.02,1.45,1.814,2.548,2.389
		c1.098,0.58,2.24,0.863,3.432,0.863c1.204,0,2.352-0.283,3.441-0.863c1.088-0.574,1.938-1.365,2.547-2.379
		c0.606-1.016,0.91-2.078,0.91-3.191c0-1.139-0.308-2.225-0.93-3.263c-0.621-1.038-1.479-1.829-2.574-2.376
		c-1.098-0.544-2.229-0.815-3.395-0.815C165.523,57.95,164.395,58.222,163.294,58.766z"/>
	<path fill-rule="evenodd" clip-rule="evenodd" fill="#AF3625" d="M96.898,61.02c-0.877,0.104-2.176-0.049-2.176-0.049
		s-0.76-0.521-1.101-1.156c-1.304-2.399-7.656-2.238-9.228,0.028c-0.986,1.417-0.369,2.455,1.066,2.92
		c2.049,0.669,4.154,1.163,6.248,1.693c4.054,1.029,5.561,2.418,5.327,4.988c-0.237,2.604-2.763,4.476-6.396,4.679
		c-1.99,0.119-3.984,0.109-5.895-0.572c-2.191-0.783-3.697-2.812-3.889-5.339c1.024-0.327,2.608,0,2.608,0s0.409,1.47,0.696,1.925
		c1.531,2.428,7.729,2.579,9.611,0.427c1.1-1.271,0.787-2.262-0.729-2.964c-2.233-1.029-4.676-1.314-7.011-1.968
		c-2.396-0.673-4.863-1.261-4.791-4.519c0.051-2.57,1.828-4.367,5.078-5.126c1.875-0.445,3.783-0.397,5.652-0.079
		C94.988,56.42,96.105,57.627,96.898,61.02z"/>
	<path fill="#AF3625" d="M21.863,47.792h-3.021l0.037-0.083c0.766-1.699,2.115-2.989,2.523-3.355h-2.469v-0.117h2.791l-0.127,0.104
		c-0.017,0.015-1.67,1.395-2.572,3.334h2.838V47.792z"/>
	<polygon fill="#AF3625" points="37.322,47.891 33.984,44.092 33.984,47.732 33.867,47.732 33.867,43.777 37.205,47.576 
		37.205,43.935 37.322,43.935 	"/>
	<polygon fill="#AF3625" points="46.924,47.762 44.775,44.055 42.701,47.762 42.599,47.704 43.367,46.338 44.773,43.814 
		44.826,43.904 47.025,47.703 	"/>
	<rect x="43.674" y="46.309" fill="#AF3625" width="2.354" height="0.117"/>
	<polygon fill="#AF3625" points="79.474,47.762 77.326,44.055 75.253,47.762 75.15,47.704 75.918,46.338 77.324,43.814 
		77.376,43.904 79.576,47.703 	"/>
	<rect x="76.226" y="46.309" fill="#AF3625" width="2.351" height="0.117"/>
	<polygon fill="#AF3625" points="71.327,47.792 68.765,47.792 68.765,44.236 71.327,44.236 71.327,44.354 68.883,44.354 
		68.883,47.674 71.327,47.674 	"/>
	<rect x="68.824" y="45.952" fill="#AF3625" width="2.503" height="0.118"/>
	<polygon fill="#AF3625" points="87.184,47.792 84.848,47.792 84.848,44.295 84.966,44.295 84.966,47.674 87.184,47.674 	"/>
	<path fill="#AF3625" d="M60.291,47.732h-0.118v-3.496h2.601l0.016,0.012c0.022,0.016,0.529,0.402,0.53,0.933
		c0.001,0.315-0.177,0.61-0.528,0.878l-0.018,0.012h-2.148v-0.118h2.109c0.311-0.239,0.467-0.499,0.467-0.771
		c0-0.424-0.386-0.762-0.467-0.828h-2.443V47.732z"/>
	<path fill="#AF3625" d="M63.396,47.784l-0.118-0.008c0.001-0.009,0.048-0.872-0.571-1.73l0.096-0.069
		C63.448,46.871,63.398,47.747,63.396,47.784z"/>
	<path fill="#AF3625" d="M28.869,47.839c-1.246,0-2.26-0.89-2.26-1.983c0-1.092,1.014-1.98,2.26-1.98s2.259,0.889,2.259,1.98
		C31.128,46.949,30.115,47.839,28.869,47.839z M28.869,43.994c-1.182,0-2.143,0.834-2.143,1.861c0,1.028,0.961,1.865,2.143,1.865
		c1.181,0,2.141-0.837,2.141-1.865C31.01,44.828,30.05,43.994,28.869,43.994z"/>
</g>
</svg>
