<?xml version="1.0" encoding="utf-8"?>
<!-- Generator: Adobe Illustrator 16.0.0, SVG Export Plug-In . SVG Version: 6.00 Build 0)  -->
<!DOCTYPE svg PUBLIC "-//W3C//DTD SVG 1.1//EN" "http://www.w3.org/Graphics/SVG/1.1/DTD/svg11.dtd">
<svg version="1.1" id="Layer_1" xmlns="http://www.w3.org/2000/svg" xmlns:xlink="http://www.w3.org/1999/xlink" x="0px" y="0px"
	 width="194.814px" height="100.538px" viewBox="0 0 194.814 100.538" enable-background="new 0 0 194.814 100.538"
	 xml:space="preserve">
<path fill="#FFFFFF" d="M186.975,100.538H7.84c-4.329,0-7.84-3.51-7.84-7.84V7.839C0,3.51,3.511,0,7.84,0h179.135
	c4.329,0,7.84,3.51,7.84,7.839v84.859C194.814,97.028,191.304,100.538,186.975,100.538z"/>
<g>
	<path fill="#164926" d="M55.887,69.455v4.204h-0.332c-0.107-0.808-0.299-1.449-0.578-1.928c-0.277-0.479-0.673-0.857-1.188-1.138
		c-0.516-0.281-1.045-0.422-1.596-0.422c-0.622,0-1.135,0.188-1.542,0.568c-0.405,0.38-0.61,0.812-0.61,1.296
		c0,0.371,0.131,0.709,0.387,1.014c0.371,0.448,1.252,1.046,2.645,1.793c1.135,0.609,1.912,1.077,2.326,1.402
		c0.414,0.326,0.734,0.711,0.959,1.152s0.336,0.906,0.336,1.39c0,0.921-0.356,1.714-1.07,2.38c-0.714,0.667-1.633,1-2.756,1
		c-0.355,0-0.688-0.027-0.996-0.081c-0.186-0.03-0.568-0.14-1.152-0.327c-0.583-0.188-0.953-0.282-1.107-0.282
		c-0.148,0-0.268,0.045-0.354,0.134c-0.086,0.09-0.15,0.275-0.193,0.557h-0.332v-4.169h0.332c0.155,0.873,0.363,1.526,0.627,1.96
		c0.264,0.432,0.667,0.792,1.207,1.079c0.541,0.287,1.133,0.431,1.777,0.431c0.748,0,1.339-0.197,1.772-0.591
		c0.433-0.396,0.651-0.862,0.651-1.399c0-0.299-0.082-0.602-0.248-0.905c-0.164-0.306-0.42-0.589-0.768-0.853
		c-0.231-0.18-0.869-0.561-1.908-1.143c-1.041-0.582-1.78-1.048-2.219-1.394c-0.438-0.347-0.773-0.729-0.998-1.147
		c-0.229-0.418-0.342-0.879-0.342-1.381c0-0.873,0.334-1.624,1.002-2.256c0.672-0.63,1.523-0.944,2.557-0.944
		c0.646,0,1.329,0.157,2.054,0.476c0.333,0.148,0.569,0.224,0.708,0.224c0.154,0,0.281-0.047,0.381-0.14
		c0.098-0.093,0.177-0.279,0.236-0.56H55.887z"/>
	<path fill="#164926" d="M67.116,70.396v4.806h1.501c0.692,0,1.156-0.104,1.389-0.313c0.31-0.275,0.486-0.76,0.52-1.453h0.332v4.232
		h-0.332c-0.082-0.592-0.166-0.972-0.25-1.139c-0.109-0.209-0.284-0.373-0.531-0.493c-0.242-0.12-0.619-0.18-1.127-0.18h-1.501
		v4.008c0,0.538,0.024,0.864,0.071,0.981c0.048,0.117,0.133,0.209,0.252,0.278c0.119,0.067,0.346,0.103,0.682,0.103h2.062
		c0.687,0,1.186-0.047,1.496-0.144c0.312-0.096,0.547,0.013,0.835-0.27c0.37-0.37,0.249-0.726,0.637-1.473h0.36v2.549h-9.855v-0.331
		h0.431c0.286,0,0.558-0.069,0.815-0.207c0.191-0.095,0.322-0.238,0.391-0.43s0.103-0.582,0.103-1.175v-7.898
		c0-0.771-0.078-1.246-0.233-1.425c-0.215-0.239-0.572-0.359-1.075-0.359h-0.431v-0.331h9.172l0.135,2.662h-0.35
		c-0.125-0.64-0.264-1.079-0.416-1.317c-0.152-0.239-0.379-0.422-0.678-0.547c-0.238-0.09-0.465-0.135-1.067-0.135H67.116z"/>
	<path fill="#164926" d="M80.213,69.732h3.3l7.431,9.118v-7.012c0-0.747-0.084-1.213-0.252-1.398
		c-0.221-0.251-0.571-0.377-1.049-0.377h-0.42v-0.331h4.231v0.331h-0.429c-0.516,0-0.882,0.155-1.095,0.467
		c-0.132,0.19-0.198,0.628-0.198,1.309v10.247h-0.324l-8.014-9.79v7.486c0,0.747,0.08,1.214,0.241,1.398
		c0.228,0.251,0.579,0.377,1.048,0.377h0.433v0.331h-4.231v-0.331h0.422c0.519,0,0.889-0.156,1.102-0.467
		c0.132-0.191,0.197-0.627,0.197-1.309v-8.454c-0.354-0.413-0.619-0.685-0.803-0.815C81.62,70.38,81.354,70.259,81,70.144
		c-0.172-0.052-0.437-0.08-0.787-0.08V69.732z"/>
	<path fill="#164926" d="M100.344,81.889v-0.331h0.457c0.515,0,0.877-0.164,1.094-0.494c0.131-0.196,0.197-0.639,0.197-1.325v-7.854
		c0-0.759-0.084-1.235-0.252-1.427c-0.232-0.262-0.58-0.395-1.039-0.395h-0.457v-0.331h4.947c1.818,0,3.2,0.206,4.148,0.618
		c0.946,0.412,1.709,1.101,2.285,2.062c0.578,0.962,0.865,2.074,0.865,3.334c0,1.691-0.515,3.105-1.541,4.242
		c-1.154,1.267-2.912,1.899-5.271,1.899H100.344z M103.813,81.011c0.758,0.168,1.396,0.251,1.909,0.251
		c1.387,0,2.537-0.486,3.452-1.461c0.914-0.975,1.372-2.295,1.372-3.963c0-1.679-0.458-3.004-1.372-3.972
		c-0.915-0.969-2.089-1.453-3.524-1.453c-0.538,0-1.15,0.087-1.837,0.261V81.011z"/>
	<path fill="#164926" d="M127.123,77.819h-4.707l-0.825,1.919c-0.203,0.472-0.306,0.823-0.306,1.058c0,0.186,0.09,0.348,0.265,0.488
		c0.176,0.14,0.558,0.231,1.142,0.273v0.331h-3.826v-0.331c0.508-0.09,0.836-0.207,0.986-0.35c0.306-0.287,0.642-0.869,1.014-1.748
		l4.275-10.005h0.314l4.231,10.112c0.341,0.812,0.649,1.34,0.927,1.582c0.279,0.242,0.666,0.378,1.162,0.408v0.331h-4.798v-0.331
		c0.485-0.023,0.812-0.104,0.981-0.242c0.172-0.137,0.258-0.305,0.258-0.503c0-0.262-0.121-0.678-0.359-1.245L127.123,77.819z
		 M126.871,77.155l-2.062-4.912l-2.117,4.912H126.871z"/>
	<path fill="#164926" d="M145.092,69.455v4.204h-0.331c-0.108-0.808-0.3-1.449-0.579-1.928c-0.277-0.479-0.674-0.857-1.189-1.138
		c-0.513-0.281-1.045-0.422-1.593-0.422c-0.624,0-1.136,0.188-1.542,0.568c-0.407,0.38-0.611,0.812-0.611,1.296
		c0,0.371,0.129,0.709,0.387,1.014c0.37,0.448,1.251,1.046,2.644,1.793c1.134,0.609,1.911,1.077,2.326,1.402
		c0.416,0.326,0.735,0.711,0.959,1.152s0.336,0.906,0.336,1.39c0,0.921-0.354,1.714-1.069,2.38c-0.715,0.667-1.633,1-2.758,1
		c-0.352,0-0.685-0.027-0.994-0.081c-0.185-0.03-0.569-0.14-1.152-0.327c-0.582-0.188-0.951-0.282-1.107-0.282
		c-0.15,0-0.268,0.045-0.355,0.134c-0.086,0.09-0.149,0.275-0.19,0.557h-0.331v-4.169h0.331c0.153,0.873,0.362,1.526,0.628,1.96
		c0.262,0.432,0.664,0.792,1.205,1.079s1.133,0.431,1.779,0.431c0.746,0,1.338-0.197,1.771-0.591
		c0.433-0.396,0.649-0.862,0.649-1.399c0-0.299-0.082-0.602-0.247-0.905c-0.164-0.306-0.422-0.589-0.767-0.853
		c-0.233-0.18-0.87-0.561-1.909-1.143c-1.041-0.582-1.781-1.048-2.219-1.394c-0.439-0.347-0.771-0.729-1-1.147
		c-0.228-0.418-0.34-0.879-0.34-1.381c0-0.873,0.332-1.624,1.002-2.256c0.671-0.63,1.521-0.944,2.557-0.944
		c0.646,0,1.328,0.157,2.053,0.476c0.334,0.148,0.571,0.224,0.709,0.224c0.153,0,0.28-0.047,0.381-0.14
		c0.098-0.093,0.176-0.279,0.237-0.56H145.092z"/>
	<g>
		<path fill="#8FC048" d="M71.52,87.06v1.024h0.57c0.148,0,0.246-0.022,0.296-0.065c0.065-0.059,0.103-0.162,0.11-0.311h0.07v0.902
			h-0.07c-0.018-0.126-0.033-0.207-0.053-0.242c-0.021-0.045-0.059-0.081-0.111-0.105c-0.053-0.025-0.135-0.039-0.242-0.039h-0.57
			v0.855c0,0.115,0.006,0.185,0.016,0.209c0.009,0.025,0.027,0.045,0.054,0.06s0.075,0.022,0.146,0.022h0.441
			c0.145,0,0.251-0.011,0.316-0.031c0.066-0.02,0.131-0.061,0.191-0.121c0.081-0.078,0.162-0.197,0.244-0.357h0.076l-0.225,0.651
			h-1.997V89.44h0.09c0.063,0,0.12-0.016,0.175-0.044c0.042-0.021,0.068-0.052,0.082-0.092c0.016-0.041,0.023-0.125,0.023-0.251
			v-1.685c0-0.164-0.016-0.266-0.049-0.304c-0.047-0.052-0.123-0.077-0.231-0.077h-0.09v-0.07h1.997l0.029,0.567h-0.074
			c-0.025-0.136-0.056-0.229-0.09-0.28c-0.033-0.052-0.08-0.091-0.145-0.116c-0.049-0.02-0.141-0.029-0.27-0.029H71.52z"/>
		<path fill="#8FC048" d="M79.257,86.859v0.896h-0.071c-0.021-0.173-0.062-0.31-0.123-0.411c-0.058-0.103-0.142-0.184-0.252-0.243
			s-0.223-0.09-0.342-0.09c-0.131,0-0.242,0.04-0.328,0.121s-0.131,0.173-0.131,0.276c0,0.079,0.029,0.151,0.082,0.216
			c0.08,0.097,0.27,0.224,0.566,0.383c0.24,0.131,0.408,0.23,0.496,0.3c0.088,0.068,0.157,0.151,0.203,0.245
			c0.049,0.094,0.073,0.192,0.073,0.296c0,0.196-0.077,0.367-0.23,0.509c-0.151,0.142-0.347,0.214-0.585,0.214
			c-0.076,0-0.148-0.007-0.213-0.018c-0.041-0.008-0.123-0.03-0.246-0.07c-0.124-0.041-0.204-0.061-0.236-0.061
			c-0.033,0-0.058,0.01-0.076,0.029c-0.02,0.02-0.031,0.059-0.041,0.119h-0.071v-0.89h0.071c0.031,0.186,0.076,0.324,0.133,0.417
			c0.056,0.093,0.143,0.17,0.258,0.231s0.242,0.092,0.381,0.092c0.158,0,0.283-0.042,0.376-0.127
			c0.095-0.084,0.139-0.183,0.139-0.298c0-0.064-0.017-0.129-0.053-0.193c-0.032-0.065-0.089-0.126-0.163-0.182
			c-0.049-0.039-0.184-0.12-0.408-0.244c-0.22-0.123-0.378-0.224-0.472-0.297c-0.095-0.074-0.165-0.156-0.214-0.245
			c-0.049-0.09-0.072-0.188-0.072-0.295c0-0.186,0.072-0.347,0.213-0.48c0.145-0.135,0.325-0.201,0.545-0.201
			c0.139,0,0.284,0.032,0.439,0.101c0.072,0.031,0.121,0.048,0.15,0.048c0.034,0,0.061-0.01,0.082-0.029s0.038-0.06,0.049-0.119
			H79.257z"/>
		<path fill="#8FC048" d="M85.215,89.44v0.071h-1.109V89.44h0.09c0.108,0,0.188-0.03,0.235-0.094
			c0.03-0.041,0.046-0.139,0.046-0.295v-1.675c0-0.132-0.008-0.218-0.027-0.261c-0.01-0.031-0.037-0.059-0.078-0.082
			c-0.057-0.03-0.113-0.046-0.176-0.046h-0.09v-0.07h1.109v0.07h-0.094c-0.104,0-0.182,0.032-0.23,0.094
			c-0.03,0.041-0.047,0.139-0.047,0.295v1.675c0,0.132,0.007,0.219,0.023,0.261c0.014,0.031,0.041,0.06,0.08,0.082
			c0.055,0.03,0.115,0.046,0.174,0.046H85.215z"/>
		<path fill="#8FC048" d="M89.746,89.512V89.44h0.098c0.111,0,0.188-0.035,0.234-0.105c0.027-0.042,0.042-0.136,0.042-0.283v-1.675
			c0-0.161-0.019-0.264-0.054-0.305c-0.051-0.056-0.125-0.084-0.223-0.084h-0.098v-0.07h1.058c0.386,0,0.681,0.044,0.885,0.132
			c0.202,0.088,0.362,0.234,0.485,0.439c0.123,0.206,0.186,0.442,0.186,0.712c0,0.36-0.109,0.662-0.328,0.905
			c-0.246,0.27-0.623,0.405-1.125,0.405H89.746z M90.486,89.323c0.162,0.036,0.299,0.055,0.406,0.055
			c0.297,0,0.542-0.104,0.738-0.312c0.195-0.207,0.293-0.489,0.293-0.845c0-0.358-0.098-0.642-0.293-0.848
			c-0.196-0.206-0.447-0.31-0.752-0.31c-0.114,0-0.246,0.019-0.393,0.055V89.323z"/>
		<path fill="#8FC048" d="M97.695,87.06v1.024h0.568c0.148,0,0.246-0.022,0.297-0.065c0.066-0.059,0.104-0.162,0.11-0.311h0.071
			v0.902h-0.071c-0.017-0.126-0.035-0.207-0.054-0.242c-0.022-0.045-0.061-0.081-0.112-0.105c-0.053-0.025-0.132-0.039-0.241-0.039
			h-0.568v0.855c0,0.115,0.004,0.185,0.015,0.209c0.009,0.025,0.028,0.045,0.052,0.06c0.026,0.015,0.075,0.022,0.146,0.022h0.439
			c0.146,0,0.254-0.011,0.32-0.031c0.064-0.02,0.13-0.061,0.191-0.121c0.078-0.078,0.16-0.197,0.242-0.357h0.076l-0.223,0.651h-2
			V89.44h0.092c0.062,0,0.119-0.016,0.174-0.044c0.041-0.021,0.069-0.052,0.084-0.092c0.016-0.041,0.021-0.125,0.021-0.251v-1.685
			c0-0.164-0.016-0.266-0.05-0.304c-0.044-0.052-0.123-0.077-0.229-0.077h-0.092v-0.07h2l0.027,0.567h-0.074
			c-0.026-0.136-0.057-0.229-0.09-0.28c-0.031-0.052-0.078-0.091-0.143-0.116c-0.051-0.02-0.141-0.029-0.271-0.029H97.695z"/>
		<path fill="#8FC048" d="M103.586,86.918h0.701l1.588,1.944v-1.495c0-0.159-0.02-0.259-0.055-0.298
			c-0.047-0.055-0.121-0.081-0.223-0.081h-0.091v-0.07h0.901v0.07h-0.09c-0.109,0-0.188,0.034-0.234,0.101
			c-0.026,0.039-0.042,0.133-0.042,0.278v2.187h-0.069l-1.709-2.09v1.598c0,0.159,0.017,0.26,0.05,0.299
			c0.049,0.053,0.124,0.08,0.225,0.08h0.093v0.071h-0.903V89.44h0.089c0.113,0,0.191-0.033,0.236-0.1
			c0.029-0.041,0.043-0.134,0.043-0.279v-1.803c-0.076-0.089-0.133-0.146-0.172-0.175s-0.096-0.055-0.17-0.079
			c-0.037-0.012-0.094-0.017-0.168-0.017V86.918z"/>
		<path fill="#8FC048" d="M113.191,86.859l0.058,0.881h-0.058c-0.08-0.263-0.194-0.454-0.34-0.57s-0.323-0.173-0.528-0.173
			c-0.172,0-0.327,0.043-0.466,0.131c-0.141,0.086-0.249,0.225-0.328,0.417c-0.08,0.191-0.119,0.43-0.119,0.714
			c0,0.234,0.037,0.438,0.112,0.609c0.075,0.173,0.188,0.305,0.34,0.396c0.149,0.092,0.322,0.137,0.517,0.137
			c0.168,0,0.316-0.035,0.447-0.107c0.126-0.072,0.268-0.215,0.423-0.43l0.06,0.038c-0.131,0.232-0.281,0.4-0.455,0.508
			c-0.174,0.106-0.379,0.161-0.618,0.161c-0.429,0-0.761-0.159-0.998-0.479c-0.176-0.237-0.264-0.517-0.264-0.838
			c0-0.259,0.058-0.496,0.174-0.714c0.116-0.217,0.276-0.384,0.479-0.504c0.201-0.118,0.426-0.178,0.666-0.178
			c0.188,0,0.372,0.046,0.555,0.138c0.053,0.027,0.092,0.041,0.115,0.041c0.034,0,0.064-0.012,0.09-0.036
			c0.034-0.035,0.057-0.082,0.072-0.143H113.191z"/>
		<path fill="#8FC048" d="M119.021,89.44v0.071h-1.11V89.44h0.092c0.105,0,0.184-0.03,0.232-0.094
			c0.029-0.041,0.045-0.139,0.045-0.295v-1.675c0-0.132-0.008-0.218-0.023-0.261c-0.014-0.031-0.039-0.059-0.078-0.082
			c-0.057-0.03-0.115-0.046-0.176-0.046h-0.092v-0.07h1.11v0.07h-0.093c-0.107,0-0.184,0.032-0.232,0.094
			c-0.031,0.041-0.046,0.139-0.046,0.295v1.675c0,0.132,0.007,0.219,0.022,0.261c0.015,0.031,0.041,0.06,0.082,0.082
			c0.055,0.03,0.111,0.046,0.174,0.046H119.021z"/>
		<path fill="#8FC048" d="M125.275,88.644h-1.004l-0.176,0.408c-0.045,0.102-0.064,0.176-0.064,0.227
			c0,0.039,0.018,0.074,0.057,0.104c0.037,0.031,0.118,0.051,0.243,0.059v0.071h-0.817V89.44c0.108-0.019,0.18-0.044,0.211-0.075
			c0.064-0.061,0.137-0.186,0.217-0.372l0.912-2.134h0.067l0.901,2.156c0.073,0.173,0.141,0.286,0.198,0.338
			c0.06,0.051,0.142,0.081,0.248,0.087v0.071h-1.023V89.44c0.103-0.005,0.173-0.022,0.21-0.051c0.037-0.03,0.054-0.066,0.054-0.108
			c0-0.056-0.024-0.145-0.076-0.266L125.275,88.644z M125.224,88.501l-0.44-1.048l-0.452,1.048H125.224z"/>
	</g>
	<g>
		<path fill="#8FC048" d="M66.653,89.486h-0.94l-1.194-1.647c-0.089,0.004-0.161,0.005-0.217,0.005c-0.022,0-0.044,0-0.071-0.001
			c-0.026-0.001-0.052-0.002-0.082-0.004v1.023c0,0.223,0.026,0.36,0.075,0.414c0.063,0.076,0.164,0.115,0.295,0.115h0.138v0.095
			h-1.51v-0.095h0.133c0.148,0,0.255-0.049,0.318-0.146c0.035-0.054,0.055-0.182,0.055-0.383v-2.277
			c0-0.222-0.022-0.359-0.071-0.413c-0.069-0.077-0.168-0.114-0.302-0.114h-0.133v-0.096h1.283c0.377,0,0.652,0.027,0.828,0.082
			c0.179,0.054,0.328,0.154,0.453,0.301c0.123,0.146,0.185,0.32,0.185,0.524c0,0.217-0.071,0.403-0.21,0.563
			c-0.143,0.159-0.361,0.272-0.658,0.338l0.729,1.012c0.166,0.232,0.31,0.386,0.43,0.463c0.119,0.076,0.273,0.126,0.468,0.146
			V89.486z M64.148,87.675c0.034,0,0.063,0.001,0.086,0.002c0.026,0.001,0.045,0.001,0.06,0.001c0.337,0,0.59-0.073,0.763-0.219
			c0.171-0.146,0.255-0.331,0.255-0.556c0-0.221-0.069-0.4-0.207-0.537c-0.138-0.139-0.321-0.207-0.547-0.207
			c-0.101,0-0.237,0.016-0.409,0.049V87.675z"/>
	</g>
	<g>
		<path fill="#8FC048" d="M133.515,88.537l0.083,0.019l-0.3,0.957h-2.73v-0.097h0.132c0.149,0,0.256-0.049,0.322-0.146
			c0.035-0.055,0.052-0.185,0.052-0.385V86.61c0-0.221-0.022-0.357-0.071-0.414c-0.067-0.075-0.168-0.113-0.303-0.113h-0.132v-0.097
			h1.596v0.097c-0.187-0.001-0.317,0.015-0.392,0.051c-0.077,0.037-0.127,0.082-0.157,0.139c-0.026,0.056-0.041,0.188-0.041,0.397
			v2.216c0,0.144,0.015,0.242,0.041,0.296c0.022,0.036,0.055,0.063,0.097,0.081c0.043,0.018,0.18,0.025,0.407,0.025h0.257
			c0.27,0,0.46-0.02,0.568-0.061c0.108-0.039,0.209-0.109,0.299-0.211C133.332,88.916,133.424,88.755,133.515,88.537z"/>
	</g>
	
		<linearGradient id="SVGID_1_" gradientUnits="userSpaceOnUse" x1="-126.771" y1="26.3521" x2="-126.771" y2="54.4849" gradientTransform="matrix(-0.7071 -0.7071 0.7071 -0.7071 -31.7932 -11.7388)">
		<stop  offset="0" style="stop-color:#93C04A;stop-opacity:0.7"/>
		<stop  offset="1" style="stop-color:#4B6930"/>
	</linearGradient>
	<path opacity="0.5" fill="url(#SVGID_1_)" d="M96.279,39.28c0,0-13.854-13.601-19.894,19.893
		C76.386,59.173,108.443,55.414,96.279,39.28z"/>
	
		<linearGradient id="SVGID_2_" gradientUnits="userSpaceOnUse" x1="-126.771" y1="26.3521" x2="-126.771" y2="54.4849" gradientTransform="matrix(-0.7071 -0.7071 0.7071 -0.7071 -31.7932 -11.7388)">
		<stop  offset="0" style="stop-color:#93C04A;stop-opacity:0.7"/>
		<stop  offset="1" style="stop-color:#4B6930"/>
	</linearGradient>
	<path opacity="0.5" fill="url(#SVGID_2_)" d="M96.279,39.28c0,0-13.854-13.601-19.894,19.893
		C76.386,59.173,108.443,55.414,96.279,39.28z"/>
	
		<linearGradient id="SVGID_3_" gradientUnits="userSpaceOnUse" x1="-93.4067" y1="-139.646" x2="-93.4067" y2="-111.5132" gradientTransform="matrix(-0.7071 0.7071 -0.7071 -0.7071 -48.0631 26.5671)">
		<stop  offset="0" style="stop-color:#93C04A;stop-opacity:0.7"/>
		<stop  offset="1" style="stop-color:#4B6930"/>
	</linearGradient>
	<path opacity="0.5" fill="url(#SVGID_3_)" d="M96.74,39.464c0,0-13.602,13.854,19.893,19.893
		C116.633,59.356,112.874,27.3,96.74,39.464z"/>
	
		<linearGradient id="SVGID_4_" gradientUnits="userSpaceOnUse" x1="-93.4067" y1="-139.646" x2="-93.4067" y2="-111.5132" gradientTransform="matrix(-0.7071 0.7071 -0.7071 -0.7071 -48.0631 26.5671)">
		<stop  offset="0" style="stop-color:#93C04A;stop-opacity:0.7"/>
		<stop  offset="1" style="stop-color:#4B6930"/>
	</linearGradient>
	<path opacity="0.5" fill="url(#SVGID_4_)" d="M96.74,39.464c0,0-13.602,13.854,19.893,19.893
		C116.633,59.356,112.874,27.3,96.74,39.464z"/>
	
		<linearGradient id="SVGID_5_" gradientUnits="userSpaceOnUse" x1="23.147" y1="-129.3013" x2="23.147" y2="-101.1685" gradientTransform="matrix(0 1 -1 0 -4.4521 15.9531)">
		<stop  offset="0" style="stop-color:#942681;stop-opacity:0.7"/>
		<stop  offset="0.9968" style="stop-color:#531948"/>
	</linearGradient>
	<path opacity="0.5" fill="url(#SVGID_5_)" d="M96.717,39.233c0,0,0.18,19.412,28.133,0C124.85,39.233,99.524,19.224,96.717,39.233z
		"/>
	
		<linearGradient id="SVGID_6_" gradientUnits="userSpaceOnUse" x1="-25.8872" y1="95.8545" x2="-43.4077" y2="95.8545" gradientTransform="matrix(0 -1 1 0 -13.2041 4.4521)">
		<stop  offset="0" style="stop-color:#942681;stop-opacity:0.7"/>
		<stop  offset="0.9968" style="stop-color:#531948"/>
	</linearGradient>
	<path opacity="0.5" fill="url(#SVGID_6_)" d="M96.717,38.967c0,0-0.18-19.412-28.133,0C68.584,38.967,93.91,58.977,96.717,38.967z"
		/>
	
		<linearGradient id="SVGID_7_" gradientUnits="userSpaceOnUse" x1="87.9858" y1="-76.1104" x2="87.9858" y2="-47.9756" gradientTransform="matrix(0.7071 0.7071 -0.7071 0.7071 1.1155 9.5357)">
		<stop  offset="0" style="stop-color:#93C04A;stop-opacity:0.7"/>
		<stop  offset="1" style="stop-color:#4B6930"/>
	</linearGradient>
	<path opacity="0.5" fill="url(#SVGID_7_)" d="M97.348,37.922c0,0,13.854,13.601,19.895-19.894
		C117.242,18.028,85.186,21.788,97.348,37.922z"/>
	
		<linearGradient id="SVGID_8_" gradientUnits="userSpaceOnUse" x1="39.9956" y1="74.8135" x2="39.9956" y2="102.9463" gradientTransform="matrix(0.7071 -0.7071 0.7071 0.7071 -4.7026 -6.6873)">
		<stop  offset="0" style="stop-color:#93C04A;stop-opacity:0.7"/>
		<stop  offset="1" style="stop-color:#4B6930"/>
	</linearGradient>
	<path opacity="0.5" fill="url(#SVGID_8_)" d="M96.467,37.731c0,0,13.6-13.854-19.893-19.894
		C76.574,17.838,80.334,49.895,96.467,37.731z"/>
	
		<linearGradient id="SVGID_9_" gradientUnits="userSpaceOnUse" x1="39.9956" y1="74.8135" x2="39.9956" y2="102.9463" gradientTransform="matrix(0.7071 -0.7071 0.7071 0.7071 -4.7026 -6.6873)">
		<stop  offset="0" style="stop-color:#93C04A;stop-opacity:0.7"/>
		<stop  offset="1" style="stop-color:#4B6930"/>
	</linearGradient>
	<path opacity="0.5" fill="url(#SVGID_9_)" d="M96.467,37.731c0,0,13.6-13.854-19.893-19.894
		C76.574,17.838,80.334,49.895,96.467,37.731z"/>
	
		<linearGradient id="SVGID_10_" gradientUnits="userSpaceOnUse" x1="87.9858" y1="-76.1104" x2="87.9858" y2="-47.9756" gradientTransform="matrix(0.7071 0.7071 -0.7071 0.7071 1.1155 9.5357)">
		<stop  offset="0" style="stop-color:#93C04A;stop-opacity:0.7"/>
		<stop  offset="1" style="stop-color:#4B6930"/>
	</linearGradient>
	<path opacity="0.5" fill="url(#SVGID_10_)" d="M97.348,37.922c0,0,13.854,13.601,19.895-19.894
		C117.242,18.028,85.186,21.788,97.348,37.922z"/>
	
		<linearGradient id="SVGID_11_" gradientUnits="userSpaceOnUse" x1="23.147" y1="-129.3013" x2="23.147" y2="-101.1685" gradientTransform="matrix(0 1 -1 0 -4.4521 15.9531)">
		<stop  offset="0" style="stop-color:#942681;stop-opacity:0.7"/>
		<stop  offset="0.9968" style="stop-color:#531948"/>
	</linearGradient>
	<path opacity="0.5" fill="url(#SVGID_11_)" d="M96.717,39.233c0,0,0.18,19.412,28.133,0C124.85,39.233,99.524,19.224,96.717,39.233
		z"/>
	
		<linearGradient id="SVGID_12_" gradientUnits="userSpaceOnUse" x1="-25.8872" y1="95.8545" x2="-43.4077" y2="95.8545" gradientTransform="matrix(0 -1 1 0 -13.2041 4.4521)">
		<stop  offset="0" style="stop-color:#942681;stop-opacity:0.7"/>
		<stop  offset="0.9968" style="stop-color:#531948"/>
	</linearGradient>
	<path opacity="0.5" fill="url(#SVGID_12_)" d="M96.717,38.967c0,0-0.18-19.412-28.133,0C68.584,38.967,93.91,58.977,96.717,38.967z
		"/>
	<linearGradient id="SVGID_13_" gradientUnits="userSpaceOnUse" x1="96.5601" y1="10.9658" x2="96.5601" y2="39.0996">
		<stop  offset="0" style="stop-color:#942681;stop-opacity:0.7"/>
		<stop  offset="1" style="stop-color:#1B0C10"/>
	</linearGradient>
	<path opacity="0.5" fill="url(#SVGID_13_)" d="M96.693,39.1c0,0,19.412-0.179,0-28.134C96.693,10.966,76.683,36.292,96.693,39.1z"
		/>
	<linearGradient id="SVGID_14_" gradientUnits="userSpaceOnUse" x1="96.5601" y1="10.9658" x2="96.5601" y2="39.0996">
		<stop  offset="0" style="stop-color:#942681;stop-opacity:0.7"/>
		<stop  offset="1" style="stop-color:#1B0C10"/>
	</linearGradient>
	<path opacity="0.5" fill="url(#SVGID_14_)" d="M96.693,39.1c0,0,19.412-0.179,0-28.134C96.693,10.966,76.683,36.292,96.693,39.1z"
		/>
	<rect x="136.863" y="87.548" fill="#164926" width="9.334" height="0.228"/>
	<rect x="48.617" y="87.548" fill="#164926" width="10.357" height="0.228"/>
	<path fill="#164926" d="M92.782,62.455h9.557c0,0,0.837-4.897-1.075-7.766c-1.15-1.727-2.369-3.395-3.141-5.337
		c-0.581-1.464-0.939-3.012-1.091-4.579c-0.14-1.458,0.05-2.85,0.05-4.299l0.18-1.732l-0.358-1.016
		c0.127,0.354-0.896,1.932-1.034,2.274c-0.996,2.477-2.371,4.988-1.977,7.749c0.356,2.497,1.238,4.894,1.65,7.378
		c0.207,1.245,0.267,2.631-0.073,3.863C94.771,61.541,92.782,62.455,92.782,62.455z"/>
</g>
</svg>
