<?xml version="1.0" encoding="utf-8"?>
<!-- Generator: Adobe Illustrator 16.0.0, SVG Export Plug-In . SVG Version: 6.00 Build 0)  -->
<!DOCTYPE svg PUBLIC "-//W3C//DTD SVG 1.1//EN" "http://www.w3.org/Graphics/SVG/1.1/DTD/svg11.dtd">
<svg version="1.1" id="Layer_1" xmlns="http://www.w3.org/2000/svg" xmlns:xlink="http://www.w3.org/1999/xlink" x="0px" y="0px"
	 width="194.812px" height="100.538px" viewBox="0 0 194.812 100.538" enable-background="new 0 0 194.812 100.538"
	 xml:space="preserve">
<path fill="#FFFFFF" d="M186.973,100.538H7.839c-4.33,0-7.839-3.51-7.839-7.84V7.839C0,3.51,3.509,0,7.839,0h179.134
	c4.33,0,7.84,3.51,7.84,7.839v84.859C194.812,97.028,191.303,100.538,186.973,100.538z"/>
<g>
	<path fill="#9A1E21" d="M99.358,13.216c-26.249,0-47.526,7.047-47.526,15.742c0,8.693,21.277,15.741,47.526,15.741
		c26.246,0,47.525-7.048,47.525-15.741C146.884,20.263,125.604,13.216,99.358,13.216z M98.943,34.354
		c-12.596,0-22.805-3.262-22.805-7.283c0-4.023,10.209-7.285,22.805-7.285c12.594,0,22.805,3.262,22.805,7.285
		C121.748,31.093,111.537,34.354,98.943,34.354z"/>
	<linearGradient id="SVGID_1_" gradientUnits="userSpaceOnUse" x1="141.6738" y1="40.9517" x2="98.2026" y2="40.9517">
		<stop  offset="0.2026" style="stop-color:#AD4B4D;stop-opacity:0"/>
		<stop  offset="1" style="stop-color:#BF7174"/>
	</linearGradient>
	<polygon fill="url(#SVGID_1_)" points="98.203,30.3 98.203,51.604 141.674,51.604 	"/>
	<path fill="#AFAFAE" d="M98.821,51.767l-1.022-0.001V6.867c0-0.282,0.229-0.511,0.512-0.511c0.282,0,0.511,0.229,0.511,0.511
		v22.325c0.01,0.04,0.015,0.081,0.015,0.123L98.821,51.767z"/>
	<g>
		<path fill="#9A1E21" d="M43.66,58.275h4.08c0.057,0,0.107,0.01,0.156,0.03c0.05,0.02,0.092,0.048,0.13,0.084
			c0.036,0.037,0.063,0.08,0.084,0.129s0.03,0.102,0.03,0.156c0,0.084-0.025,0.162-0.074,0.234l-3.586,4.609h3.26
			c0.113,0.002,0.209,0.043,0.286,0.121c0.075,0.078,0.114,0.172,0.114,0.283s-0.039,0.204-0.114,0.281
			c-0.077,0.077-0.171,0.115-0.282,0.115H43.66c-0.059,0-0.11-0.009-0.158-0.029c-0.049-0.021-0.09-0.049-0.127-0.086
			c-0.036-0.036-0.064-0.078-0.086-0.126c-0.02-0.048-0.029-0.101-0.029-0.158c0.002-0.096,0.029-0.18,0.083-0.25l3.577-4.593h-3.26
			c-0.108,0-0.203-0.04-0.281-0.118c-0.08-0.078-0.119-0.172-0.119-0.284c0-0.109,0.039-0.205,0.119-0.283
			C43.457,58.313,43.552,58.275,43.66,58.275z"/>
		<path fill="#9A1E21" d="M62.155,61.298c0,0.833-0.296,1.547-0.888,2.138c-0.589,0.589-1.301,0.884-2.135,0.884
			c-0.836,0-1.549-0.295-2.139-0.884s-0.883-1.302-0.883-2.138c0-0.834,0.293-1.546,0.883-2.135
			c0.592-0.592,1.305-0.888,2.139-0.888c0.832,0,1.543,0.296,2.135,0.888c0.297,0.297,0.52,0.623,0.666,0.975
			C62.082,60.49,62.155,60.878,62.155,61.298z M59.133,59.077c-0.312,0-0.598,0.053-0.855,0.162
			c-0.258,0.107-0.496,0.271-0.716,0.49c-0.22,0.22-0.382,0.457-0.489,0.714c-0.107,0.258-0.16,0.542-0.16,0.854
			c0,0.615,0.216,1.138,0.649,1.571c0.433,0.434,0.956,0.649,1.571,0.649c0.614,0,1.139-0.216,1.572-0.649
			c0.432-0.434,0.648-0.956,0.648-1.571c0-0.611-0.217-1.135-0.648-1.568C60.27,59.294,59.745,59.077,59.133,59.077z"/>
		<path fill="#9A1E21" d="M70.766,63.92v-5.245c0-0.055,0.01-0.107,0.029-0.156c0.021-0.049,0.049-0.092,0.086-0.129
			c0.037-0.036,0.078-0.064,0.126-0.084c0.049-0.021,0.101-0.03,0.159-0.03c0.117,0,0.222,0.049,0.31,0.146l3.369,4.333v-4.08
			c0-0.109,0.04-0.205,0.118-0.283s0.172-0.116,0.283-0.116c0.109,0,0.205,0.038,0.283,0.116s0.117,0.174,0.117,0.283v5.245
			c0,0.058-0.01,0.11-0.03,0.158s-0.048,0.09-0.085,0.126c-0.037,0.037-0.08,0.065-0.129,0.086s-0.101,0.029-0.156,0.029
			c-0.119,0-0.221-0.047-0.307-0.14l-3.373-4.333v4.073c0,0.11-0.039,0.205-0.117,0.282c-0.078,0.079-0.173,0.117-0.283,0.117
			s-0.205-0.038-0.283-0.117C70.805,64.125,70.766,64.03,70.766,63.92z"/>
		<path fill="#9A1E21" d="M84.263,63.738l2.017-5.191c0.081-0.182,0.209-0.271,0.382-0.271c0.179,0,0.306,0.09,0.382,0.271
			l2.024,5.211c0.021,0.05,0.03,0.104,0.03,0.162c0,0.11-0.039,0.205-0.117,0.282c-0.078,0.079-0.172,0.117-0.283,0.117
			c-0.109,0-0.203-0.038-0.279-0.117c-0.041-0.039-0.07-0.082-0.09-0.128l-0.699-1.795h-1.935l-0.702,1.795
			c-0.021,0.046-0.051,0.089-0.092,0.128c-0.078,0.079-0.172,0.117-0.283,0.117s-0.203-0.038-0.281-0.117
			c-0.076-0.077-0.115-0.172-0.115-0.282C84.221,63.858,84.234,63.798,84.263,63.738z M87.318,61.479l-0.657-1.696l-0.657,1.696
			H87.318z"/>
		<path fill="#9A1E21" d="M107.953,63.92v-5.245c0-0.055,0.008-0.107,0.029-0.156s0.047-0.092,0.086-0.129
			c0.033-0.036,0.076-0.064,0.129-0.084c0.046-0.021,0.098-0.03,0.157-0.03h1.459c0.253,0,0.491,0.049,0.718,0.146
			c0.223,0.099,0.42,0.231,0.592,0.401c0.166,0.169,0.299,0.365,0.396,0.592c0.099,0.225,0.146,0.465,0.146,0.719
			c0,0.166-0.021,0.328-0.061,0.486c-0.043,0.156-0.107,0.306-0.188,0.445c-0.081,0.139-0.184,0.27-0.304,0.389
			c-0.124,0.119-0.266,0.226-0.428,0.315l1.207,1.931c0.043,0.071,0.064,0.144,0.064,0.22c0,0.058-0.01,0.11-0.031,0.158
			s-0.047,0.09-0.086,0.126c-0.033,0.037-0.076,0.065-0.127,0.086c-0.047,0.021-0.104,0.029-0.154,0.029
			c-0.142,0-0.257-0.064-0.347-0.196l-1.335-2.135h-1.125v1.932c0,0.11-0.038,0.205-0.115,0.282
			c-0.077,0.079-0.171,0.117-0.282,0.117s-0.206-0.038-0.286-0.117C107.99,64.125,107.953,64.03,107.953,63.92z M108.752,59.077
			v2.11h1.062c0.146,0,0.282-0.028,0.41-0.082c0.129-0.056,0.239-0.132,0.334-0.229c0.095-0.099,0.171-0.21,0.222-0.336
			c0.057-0.128,0.086-0.264,0.086-0.407c0-0.146-0.029-0.283-0.086-0.411c-0.051-0.129-0.127-0.241-0.227-0.337
			c-0.094-0.096-0.205-0.172-0.334-0.227c-0.127-0.055-0.265-0.082-0.405-0.082H108.752z"/>
		<path fill="#9A1E21" d="M124.4,63.519c0.111,0,0.205,0.04,0.282,0.118s0.12,0.172,0.12,0.283c0,0.11-0.043,0.205-0.12,0.282
			c-0.077,0.079-0.171,0.117-0.282,0.117h-3.496c-0.06,0-0.11-0.009-0.157-0.029c-0.048-0.021-0.091-0.049-0.128-0.086
			c-0.035-0.036-0.064-0.078-0.086-0.126c-0.018-0.048-0.03-0.101-0.03-0.158v-5.245c0-0.055,0.013-0.107,0.03-0.156
			c0.021-0.049,0.051-0.092,0.086-0.129c0.037-0.036,0.08-0.064,0.128-0.084c0.047-0.021,0.098-0.03,0.157-0.03h3.496
			c0.111,0,0.205,0.038,0.282,0.116s0.12,0.174,0.12,0.283c0,0.112-0.043,0.206-0.12,0.284s-0.171,0.118-0.282,0.118h-3.093v1.819
			h2.22c0.111,0,0.205,0.04,0.282,0.118s0.12,0.172,0.12,0.283c0,0.11-0.043,0.205-0.12,0.283s-0.171,0.116-0.282,0.116h-2.22v1.821
			H124.4z"/>
		<path fill="#9A1E21" d="M133.4,63.738l2.02-5.191c0.08-0.182,0.209-0.271,0.38-0.271c0.181,0,0.309,0.09,0.381,0.271l2.027,5.211
			c0.022,0.05,0.03,0.104,0.03,0.162c0,0.11-0.039,0.205-0.115,0.282c-0.082,0.079-0.176,0.117-0.287,0.117
			c-0.11,0-0.201-0.038-0.277-0.117c-0.039-0.039-0.072-0.082-0.09-0.128l-0.701-1.795h-1.934l-0.702,1.795
			c-0.021,0.046-0.052,0.089-0.09,0.128c-0.081,0.079-0.175,0.117-0.286,0.117c-0.107,0-0.201-0.038-0.278-0.117
			c-0.077-0.077-0.116-0.172-0.116-0.282C133.361,63.858,133.375,63.798,133.4,63.738z M136.459,61.479l-0.659-1.696l-0.653,1.696
			H136.459z"/>
		<path fill="#9A1E21" d="M146.807,58.675c0-0.109,0.043-0.205,0.12-0.283s0.171-0.116,0.282-0.116s0.205,0.038,0.281,0.116
			c0.082,0.078,0.121,0.174,0.121,0.283v4.844h2.802c0.111,0,0.205,0.04,0.282,0.118c0.081,0.078,0.119,0.172,0.119,0.283
			c0,0.11-0.038,0.205-0.119,0.282c-0.077,0.079-0.171,0.117-0.282,0.117h-3.204c-0.056,0-0.111-0.009-0.158-0.029
			s-0.09-0.049-0.129-0.086c-0.034-0.036-0.064-0.078-0.081-0.126c-0.021-0.048-0.034-0.101-0.034-0.158V58.675z"/>
	</g>
	<path fill="#9A1E21" d="M73.021,76.655c0,2.205-0.781,4.086-2.34,5.646c-1.562,1.562-3.444,2.342-5.646,2.342
		c-2.203,0-4.086-0.779-5.647-2.342c-1.562-1.561-2.341-3.441-2.341-5.646c0-2.203,0.779-4.086,2.341-5.645
		c1.562-1.562,3.444-2.342,5.647-2.342c2.202,0,4.084,0.78,5.646,2.342C72.24,72.569,73.021,74.452,73.021,76.655z M65.035,70.265
		c-1.766,0-3.271,0.625-4.52,1.874c-1.248,1.247-1.872,2.754-1.872,4.517c0,1.766,0.624,3.27,1.872,4.519s2.754,1.872,4.52,1.872
		c1.763,0,3.27-0.623,4.517-1.872c1.249-1.249,1.872-2.753,1.872-4.519c0-1.763-0.623-3.27-1.872-4.517
		C68.305,70.89,66.798,70.265,65.035,70.265z"/>
	<path fill="#9A1E21" d="M79.748,69.461c0-0.219,0.086-0.405,0.258-0.56c0.173-0.156,0.38-0.232,0.622-0.232
		c0.243,0,0.448,0.076,0.621,0.232c0.173,0.154,0.259,0.341,0.259,0.56v13.476l6.416-0.019c0.242,0,0.449,0.077,0.622,0.233
		c0.172,0.154,0.259,0.341,0.259,0.559c0,0.221-0.087,0.404-0.259,0.561c-0.173,0.154-0.38,0.234-0.622,0.234l-7.296,0.018
		c-0.242,0-0.449-0.079-0.622-0.233c-0.172-0.156-0.258-0.341-0.258-0.56V69.461z"/>
	<path fill="#9A1E21" d="M96.59,78.972L94.4,84.037c-0.043,0.092-0.104,0.177-0.184,0.257c-0.178,0.151-0.385,0.229-0.629,0.229
		c-0.242,0-0.449-0.079-0.621-0.233c-0.172-0.156-0.258-0.341-0.258-0.56c0-0.127,0.025-0.238,0.077-0.336l6.114-14.17
		c0.043-0.12,0.119-0.229,0.231-0.328c0.167-0.152,0.372-0.227,0.616-0.227c0.241,0,0.449,0.074,0.625,0.227
		c0.102,0.099,0.177,0.208,0.222,0.328l6.112,14.17c0.052,0.098,0.078,0.209,0.078,0.336c0,0.219-0.086,0.403-0.257,0.56
		c-0.174,0.154-0.381,0.233-0.623,0.233c-0.241,0-0.447-0.077-0.616-0.229c-0.088-0.08-0.154-0.165-0.199-0.257l-2.186-5.065H96.59z
		 M102.22,77.389l-2.472-5.739l-2.477,5.739H102.22z"/>
	<path fill="#9A1E21" d="M43.301,75.204c-0.784-0.83-1.129-1.793-1.035-2.889c0.104-1.086,0.617-1.984,1.541-2.688
		c0.829-0.641,1.783-0.959,2.861-0.959c1.33,0,2.634,0.582,3.386,1.703c0.088,0.125,0.132,0.267,0.132,0.424
		c0,0.217-0.086,0.404-0.258,0.559c-0.603,0.541-1.117,0.033-1.568-0.41c-0.47-0.463-0.818-0.615-1.484-0.664
		c-0.725-0.054-1.366,0.132-1.922,0.557c-0.559,0.428-0.867,0.963-0.925,1.608c-0.06,0.651,0.149,1.229,0.625,1.73
		c0.39,0.337,1.021,0.606,1.894,0.81c1.533,0.304,2.696,0.866,3.496,1.684c0.83,0.882,1.242,1.884,1.242,3.004
		c0,0.154-0.006,0.304-0.023,0.455c-0.115,1.306-0.727,2.381-1.834,3.223c-1.119,0.852-2.534,1.271-3.93,1.073
		c-0.677-0.096-1.379-0.296-1.97-0.646c-0.409-0.242-1.391-1.022-1.391-1.564c0-0.217,0.085-0.402,0.257-0.559
		c0.643-0.587,1.356,0.091,1.861,0.512c1.207,1.005,2.787,0.927,4.029-0.016c0.74-0.563,1.15-1.281,1.23-2.152
		c0.08-0.877-0.191-1.648-0.816-2.313c-0.541-0.547-1.388-0.956-2.538-1.225C45.047,76.281,44.093,75.862,43.301,75.204z"/>
	<path fill="#9A1E21" d="M113.496,68.491h3.587c1.189,0,2.205,0.47,3.046,1.406c0.84,0.938,1.26,2.07,1.26,3.398
		c0,1.646-0.415,3.045-1.932,3.806c1.678,2.155,2.738,3.825,4.299,6.078c0.08,0.128,0.12,0.275,0.12,0.441
		c0,0.222-0.073,0.407-0.212,0.565c-0.141,0.155-0.311,0.235-0.507,0.235c-0.259,0-0.466-0.137-0.629-0.409l-4.53-6.508
		c-0.102,0.006-0.207,0.01-0.316,0.01l-3.508-0.162l0.039,6.351c0,0.221-0.068,0.407-0.21,0.565
		c-0.142,0.155-0.308,0.236-0.507,0.236c-0.197,0-0.365-0.081-0.51-0.236c-0.137-0.158-0.207-0.345-0.207-0.565v-14.41
		c0-0.221,0.07-0.41,0.207-0.564C113.131,68.569,113.299,68.491,113.496,68.491z M114.213,70.092v5.933l2.791-0.094
		c0.796,0,1.553,0.256,2.109-0.369c0.561-0.622,0.84-1.379,0.84-2.266c0-0.888-0.279-1.643-0.84-2.268
		c-0.557-0.623-1.234-0.937-2.03-0.937H114.213z"/>
	<path fill="#9A1E21" d="M130.234,68.669h6.785c0.244,0,0.449,0.076,0.622,0.232c0.173,0.154,0.259,0.34,0.259,0.558
		s-0.086,0.405-0.259,0.561c-0.173,0.154-0.378,0.231-0.622,0.231h-5.903v5.543h5.995c0.244,0,0.449,0.077,0.623,0.232
		c0.172,0.154,0.258,0.342,0.258,0.559s-0.086,0.404-0.258,0.561c-0.174,0.154-0.379,0.232-0.623,0.232h-5.995v5.543h5.995
		c0.244,0,0.449,0.076,0.623,0.231c0.172,0.153,0.258,0.341,0.258,0.558c0,0.221-0.086,0.404-0.258,0.561
		c-0.174,0.154-0.379,0.234-0.623,0.234h-6.877c-0.241,0-0.449-0.08-0.619-0.234c-0.174-0.156-0.26-0.34-0.26-0.561V69.459
		c0-0.218,0.086-0.403,0.26-0.558C129.785,68.745,129.993,68.669,130.234,68.669z"/>
	<path fill="#9A1E21" d="M144.689,75.221c-0.785-0.831-1.13-1.794-1.035-2.889c0.102-1.087,0.615-1.985,1.54-2.688
		c0.829-0.64,1.783-0.959,2.86-0.959c1.329,0,2.635,0.582,3.387,1.703c0.088,0.125,0.133,0.268,0.133,0.425
		c0,0.217-0.088,0.403-0.259,0.558c-0.601,0.541-1.118,0.033-1.567-0.41c-0.471-0.463-0.82-0.615-1.484-0.664
		c-0.726-0.054-1.367,0.133-1.924,0.557c-0.558,0.428-0.865,0.963-0.924,1.609c-0.061,0.65,0.15,1.229,0.625,1.729
		c0.39,0.337,1.02,0.606,1.893,0.81c1.533,0.304,2.697,0.866,3.498,1.684c0.829,0.883,1.242,1.885,1.242,3.006
		c0,0.152-0.007,0.302-0.023,0.453c-0.116,1.307-0.729,2.381-1.836,3.224c-1.118,0.852-2.534,1.27-3.929,1.073
		c-0.677-0.097-1.377-0.297-1.97-0.646c-0.408-0.242-1.391-1.021-1.391-1.563c0-0.218,0.086-0.402,0.257-0.56
		c0.644-0.587,1.356,0.092,1.861,0.512c1.208,1.005,2.786,0.928,4.029-0.016c0.74-0.562,1.151-1.28,1.229-2.152
		c0.082-0.877-0.19-1.647-0.814-2.312c-0.541-0.547-1.389-0.957-2.539-1.225C146.435,76.298,145.48,75.878,144.689,75.221z"/>
</g>
</svg>
