<?xml version="1.0" encoding="utf-8"?>
<!-- Generator: Adobe Illustrator 16.0.0, SVG Export Plug-In . SVG Version: 6.00 Build 0)  -->
<!DOCTYPE svg PUBLIC "-//W3C//DTD SVG 1.1//EN" "http://www.w3.org/Graphics/SVG/1.1/DTD/svg11.dtd">
<svg version="1.1" id="Layer_1" xmlns="http://www.w3.org/2000/svg" xmlns:xlink="http://www.w3.org/1999/xlink" x="0px" y="0px"
	 width="194.814px" height="100.538px" viewBox="0 0 194.814 100.538" enable-background="new 0 0 194.814 100.538"
	 xml:space="preserve">
<path fill="#FFFFFF" d="M186.975,100.538H7.84c-4.329,0-7.84-3.51-7.84-7.84V7.839C0,3.51,3.511,0,7.84,0h179.135
	c4.329,0,7.84,3.51,7.84,7.839v84.859C194.814,97.028,191.304,100.538,186.975,100.538z"/>
<g>
	<g>
		<path fill="#1072BA" d="M13.111,74.133c-0.539-1.288-0.938-1.547-1.781-1.781c-0.352-0.094-0.726-0.094-0.912-0.094
			c-0.211,0-0.281-0.07-0.281-0.21c0-0.188,0.257-0.212,0.607-0.212c1.243,0,2.578,0.07,3.398,0.07c0.586,0,1.711-0.07,2.882-0.07
			c0.282,0,0.538,0.047,0.538,0.212c0,0.164-0.14,0.21-0.352,0.21c-0.374,0-0.725,0.024-0.912,0.164
			c-0.164,0.117-0.236,0.281-0.236,0.492c0,0.305,0.213,0.96,0.541,1.805l4.029,10.637h0.094c1.008-2.576,4.055-10.121,4.615-11.668
			c0.117-0.305,0.212-0.656,0.212-0.867c0-0.188-0.095-0.374-0.304-0.445c-0.281-0.093-0.633-0.117-0.939-0.117
			c-0.209,0-0.396-0.023-0.396-0.188c0-0.188,0.211-0.234,0.656-0.234c1.171,0,2.154,0.07,2.461,0.07c0.396,0,1.499-0.07,2.201-0.07
			c0.305,0,0.492,0.047,0.492,0.212c0,0.164-0.141,0.21-0.374,0.21c-0.235,0-0.728,0-1.148,0.281
			c-0.305,0.211-0.657,0.609-1.288,2.109c-0.914,2.202-1.547,3.468-2.812,6.35c-1.5,3.421-2.602,5.977-3.116,7.147
			c-0.61,1.358-0.75,1.733-1.079,1.733c-0.304,0-0.445-0.328-0.89-1.43L13.111,74.133z"/>
		<path fill="#1072BA" d="M30.432,84.514c-0.117,0-0.141,0.022-0.188,0.14l-1.102,2.695c-0.211,0.492-0.305,0.983-0.305,1.218
			c0,0.352,0.188,0.562,0.82,0.562h0.305c0.258,0,0.305,0.095,0.305,0.212c0,0.163-0.117,0.21-0.328,0.21
			c-0.68,0-1.641-0.07-2.296-0.07c-0.212,0-1.312,0.07-2.391,0.07c-0.257,0-0.374-0.047-0.374-0.21c0-0.117,0.069-0.212,0.234-0.212
			c0.187,0,0.422-0.022,0.608-0.022c0.938-0.142,1.289-0.751,1.71-1.758l5.39-12.443c0.233-0.562,0.398-0.795,0.609-0.795
			c0.305,0,0.398,0.187,0.608,0.631c0.492,1.103,3.938,9.162,5.25,12.186c0.796,1.804,1.381,2.062,1.758,2.133
			c0.303,0.047,0.537,0.069,0.771,0.069c0.189,0,0.282,0.07,0.282,0.212c0,0.163-0.118,0.21-0.89,0.21c-0.728,0-2.228,0-3.961-0.047
			c-0.375-0.023-0.608-0.023-0.608-0.163c0-0.117,0.046-0.188,0.257-0.212c0.14-0.022,0.281-0.211,0.188-0.445l-1.593-4.03
			c-0.048-0.117-0.117-0.14-0.212-0.14H30.432z M34.836,83.412c0.094,0,0.117-0.047,0.094-0.117l-1.944-4.992
			c-0.022-0.069-0.048-0.187-0.093-0.187c-0.071,0-0.094,0.117-0.117,0.187l-1.992,4.968c-0.048,0.095,0,0.142,0.069,0.142H34.836z"
			/>
		<path fill="#1072BA" d="M46.18,83.764c0,2.554,0,3.818,0.445,4.194c0.352,0.305,1.148,0.421,2.742,0.421
			c1.102,0,1.898-0.023,2.414-0.562c0.257-0.257,0.468-0.819,0.514-1.195c0.024-0.188,0.071-0.304,0.236-0.304
			c0.14,0,0.187,0.211,0.187,0.445s-0.142,1.711-0.306,2.297c-0.14,0.444-0.234,0.538-1.311,0.538c-1.477,0-2.673-0.022-3.702-0.069
			c-1.031-0.024-1.898-0.048-2.743-0.048c-0.233,0-0.68,0.023-1.17,0.023c-0.493,0.024-1.01,0.047-1.43,0.047
			c-0.26,0-0.398-0.07-0.398-0.21c0-0.095,0.069-0.212,0.328-0.212c0.305,0,0.538-0.022,0.725-0.069
			c0.424-0.095,0.541-0.469,0.61-1.056c0.093-0.843,0.093-2.412,0.093-4.24v-3.516c0-3.021,0-3.584-0.022-4.217
			c-0.048-0.68-0.234-0.892-0.89-1.078c-0.164-0.048-0.424-0.07-0.68-0.07c-0.234,0-0.352-0.07-0.352-0.211s0.14-0.188,0.443-0.188
			c0.962,0,2.274,0.047,2.838,0.047c0.49,0,2.178-0.047,2.975-0.047c0.305,0,0.445,0.047,0.445,0.188s-0.117,0.211-0.376,0.211
			c-0.233,0-0.562,0.022-0.796,0.07c-0.562,0.094-0.727,0.375-0.773,1.078c-0.047,0.633-0.047,1.195-0.047,4.217V83.764z"/>
		<path fill="#1072BA" d="M58.178,83.764c0,2.554,0,3.818,0.445,4.194c0.352,0.305,1.148,0.421,2.742,0.421
			c1.102,0,1.898-0.023,2.414-0.562c0.258-0.257,0.469-0.819,0.514-1.195c0.025-0.188,0.072-0.304,0.236-0.304
			c0.14,0,0.188,0.211,0.188,0.445s-0.142,1.711-0.305,2.297c-0.142,0.444-0.236,0.538-1.312,0.538
			c-1.477,0-2.672-0.022-3.701-0.069c-1.031-0.024-1.898-0.048-2.742-0.048c-0.235,0-0.681,0.023-1.172,0.023
			c-0.492,0.024-1.008,0.047-1.43,0.047c-0.258,0-0.398-0.07-0.398-0.21c0-0.095,0.07-0.212,0.328-0.212
			c0.305,0,0.539-0.022,0.727-0.069c0.422-0.095,0.539-0.469,0.609-1.056c0.094-0.843,0.094-2.412,0.094-4.24v-3.516
			c0-3.021,0-3.584-0.023-4.217c-0.048-0.68-0.234-0.892-0.891-1.078c-0.164-0.048-0.422-0.07-0.68-0.07
			c-0.234,0-0.352-0.07-0.352-0.211s0.141-0.188,0.445-0.188c0.961,0,2.273,0.047,2.836,0.047c0.491,0,2.178-0.047,2.975-0.047
			c0.306,0,0.445,0.047,0.445,0.188s-0.117,0.211-0.375,0.211c-0.234,0-0.562,0.022-0.796,0.07
			c-0.562,0.094-0.727,0.375-0.774,1.078c-0.047,0.633-0.047,1.195-0.047,4.217V83.764z"/>
		<path fill="#1072BA" d="M67.412,80.248c0-3.021,0-3.584-0.023-4.217c-0.047-0.68-0.234-0.892-0.89-1.078
			c-0.164-0.048-0.516-0.07-0.821-0.07c-0.21,0-0.352-0.07-0.352-0.211s0.164-0.188,0.469-0.188c1.078,0,2.391,0.047,2.977,0.047
			c0.655,0,5.226,0.023,5.624,0c0.374-0.024,0.702-0.094,0.867-0.117c0.116-0.024,0.234-0.094,0.327-0.094
			c0.117,0,0.142,0.094,0.142,0.187c0,0.142-0.118,0.376-0.165,1.29c-0.023,0.21-0.069,1.076-0.117,1.312
			c-0.023,0.093-0.07,0.327-0.234,0.327c-0.141,0-0.164-0.093-0.164-0.257c0-0.142-0.022-0.493-0.141-0.728
			c-0.163-0.351-0.328-0.633-1.358-0.726c-0.352-0.047-2.812-0.094-3.233-0.094c-0.094,0-0.142,0.069-0.142,0.187v4.921
			c0,0.117,0.024,0.211,0.142,0.211c0.469,0,3.139,0,3.607-0.047c0.493-0.047,0.773-0.117,0.984-0.305
			c0.164-0.14,0.235-0.257,0.328-0.257c0.094,0,0.164,0.093,0.164,0.21s-0.047,0.445-0.164,1.453
			c-0.047,0.397-0.093,1.195-0.093,1.336c0,0.163-0.024,0.444-0.211,0.444c-0.142,0-0.188-0.069-0.188-0.164
			c-0.024-0.21-0.024-0.469-0.071-0.726c-0.117-0.398-0.374-0.703-1.146-0.774c-0.376-0.046-2.721-0.093-3.235-0.093
			c-0.093,0-0.117,0.093-0.117,0.21v1.595c0,0.68-0.022,2.366,0,2.951c0.048,1.36,0.68,1.664,2.789,1.664
			c0.538,0,1.405-0.022,1.944-0.257c0.516-0.234,0.752-0.657,0.891-1.477c0.047-0.212,0.095-0.305,0.234-0.305
			c0.164,0,0.188,0.257,0.188,0.469c0,0.445-0.164,1.804-0.281,2.202c-0.141,0.516-0.328,0.516-1.102,0.516
			c-1.547,0-2.788-0.022-3.797-0.069c-1.006-0.024-1.778-0.048-2.389-0.048c-0.234,0-0.68,0.023-1.172,0.023
			c-0.492,0.024-1.008,0.047-1.429,0.047c-0.259,0-0.399-0.07-0.399-0.21c0-0.095,0.07-0.212,0.329-0.212
			c0.304,0,0.538-0.022,0.726-0.069c0.422-0.095,0.539-0.469,0.609-1.056c0.094-0.843,0.094-2.412,0.094-4.24V80.248z"/>
		<path fill="#1072BA" d="M86.067,80.248c0-3.021,0-3.584-0.022-4.217c-0.047-0.68-0.258-0.914-0.703-1.055
			c-0.234-0.071-0.492-0.094-0.75-0.094c-0.211,0-0.328-0.047-0.328-0.234c0-0.117,0.164-0.164,0.492-0.164
			c0.773,0,2.18,0.047,2.766,0.047c0.516,0,1.852-0.047,2.647-0.047c0.257,0,0.422,0.047,0.422,0.164
			c0,0.188-0.117,0.234-0.329,0.234c-0.209,0-0.374,0.022-0.607,0.07c-0.562,0.094-0.728,0.375-0.775,1.078
			c-0.047,0.633-0.047,1.195-0.047,4.217v3.516c0,1.921,0,3.515,0.095,4.357c0.069,0.54,0.212,0.844,0.819,0.938
			c0.281,0.047,0.75,0.069,1.057,0.069c0.233,0,0.326,0.117,0.326,0.212c0,0.14-0.164,0.21-0.398,0.21
			c-1.357,0-2.766-0.07-3.326-0.07c-0.469,0-1.875,0.07-2.695,0.07c-0.258,0-0.398-0.07-0.398-0.21c0-0.095,0.07-0.212,0.328-0.212
			c0.305,0,0.539-0.022,0.727-0.069c0.422-0.095,0.539-0.376,0.609-0.962c0.093-0.819,0.093-2.413,0.093-4.334V80.248z"/>
		<path fill="#1072BA" d="M95.442,74.648c0.048-0.328,0.234-0.516,0.399-0.516c0.209,0,0.351,0.095,0.632,0.633l5.53,11.013
			l5.529-11.154c0.164-0.327,0.352-0.491,0.539-0.491c0.164,0,0.398,0.211,0.469,0.633l1.873,12.254
			c0.189,1.243,0.377,1.781,1.009,1.969c0.585,0.164,0.914,0.188,1.171,0.188c0.189,0,0.329,0.069,0.329,0.187
			c0,0.165-0.234,0.234-0.538,0.234c-0.516,0-3.445-0.069-4.266-0.117c-0.492-0.022-0.609-0.117-0.609-0.234
			c0-0.094,0.094-0.164,0.234-0.211c0.117-0.047,0.164-0.281,0.094-0.843l-1.148-8.6h-0.069l-4.429,8.81
			c-0.469,0.938-0.586,1.126-0.82,1.126c-0.259,0-0.492-0.399-0.821-1.009c-0.491-0.912-2.132-3.959-2.366-4.521
			c-0.163-0.376-1.383-2.788-2.061-4.171h-0.072l-0.984,7.686c-0.045,0.351-0.07,0.608-0.07,0.937c0,0.376,0.282,0.516,0.633,0.586
			c0.352,0.071,0.541,0.094,0.728,0.094s0.327,0.095,0.327,0.188c0,0.188-0.188,0.234-0.491,0.234c-0.867,0-1.804-0.07-2.18-0.07
			c-0.398,0-1.382,0.07-2.038,0.07c-0.211,0-0.375-0.047-0.375-0.234c0-0.093,0.117-0.188,0.328-0.188c0.164,0,0.304,0,0.633-0.047
			c0.562-0.07,0.75-0.867,0.844-1.522L95.442,74.648z"/>
		<path fill="#1072BA" d="M115.363,80.248c0-3.021,0-3.584-0.023-4.217c-0.047-0.68-0.234-0.892-0.891-1.078
			c-0.164-0.048-0.516-0.07-0.82-0.07c-0.211,0-0.352-0.07-0.352-0.211s0.164-0.188,0.469-0.188c1.078,0,2.391,0.047,2.976,0.047
			c0.845,0,2.483-0.047,3.421-0.047c2.578,0,3.515,0.844,3.844,1.125c0.445,0.422,1.031,1.312,1.031,2.39
			c0,2.812-2.25,4.827-5.18,4.827c-0.094,0-0.516,0-0.607-0.023c-0.119,0-0.259-0.07-0.259-0.211c0-0.164,0.233-0.258,0.679-0.258
			c1.148,0,2.766-1.195,2.766-3.233c0-0.656-0.07-1.969-1.219-2.952c-0.749-0.657-1.594-0.75-2.062-0.75
			c-0.304,0-0.702,0.022-0.892,0.093c-0.117,0.047-0.162,0.164-0.162,0.376v7.896c0,1.828,0,3.397,0.092,4.265
			c0.07,0.562,0.189,0.937,0.798,1.031c0.304,0.047,0.749,0.069,1.054,0.069c0.234,0,0.328,0.117,0.328,0.212
			c0,0.14-0.164,0.21-0.374,0.21c-1.382,0-2.837-0.07-3.375-0.07c-0.468,0-1.78,0.07-2.601,0.07c-0.258,0-0.398-0.07-0.398-0.21
			c0-0.095,0.07-0.212,0.328-0.212c0.305,0,0.539-0.022,0.727-0.069c0.422-0.095,0.539-0.469,0.609-1.056
			c0.094-0.843,0.094-2.412,0.094-4.24V80.248z"/>
		<path fill="#1072BA" d="M128.395,80.248c0-3.021,0-3.584-0.023-4.217c-0.047-0.68-0.234-0.892-0.891-1.078
			c-0.164-0.048-0.516-0.07-0.82-0.07c-0.211,0-0.352-0.07-0.352-0.211s0.164-0.188,0.469-0.188c1.078,0,2.391,0.047,2.976,0.047
			c0.655,0,5.226,0.023,5.625,0c0.374-0.024,0.702-0.094,0.866-0.117c0.117-0.024,0.234-0.094,0.327-0.094
			c0.118,0,0.142,0.094,0.142,0.187c0,0.142-0.117,0.376-0.164,1.29c-0.024,0.21-0.07,1.076-0.117,1.312
			c-0.023,0.093-0.07,0.327-0.234,0.327c-0.141,0-0.164-0.093-0.164-0.257c0-0.142-0.023-0.493-0.141-0.728
			c-0.164-0.351-0.328-0.633-1.359-0.726c-0.352-0.047-2.812-0.094-3.232-0.094c-0.095,0-0.143,0.069-0.143,0.187v4.921
			c0,0.117,0.024,0.211,0.143,0.211c0.468,0,3.139,0,3.607-0.047c0.492-0.047,0.773-0.117,0.984-0.305
			c0.164-0.14,0.234-0.257,0.328-0.257s0.164,0.093,0.164,0.21s-0.047,0.445-0.164,1.453c-0.047,0.397-0.094,1.195-0.094,1.336
			c0,0.163-0.023,0.444-0.211,0.444c-0.141,0-0.188-0.069-0.188-0.164c-0.023-0.21-0.023-0.469-0.07-0.726
			c-0.117-0.398-0.375-0.703-1.147-0.774c-0.376-0.046-2.72-0.093-3.235-0.093c-0.093,0-0.117,0.093-0.117,0.21v1.595
			c0,0.68-0.022,2.366,0,2.951c0.048,1.36,0.681,1.664,2.789,1.664c0.539,0,1.406-0.022,1.945-0.257
			c0.516-0.234,0.749-0.657,0.891-1.477c0.047-0.212,0.094-0.305,0.234-0.305c0.164,0,0.187,0.257,0.187,0.469
			c0,0.445-0.163,1.804-0.28,2.202c-0.141,0.516-0.328,0.516-1.102,0.516c-1.547,0-2.789-0.022-3.797-0.069
			c-1.007-0.024-1.779-0.048-2.389-0.048c-0.234,0-0.68,0.023-1.172,0.023c-0.492,0.024-1.008,0.047-1.43,0.047
			c-0.258,0-0.398-0.07-0.398-0.21c0-0.095,0.07-0.212,0.328-0.212c0.305,0,0.539-0.022,0.727-0.069
			c0.422-0.095,0.539-0.469,0.609-1.056c0.094-0.843,0.094-2.412,0.094-4.24V80.248z"/>
		<path fill="#1072BA" d="M140.486,80.248c0-3.021,0-3.584-0.023-4.217c-0.047-0.68-0.233-0.892-0.889-1.078
			c-0.164-0.048-0.516-0.07-0.821-0.07c-0.21,0-0.353-0.07-0.353-0.211s0.165-0.188,0.47-0.188c1.078,0,2.391,0.047,2.812,0.047
			c0.703,0,2.578-0.047,3.211-0.047c1.312,0,2.812,0.117,3.914,0.844c0.585,0.398,1.452,1.405,1.452,2.741
			c0,1.477-0.845,2.788-2.86,4.405c1.829,2.25,3.281,4.054,4.523,5.295c1.148,1.148,1.875,1.242,2.203,1.312
			c0.211,0.047,0.328,0.047,0.49,0.047c0.165,0,0.26,0.117,0.26,0.212c0,0.163-0.141,0.21-0.398,0.21h-1.969
			c-1.148,0-1.711-0.117-2.249-0.398c-0.892-0.444-1.664-1.383-2.812-2.928c-0.819-1.078-1.687-2.414-1.945-2.72
			c-0.117-0.117-0.234-0.14-0.374-0.14l-1.852-0.047c-0.094,0-0.164,0.047-0.164,0.164v0.281c0,1.851,0.023,3.397,0.117,4.24
			c0.07,0.587,0.164,0.961,0.797,1.056c0.305,0.047,0.75,0.069,1.008,0.069c0.164,0,0.258,0.117,0.258,0.212
			c0,0.14-0.164,0.21-0.423,0.21c-1.194,0-2.905-0.07-3.209-0.07c-0.398,0-1.711,0.07-2.53,0.07c-0.259,0-0.398-0.07-0.398-0.21
			c0-0.095,0.069-0.212,0.328-0.212c0.305,0,0.538-0.022,0.725-0.069c0.424-0.095,0.541-0.469,0.611-1.056
			c0.092-0.843,0.092-2.412,0.092-4.24V80.248z M143.111,81.795c0,0.211,0.047,0.281,0.188,0.352
			c0.445,0.141,1.056,0.188,1.569,0.188c0.821,0,1.103-0.07,1.454-0.328c0.633-0.445,1.336-1.312,1.336-2.953
			c0-2.812-1.922-3.537-3.141-3.537c-0.516,0-1.008,0.022-1.219,0.07c-0.141,0.047-0.188,0.116-0.188,0.281V81.795z"/>
		<path fill="#1072BA" d="M155.626,80.248c0-3.021,0-3.584-0.022-4.217c-0.047-0.68-0.257-0.914-0.703-1.055
			c-0.234-0.071-0.492-0.094-0.75-0.094c-0.211,0-0.328-0.047-0.328-0.234c0-0.117,0.164-0.164,0.492-0.164
			c0.773,0,2.18,0.047,2.766,0.047c0.516,0,1.851-0.047,2.648-0.047c0.257,0,0.42,0.047,0.42,0.164c0,0.188-0.116,0.234-0.328,0.234
			c-0.209,0-0.373,0.022-0.607,0.07c-0.563,0.094-0.728,0.375-0.774,1.078c-0.048,0.633-0.048,1.195-0.048,4.217v3.516
			c0,1.921,0,3.515,0.095,4.357c0.07,0.54,0.212,0.844,0.819,0.938c0.281,0.047,0.75,0.069,1.057,0.069
			c0.233,0,0.326,0.117,0.326,0.212c0,0.14-0.164,0.21-0.398,0.21c-1.358,0-2.765-0.07-3.326-0.07c-0.469,0-1.875,0.07-2.695,0.07
			c-0.258,0-0.398-0.07-0.398-0.21c0-0.095,0.07-0.212,0.328-0.212c0.305,0,0.539-0.022,0.727-0.069
			c0.423-0.095,0.539-0.376,0.609-0.962c0.093-0.819,0.093-2.413,0.093-4.334V80.248z"/>
		<path fill="#1072BA" d="M165.119,84.514c-0.116,0-0.14,0.022-0.188,0.14l-1.1,2.695c-0.212,0.492-0.307,0.983-0.307,1.218
			c0,0.352,0.189,0.562,0.822,0.562h0.303c0.258,0,0.305,0.095,0.305,0.212c0,0.163-0.117,0.21-0.328,0.21
			c-0.679,0-1.64-0.07-2.295-0.07c-0.212,0-1.312,0.07-2.391,0.07c-0.258,0-0.375-0.047-0.375-0.21c0-0.117,0.07-0.212,0.234-0.212
			c0.188,0,0.422-0.022,0.608-0.022c0.938-0.142,1.29-0.751,1.711-1.758l5.39-12.443c0.233-0.562,0.398-0.795,0.609-0.795
			c0.305,0,0.398,0.187,0.608,0.631c0.493,1.103,3.938,9.162,5.25,12.186c0.796,1.804,1.382,2.062,1.757,2.133
			c0.304,0.047,0.539,0.069,0.772,0.069c0.188,0,0.281,0.07,0.281,0.212c0,0.163-0.116,0.21-0.89,0.21c-0.727,0-2.227,0-3.961-0.047
			c-0.373-0.023-0.607-0.023-0.607-0.163c0-0.117,0.045-0.188,0.257-0.212c0.14-0.022,0.281-0.211,0.187-0.445l-1.592-4.03
			c-0.047-0.117-0.117-0.14-0.212-0.14H165.119z M169.524,83.412c0.095,0,0.117-0.047,0.095-0.117l-1.945-4.992
			c-0.023-0.069-0.047-0.187-0.094-0.187c-0.07,0-0.094,0.117-0.117,0.187l-1.992,4.968c-0.047,0.095,0,0.142,0.07,0.142H169.524z"
			/>
		<path fill="#1072BA" d="M181.5,82.755c0,2.999,0,4.616,0.493,5.039c0.398,0.352,1.007,0.516,2.835,0.516
			c1.242,0,2.155-0.024,2.742-0.657c0.281-0.304,0.561-0.959,0.608-1.405c0.024-0.212,0.069-0.351,0.259-0.351
			c0.162,0,0.188,0.116,0.188,0.397c0,0.257-0.165,2.016-0.352,2.694c-0.143,0.516-0.26,0.633-1.478,0.633
			c-1.687,0-2.905-0.046-3.959-0.07c-1.056-0.047-1.898-0.07-2.858-0.07c-0.258,0-0.773,0-1.336,0.023
			c-0.54,0-1.148,0.047-1.617,0.047c-0.305,0-0.468-0.07-0.468-0.234c0-0.117,0.093-0.188,0.374-0.188
			c0.352,0,0.633-0.047,0.844-0.094c0.469-0.093,0.586-0.608,0.68-1.288c0.117-0.984,0.117-2.835,0.117-4.992v-4.123
			c0-3.562,0-4.218-0.047-4.968c-0.047-0.797-0.234-1.172-1.009-1.335c-0.187-0.047-0.468-0.071-0.772-0.071
			c-0.259,0-0.398-0.046-0.398-0.21c0-0.165,0.164-0.212,0.516-0.212c1.102,0,2.578,0.07,3.211,0.07c0.561,0,2.271-0.07,3.186-0.07
			c0.329,0,0.492,0.047,0.492,0.212c0,0.164-0.141,0.21-0.422,0.21c-0.257,0-0.633,0.024-0.914,0.071
			c-0.633,0.117-0.82,0.516-0.867,1.335c-0.047,0.75-0.047,1.406-0.047,4.968V82.755z"/>
	</g>
	<g>
		<g>
			<path fill="#CAB235" d="M76.995,14.965c0,0-0.315,1.232-0.917,2.493s-2.149,3.983,0.459,6.792c0,0,0.373-2.148,1.404-3.037
				S79.976,17.4,76.995,14.965z"/>
			<path fill="#CAB235" d="M77.022,24.48c0,0,0.288-2.379,2.581-2.465s2.492-0.832,2.492-0.832s-0.688,2.465-1.689,2.723
				C79.402,24.164,77.364,24.164,77.022,24.48z"/>
			<path fill="#CAB235" d="M72.61,30.699c0,0-2.636-1.204-2.465-4.242c0.172-3.037,0.803-5.33,0.717-6.248
				c0,0,3.468,1.835,3.237,4.586C73.871,27.547,72.238,29.036,72.61,30.699z"/>
			<path fill="#CAB235" d="M73.127,30.699c0,0-0.345-2.15,1.661-2.952c2.007-0.803,3.095-1.089,3.325-1.604
				c0,0,0.229,3.123-1.576,3.467C74.73,29.953,73.127,30.699,73.127,30.699z"/>
			<path fill="#CAB235" d="M73.299,38.666c0,0-4.013-0.516-4.529-3.038c-0.516-2.521-1.862-5.589-1.862-5.589
				s4.961,0.345,5.218,3.21C72.381,36.115,72.754,37.835,73.299,38.666z"/>
			<path fill="#CAB235" d="M73.843,38.465c0,0-1.296-2.12,0.269-3.696c1.565-1.576,1.852-2.265,1.909-2.579
				c0,0,1.462,2.178,0.372,3.496C75.305,37.004,74.072,37.893,73.843,38.465z"/>
			<path fill="#CAB235" d="M75.613,46.347c0,0-1.06-0.315-2.274-3.325c-1.216-3.009-4.282-4.527-7.664-3.324
				c0,0,2.78,3.497,3.153,4.099C69.199,44.398,70.734,46.977,75.613,46.347z"/>
			<path fill="#CAB235" d="M76.049,46.117c0,0-2.092-1.604-1.232-3.812c0.86-2.207,1.204-3.038,1.232-3.841
				c0,0,2.322,1.691,1.721,3.411S75.763,44.656,76.049,46.117z"/>
			<path fill="#CAB235" d="M80.549,53.941c0.081-0.041-2.371-1.146-4.31-3.841c-1.938-2.693-6.265-2.092-8.815-0.487l6.161,4.557
				C73.585,54.17,75.935,56.234,80.549,53.941z"/>
			<path fill="#CAB235" d="M80.979,53.568c0,0-2.723-1.203-2.637-3.897s0.717-3.21,0.258-4.729c0,0,3.239,1.433,3.038,3.726
				C81.438,50.961,80.664,52.422,80.979,53.568z"/>
			<path fill="#CAB235" d="M87.972,58.899c0,0-3.354,3.668-7.767,2.006c-4.414-1.662-5.273-2.035-6.076-2.006
				c0,0,2.586-3.983,5.865-3.325C83.271,56.234,86.166,58.985,87.972,58.899z"/>
			<path fill="#CAB235" d="M88.229,58.419c0,0-3.152-0.408-3.755-3.217c-0.602-2.809-0.486-3.897-1.117-4.327
				c0,0,4.127,0.716,4.241,2.98C87.713,56.119,87.886,57.768,88.229,58.419z"/>
			<path fill="#CAB235" d="M95.365,61.822l-12.753,3.927c0,0,1.892-4.414,4.929-4.729C90.58,60.705,92.213,62.195,95.365,61.822z"/>
			<path fill="#CAB235" d="M96.025,61.338c0,0-3.697,0.456-4.758-2.209c-1.061-2.666-2.278-3.628-2.278-3.628
				s4.198-0.471,4.886,1.535C94.563,59.043,95.337,60.709,96.025,61.338z"/>
		</g>
		<g>
			<path fill="#CAB235" d="M122.033,14.965c0,0,0.314,1.232,0.916,2.493c0.603,1.261,2.15,3.983-0.457,6.792
				c0,0-0.373-2.148-1.405-3.037C120.056,20.324,119.053,17.4,122.033,14.965z"/>
			<path fill="#CAB235" d="M122.006,24.48c0,0-0.289-2.379-2.581-2.465c-2.293-0.086-2.493-0.832-2.493-0.832
				s0.688,2.465,1.691,2.723C119.625,24.164,121.664,24.164,122.006,24.48z"/>
			<path fill="#CAB235" d="M126.418,30.699c0,0,2.637-1.204,2.465-4.242c-0.172-3.037-0.803-5.33-0.717-6.248
				c0,0-3.469,1.835-3.238,4.586C125.156,27.547,126.791,29.036,126.418,30.699z"/>
			<path fill="#CAB235" d="M125.902,30.699c0,0,0.344-2.15-1.662-2.952c-2.008-0.803-3.096-1.089-3.325-1.604
				c0,0-0.229,3.123,1.577,3.467C124.297,29.953,125.902,30.699,125.902,30.699z"/>
			<path fill="#CAB235" d="M125.73,38.666c0,0,4.012-0.516,4.527-3.038c0.516-2.521,1.863-5.589,1.863-5.589
				s-4.961,0.345-5.218,3.21C126.646,36.115,126.274,37.835,125.73,38.666z"/>
			<path fill="#CAB235" d="M125.186,38.465c0,0,1.297-2.12-0.27-3.696c-1.564-1.576-1.852-2.265-1.908-2.579
				c0,0-1.463,2.178-0.373,3.496C123.724,37.004,124.956,37.893,125.186,38.465z"/>
			<path fill="#CAB235" d="M123.414,46.347c0,0,1.061-0.315,2.275-3.325c1.215-3.009,4.282-4.527,7.664-3.324
				c0,0-2.78,3.497-3.153,4.099C129.828,44.398,128.293,46.977,123.414,46.347z"/>
			<path fill="#CAB235" d="M122.979,46.117c0,0,2.092-1.604,1.232-3.812s-1.203-3.038-1.232-3.841c0,0-2.321,1.691-1.72,3.411
				C121.861,43.596,123.266,44.656,122.979,46.117z"/>
			<path fill="#CAB235" d="M118.479,53.941c-0.08-0.041,2.372-1.146,4.311-3.841c1.938-2.693,6.266-2.092,8.815-0.487l-6.161,4.557
				C125.443,54.17,123.094,56.234,118.479,53.941z"/>
			<path fill="#CAB235" d="M118.049,53.568c0,0,2.723-1.203,2.637-3.897s-0.717-3.21-0.258-4.729c0,0-3.238,1.433-3.037,3.726
				C117.591,50.961,118.364,52.422,118.049,53.568z"/>
			<path fill="#CAB235" d="M111.057,58.899c0,0,3.354,3.668,7.766,2.006c4.414-1.662,5.273-2.035,6.076-2.006
				c0,0-2.586-3.983-5.864-3.325C115.756,56.234,112.861,58.985,111.057,58.899z"/>
			<path fill="#CAB235" d="M110.799,58.419c0,0,3.152-0.408,3.754-3.217s0.487-3.897,1.117-4.327c0,0-4.127,0.716-4.24,2.98
				C111.314,56.119,111.143,57.768,110.799,58.419z"/>
			<path fill="#CAB235" d="M103.662,61.822l12.754,3.927c0,0-1.892-4.414-4.93-4.729C108.448,60.705,106.814,62.195,103.662,61.822z
				"/>
			<path fill="#CAB235" d="M103.003,61.338c0,0,3.697,0.456,4.758-2.209c1.061-2.666,2.278-3.628,2.278-3.628
				s-4.199-0.471-4.887,1.535C104.465,59.043,103.691,60.709,103.003,61.338z"/>
		</g>
	</g>
</g>
</svg>
