<svg id="Layer_1" data-name="Layer 1" xmlns="http://www.w3.org/2000/svg" viewBox="0 0 366.35 204.63"><defs><style>.cls-1{fill:#fff;}.cls-2{fill:#4ba82c;}</style></defs><title>Mesa de trabajo 9</title><path class="cls-1" d="M236.22,121.36a15.74,15.74,0,1,0-19.89-.71H205.88l-13.2-13.2a2,2,0,0,0-2.78,0L182,115.33a2,2,0,0,0,0,2.78l17.71,17.71a2,2,0,0,0,1.39.57h15.74v13.78H183.16l9.77-14.65-3.27-2.18-11.23,16.83h-4.85v-9.84a2,2,0,0,0-2-2H155.87v-7.87a9.82,9.82,0,0,0-6.22-9.13,15.75,15.75,0,1,0-19,0,9.83,9.83,0,0,0-6.23,9.13V158a9.86,9.86,0,0,0,9.84,9.84v23.61h3.94V167.88h13.77v21.64a2,2,0,0,0,2,2h13.77a2,2,0,0,0,2-2V160a9.85,9.85,0,0,0-2-5.91h13.77v33.45h-7.87v3.94h19.68v-3.94h-7.87V154.1h13.83a9.74,9.74,0,0,0-2,5.91v29.51a2,2,0,0,0,2,2h13.78a2,2,0,0,0,2-2V167.88h13.77v23.61h3.93V167.88a9.85,9.85,0,0,0,9.84-9.84V130.49A9.83,9.83,0,0,0,236.22,121.36ZM128.33,108.85a11.81,11.81,0,1,1,11.8,11.8A11.81,11.81,0,0,1,128.33,108.85Zm41.32,41.32H144.07V134.43h-3.94v17.71a2,2,0,0,0,2,2h17.71a5.91,5.91,0,0,1,5.9,5.91v27.54h-9.84V165.91a2,2,0,0,0-2-2H134.23a5.91,5.91,0,0,1-5.9-5.9V130.49a5.91,5.91,0,0,1,5.9-5.9H146a5.91,5.91,0,0,1,5.9,5.9v9.84a2,2,0,0,0,2,2h15.74Zm45.26-41.32a11.81,11.81,0,1,1,11.8,11.8A11.81,11.81,0,0,1,214.91,108.85ZM238.52,158a5.91,5.91,0,0,1-5.91,5.9H212.94a2,2,0,0,0-2,2v21.64h-9.84V160a5.91,5.91,0,0,1,5.9-5.91h11.81a2,2,0,0,0,2-2V134.43a2,2,0,0,0-2-2H202L186.2,116.72l5.09-5.09L203.68,124a1.93,1.93,0,0,0,1.39.58h27.54a5.91,5.91,0,0,1,5.91,5.9Z"/><path class="cls-1" d="M203.1,73.43H163.75a5.91,5.91,0,0,0-5.91,5.9V95.07a5.91,5.91,0,0,0,5.91,5.9h2v11.81a2,2,0,0,0,3.36,1.39l13.2-13.2H203.1a5.9,5.9,0,0,0,5.9-5.9V79.33A5.91,5.91,0,0,0,203.1,73.43Zm2,21.64a2,2,0,0,1-2,2H181.45a2,2,0,0,0-1.39.58L169.65,108V99a2,2,0,0,0-2-2h-3.93a2,2,0,0,1-2-2V79.33a2,2,0,0,1,2-2H203.1a2,2,0,0,1,2,2Z"/><rect class="cls-1" x="165.71" y="81.3" width="11.81" height="3.94"/><rect class="cls-1" x="165.71" y="89.17" width="35.42" height="3.94"/><rect class="cls-1" x="181.45" y="81.3" width="19.68" height="3.94"/><circle class="cls-1" cx="35.05" cy="34.23" r="26.23"/><path class="cls-2" d="M29.6,30.22v-4.8h8.1V43.81H32.35V30.22Z"/></svg>