<svg id="Layer_1" data-name="Layer 1" xmlns="http://www.w3.org/2000/svg" viewBox="0 0 366.35 204.63"><defs><style>.cls-1{fill:#fff;}.cls-2{fill:#4ba82c;}</style></defs><title>Mesa de trabajo 10</title><circle class="cls-1" cx="175.81" cy="148.35" r="2.16"/><path class="cls-1" d="M276.72,132.72c-.1-.12-2.26-2.28-2.26-2.28-3.44-3.45-8.64-3.33-12.76-1.4l.2-.37a2.12,2.12,0,0,0,.16-1.69,2,2,0,0,0-1.11-1.23,4.53,4.53,0,0,0-.6-.26l-2.62-.84c-5.55-1.81-11,2.06-13.5,6.85l-7.6,11.65h-1.51a12,12,0,0,0,2.26-7.15l-.11-1.23a2.16,2.16,0,0,0-2.16-2H205a2.18,2.18,0,0,0-1.44.54l-11,9.72h-3.13v-5.29a2.16,2.16,0,0,0-2.16-2.16H169.83a2.16,2.16,0,0,0,0,4.32H185v31.44h-9.15a2.16,2.16,0,0,0,0,4.32h11.34a2.18,2.18,0,0,0,2.16-2.16v-2.74h16.12a2.26,2.26,0,0,0,.74-.13l42.48-15.76a2.55,2.55,0,0,0,.46-.25L276.3,136a2.23,2.23,0,0,0,.42-3.23Zm-28.81,1,.11-.19c1.62-3.14,5.1-5.89,8.38-4.82l.48.15-2.19,4a.25.25,0,0,1-.08.21L244.49,139Zm-1,17.27-41.84,15.5H189.35V147.34h3.92a2.18,2.18,0,0,0,1.42-.54l11.1-9.72H233a8,8,0,0,1-1.64,3.82,5.43,5.43,0,0,1-3.36,2.2H210.64a2.16,2.16,0,0,0,0,4.32h27.27a2.2,2.2,0,0,0,1.09-.29L261.77,134c2.85-2.06,7.2-2.94,9.64-.49l.36.35Z"/><path class="cls-1" d="M267.37,101.58a2.16,2.16,0,0,0,2.16-2.16V82.23a2.16,2.16,0,1,0-4.32,0V99.4a2.16,2.16,0,0,0,2.14,2.18Z"/><path class="cls-1" d="M267.37,113a2.16,2.16,0,0,0,2.16-2.16v-.54a2.16,2.16,0,1,0-4.32,0v.54A2.16,2.16,0,0,0,267.37,113Z"/><path class="cls-1" d="M197.55,88a2.17,2.17,0,0,0,2.16-2.16V67.78a2.16,2.16,0,1,0-4.32,0V85.87A2.16,2.16,0,0,0,197.55,88Z"/><path class="cls-1" d="M197.55,110a2.16,2.16,0,0,0,2.16-2.16V95.62a2.16,2.16,0,1,0-4.32,0v12.13a2.16,2.16,0,0,0,2.11,2.2Z"/><path class="cls-1" d="M186.8,109.14A2.16,2.16,0,0,0,189,107V89.1a2.16,2.16,0,0,0-4.32,0V107A2.16,2.16,0,0,0,186.8,109.14Z"/><path class="cls-1" d="M186.8,117.14A2.16,2.16,0,0,0,189,115v-.3a2.16,2.16,0,1,0-4.32,0v.3A2.16,2.16,0,0,0,186.8,117.14Z"/><path class="cls-1" d="M225.35,120.42A26.42,26.42,0,0,0,251.51,76.9a2.16,2.16,0,1,0-3.16,2.95A22.1,22.1,0,1,1,238,73.59a2.16,2.16,0,1,0,1.12-4.17A26.42,26.42,0,1,0,223.79,120C224.3,120.15,224.83,120.29,225.35,120.42Z"/><path class="cls-1" d="M235.11,80.94V79.81a2.16,2.16,0,0,0-4.32,0v1.13h-1c-4.93,0-8.94,3.51-8.94,7.83v.31a7,7,0,0,0,5.56,6.52l4.38.9v7.64h-1c-2.46,0-4.62-1.61-4.62-3.53a2.16,2.16,0,0,0-4.32,0c0,4.33,4,7.85,8.94,7.85h1v1.4a2.16,2.16,0,0,0,4.32,0v-1.4h.11c4.94,0,8.95-3.52,8.95-7.85v-.27a6.94,6.94,0,0,0-5.68-6.62l-3.38-.78V85.26h.11c2.47,0,4.64,1.61,4.64,3.51a2.16,2.16,0,0,0,4.32,0c0-4.32-4-7.83-9-7.83Zm2.47,17a2.66,2.66,0,0,1,2.32,2.43v.3c0,1.91-2.12,3.53-4.63,3.53h-.16V97.39Zm-6.8-5.81-3.48-.72a2.78,2.78,0,0,1-2.15-2.3v-.31c0-1.9,2.13-3.51,4.63-3.51h1Z"/><circle class="cls-1" cx="41.2" cy="32.79" r="26.23"/><path class="cls-2" d="M39,33.5q2.13-2.19,2.13-4c0-1.14-.46-1.71-1.37-1.71a1.2,1.2,0,0,0-1.13.59,4.25,4.25,0,0,0-.38,2h-5a6.92,6.92,0,0,1,2.08-5.16,7,7,0,0,1,4.8-1.7,6.19,6.19,0,0,1,4.65,1.56,5.42,5.42,0,0,1,1.51,3.95A7.94,7.94,0,0,1,44.46,34,17,17,0,0,1,40,38h6.6v4.13H33.28V38.32A46.68,46.68,0,0,0,39,33.5Z"/></svg>