<svg id="Layer_1" data-name="Layer 1" xmlns="http://www.w3.org/2000/svg" viewBox="0 0 366.35 204.63"><defs><style>.cls-1{fill:#fff;}.cls-2{fill:#4ba82c;}</style></defs><title>Mesa de trabajo 11</title><path class="cls-1" d="M251.8,137.58a1.57,1.57,0,0,0-1.72.34l-17.3,17.29a1.59,1.59,0,0,0-.34,1.73,1.57,1.57,0,0,0,1.46,1h17.29a1.58,1.58,0,0,0,1.59-1.58V139A1.58,1.58,0,0,0,251.8,137.58Zm-14.08,17.17,11.89-11.89v11.89Z"/><path class="cls-1" d="M263.24,112.21a1.59,1.59,0,0,0-1.73.35l-4.73,4.74V85.07a1.59,1.59,0,0,0-1.59-1.58H243l4.42-4.41h0l4.25-4.25a4.8,4.8,0,0,0,0-6.82l-4.91-4.92a4.84,4.84,0,0,0-6.83,0l-4.25,4.25-5.14,5.15-11,11H170.43V67.83a1.58,1.58,0,0,0-1.58-1.58A12.47,12.47,0,0,0,156.4,78.7v67.21a1.86,1.86,0,0,0,0,.34,12,12,0,0,0,11.95,11.07h48.36l-9.11,9.11a1.58,1.58,0,0,0,1.12,2.7h53.87a1.59,1.59,0,0,0,1.59-1.58V113.68A1.6,1.6,0,0,0,263.24,112.21Zm-21-46.89a1.66,1.66,0,0,1,2.35,0l4.92,4.92a1.67,1.67,0,0,1,0,2.34l-3.14,3.14-7.27-7.27Zm-5.37,5.37L244.09,78l-2.9,2.9-7.27-7.26Zm24.22,60.77h-2.92a1.58,1.58,0,1,0,0,3.16h2.92v4.77h-2.92a1.58,1.58,0,1,0,0,3.16h2.92v4.77h-2.92a1.59,1.59,0,0,0,0,3.17h2.92v4.77h-2.92a1.58,1.58,0,1,0,0,3.16h2.92V166H212.58l16-16a1.57,1.57,0,0,0,0-2.23,1.3,1.3,0,0,0-.22-.19,1.59,1.59,0,0,0-2,.19l-6.41,6.41H168.39a8.77,8.77,0,0,1-8.81-8.54,8.66,8.66,0,0,1,.07-.89h0l.06-.41v-.05c0-.13.05-.25.07-.37l0-.1c0-.11.05-.21.07-.31a1.09,1.09,0,0,0,.05-.17,2.17,2.17,0,0,0,.07-.24c0-.08.06-.16.08-.23l.06-.17c0-.1.08-.21.13-.31l0-.09c.06-.12.11-.25.17-.37v0a9.32,9.32,0,0,1,6.47-5.06h0l.39-.08h.07l.36,0,.11,0,.35,0h.58a1.58,1.58,0,0,0,1.58-1.58V123.57a1.58,1.58,0,0,0-3.16,0v10a12.4,12.4,0,0,0-7.11,3.44c-.21.2-.4.41-.59.62V78.7a9.3,9.3,0,0,1,7.7-9.15v47.69h0a1.58,1.58,0,0,0,3.16,0h0V86.65h46l-8.75,8.75a1.58,1.58,0,1,0,2.24,2.24l11.45-11.45h0l10.35-10.36L239,83.1l-.85.85h0l-31.91,31.91-7.27-7.26,6.29-6.29a1.58,1.58,0,0,0-2.24-2.24l-7.4,7.41-.12.12,0,.05a.35.35,0,0,0-.06.09l0,.05a.41.41,0,0,1,0,.09.14.14,0,0,0,0,.06.3.3,0,0,0,0,.1l0,0-3.08,8.73-2.1,6a1.05,1.05,0,0,0-.06.24h-5.27a1.58,1.58,0,0,0,0,3.16h43.83a1.58,1.58,0,1,0,0-3.16H197.06l9.65-3.41h0l.11,0,0,0a.39.39,0,0,0,.11-.06l0,0,.11-.08,0,0,.13-.11,32.56-32.57h13.74v33.81L231,143.1a1.57,1.57,0,0,0,0,2.23.43.43,0,0,0,.12.11,1.56,1.56,0,0,0,2,0l.12-.11h0l27.84-27.83Zm-57.76-14-4.53,1.6-3-3,1.6-4.53Z"/><circle class="cls-1" cx="45.65" cy="35.44" r="26.23"/><path class="cls-2" d="M48.18,26.4a4.86,4.86,0,0,1,2.87,4.53,4.36,4.36,0,0,1-.89,2.87,3.82,3.82,0,0,1-2.1,1.37v.1a4.43,4.43,0,0,1,3.32,4.42,5.47,5.47,0,0,1-.75,2.88,5.07,5.07,0,0,1-2.17,1.94,7.65,7.65,0,0,1-3.39.69,7.77,7.77,0,0,1-5.16-1.59,6.36,6.36,0,0,1-2-4.91h5c0,1.51.61,2.26,1.94,2.26A1.48,1.48,0,0,0,46,40.51a1.66,1.66,0,0,0,.43-1.19,1.63,1.63,0,0,0-.63-1.4,3.53,3.53,0,0,0-2-.47h-.91V33.32h.88A3.56,3.56,0,0,0,45.41,33a1.43,1.43,0,0,0,.67-1.41,1.68,1.68,0,0,0-.39-1.21,1.36,1.36,0,0,0-1-.4,1.23,1.23,0,0,0-1.11.56,2.83,2.83,0,0,0-.43,1.41h-5A6.31,6.31,0,0,1,40,27.31a6.74,6.74,0,0,1,4.79-1.6A7.78,7.78,0,0,1,48.18,26.4Z"/></svg>