<svg id="Layer_1" data-name="Layer 1" xmlns="http://www.w3.org/2000/svg" viewBox="0 0 142.67 113.44"><defs><style>.cls-1{fill:#6c9e3e;}.cls-2{fill:#fff;}</style></defs><title>Artboard 1 copy</title><rect class="cls-1" x="47.69" y="5.83" width="48.19" height="48.19" rx="24.09" ry="24.09"/><path class="cls-2" d="M59.07,37.26,57.61,43.1a.83.83,0,0,0,1.61.4l.67-2.7h5.72L66,42.24A2.5,2.5,0,0,0,70.82,41l-1.66-6.66a2.49,2.49,0,0,0-.56-1.06,2.49,2.49,0,0,0-1.86-4.16H65L64,27.2v0a3.33,3.33,0,1,0-3.83-.77,2.49,2.49,0,0,0-.81,1.3l-1.66,6.66a2.5,2.5,0,0,0,1.41,2.89Zm1.25,1.88.42-1.66h4.06l.42,1.66Zm2.26-16.64a1.66,1.66,0,1,1-1.66,1.66A1.67,1.67,0,0,1,62.58,22.49Zm-3.3,12.28,1.66-6.66a.83.83,0,0,1,1.55-.17h0l1.2,2.41a.83.83,0,0,0,.74.46h2.3a.83.83,0,1,1,0,1.66H63.41a.83.83,0,0,1-.74-.46.83.83,0,1,0-1.49.74,2.48,2.48,0,0,0,2.23,1.38h3.33a.83.83,0,0,1,.81.63l1.66,6.66a.83.83,0,1,1-1.61.4l-1.35-5.4a.83.83,0,0,0-.81-.63H60.08a.83.83,0,0,1-.81-1Z"/><path class="cls-2" d="M85.91,34.37l-1.66-6.66a2.49,2.49,0,0,0-.81-1.3,3.33,3.33,0,1,0-3.83.77v0l-1,1.95H76.83A2.49,2.49,0,0,0,75,33.31a2.49,2.49,0,0,0-.56,1.06L72.75,41a2.5,2.5,0,0,0,4.84,1.21L78,40.8h5.72l.67,2.7A.83.83,0,0,0,86,43.1L84.5,37.26A2.5,2.5,0,0,0,85.91,34.37ZM79.33,24.16A1.66,1.66,0,1,1,81,25.82,1.67,1.67,0,0,1,79.33,24.16Zm-1,15,.42-1.66h4.06l.42,1.66Zm5.12-3.33H78.13a.83.83,0,0,0-.81.63L76,41.84a.83.83,0,1,1-1.62-.4L76,34.77a.83.83,0,0,1,.81-.63h3.33a2.48,2.48,0,0,0,2.23-1.38A.83.83,0,0,0,80.91,32a.83.83,0,0,1-.74.46H76.83a.83.83,0,1,1,0-1.66h2.3a.83.83,0,0,0,.74-.46l1.2-2.41a.83.83,0,0,1,1.55.17l1.66,6.66A.83.83,0,0,1,83.49,35.81Z"/><path class="cls-2" d="M75.49,25.76A.83.83,0,0,0,76,25V22.35A2.5,2.5,0,0,0,77.67,20V18.22a2.5,2.5,0,0,0-2.5-2.5H68.4a2.5,2.5,0,0,0-2.5,2.5V20a2.5,2.5,0,0,0,2.5,2.5h3l3.14,3.09A.83.83,0,0,0,75.49,25.76Zm-1.15-4.1V23l-2-1.94a.83.83,0,0,0-.58-.24H68.4a.83.83,0,0,1-.83-.83V18.22a.83.83,0,0,1,.83-.83h6.77a.83.83,0,0,1,.83.83V20a.83.83,0,0,1-.83.83A.83.83,0,0,0,74.34,21.66Z"/><path class="cls-2" d="M40.28,60.52a1.45,1.45,0,0,0-.71-.2,1.25,1.25,0,0,0-.68.19,1.35,1.35,0,0,0-.48.53,1.75,1.75,0,0,0,0,1.53,1.37,1.37,0,0,0,.48.54,1.23,1.23,0,0,0,.68.2,1.58,1.58,0,0,0,.68-.18,2.24,2.24,0,0,0,.65-.48l1,1a3.41,3.41,0,0,1-1.1.79A3.06,3.06,0,0,1,38,64.37a2.75,2.75,0,0,1-1.06-1.05,3,3,0,0,1-.38-1.5,2.83,2.83,0,0,1,.39-1.48,2.78,2.78,0,0,1,1.08-1,3.22,3.22,0,0,1,2.81-.1,3.08,3.08,0,0,1,1.06.73l-1,1.14A2,2,0,0,0,40.28,60.52Z"/><path class="cls-2" d="M43.79,58.45a.83.83,0,0,1-.6,1.43.83.83,0,0,1-.6-.23.88.88,0,0,1,0-1.2.83.83,0,0,1,.6-.23A.81.81,0,0,1,43.79,58.45Zm-1.4,1.84H44v4.35H42.39Z"/><path class="cls-2" d="M48,64.43a2.17,2.17,0,0,1-.56.2,3,3,0,0,1-.67.08,1.57,1.57,0,0,1-1.11-.38,1.36,1.36,0,0,1-.42-1V61.55h-.6v-1h.6V59.31h1.61v1.21h1.07v1H46.81V63a.44.44,0,0,0,.1.31.35.35,0,0,0,.27.1,1.67,1.67,0,0,0,.5-.13Z"/><path class="cls-2" d="M52.06,60.65a1.43,1.43,0,0,1,.52,1.17v2.82H51v-.48a1.32,1.32,0,0,1-.52.41,1.83,1.83,0,0,1-.75.14,1.51,1.51,0,0,1-1.08-.37,1.31,1.31,0,0,1-.39-1,1.17,1.17,0,0,1,.43-1A2,2,0,0,1,49.93,62H51v0a.51.51,0,0,0-.19-.42.89.89,0,0,0-.56-.15,2.78,2.78,0,0,0-.61.08,4.05,4.05,0,0,0-.7.23l-.4-1.07a5.57,5.57,0,0,1,2.1-.45A2.21,2.21,0,0,1,52.06,60.65ZM50.7,63.54a.69.69,0,0,0,.29-.33v-.39h-.74q-.49,0-.49.41a.4.4,0,0,0,.13.32.53.53,0,0,0,.36.11A.86.86,0,0,0,50.7,63.54Z"/><path class="cls-2" d="M58.48,60.51a2,2,0,0,1,.84.78,2.45,2.45,0,0,1,0,2.35,2,2,0,0,1-.84.78,2.77,2.77,0,0,1-1.27.28,2.8,2.8,0,0,1-1.28-.28,2,2,0,0,1-.85-.78,2.45,2.45,0,0,1,0-2.35,2,2,0,0,1,.85-.78,2.8,2.8,0,0,1,1.28-.28A2.77,2.77,0,0,1,58.48,60.51Zm-1.06-2.07,1.26.46-1.22,1-1.06-.08Zm-.79,3.34a1.25,1.25,0,0,0,0,1.4.71.71,0,0,0,.58.26.7.7,0,0,0,.57-.26,1.24,1.24,0,0,0,0-1.4.69.69,0,0,0-.57-.27A.7.7,0,0,0,56.63,61.78Z"/><path class="cls-2" d="M61.94,59h4.58v1.28H63.6v.88h2.65v1.28H63.6v.89h3v1.28H61.94Z"/><path class="cls-2" d="M71.24,60.43a1.4,1.4,0,0,1,.55.58,1.87,1.87,0,0,1,.2.87v2.76H70.37v-2.3a.74.74,0,0,0-.17-.51.58.58,0,0,0-.45-.19.66.66,0,0,0-.52.24.92.92,0,0,0-.19.61v2.15H67.42V60.29H69V61a1.59,1.59,0,0,1,.58-.55,1.67,1.67,0,0,1,.8-.19A1.62,1.62,0,0,1,71.24,60.43Z"/><path class="cls-2" d="M75.82,64.43a2.17,2.17,0,0,1-.56.2,3,3,0,0,1-.67.08,1.57,1.57,0,0,1-1.11-.38,1.36,1.36,0,0,1-.42-1V61.55h-.6v-1h.6V59.31h1.61v1.21h1.07v1H74.66V63a.44.44,0,0,0,.1.31.35.35,0,0,0,.27.1,1.67,1.67,0,0,0,.5-.13Z"/><path class="cls-2" d="M78.63,60.42a1.58,1.58,0,0,1,.79-.2v1.46l-.28,0a1.22,1.22,0,0,0-.8.24.8.8,0,0,0-.29.66v2.08H76.43V60.29H78V61A1.66,1.66,0,0,1,78.63,60.42Z"/><path class="cls-2" d="M83.62,60.87a2.44,2.44,0,0,1,.6,1.74c0,.11,0,.19,0,.25H81.28a.92.92,0,0,0,.32.48.85.85,0,0,0,.53.17,1.41,1.41,0,0,0,1-.42l.84.82a2.24,2.24,0,0,1-.84.58,2.9,2.9,0,0,1-1.1.2,2.66,2.66,0,0,1-1.25-.28,2,2,0,0,1-.81-.78,2.55,2.55,0,0,1,0-2.34,2,2,0,0,1,.81-.79,2.49,2.49,0,0,1,1.2-.28A2.19,2.19,0,0,1,83.62,60.87Zm-1.18.67a.61.61,0,0,0-.48-.21.6.6,0,0,0-.46.2,1.07,1.07,0,0,0-.25.54h1.37A.74.74,0,0,0,82.44,61.54Z"/><path class="cls-2" d="M84.17,60.29h1.66l.8,2.88.81-2.88h1.62l-1.62,4.35H85.79Z"/><path class="cls-2" d="M90.88,58.45a.83.83,0,0,1-.6,1.43.83.83,0,0,1-.6-.23.88.88,0,0,1,0-1.2.83.83,0,0,1,.6-.23A.81.81,0,0,1,90.88,58.45Zm-1.4,1.84h1.62v4.35H89.48Z"/><path class="cls-2" d="M93.71,61.31a.47.47,0,0,0-.24.05.17.17,0,0,0-.09.16q0,.12.16.2a3.54,3.54,0,0,0,.52.17,6.59,6.59,0,0,1,.8.27,1.51,1.51,0,0,1,.55.41,1.05,1.05,0,0,1,.24.71,1.24,1.24,0,0,1-.52,1.05,2.28,2.28,0,0,1-1.39.39,3.84,3.84,0,0,1-1.1-.16,3.16,3.16,0,0,1-.95-.46l.5-1a3.59,3.59,0,0,0,.81.4,2.4,2.4,0,0,0,.76.14.56.56,0,0,0,.26-.05.16.16,0,0,0,.1-.15c0-.08-.05-.15-.16-.2a3.1,3.1,0,0,0-.52-.17,5.89,5.89,0,0,1-.78-.26,1.5,1.5,0,0,1-.54-.41,1,1,0,0,1-.23-.7,1.27,1.27,0,0,1,.51-1.06,2.15,2.15,0,0,1,1.34-.39,3.76,3.76,0,0,1,1.91.53l-.54,1A3.37,3.37,0,0,0,93.71,61.31Z"/><path class="cls-2" d="M99.33,64.43a2.17,2.17,0,0,1-.56.2,3,3,0,0,1-.67.08A1.57,1.57,0,0,1,97,64.33a1.36,1.36,0,0,1-.42-1V61.55H96v-1h.6V59.31h1.61v1.21h1.07v1H98.17V63a.44.44,0,0,0,.1.31.35.35,0,0,0,.27.1,1.67,1.67,0,0,0,.5-.13Z"/><path class="cls-2" d="M103.43,60.65a1.43,1.43,0,0,1,.52,1.17v2.82h-1.58v-.48a1.32,1.32,0,0,1-.52.41,1.83,1.83,0,0,1-.75.14,1.51,1.51,0,0,1-1.08-.37,1.31,1.31,0,0,1-.39-1,1.17,1.17,0,0,1,.43-1,2,2,0,0,1,1.25-.35h1.06v0a.51.51,0,0,0-.19-.42.89.89,0,0,0-.56-.15,2.78,2.78,0,0,0-.61.08,4.05,4.05,0,0,0-.7.23l-.4-1.07a5.57,5.57,0,0,1,2.1-.45A2.21,2.21,0,0,1,103.43,60.65Zm-1.36,2.89a.69.69,0,0,0,.29-.33v-.39h-.74q-.49,0-.49.41a.4.4,0,0,0,.13.32.53.53,0,0,0,.36.11A.86.86,0,0,0,102.07,63.54Z"/><path class="cls-2" d="M105.87,63.41a.72.72,0,0,1,.21.54.73.73,0,0,1-.76.76.73.73,0,0,1-.54-.21.74.74,0,0,1-.21-.55.72.72,0,0,1,.21-.54.74.74,0,0,1,.54-.21A.75.75,0,0,1,105.87,63.41Z"/><path class="cls-2" d="M30.49,70.18a1.53,1.53,0,0,1,.5,1.22,1.62,1.62,0,0,1-.5,1.27,2,2,0,0,1-1.41.45H27.85v1.53h-.67v-4.9h1.89A2.1,2.1,0,0,1,30.49,70.18ZM30,72.23a1,1,0,0,0,.34-.82,1,1,0,0,0-.34-.79,1.51,1.51,0,0,0-1-.27H27.85v2.15H29A1.49,1.49,0,0,0,30,72.23Z"/><path class="cls-2" d="M33,71.13a1.55,1.55,0,0,1,.8-.21v.63a1.19,1.19,0,0,0-1.32,1.14v2h-.65v-3.7h.65v.8A1.34,1.34,0,0,1,33,71.13Z"/><path class="cls-2" d="M37.28,71.43a2.08,2.08,0,0,1,.44,1.41c0,.09,0,.16,0,.21H34.78a1.26,1.26,0,0,0,.42.79,1.23,1.23,0,0,0,.84.29,1.57,1.57,0,0,0,.61-.12,1.48,1.48,0,0,0,.49-.34l.36.37a1.88,1.88,0,0,1-.66.46,2.19,2.19,0,0,1-.85.16,2,2,0,0,1-1-.23,1.65,1.65,0,0,1-.66-.66,2,2,0,0,1-.23-1,2,2,0,0,1,.23-1,1.71,1.71,0,0,1,.65-.67,1.89,1.89,0,0,1,1-.24A1.63,1.63,0,0,1,37.28,71.43Zm-.15,1.12A1.07,1.07,0,0,0,36,71.46a1.17,1.17,0,0,0-.82.29,1.24,1.24,0,0,0-.39.79Z"/><path class="cls-2" d="M40.12,71.53a1.81,1.81,0,0,0-.53-.08.9.9,0,0,0-.47.11.36.36,0,0,0-.18.33.37.37,0,0,0,.2.34,2.88,2.88,0,0,0,.61.23,4.74,4.74,0,0,1,.63.22,1.12,1.12,0,0,1,.42.33,1,1,0,0,1-.22,1.37,1.69,1.69,0,0,1-1,.27,2.47,2.47,0,0,1-.8-.13,1.82,1.82,0,0,1-.65-.38l.25-.48a1.73,1.73,0,0,0,.57.34,1.89,1.89,0,0,0,.66.13,1,1,0,0,0,.52-.12.4.4,0,0,0,.2-.36.41.41,0,0,0-.21-.38,2.81,2.81,0,0,0-.63-.25,4.19,4.19,0,0,1-.61-.21,1.07,1.07,0,0,1-.4-.32.86.86,0,0,1-.17-.55.88.88,0,0,1,.38-.78,1.64,1.64,0,0,1,.95-.26,2.37,2.37,0,0,1,.66.09,2,2,0,0,1,.56.26l-.24.5A2.21,2.21,0,0,0,40.12,71.53Z"/><path class="cls-2" d="M45.1,70.94v3.7h-.66v-.78a1.39,1.39,0,0,1-1.37.81,1.32,1.32,0,0,1-1-.38,1.46,1.46,0,0,1-.36-1.05V70.94h.66v2.11a1,1,0,0,0,.26.73.94.94,0,0,0,.7.26,1,1,0,0,0,.82-.37,1.38,1.38,0,0,0,.3-.92V70.94Z"/><path class="cls-2" d="M49.35,71.16a1.63,1.63,0,0,1,.63.67,2.25,2.25,0,0,1,0,1.95,1.6,1.6,0,0,1-.62.66,1.8,1.8,0,0,1-.92.23,1.69,1.69,0,0,1-.83-.2,1.4,1.4,0,0,1-.56-.56V76H46.4V70.94h.65v.74a1.4,1.4,0,0,1,.56-.56,1.65,1.65,0,0,1,.82-.2A1.79,1.79,0,0,1,49.35,71.16Zm-.41,2.77a1.16,1.16,0,0,0,.44-.47,1.44,1.44,0,0,0,.16-.68,1.41,1.41,0,0,0-.16-.67,1.19,1.19,0,0,0-.44-.47,1.21,1.21,0,0,0-.64-.17,1.23,1.23,0,0,0-.64.17,1.17,1.17,0,0,0-.44.47,1.5,1.5,0,0,0,0,1.35,1.18,1.18,0,0,0,.44.47,1.31,1.31,0,0,0,1.28,0Z"/><path class="cls-2" d="M54.39,70.94v3.7h-.66v-.78a1.39,1.39,0,0,1-1.37.81,1.32,1.32,0,0,1-1-.38A1.46,1.46,0,0,1,51,73.23V70.94h.66v2.11a1,1,0,0,0,.26.73.94.94,0,0,0,.7.26,1,1,0,0,0,.82-.37,1.38,1.38,0,0,0,.3-.92V70.94Z"/><path class="cls-2" d="M58.44,71.43a2.08,2.08,0,0,1,.44,1.41c0,.09,0,.16,0,.21H56a1.26,1.26,0,0,0,.42.79,1.23,1.23,0,0,0,.84.29,1.57,1.57,0,0,0,.61-.12,1.48,1.48,0,0,0,.49-.34l.36.37a1.88,1.88,0,0,1-.66.46,2.19,2.19,0,0,1-.85.16,2,2,0,0,1-1-.23,1.65,1.65,0,0,1-.66-.66,2,2,0,0,1-.23-1,2,2,0,0,1,.23-1,1.71,1.71,0,0,1,.65-.67,1.89,1.89,0,0,1,1-.24A1.63,1.63,0,0,1,58.44,71.43Zm-.15,1.12a1.07,1.07,0,0,0-1.15-1.08,1.17,1.17,0,0,0-.82.29,1.24,1.24,0,0,0-.39.79Z"/><path class="cls-2" d="M61.29,71.53a1.81,1.81,0,0,0-.53-.08.9.9,0,0,0-.47.11.36.36,0,0,0-.18.33.37.37,0,0,0,.2.34,2.88,2.88,0,0,0,.61.23,4.74,4.74,0,0,1,.63.22A1.12,1.12,0,0,1,62,73a1,1,0,0,1-.22,1.37,1.69,1.69,0,0,1-1,.27,2.47,2.47,0,0,1-.8-.13,1.82,1.82,0,0,1-.65-.38l.25-.48a1.73,1.73,0,0,0,.57.34,1.89,1.89,0,0,0,.66.13,1,1,0,0,0,.52-.12.4.4,0,0,0,.2-.36.41.41,0,0,0-.21-.38,2.81,2.81,0,0,0-.63-.25,4.19,4.19,0,0,1-.61-.21,1.07,1.07,0,0,1-.4-.32.86.86,0,0,1-.17-.55.88.88,0,0,1,.38-.78,1.64,1.64,0,0,1,.95-.26,2.37,2.37,0,0,1,.66.09,2,2,0,0,1,.56.26l-.24.5A2.21,2.21,0,0,0,61.29,71.53Z"/><path class="cls-2" d="M65,74.4a1.6,1.6,0,0,1-.87.27,1,1,0,0,1-.71-.26,1.06,1.06,0,0,1-.27-.79V71.56H62.6v-.5h.52v-1h.66v1h1.13v.5H63.78v1.93a.68.68,0,0,0,.11.44.41.41,0,0,0,.34.13,1.17,1.17,0,0,0,.57-.17Z"/><path class="cls-2" d="M68.25,71.16a1.71,1.71,0,0,1,.67.66,1.92,1.92,0,0,1,.24,1,1.94,1.94,0,0,1-.24,1,1.7,1.7,0,0,1-.67.67,2.17,2.17,0,0,1-2,0,1.71,1.71,0,0,1-.67-.66,2.08,2.08,0,0,1,0-1.95,1.71,1.71,0,0,1,.67-.66,2.16,2.16,0,0,1,2,0Zm-1.63.5a1.16,1.16,0,0,0-.44.47,1.42,1.42,0,0,0-.16.68,1.45,1.45,0,0,0,.16.69,1.13,1.13,0,0,0,.44.47,1.27,1.27,0,0,0,.65.16,1.25,1.25,0,0,0,.64-.16,1.14,1.14,0,0,0,.44-.47,1.46,1.46,0,0,0,.16-.69,1.43,1.43,0,0,0-.16-.68,1.16,1.16,0,0,0-.44-.47,1.23,1.23,0,0,0-.64-.17A1.25,1.25,0,0,0,66.62,71.65Z"/><path class="cls-2" d="M74.69,71.43a2.08,2.08,0,0,1,.44,1.41c0,.09,0,.16,0,.21H72.2a1.26,1.26,0,0,0,.42.79,1.23,1.23,0,0,0,.84.29,1.57,1.57,0,0,0,.61-.12,1.48,1.48,0,0,0,.49-.34l.36.37a1.88,1.88,0,0,1-.66.46,2.19,2.19,0,0,1-.85.16,2,2,0,0,1-1-.23,1.65,1.65,0,0,1-.66-.66,2,2,0,0,1-.23-1,2,2,0,0,1,.23-1,1.71,1.71,0,0,1,.65-.67,1.89,1.89,0,0,1,1-.24A1.63,1.63,0,0,1,74.69,71.43Zm-.15,1.12a1.07,1.07,0,0,0-1.15-1.08,1.17,1.17,0,0,0-.82.29,1.24,1.24,0,0,0-.39.79Z"/><path class="cls-2" d="M79.1,71.3a1.45,1.45,0,0,1,.37,1.05v2.29h-.65V72.53a.91.91,0,0,0-1-1,1.11,1.11,0,0,0-.81.32,1.25,1.25,0,0,0-.35.81v2H76v-3.7h.65v.78a1.43,1.43,0,0,1,1.41-.81A1.36,1.36,0,0,1,79.1,71.3Z"/><path class="cls-2" d="M84.46,74.4a1.6,1.6,0,0,1-.87.27,1,1,0,0,1-.71-.26,1.06,1.06,0,0,1-.27-.79V71.56h-.52v-.5h.52v-1h.66v1h1.13v.5H83.26v1.93a.68.68,0,0,0,.11.44.41.41,0,0,0,.34.13,1.17,1.17,0,0,0,.57-.17Z"/><path class="cls-2" d="M88.52,70.94v3.7h-.66v-.78a1.39,1.39,0,0,1-1.37.81,1.32,1.32,0,0,1-1-.38,1.46,1.46,0,0,1-.36-1.05V70.94h.66v2.11a1,1,0,0,0,.26.73.94.94,0,0,0,.7.26,1,1,0,0,0,.82-.37,1.38,1.38,0,0,0,.3-.92V70.94Z"/><path class="cls-2" d="M93.61,74.4a1.6,1.6,0,0,1-.87.27,1,1,0,0,1-.71-.26,1.06,1.06,0,0,1-.27-.79V71.56h-.52v-.5h.52v-1h.66v1h1.13v.5H92.41v1.93a.68.68,0,0,0,.11.44.41.41,0,0,0,.34.13,1.17,1.17,0,0,0,.57-.17Z"/><path class="cls-2" d="M97.14,71.43a2.08,2.08,0,0,1,.44,1.41c0,.09,0,.16,0,.21H94.65a1.26,1.26,0,0,0,.42.79,1.23,1.23,0,0,0,.84.29,1.57,1.57,0,0,0,.61-.12,1.48,1.48,0,0,0,.49-.34l.36.37a1.88,1.88,0,0,1-.66.46,2.19,2.19,0,0,1-.85.16,2,2,0,0,1-1-.23,1.65,1.65,0,0,1-.66-.66,2,2,0,0,1-.23-1,2,2,0,0,1,.23-1,1.71,1.71,0,0,1,.65-.67,1.89,1.89,0,0,1,1-.24A1.63,1.63,0,0,1,97.14,71.43ZM97,72.54a1.07,1.07,0,0,0-1.15-1.08,1.17,1.17,0,0,0-.82.29,1.24,1.24,0,0,0-.39.79Z"/><path class="cls-2" d="M99.64,71.13a1.55,1.55,0,0,1,.8-.21v.63a1.19,1.19,0,0,0-1.32,1.14v2h-.65v-3.7h.65v.8A1.34,1.34,0,0,1,99.64,71.13Z"/><path class="cls-2" d="M102.31,71.13a1.55,1.55,0,0,1,.8-.21v.63a1.19,1.19,0,0,0-1.32,1.14v2h-.65v-3.7h.65v.8A1.34,1.34,0,0,1,102.31,71.13Z"/><path class="cls-2" d="M106.6,71.43a2.08,2.08,0,0,1,.44,1.41c0,.09,0,.16,0,.21h-2.93a1.26,1.26,0,0,0,.42.79,1.23,1.23,0,0,0,.84.29A1.57,1.57,0,0,0,106,74a1.48,1.48,0,0,0,.49-.34l.36.37a1.88,1.88,0,0,1-.66.46,2.19,2.19,0,0,1-.85.16,2,2,0,0,1-1-.23,1.65,1.65,0,0,1-.66-.66,2,2,0,0,1-.23-1,2,2,0,0,1,.23-1,1.71,1.71,0,0,1,.65-.67,1.89,1.89,0,0,1,1-.24A1.63,1.63,0,0,1,106.6,71.43Zm-.15,1.12a1.07,1.07,0,0,0-1.15-1.08,1.17,1.17,0,0,0-.82.29,1.24,1.24,0,0,0-.39.79Z"/><path class="cls-2" d="M111,71.3a1.45,1.45,0,0,1,.37,1.05v2.29h-.65V72.53a.91.91,0,0,0-1-1,1.11,1.11,0,0,0-.81.32,1.25,1.25,0,0,0-.35.81v2h-.65v-3.7h.65v.78a1.43,1.43,0,0,1,1.41-.81A1.36,1.36,0,0,1,111,71.3Z"/><path class="cls-2" d="M115.07,71.16a1.71,1.71,0,0,1,.67.66,1.92,1.92,0,0,1,.24,1,1.94,1.94,0,0,1-.24,1,1.7,1.7,0,0,1-.67.67,2.17,2.17,0,0,1-2,0,1.71,1.71,0,0,1-.67-.66,2.08,2.08,0,0,1,0-1.95,1.71,1.71,0,0,1,.67-.66,2.16,2.16,0,0,1,2,0Zm-1.63.5a1.16,1.16,0,0,0-.44.47,1.42,1.42,0,0,0-.16.68,1.45,1.45,0,0,0,.16.69,1.13,1.13,0,0,0,.44.47,1.27,1.27,0,0,0,.65.16,1.25,1.25,0,0,0,.64-.16,1.14,1.14,0,0,0,.44-.47,1.46,1.46,0,0,0,.16-.69,1.43,1.43,0,0,0-.16-.68,1.16,1.16,0,0,0-.44-.47,1.23,1.23,0,0,0-.64-.17A1.25,1.25,0,0,0,113.44,71.65Z"/><path class="cls-2" d="M17.67,81.16a1.71,1.71,0,0,1,.67.66,1.92,1.92,0,0,1,.24,1,1.94,1.94,0,0,1-.24,1,1.7,1.7,0,0,1-.67.67,2.17,2.17,0,0,1-2,0,1.71,1.71,0,0,1-.67-.66,2.08,2.08,0,0,1,0-1.95,1.71,1.71,0,0,1,.67-.66,2.16,2.16,0,0,1,2,0Zm-1.63.5a1.16,1.16,0,0,0-.44.47,1.42,1.42,0,0,0-.16.68,1.45,1.45,0,0,0,.16.69,1.13,1.13,0,0,0,.44.47,1.27,1.27,0,0,0,.65.16,1.25,1.25,0,0,0,.64-.16,1.14,1.14,0,0,0,.44-.47,1.46,1.46,0,0,0,.16-.69,1.43,1.43,0,0,0-.16-.68,1.16,1.16,0,0,0-.44-.47,1.23,1.23,0,0,0-.64-.17A1.25,1.25,0,0,0,16,81.65Z"/><path class="cls-2" d="M24.31,81.16a1.63,1.63,0,0,1,.63.67,2.25,2.25,0,0,1,0,1.95,1.6,1.6,0,0,1-.62.66,1.8,1.8,0,0,1-.92.23,1.69,1.69,0,0,1-.83-.2,1.4,1.4,0,0,1-.56-.56v.73h-.65V79.45H22v2.23a1.4,1.4,0,0,1,.56-.56,1.65,1.65,0,0,1,.82-.2A1.79,1.79,0,0,1,24.31,81.16Zm-.41,2.77a1.16,1.16,0,0,0,.44-.47,1.44,1.44,0,0,0,.16-.68,1.41,1.41,0,0,0-.16-.67,1.19,1.19,0,0,0-.44-.47,1.21,1.21,0,0,0-.64-.17,1.23,1.23,0,0,0-.64.17,1.17,1.17,0,0,0-.44.47,1.5,1.5,0,0,0,0,1.35,1.18,1.18,0,0,0,.44.47,1.31,1.31,0,0,0,1.28,0Z"/><path class="cls-2" d="M29.35,80.94v3.7h-.66v-.78a1.39,1.39,0,0,1-1.37.81,1.32,1.32,0,0,1-1-.38,1.46,1.46,0,0,1-.36-1.05V80.94h.66v2.11a1,1,0,0,0,.26.73.94.94,0,0,0,.7.26,1,1,0,0,0,.82-.37,1.38,1.38,0,0,0,.3-.92V80.94Z"/><path class="cls-2" d="M32.13,81.53a1.81,1.81,0,0,0-.53-.08.9.9,0,0,0-.47.11.36.36,0,0,0-.18.33.37.37,0,0,0,.2.34,2.88,2.88,0,0,0,.61.23,4.74,4.74,0,0,1,.63.22,1.12,1.12,0,0,1,.42.33,1,1,0,0,1-.22,1.37,1.69,1.69,0,0,1-1,.27,2.47,2.47,0,0,1-.8-.13,1.82,1.82,0,0,1-.65-.38l.25-.48A1.73,1.73,0,0,0,31,84a1.89,1.89,0,0,0,.66.13,1,1,0,0,0,.52-.12.4.4,0,0,0,.2-.36.41.41,0,0,0-.21-.38A2.81,2.81,0,0,0,31.5,83a4.19,4.19,0,0,1-.61-.21,1.07,1.07,0,0,1-.4-.32.86.86,0,0,1-.17-.55.88.88,0,0,1,.38-.78,1.64,1.64,0,0,1,.95-.26,2.37,2.37,0,0,1,.66.09,2,2,0,0,1,.56.26l-.24.5A2.21,2.21,0,0,0,32.13,81.53Z"/><path class="cls-2" d="M35.37,81.5a1.29,1.29,0,0,0-.65.16,1.15,1.15,0,0,0-.44.46,1.39,1.39,0,0,0-.16.68,1.42,1.42,0,0,0,.16.68,1.16,1.16,0,0,0,.43.46,1.21,1.21,0,0,0,.63.16A1.66,1.66,0,0,0,36,84a1.22,1.22,0,0,0,.48-.34l.37.38a1.63,1.63,0,0,1-.64.48,2.19,2.19,0,0,1-.88.17,1.91,1.91,0,0,1-1-.24,1.68,1.68,0,0,1-.65-.66,2.13,2.13,0,0,1,0-1.94,1.67,1.67,0,0,1,.65-.67,1.91,1.91,0,0,1,1-.24,2.35,2.35,0,0,1,.84.14,1.63,1.63,0,0,1,.63.42l-.36.45A1.47,1.47,0,0,0,35.37,81.5Z"/><path class="cls-2" d="M39.85,84.64v-.52a1.52,1.52,0,0,1-1.3.55,1.47,1.47,0,0,1-.67-.15,1.08,1.08,0,0,1-.45-.41,1.09,1.09,0,0,1-.16-.58,1,1,0,0,1,.37-.79,1.65,1.65,0,0,1,1-.3h1.18v-.18a.77.77,0,0,0-.24-.61,1,1,0,0,0-.7-.21,2,2,0,0,0-1.14.4l-.27-.45a3.35,3.35,0,0,1,.74-.37,2.52,2.52,0,0,1,.81-.12,1.55,1.55,0,0,1,1.07.34,1.23,1.23,0,0,1,.38.95v2.44Zm-.39-.73a.87.87,0,0,0,.38-.58V83H38.75a1.27,1.27,0,0,0-.65.13.46.46,0,0,0-.21.42.54.54,0,0,0,.22.45.92.92,0,0,0,.58.17A1.33,1.33,0,0,0,39.46,83.91Z"/><path class="cls-2" d="M47.44,81.3a1.47,1.47,0,0,1,.36,1v2.29h-.66V82.53a1,1,0,0,0-.26-.74.93.93,0,0,0-.7-.27,1.07,1.07,0,0,0-.83.37,1.38,1.38,0,0,0-.3.92v1.83H44.4V82.53a1,1,0,0,0-.25-.74.93.93,0,0,0-.71-.27,1.08,1.08,0,0,0-.83.37,1.36,1.36,0,0,0-.3.92v1.83h-.65v-3.7h.65v.78a1.4,1.4,0,0,1,1.38-.8,1.42,1.42,0,0,1,.85.25,1.2,1.2,0,0,1,.46.69,1.41,1.41,0,0,1,1.44-.93A1.31,1.31,0,0,1,47.44,81.3Z"/><path class="cls-2" d="M51.48,81.16a1.71,1.71,0,0,1,.67.66,1.92,1.92,0,0,1,.24,1,1.94,1.94,0,0,1-.24,1,1.7,1.7,0,0,1-.67.67,2.17,2.17,0,0,1-2,0,1.71,1.71,0,0,1-.67-.66,2.08,2.08,0,0,1,0-1.95,1.71,1.71,0,0,1,.67-.66,2.16,2.16,0,0,1,2,0Zm-1.63.5a1.16,1.16,0,0,0-.44.47,1.42,1.42,0,0,0-.16.68,1.45,1.45,0,0,0,.16.69,1.13,1.13,0,0,0,.44.47,1.27,1.27,0,0,0,.65.16,1.25,1.25,0,0,0,.64-.16,1.14,1.14,0,0,0,.44-.47,1.46,1.46,0,0,0,.16-.69,1.43,1.43,0,0,0-.16-.68,1.16,1.16,0,0,0-.44-.47,1.23,1.23,0,0,0-.64-.17A1.25,1.25,0,0,0,49.85,81.65Z"/><path class="cls-2" d="M54.82,81.53a1.81,1.81,0,0,0-.53-.08.9.9,0,0,0-.47.11.36.36,0,0,0-.18.33.37.37,0,0,0,.2.34,2.88,2.88,0,0,0,.61.23,4.74,4.74,0,0,1,.63.22,1.12,1.12,0,0,1,.42.33,1,1,0,0,1-.22,1.37,1.69,1.69,0,0,1-1,.27,2.47,2.47,0,0,1-.8-.13,1.82,1.82,0,0,1-.65-.38l.25-.48a1.73,1.73,0,0,0,.57.34,1.89,1.89,0,0,0,.66.13,1,1,0,0,0,.52-.12.4.4,0,0,0,.2-.36.41.41,0,0,0-.21-.38,2.81,2.81,0,0,0-.63-.25,4.19,4.19,0,0,1-.61-.21,1.07,1.07,0,0,1-.4-.32.86.86,0,0,1-.17-.55.88.88,0,0,1,.38-.78,1.64,1.64,0,0,1,.95-.26A2.37,2.37,0,0,1,55,81a2,2,0,0,1,.56.26l-.24.5A2.21,2.21,0,0,0,54.82,81.53Z"/><path class="cls-2" d="M60.88,81.16a1.71,1.71,0,0,1,.67.66,1.92,1.92,0,0,1,.24,1,1.94,1.94,0,0,1-.24,1,1.7,1.7,0,0,1-.67.67,2.17,2.17,0,0,1-2,0,1.71,1.71,0,0,1-.67-.66,2.08,2.08,0,0,1,0-1.95,1.71,1.71,0,0,1,.67-.66,2.16,2.16,0,0,1,2,0Zm-1.63.5a1.16,1.16,0,0,0-.44.47,1.42,1.42,0,0,0-.16.68,1.45,1.45,0,0,0,.16.69,1.13,1.13,0,0,0,.44.47,1.27,1.27,0,0,0,.65.16,1.25,1.25,0,0,0,.64-.16,1.14,1.14,0,0,0,.44-.47,1.46,1.46,0,0,0,.16-.69,1.43,1.43,0,0,0-.16-.68,1.16,1.16,0,0,0-.44-.47,1.23,1.23,0,0,0-.64-.17A1.25,1.25,0,0,0,59.25,81.65Z"/><path class="cls-2" d="M65.69,81.16a1.63,1.63,0,0,1,.63.67,2.25,2.25,0,0,1,0,1.95,1.6,1.6,0,0,1-.62.66,1.8,1.8,0,0,1-.92.23,1.69,1.69,0,0,1-.83-.2,1.4,1.4,0,0,1-.56-.56V86h-.65V80.94h.65v.74a1.4,1.4,0,0,1,.56-.56,1.65,1.65,0,0,1,.82-.2A1.79,1.79,0,0,1,65.69,81.16Zm-.41,2.77a1.16,1.16,0,0,0,.44-.47,1.44,1.44,0,0,0,.16-.68,1.41,1.41,0,0,0-.16-.67,1.19,1.19,0,0,0-.44-.47,1.21,1.21,0,0,0-.64-.17,1.23,1.23,0,0,0-.64.17,1.17,1.17,0,0,0-.44.47,1.5,1.5,0,0,0,0,1.35,1.18,1.18,0,0,0,.44.47,1.31,1.31,0,0,0,1.28,0Z"/><path class="cls-2" d="M69,81.5a1.29,1.29,0,0,0-.65.16,1.15,1.15,0,0,0-.44.46,1.39,1.39,0,0,0-.16.68,1.42,1.42,0,0,0,.16.68,1.16,1.16,0,0,0,.43.46,1.21,1.21,0,0,0,.63.16,1.66,1.66,0,0,0,.64-.12,1.22,1.22,0,0,0,.48-.34l.37.38a1.63,1.63,0,0,1-.64.48,2.19,2.19,0,0,1-.88.17,1.91,1.91,0,0,1-1-.24,1.68,1.68,0,0,1-.65-.66,2.13,2.13,0,0,1,0-1.94,1.67,1.67,0,0,1,.65-.67,1.91,1.91,0,0,1,1-.24,2.35,2.35,0,0,1,.84.14,1.63,1.63,0,0,1,.63.42l-.36.45A1.47,1.47,0,0,0,69,81.5Z"/><path class="cls-2" d="M72,79.58a.45.45,0,0,1,0,.6.41.41,0,0,1-.58,0,.45.45,0,0,1,0-.6.41.41,0,0,1,.58,0Zm-.61,1.36H72v3.7h-.65Z"/><path class="cls-2" d="M75.83,81.16a1.71,1.71,0,0,1,.67.66,1.92,1.92,0,0,1,.24,1,1.94,1.94,0,0,1-.24,1,1.7,1.7,0,0,1-.67.67,2.17,2.17,0,0,1-2,0,1.71,1.71,0,0,1-.67-.66,2.08,2.08,0,0,1,0-1.95,1.71,1.71,0,0,1,.67-.66,2.16,2.16,0,0,1,2,0Zm-1.63.5a1.16,1.16,0,0,0-.44.47,1.42,1.42,0,0,0-.16.68,1.45,1.45,0,0,0,.16.69,1.13,1.13,0,0,0,.44.47,1.27,1.27,0,0,0,.65.16,1.25,1.25,0,0,0,.64-.16,1.14,1.14,0,0,0,.44-.47,1.46,1.46,0,0,0,.16-.69,1.43,1.43,0,0,0-.16-.68,1.16,1.16,0,0,0-.44-.47,1.23,1.23,0,0,0-.64-.17A1.25,1.25,0,0,0,74.2,81.65Z"/><path class="cls-2" d="M80.73,81.3a1.45,1.45,0,0,1,.37,1.05v2.29h-.65V82.53a.91.91,0,0,0-1-1,1.11,1.11,0,0,0-.81.32,1.25,1.25,0,0,0-.35.81v2h-.65v-3.7h.65v.78a1.43,1.43,0,0,1,1.41-.81A1.36,1.36,0,0,1,80.73,81.3Z"/><path class="cls-2" d="M85.05,81.43a2.08,2.08,0,0,1,.44,1.41c0,.09,0,.16,0,.21H82.56a1.26,1.26,0,0,0,.42.79,1.23,1.23,0,0,0,.84.29,1.57,1.57,0,0,0,.61-.12,1.48,1.48,0,0,0,.49-.34l.36.37a1.88,1.88,0,0,1-.66.46,2.19,2.19,0,0,1-.85.16,2,2,0,0,1-1-.23,1.65,1.65,0,0,1-.66-.66,2,2,0,0,1-.23-1,2,2,0,0,1,.23-1,1.71,1.71,0,0,1,.65-.67,1.89,1.89,0,0,1,1-.24A1.63,1.63,0,0,1,85.05,81.43Zm-.15,1.12a1.07,1.07,0,0,0-1.15-1.08,1.17,1.17,0,0,0-.82.29,1.24,1.24,0,0,0-.39.79Z"/><path class="cls-2" d="M87.9,81.53a1.81,1.81,0,0,0-.53-.08.9.9,0,0,0-.47.11.36.36,0,0,0-.18.33.37.37,0,0,0,.2.34,2.88,2.88,0,0,0,.61.23,4.74,4.74,0,0,1,.63.22,1.12,1.12,0,0,1,.42.33,1,1,0,0,1-.22,1.37,1.69,1.69,0,0,1-1,.27,2.47,2.47,0,0,1-.8-.13,1.82,1.82,0,0,1-.65-.38l.25-.48a1.73,1.73,0,0,0,.57.34,1.89,1.89,0,0,0,.66.13A1,1,0,0,0,87.9,84a.4.4,0,0,0,.2-.36.41.41,0,0,0-.21-.38,2.81,2.81,0,0,0-.63-.25,4.19,4.19,0,0,1-.61-.21,1.07,1.07,0,0,1-.4-.32.86.86,0,0,1-.17-.55.88.88,0,0,1,.38-.78,1.64,1.64,0,0,1,.95-.26,2.37,2.37,0,0,1,.66.09,2,2,0,0,1,.56.26l-.24.5A2.21,2.21,0,0,0,87.9,81.53Z"/><path class="cls-2" d="M94.89,79.45v5.19h-.65v-.73a1.46,1.46,0,0,1-.56.57,1.65,1.65,0,0,1-.82.2,1.77,1.77,0,0,1-.93-.24,1.66,1.66,0,0,1-.63-.67,2.1,2.1,0,0,1-.22-1,2,2,0,0,1,.22-1,1.65,1.65,0,0,1,.63-.66,1.78,1.78,0,0,1,.92-.24,1.71,1.71,0,0,1,.83.2,1.39,1.39,0,0,1,.56.57V79.45Zm-1.26,4.5a1.18,1.18,0,0,0,.45-.47,1.43,1.43,0,0,0,.16-.68,1.44,1.44,0,0,0-.16-.69,1.18,1.18,0,0,0-.45-.47,1.24,1.24,0,0,0-.65-.17,1.23,1.23,0,0,0-.65.17,1.21,1.21,0,0,0-.44.47,1.51,1.51,0,0,0,0,1.36,1.19,1.19,0,0,0,.44.47,1.33,1.33,0,0,0,1.29,0Z"/><path class="cls-2" d="M99,81.43a2.08,2.08,0,0,1,.44,1.41c0,.09,0,.16,0,.21H96.49a1.26,1.26,0,0,0,.42.79,1.23,1.23,0,0,0,.84.29,1.57,1.57,0,0,0,.61-.12,1.48,1.48,0,0,0,.49-.34l.36.37a1.88,1.88,0,0,1-.66.46,2.19,2.19,0,0,1-.85.16,2,2,0,0,1-1-.23,1.65,1.65,0,0,1-.66-.66,2,2,0,0,1-.23-1,2,2,0,0,1,.23-1,1.71,1.71,0,0,1,.65-.67,1.89,1.89,0,0,1,1-.24A1.63,1.63,0,0,1,99,81.43Zm-.15,1.12a1.07,1.07,0,0,0-1.15-1.08,1.17,1.17,0,0,0-.82.29,1.24,1.24,0,0,0-.39.79Z"/><path class="cls-2" d="M104.13,84.4a1.6,1.6,0,0,1-.87.27,1,1,0,0,1-.71-.26,1.06,1.06,0,0,1-.27-.79V81.56h-.52v-.5h.52v-1h.66v1h1.13v.5h-1.13v1.93a.68.68,0,0,0,.11.44.41.41,0,0,0,.34.13,1.17,1.17,0,0,0,.57-.17Z"/><path class="cls-2" d="M107.66,81.43a2.08,2.08,0,0,1,.44,1.41c0,.09,0,.16,0,.21h-2.93a1.26,1.26,0,0,0,.42.79,1.23,1.23,0,0,0,.84.29A1.57,1.57,0,0,0,107,84a1.48,1.48,0,0,0,.49-.34l.36.37a1.88,1.88,0,0,1-.66.46,2.19,2.19,0,0,1-.85.16,2,2,0,0,1-1-.23,1.65,1.65,0,0,1-.66-.66,2,2,0,0,1-.23-1,2,2,0,0,1,.23-1,1.71,1.71,0,0,1,.65-.67,1.89,1.89,0,0,1,1-.24A1.63,1.63,0,0,1,107.66,81.43Zm-.15,1.12a1.07,1.07,0,0,0-1.15-1.08,1.17,1.17,0,0,0-.82.29,1.24,1.24,0,0,0-.39.79Z"/><path class="cls-2" d="M110.16,81.13a1.55,1.55,0,0,1,.8-.21v.63a1.19,1.19,0,0,0-1.32,1.14v2H109v-3.7h.65v.8A1.34,1.34,0,0,1,110.16,81.13Z"/><path class="cls-2" d="M112.83,81.13a1.55,1.55,0,0,1,.8-.21v.63a1.19,1.19,0,0,0-1.32,1.14v2h-.65v-3.7h.65v.8A1.34,1.34,0,0,1,112.83,81.13Z"/><path class="cls-2" d="M117.13,81.43a2.08,2.08,0,0,1,.44,1.41c0,.09,0,.16,0,.21h-2.93a1.26,1.26,0,0,0,.42.79,1.23,1.23,0,0,0,.84.29,1.57,1.57,0,0,0,.61-.12,1.48,1.48,0,0,0,.49-.34l.36.37a1.88,1.88,0,0,1-.66.46,2.19,2.19,0,0,1-.85.16,2,2,0,0,1-1-.23,1.65,1.65,0,0,1-.66-.66,2,2,0,0,1-.23-1,2,2,0,0,1,.23-1,1.71,1.71,0,0,1,.65-.67,1.89,1.89,0,0,1,1-.24A1.63,1.63,0,0,1,117.13,81.43ZM117,82.54a1.07,1.07,0,0,0-1.15-1.08,1.17,1.17,0,0,0-.82.29,1.24,1.24,0,0,0-.39.79Z"/><path class="cls-2" d="M121.54,81.3a1.45,1.45,0,0,1,.37,1.05v2.29h-.65V82.53a.91.91,0,0,0-1-1,1.11,1.11,0,0,0-.81.32,1.25,1.25,0,0,0-.35.81v2h-.65v-3.7h.65v.78a1.43,1.43,0,0,1,1.41-.81A1.36,1.36,0,0,1,121.54,81.3Z"/><path class="cls-2" d="M125.59,81.16a1.71,1.71,0,0,1,.67.66,1.92,1.92,0,0,1,.24,1,1.94,1.94,0,0,1-.24,1,1.7,1.7,0,0,1-.67.67,2.17,2.17,0,0,1-2,0,1.71,1.71,0,0,1-.67-.66,2.08,2.08,0,0,1,0-1.95,1.71,1.71,0,0,1,.67-.66,2.16,2.16,0,0,1,2,0Zm-1.63.5a1.16,1.16,0,0,0-.44.47,1.42,1.42,0,0,0-.16.68,1.45,1.45,0,0,0,.16.69,1.13,1.13,0,0,0,.44.47,1.27,1.27,0,0,0,.65.16,1.25,1.25,0,0,0,.64-.16,1.14,1.14,0,0,0,.44-.47,1.46,1.46,0,0,0,.16-.69,1.43,1.43,0,0,0-.16-.68,1.16,1.16,0,0,0-.44-.47,1.23,1.23,0,0,0-.64-.17A1.25,1.25,0,0,0,124,81.65Z"/><path class="cls-2" d="M127.78,84a.4.4,0,0,1,.11.29.41.41,0,0,1-.11.29.35.35,0,0,1-.27.12.36.36,0,0,1-.27-.12.4.4,0,0,1-.11-.29.39.39,0,0,1,.11-.29.37.37,0,0,1,.27-.11A.36.36,0,0,1,127.78,84Z"/><circle class="cls-2" cx="47.5" cy="12.77" r="9.77"/><path class="cls-1" d="M45.67,10.12h2.69v5.61H46.69V11.45h-1Z"/></svg>