<?xml version="1.0" encoding="utf-8"?>
<!-- Generator: Adobe Illustrator 21.0.0, SVG Export Plug-In . SVG Version: 6.00 Build 0)  -->
<svg version="1.1" id="Layer_1" xmlns="http://www.w3.org/2000/svg" xmlns:xlink="http://www.w3.org/1999/xlink" x="0px" y="0px"
	 viewBox="0 0 142.7 113.4" style="enable-background:new 0 0 142.7 113.4;" xml:space="preserve">
<style type="text/css">
	.st0{fill:#6C9E3E;}
	.st1{fill:#FFFFFF;}
</style>
<title>Mesa de trabajo 4</title>
<g>
	<path class="st0" d="M66.6,3h3.7c13.3,0,24.1,10.8,24.1,24.1v3.7c0,13.3-10.8,24.1-24.1,24.1h-3.7c-13.3,0-24.1-10.8-24.1-24.1
		v-3.7C42.5,13.8,53.3,3,66.6,3z"/>
	<path class="st1" d="M71.3,29.5c4.2,0,7.6-3.4,7.6-7.6s-3.4-7.6-7.6-7.6c-4.2,0-7.6,3.4-7.6,7.6C63.7,26.1,67.1,29.5,71.3,29.5z
		 M71.3,16.1c3.2,0,5.8,2.6,5.8,5.8c0,3.2-2.6,5.8-5.8,5.8c-3.2,0-5.8-2.6-5.8-5.8C65.5,18.7,68.1,16.1,71.3,16.1z"/>
	<path class="st1" d="M70.1,24.3c-0.2-0.1-0.3-0.4-0.3-0.6h-1.7c0,1.3,1,2.4,2.3,2.5v0.7h1.7v-0.7c1.4-0.2,2.4-1.4,2.3-2.8
		c-0.1-1.2-1.1-2.1-2.3-2.3v-1.7c0.1,0,0.2,0.1,0.3,0.1c0.2,0.1,0.3,0.4,0.3,0.6h1.7c0-1.3-1-2.4-2.3-2.5v-0.7h-1.7v0.7
		C69,17.8,68,19,68.2,20.5c0.1,1.2,1.1,2.1,2.3,2.3v1.7C70.3,24.4,70.2,24.4,70.1,24.3z M72.4,23c0.4,0.3,0.4,0.8,0.1,1.2
		c0,0-0.1,0.1-0.1,0.1c-0.1,0.1-0.2,0.1-0.3,0.1v-1.5C72.3,22.9,72.4,23,72.4,23z M70.1,20.8c-0.4-0.3-0.4-0.8-0.1-1.2
		c0,0,0.1-0.1,0.1-0.1c0.1-0.1,0.2-0.1,0.3-0.1v1.5C70.3,20.9,70.2,20.8,70.1,20.8L70.1,20.8z"/>
	<path class="st1" d="M82,33.3L75.1,35v-2.5l-8-2l-8.2,1.3h-5.1v11.8h6v-2.4l4.2-0.5l8.2,2.3L83,37L82,33.3z M58.1,41.8h-2.5v-8.3
		h2.5L58.1,41.8L58.1,41.8z M72,41.1l-7.8-2.2l-4.4,0.5v-6l7.2-1.1l6.3,1.6V35l-4.9-1.2l-0.4,1.7l6.2,1.5l6.5-1.6l0.2,0.7L72,41.1z"
		/>
	<circle class="st1" cx="47.5" cy="12.8" r="9.8"/>
	<path class="st0" d="M49.7,14.4v1.3h-4.3v-1.1l2-2.1c0.1-0.1,0.3-0.3,0.3-0.4c0.1-0.1,0.1-0.2,0.1-0.4c0-0.1,0-0.2-0.1-0.3
		c-0.1-0.1-0.2-0.1-0.4-0.1c-0.3,0-0.5,0.1-0.7,0.2c-0.3,0.1-0.6,0.3-0.8,0.5l-0.6-1.2c0.7-0.5,1.5-0.9,2.4-0.9c0.3,0,0.7,0.1,1,0.2
		c0.3,0.1,0.5,0.3,0.7,0.5c0.2,0.2,0.3,0.5,0.3,0.8c0,0.3-0.1,0.6-0.3,0.9c-0.2,0.4-0.5,0.7-0.8,1l-1,1L49.7,14.4z"/>
	<g>
		<path class="st1" d="M43.6,58.3h4.5v1.3h-3v0.8h2.7v1.2h-2.7v0.9h3v1.3h-4.5V58.3z"/>
		<path class="st1" d="M48.5,63.4l0.6-0.9c0.5,0.3,1,0.5,1.5,0.5c0.3,0,0.4-0.1,0.4-0.2v0c0-0.2-0.2-0.2-0.7-0.4
			c-0.9-0.2-1.5-0.5-1.5-1.4v0c0-0.9,0.7-1.4,1.7-1.4c0.6,0,1.3,0.2,1.8,0.5l-0.5,1c-0.4-0.2-0.9-0.4-1.3-0.4
			c-0.2,0-0.4,0.1-0.4,0.2v0c0,0.2,0.2,0.2,0.7,0.4c0.9,0.2,1.5,0.5,1.5,1.4v0c0,1-0.7,1.4-1.8,1.4C49.8,64,49.1,63.8,48.5,63.4z"/>
		<path class="st1" d="M52.8,61.8L52.8,61.8c0-1.2,1-2.3,2.3-2.3c0.9,0,1.5,0.4,1.8,1l-1,0.8c-0.2-0.3-0.4-0.5-0.8-0.5
			c-0.5,0-0.8,0.4-0.8,1v0c0,0.6,0.4,1,0.9,1c0.4,0,0.6-0.2,0.8-0.4l1,0.7c-0.4,0.6-1,1-1.9,1C53.7,64,52.8,63,52.8,61.8z"/>
		<path class="st1" d="M57.5,62.4v-2.8H59v2.3c0,0.5,0.2,0.7,0.6,0.7c0.4,0,0.6-0.3,0.6-0.7v-2.3h1.5v4.3h-1.5v-0.6
			C60,63.7,59.6,64,58.9,64C58,64,57.5,63.4,57.5,62.4z"/>
		<path class="st1" d="M62.4,61.8L62.4,61.8c0-1.2,1-2.3,2.3-2.3c0.9,0,1.5,0.4,1.8,1l-1,0.8c-0.2-0.3-0.4-0.5-0.8-0.5
			c-0.5,0-0.8,0.4-0.8,1v0c0,0.6,0.4,1,0.9,1c0.4,0,0.6-0.2,0.8-0.4l1,0.7c-0.4,0.6-1,1-1.9,1C63.4,64,62.4,63,62.4,61.8z"/>
		<path class="st1" d="M67.1,58.1h1.5v2.1c0.3-0.4,0.7-0.7,1.3-0.7c0.9,0,1.5,0.6,1.5,1.6v2.8h-1.5v-2.3c0-0.5-0.2-0.7-0.6-0.7
			c-0.4,0-0.6,0.3-0.6,0.7v2.3h-1.5V58.1z"/>
		<path class="st1" d="M72,62.7L72,62.7c0-0.9,0.7-1.4,1.7-1.4c0.4,0,0.8,0.1,1,0.2v-0.1c0-0.4-0.3-0.7-0.9-0.7
			c-0.5,0-0.8,0.1-1.2,0.2l-0.3-1.1c0.5-0.2,1-0.3,1.8-0.3c0.8,0,1.3,0.2,1.6,0.5c0.3,0.3,0.5,0.8,0.5,1.4v2.5h-1.5v-0.4
			C74.4,63.8,74,64,73.4,64C72.6,64,72,63.5,72,62.7z M74.7,62.3v-0.2c-0.2-0.1-0.4-0.1-0.6-0.1c-0.4,0-0.7,0.2-0.7,0.5v0
			c0,0.3,0.2,0.5,0.5,0.5C74.4,63.1,74.7,62.8,74.7,62.3z"/>
		<path class="st1" d="M77,59.6h1.5v0.6c0.3-0.4,0.7-0.7,1.3-0.7c0.6,0,1,0.3,1.2,0.7c0.4-0.4,0.8-0.7,1.4-0.7
			c0.9,0,1.5,0.6,1.5,1.6v2.8h-1.5v-2.4c0-0.5-0.2-0.7-0.6-0.7c-0.4,0-0.6,0.2-0.6,0.7v2.4h-1.5v-2.4c0-0.5-0.2-0.7-0.6-0.7
			c-0.4,0-0.6,0.2-0.6,0.7v2.4H77V59.6z"/>
		<path class="st1" d="M84.6,61.8L84.6,61.8c0-1.2,1-2.3,2.4-2.3c1.4,0,2.4,1,2.4,2.2v0c0,1.2-1,2.3-2.4,2.3
			C85.6,64,84.6,63,84.6,61.8z M87.9,61.8L87.9,61.8c0-0.5-0.4-1-0.9-1c-0.6,0-0.9,0.4-0.9,1v0c0,0.5,0.4,1,0.9,1
			C87.5,62.7,87.9,62.3,87.9,61.8z"/>
		<path class="st1" d="M89.7,63.4l0.6-0.9c0.5,0.3,1,0.5,1.5,0.5c0.3,0,0.4-0.1,0.4-0.2v0c0-0.2-0.2-0.2-0.7-0.4
			c-0.9-0.2-1.5-0.5-1.5-1.4v0c0-0.9,0.7-1.4,1.7-1.4c0.6,0,1.3,0.2,1.8,0.5l-0.5,1c-0.4-0.2-0.9-0.4-1.3-0.4
			c-0.2,0-0.4,0.1-0.4,0.2v0c0,0.2,0.2,0.2,0.7,0.4c0.9,0.2,1.5,0.5,1.5,1.4v0c0,1-0.7,1.4-1.8,1.4C91,64,90.3,63.8,89.7,63.4z"/>
		<path class="st1" d="M36.3,69.3h-1.7v-1.4h4.9v1.4h-1.7v4.2h-1.6V69.3z"/>
		<path class="st1" d="M39.9,72v-2.8h1.5v2.3c0,0.5,0.2,0.7,0.6,0.7c0.4,0,0.6-0.3,0.6-0.7v-2.3h1.5v4.3h-1.5v-0.6
			c-0.3,0.4-0.7,0.7-1.3,0.7C40.4,73.6,39.9,73,39.9,72z"/>
		<path class="st1" d="M44.7,73l0.6-0.9c0.5,0.3,1,0.5,1.5,0.5c0.3,0,0.4-0.1,0.4-0.2v0c0-0.2-0.2-0.2-0.7-0.4
			c-0.9-0.2-1.5-0.5-1.5-1.4v0c0-0.9,0.7-1.4,1.7-1.4c0.6,0,1.3,0.2,1.8,0.5l-0.5,1c-0.4-0.2-0.9-0.4-1.3-0.4
			c-0.2,0-0.4,0.1-0.4,0.2v0c0,0.2,0.2,0.2,0.7,0.4c0.9,0.2,1.5,0.5,1.5,1.4v0c0,1-0.7,1.4-1.8,1.4C46,73.6,45.3,73.4,44.7,73z"/>
		<path class="st1" d="M51.4,67.9h1.4l2.3,3v-3h1.5v5.6h-1.4l-2.4-3.1v3.1h-1.5V67.9z"/>
		<path class="st1" d="M57.4,71.4L57.4,71.4c0-1.3,0.9-2.3,2.2-2.3c1.5,0,2.2,1.1,2.2,2.4c0,0.1,0,0.2,0,0.3h-2.9
			c0.1,0.5,0.5,0.7,0.9,0.7c0.4,0,0.6-0.1,1-0.4l0.8,0.7c-0.4,0.5-1,0.9-1.9,0.9C58.4,73.6,57.4,72.7,57.4,71.4z M60.4,71
			c-0.1-0.5-0.3-0.8-0.8-0.8c-0.4,0-0.7,0.3-0.8,0.8H60.4z"/>
		<path class="st1" d="M62.3,71.4L62.3,71.4c0-1.2,1-2.3,2.3-2.3c0.9,0,1.5,0.4,1.8,1l-1,0.8c-0.2-0.3-0.4-0.5-0.8-0.5
			c-0.5,0-0.8,0.4-0.8,1v0c0,0.6,0.4,1,0.9,1c0.4,0,0.6-0.2,0.8-0.4l1,0.7c-0.4,0.6-1,1-1.9,1C63.2,73.6,62.3,72.6,62.3,71.4z"/>
		<path class="st1" d="M66.7,71.4L66.7,71.4c0-1.3,0.9-2.3,2.2-2.3c1.5,0,2.2,1.1,2.2,2.4c0,0.1,0,0.2,0,0.3h-2.9
			c0.1,0.5,0.5,0.7,0.9,0.7c0.4,0,0.6-0.1,1-0.4l0.8,0.7c-0.4,0.5-1,0.9-1.9,0.9C67.6,73.6,66.7,72.7,66.7,71.4z M69.6,71
			c-0.1-0.5-0.3-0.8-0.8-0.8c-0.4,0-0.7,0.3-0.8,0.8H69.6z"/>
		<path class="st1" d="M71.4,73l0.6-0.9c0.5,0.3,1,0.5,1.5,0.5c0.3,0,0.4-0.1,0.4-0.2v0c0-0.2-0.2-0.2-0.7-0.4
			c-0.9-0.2-1.5-0.5-1.5-1.4v0c0-0.9,0.7-1.4,1.7-1.4c0.6,0,1.3,0.2,1.8,0.5l-0.5,1c-0.4-0.2-0.9-0.4-1.3-0.4
			c-0.2,0-0.4,0.1-0.4,0.2v0c0,0.2,0.2,0.2,0.7,0.4c0.9,0.2,1.5,0.5,1.5,1.4v0c0,1-0.7,1.4-1.8,1.4C72.7,73.6,72,73.4,71.4,73z"/>
		<path class="st1" d="M75.8,67.7h1.6v1.1h-1.6V67.7z M75.8,69.2h1.5v4.3h-1.5V69.2z"/>
		<path class="st1" d="M78.1,71.4L78.1,71.4c0-1.4,0.9-2.3,1.9-2.3c0.7,0,1,0.3,1.3,0.6v-2h1.5v5.8h-1.5v-0.6
			c-0.3,0.4-0.7,0.7-1.3,0.7C78.9,73.6,78.1,72.8,78.1,71.4z M81.3,71.4L81.3,71.4c0-0.6-0.4-1-0.9-1c-0.5,0-0.9,0.4-0.9,1v0
			c0,0.6,0.4,1,0.9,1C80.9,72.3,81.3,71.9,81.3,71.4z"/>
		<path class="st1" d="M83.4,72.3L83.4,72.3c0-0.9,0.7-1.4,1.7-1.4c0.4,0,0.8,0.1,1,0.2V71c0-0.4-0.3-0.7-0.9-0.7
			c-0.5,0-0.8,0.1-1.2,0.2l-0.3-1.1c0.5-0.2,1-0.3,1.8-0.3c0.8,0,1.3,0.2,1.6,0.5c0.3,0.3,0.5,0.8,0.5,1.4v2.5h-1.5v-0.4
			c-0.3,0.3-0.7,0.5-1.3,0.5C84,73.6,83.4,73.1,83.4,72.3z M86.2,71.9v-0.2c-0.2-0.1-0.4-0.1-0.6-0.1c-0.4,0-0.7,0.2-0.7,0.5v0
			c0,0.3,0.2,0.5,0.5,0.5C85.8,72.7,86.2,72.4,86.2,71.9z"/>
		<path class="st1" d="M88.3,71.4L88.3,71.4c0-1.4,0.9-2.3,1.9-2.3c0.7,0,1,0.3,1.3,0.6v-2H93v5.8h-1.5v-0.6
			c-0.3,0.4-0.7,0.7-1.3,0.7C89.1,73.6,88.3,72.8,88.3,71.4z M91.5,71.4L91.5,71.4c0-0.6-0.4-1-0.9-1c-0.5,0-0.9,0.4-0.9,1v0
			c0,0.6,0.4,1,0.9,1C91.1,72.3,91.5,71.9,91.5,71.4z"/>
		<path class="st1" d="M93.6,71.4L93.6,71.4c0-1.3,0.9-2.3,2.2-2.3c1.5,0,2.2,1.1,2.2,2.4c0,0.1,0,0.2,0,0.3h-2.9
			c0.1,0.5,0.5,0.7,0.9,0.7c0.4,0,0.6-0.1,1-0.4l0.8,0.7c-0.4,0.5-1,0.9-1.9,0.9C94.6,73.6,93.6,72.7,93.6,71.4z M96.6,71
			c-0.1-0.5-0.3-0.8-0.8-0.8c-0.4,0-0.7,0.3-0.8,0.8H96.6z"/>
		<path class="st1" d="M98.3,73l0.6-0.9c0.5,0.3,1,0.5,1.5,0.5c0.3,0,0.4-0.1,0.4-0.2v0c0-0.2-0.2-0.2-0.7-0.4
			c-0.9-0.2-1.5-0.5-1.5-1.4v0c0-0.9,0.7-1.4,1.7-1.4c0.6,0,1.3,0.2,1.8,0.5l-0.5,1c-0.4-0.2-0.9-0.4-1.3-0.4
			c-0.2,0-0.4,0.1-0.4,0.2v0c0,0.2,0.2,0.2,0.7,0.4c0.9,0.2,1.5,0.5,1.5,1.4v0c0,1-0.7,1.4-1.8,1.4C99.7,73.6,98.9,73.4,98.3,73z"/>
	</g>
</g>
</svg>
