<svg id="Layer_1" data-name="Layer 1" xmlns="http://www.w3.org/2000/svg" viewBox="0 0 142.67 113.44"><defs><style>.cls-1{fill:#6c9e3e;}.cls-2{fill:#fff;}</style></defs><title>003 B screen0</title><rect class="cls-1" x="47.13" y="7.29" width="48.19" height="48.19" rx="24.09" ry="24.09"/><path class="cls-2" d="M26.37,66.1,26,65.2H23.78l-.34.9H21.73l2.39-5.61h1.71l2.31,5.61ZM24.25,64h1.36l-.67-1.83Z"/><path class="cls-2" d="M32.77,61.74V66.1H31.16v-.65a1.53,1.53,0,0,1-.56.54A1.91,1.91,0,0,1,29,66a1.44,1.44,0,0,1-.54-.58,1.91,1.91,0,0,1-.19-.88v-2.8H29.9V64a.79.79,0,0,0,.16.51.55.55,0,0,0,.42.19.6.6,0,0,0,.52-.2,1,1,0,0,0,.18-.61V61.74Z"/><path class="cls-2" d="M36.73,65.89a2.35,2.35,0,0,1-.56.2,3,3,0,0,1-.67.08,1.55,1.55,0,0,1-1.11-.38,1.38,1.38,0,0,1-.42-1V63h-.6V62H34V60.76h1.61V62h1.07v1H35.57v1.49a.45.45,0,0,0,.1.31.34.34,0,0,0,.27.1,1.76,1.76,0,0,0,.5-.13Z"/><path class="cls-2" d="M40.69,62a2,2,0,0,1,.84.78,2.45,2.45,0,0,1,0,2.35,2,2,0,0,1-.84.78,2.8,2.8,0,0,1-1.27.28,2.84,2.84,0,0,1-1.28-.28,2,2,0,0,1-.85-.78,2.45,2.45,0,0,1,0-2.35,2,2,0,0,1,.85-.78,2.84,2.84,0,0,1,1.28-.28A2.8,2.8,0,0,1,40.69,62Zm-1.85,1.27a1.24,1.24,0,0,0,0,1.4.72.72,0,0,0,.58.26.7.7,0,0,0,.57-.26,1.24,1.24,0,0,0,0-1.4.68.68,0,0,0-.57-.27.71.71,0,0,0-.57.24Z"/><path class="cls-2" d="M44.67,61.88a1.66,1.66,0,0,1,.79-.2v1.46h-.28a1.2,1.2,0,0,0-.8.24.8.8,0,0,0-.29.66V66.1H42.48V61.74H44.1v.69A1.58,1.58,0,0,1,44.67,61.88Z"/><path class="cls-2" d="M47.43,59.9a.85.85,0,0,1-1.2,1.2.87.87,0,0,1,0-1.2.84.84,0,0,1,.6-.23A.8.8,0,0,1,47.43,59.9ZM46,61.74h1.62V66.1H46Z"/><path class="cls-2" d="M48.44,61.74h3.9v1l-2,2.18h2V66.1h-4v-1l2-2.18H48.44Z"/><path class="cls-2" d="M56.58,62.1a1.43,1.43,0,0,1,.52,1.17V66.1H55.52v-.48A1.3,1.3,0,0,1,55,66a1.76,1.76,0,0,1-.75.14,1.53,1.53,0,0,1-1.08-.37,1.3,1.3,0,0,1-.39-1,1.17,1.17,0,0,1,.43-1,2,2,0,0,1,1.25-.35h1.06a.49.49,0,0,0-.19-.42.91.91,0,0,0-.56-.15,2.49,2.49,0,0,0-.61.08,4.41,4.41,0,0,0-.7.23l-.4-1.07a5.61,5.61,0,0,1,2.1-.45A2.22,2.22,0,0,1,56.58,62.1ZM55.23,65a.72.72,0,0,0,.29-.33v-.39h-.74c-.33,0-.49.14-.49.41a.39.39,0,0,0,.13.32.52.52,0,0,0,.36.11A.89.89,0,0,0,55.23,65Z"/><path class="cls-2" d="M60.38,63.11A.73.73,0,0,0,60,63a.62.62,0,0,0-.52.26,1.06,1.06,0,0,0-.2.67,1.11,1.11,0,0,0,.2.68.62.62,0,0,0,.52.26.7.7,0,0,0,.69-.48L62,65a1.79,1.79,0,0,1-.78.83,2.71,2.71,0,0,1-2.44,0,2,2,0,0,1-.79-.78,2.37,2.37,0,0,1-.28-1.16,2.42,2.42,0,0,1,.28-1.18,2,2,0,0,1,.8-.79,2.49,2.49,0,0,1,1.2-.28,2.4,2.4,0,0,1,1.2.3,2,2,0,0,1,.8.84l-1.24.61A.82.82,0,0,0,60.38,63.11Z"/><path class="cls-2" d="M63.85,59.9a.85.85,0,0,1-1.2,1.2.87.87,0,0,1,0-1.2.84.84,0,0,1,.6-.23A.8.8,0,0,1,63.85,59.9Zm-1.4,1.84h1.62V66.1H62.45Z"/><path class="cls-2" d="M68.41,62a2,2,0,0,1,.84.78,2.45,2.45,0,0,1,0,2.35,2,2,0,0,1-.84.78,2.8,2.8,0,0,1-1.27.28,2.84,2.84,0,0,1-1.28-.28,2,2,0,0,1-.85-.78,2.45,2.45,0,0,1,0-2.35,2,2,0,0,1,.85-.78,2.84,2.84,0,0,1,1.28-.28A2.8,2.8,0,0,1,68.41,62Zm-1.06-2.1,1.26.46-1.22,1-1.06-.08Zm-.79,3.34a1.24,1.24,0,0,0,0,1.4.72.72,0,0,0,.58.26.7.7,0,0,0,.57-.26,1.24,1.24,0,0,0,0-1.4.75.75,0,0,0-1.15,0Z"/><path class="cls-2" d="M74,61.88a1.4,1.4,0,0,1,.55.58,1.88,1.88,0,0,1,.2.87V66.1H73.14V63.8a.72.72,0,0,0-.17-.51.55.55,0,0,0-.45-.19.69.69,0,0,0-.52.24.94.94,0,0,0-.19.61V66.1H70.19V61.74H71.8v.67a1.53,1.53,0,0,1,.58-.55,1.71,1.71,0,0,1,.8-.19A1.67,1.67,0,0,1,74,61.88Z"/><path class="cls-2" d="M81.79,60.16V66.1H80.17v-.5a1.6,1.6,0,0,1-.52.41,1.55,1.55,0,0,1-.67.14,2,2,0,0,1-1.06-.28,1.87,1.87,0,0,1-.71-.79,2.91,2.91,0,0,1,0-2.35A1.86,1.86,0,0,1,77.9,62a2,2,0,0,1,1-.27,1.68,1.68,0,0,1,.7.14,1.58,1.58,0,0,1,.54.42V60.16ZM80,64.64a1.24,1.24,0,0,0,0-1.41.75.75,0,0,0-1.15,0,1.24,1.24,0,0,0,0,1.41.75.75,0,0,0,1.15,0Z"/><path class="cls-2" d="M86.44,62.32a2.45,2.45,0,0,1,.6,1.74v.25H84.1a.88.88,0,0,0,.32.48A.9.9,0,0,0,85,65a1.38,1.38,0,0,0,1-.42l.84.82a2.23,2.23,0,0,1-.84.58,2.75,2.75,0,0,1-1.1.2,2.72,2.72,0,0,1-1.25-.28,2,2,0,0,1-.81-.78,2.54,2.54,0,0,1,0-2.34A2,2,0,0,1,83.6,62a2.49,2.49,0,0,1,1.2-.28A2.19,2.19,0,0,1,86.44,62.32ZM85.26,63a.6.6,0,0,0-.48-.21.61.61,0,0,0-.46.2,1.08,1.08,0,0,0-.25.54h1.37A.75.75,0,0,0,85.26,63Z"/><path class="cls-2" d="M91.79,63.11a.8.8,0,0,0-.4-.11.62.62,0,0,0-.52.26,1.06,1.06,0,0,0-.2.67,1.11,1.11,0,0,0,.2.68.62.62,0,0,0,.52.26.7.7,0,0,0,.69-.48l1.26.63a1.79,1.79,0,0,1-.78.83,2.71,2.71,0,0,1-2.44,0,2,2,0,0,1-.79-.78A2.32,2.32,0,0,1,89,63.94a2.42,2.42,0,0,1,.28-1.18,2,2,0,0,1,.8-.79,2.49,2.49,0,0,1,1.2-.28,2.4,2.4,0,0,1,1.2.3,2,2,0,0,1,.8.84L92,63.44A.81.81,0,0,0,91.79,63.11Z"/><path class="cls-2" d="M96.06,61.88a1.66,1.66,0,0,1,.79-.2v1.46h-.28a1.2,1.2,0,0,0-.8.24.8.8,0,0,0-.29.66V66.1H93.86V61.74h1.62v.69A1.61,1.61,0,0,1,96.06,61.88Z"/><path class="cls-2" d="M101,62.32a2.45,2.45,0,0,1,.6,1.74v.25H98.71a.88.88,0,0,0,.32.48.9.9,0,0,0,.53.17,1.38,1.38,0,0,0,1-.42l.84.82a2.23,2.23,0,0,1-.84.58,2.75,2.75,0,0,1-1.1.2,2.72,2.72,0,0,1-1.25-.28,2,2,0,0,1-.81-.78,2.54,2.54,0,0,1,0-2.34,2,2,0,0,1,.81-.79,2.49,2.49,0,0,1,1.2-.28A2.2,2.2,0,0,1,101,62.32ZM99.56,59.9l1.26.46-1.22,1-1.06-.08Zm.31,3.1a.6.6,0,0,0-.48-.21.61.61,0,0,0-.46.2,1.08,1.08,0,0,0-.25.54H100A.71.71,0,0,0,99.87,63Z"/><path class="cls-2" d="M106.77,60.16V66.1h-1.62v-.5a1.6,1.6,0,0,1-.52.41,1.55,1.55,0,0,1-.67.14,2,2,0,0,1-1.06-.28,1.87,1.87,0,0,1-.71-.79,2.91,2.91,0,0,1,0-2.35,1.78,1.78,0,0,1,.69-.77,2,2,0,0,1,1-.27,1.68,1.68,0,0,1,.7.14,1.58,1.58,0,0,1,.54.42V60.16Zm-1.83,4.48a1.24,1.24,0,0,0,0-1.41.75.75,0,0,0-1.15,0,1.24,1.24,0,0,0,0,1.41.75.75,0,0,0,1.15,0Z"/><path class="cls-2" d="M109.19,59.9a.85.85,0,0,1-1.2,1.2.87.87,0,0,1,0-1.2.84.84,0,0,1,.6-.23A.8.8,0,0,1,109.19,59.9Zm-1.4,1.84h1.62V66.1h-1.62Z"/><path class="cls-2" d="M113.36,65.89a2.35,2.35,0,0,1-.56.2,3,3,0,0,1-.67.08,1.55,1.55,0,0,1-1.11-.38,1.38,1.38,0,0,1-.42-1V63H110V62h.6V60.76h1.61V62h1.07v1H112.2v1.49a.45.45,0,0,0,.1.31.34.34,0,0,0,.27.1,1.76,1.76,0,0,0,.5-.13Z"/><path class="cls-2" d="M117.32,62a2,2,0,0,1,.84.78,2.45,2.45,0,0,1,0,2.35,2,2,0,0,1-.84.78,2.8,2.8,0,0,1-1.27.28,2.84,2.84,0,0,1-1.28-.28,2,2,0,0,1-.85-.78,2.45,2.45,0,0,1,0-2.35,2,2,0,0,1,.85-.78,2.84,2.84,0,0,1,1.28-.28A2.8,2.8,0,0,1,117.32,62Zm-1.85,1.27a1.24,1.24,0,0,0,0,1.4.72.72,0,0,0,.58.26.7.7,0,0,0,.57-.26,1.24,1.24,0,0,0,0-1.4.68.68,0,0,0-.57-.27.71.71,0,0,0-.57.24Z"/><path class="cls-2" d="M120.18,64.86a.72.72,0,0,1,.21.54.73.73,0,0,1-.7.76h-.06a.72.72,0,0,1-.54-.21.76.76,0,0,1-.21-.55.72.72,0,0,1,.75-.75A.76.76,0,0,1,120.18,64.86Z"/><path class="cls-2" d="M10,71a1.84,1.84,0,0,1,.6,1.47A2,2,0,0,1,10,74a2.39,2.39,0,0,1-1.68.55H7.48v1.5H5.82V70.49H8.36A2.49,2.49,0,0,1,10,71ZM8.86,73.1a.78.78,0,0,0,.2-.58.76.76,0,0,0-.2-.56.82.82,0,0,0-.58-.2h-.8V73.3h.8A.82.82,0,0,0,8.86,73.1Z"/><path class="cls-2" d="M11.34,70.16H13V76.1H11.34Z"/><path class="cls-2" d="M17.46,72.1A1.41,1.41,0,0,1,18,73.27V76.1H16.39v-.48a1.3,1.3,0,0,1-.52.41,1.76,1.76,0,0,1-.75.14A1.53,1.53,0,0,1,14,75.8a1.3,1.3,0,0,1-.39-1,1.17,1.17,0,0,1,.43-1,2,2,0,0,1,1.25-.35h1.06A.5.5,0,0,0,16.2,73a.91.91,0,0,0-.56-.15A2.38,2.38,0,0,0,15,73a4.41,4.41,0,0,0-.7.23l-.4-1.07a5.61,5.61,0,0,1,2.1-.45A2.17,2.17,0,0,1,17.46,72.1ZM16.11,75a.72.72,0,0,0,.29-.33v-.39h-.74c-.33,0-.49.14-.49.41a.39.39,0,0,0,.13.32.52.52,0,0,0,.36.11A.89.89,0,0,0,16.11,75Z"/><path class="cls-2" d="M22.65,71.88a1.4,1.4,0,0,1,.55.58,1.88,1.88,0,0,1,.2.87V76.1H21.79V73.8a.72.72,0,0,0-.17-.51.55.55,0,0,0-.45-.19.69.69,0,0,0-.52.24.94.94,0,0,0-.19.61V76.1H18.83V71.74h1.62v.67a1.53,1.53,0,0,1,.58-.55,1.71,1.71,0,0,1,.8-.19A1.67,1.67,0,0,1,22.65,71.88Z"/><path class="cls-2" d="M27.89,72.32a2.45,2.45,0,0,1,.6,1.74v.25H25.55a.88.88,0,0,0,.32.48.9.9,0,0,0,.53.17,1.38,1.38,0,0,0,1-.42l.84.82a2.23,2.23,0,0,1-.84.58,3.26,3.26,0,0,1-2.4-.06,2,2,0,0,1-.81-.78,2.54,2.54,0,0,1,0-2.34A2,2,0,0,1,25,72a2.49,2.49,0,0,1,1.2-.28A2.2,2.2,0,0,1,27.89,72.32ZM26.71,73a.6.6,0,0,0-.48-.21.61.61,0,0,0-.46.2,1.08,1.08,0,0,0-.25.54h1.37A.75.75,0,0,0,26.71,73Z"/><path class="cls-2" d="M32.61,72.1a1.43,1.43,0,0,1,.52,1.17V76.1H31.55v-.48A1.4,1.4,0,0,1,31,76a1.76,1.76,0,0,1-.75.14,1.53,1.53,0,0,1-1.08-.37,1.3,1.3,0,0,1-.39-1,1.17,1.17,0,0,1,.43-1,2,2,0,0,1,1.25-.35h1.06a.49.49,0,0,0-.19-.42.91.91,0,0,0-.56-.15,2.49,2.49,0,0,0-.61.08,4.41,4.41,0,0,0-.7.23l-.4-1.07a5.61,5.61,0,0,1,2.1-.45A2.23,2.23,0,0,1,32.61,72.1ZM31.26,75a.72.72,0,0,0,.29-.33v-.39h-.74c-.33,0-.49.14-.49.41a.39.39,0,0,0,.13.32.52.52,0,0,0,.36.11A.89.89,0,0,0,31.26,75Z"/><path class="cls-2" d="M36.18,71.88a1.66,1.66,0,0,1,.79-.2v1.46h-.28a1.2,1.2,0,0,0-.8.24.8.8,0,0,0-.29.66V76.1H34V71.74h1.6v.69A1.61,1.61,0,0,1,36.18,71.88Z"/><path class="cls-2" d="M42.2,75.89a2.35,2.35,0,0,1-.56.2,3,3,0,0,1-.67.08,1.55,1.55,0,0,1-1.11-.38,1.38,1.38,0,0,1-.42-1V73h-.6V72h.6V70.76h1.61V72h1.07v1H41.05v1.49a.45.45,0,0,0,.1.31.34.34,0,0,0,.27.1,1.76,1.76,0,0,0,.5-.13Z"/><path class="cls-2" d="M47.19,71.74V76.1H45.57v-.65a1.49,1.49,0,0,1-1.34.73,1.49,1.49,0,0,1-.8-.2,1.44,1.44,0,0,1-.54-.58,1.91,1.91,0,0,1-.19-.88V71.74h1.62V74a.79.79,0,0,0,.16.51.55.55,0,0,0,.42.19.63.63,0,0,0,.49-.24,1,1,0,0,0,.18-.61V71.74Z"/><path class="cls-2" d="M53.48,72.32a2.45,2.45,0,0,1,.6,1.74v.25H51.15a.88.88,0,0,0,.32.48A.86.86,0,0,0,52,75a1.38,1.38,0,0,0,1-.42l.84.82A2.28,2.28,0,0,1,53,76a2.75,2.75,0,0,1-1.1.2,2.72,2.72,0,0,1-1.25-.28,2,2,0,0,1-.81-.78,2.54,2.54,0,0,1,0-2.34,2,2,0,0,1,.81-.79,2.49,2.49,0,0,1,1.2-.28A2.19,2.19,0,0,1,53.48,72.32ZM52.31,73a.6.6,0,0,0-.48-.21.61.61,0,0,0-.46.2,1.08,1.08,0,0,0-.25.54h1.37A.75.75,0,0,0,52.31,73Z"/><path class="cls-2" d="M56.36,72.76a.49.49,0,0,0-.24,0A.18.18,0,0,0,56,73c0,.08,0,.15.16.2a3.16,3.16,0,0,0,.52.17,5.79,5.79,0,0,1,.8.27,1.47,1.47,0,0,1,.55.41,1.07,1.07,0,0,1,.24.71,1.25,1.25,0,0,1-.52,1,2.3,2.3,0,0,1-1.39.39,3.75,3.75,0,0,1-1.1-.16,3.1,3.1,0,0,1-.95-.46l.5-1a3.4,3.4,0,0,0,.81.4,2.43,2.43,0,0,0,.76.14.58.58,0,0,0,.26-.05.15.15,0,0,0,.1-.15c0-.08-.05-.15-.16-.2a3.16,3.16,0,0,0-.52-.17,6.48,6.48,0,0,1-.78-.26,1.44,1.44,0,0,1-.54-.41,1,1,0,0,1-.23-.7A1.28,1.28,0,0,1,55,72.12a2.13,2.13,0,0,1,1.34-.39,3.79,3.79,0,0,1,1.91.53l-.54,1A3.33,3.33,0,0,0,56.36,72.76Z"/><path class="cls-2" d="M62,75.89a2.35,2.35,0,0,1-.56.2,3,3,0,0,1-.67.08,1.55,1.55,0,0,1-1.11-.38,1.38,1.38,0,0,1-.42-1V73h-.6V72h.6V70.76h1.61V72h1v1H60.83v1.49a.45.45,0,0,0,.1.31.34.34,0,0,0,.27.1,1.76,1.76,0,0,0,.5-.13Z"/><path class="cls-2" d="M64.79,71.88a1.66,1.66,0,0,1,.79-.2v1.46H65.3a1.2,1.2,0,0,0-.8.24.8.8,0,0,0-.29.66V76.1H62.59V71.74h1.62v.69A1.61,1.61,0,0,1,64.79,71.88Z"/><path class="cls-2" d="M69.53,72.1a1.43,1.43,0,0,1,.52,1.17V76.1H68.47v-.48A1.3,1.3,0,0,1,68,76a1.76,1.76,0,0,1-.75.14,1.53,1.53,0,0,1-1.08-.37,1.3,1.3,0,0,1-.39-1,1.17,1.17,0,0,1,.43-1,2,2,0,0,1,1.25-.35h1.06a.49.49,0,0,0-.19-.42.91.91,0,0,0-.56-.15,2.49,2.49,0,0,0-.61.08,4.41,4.41,0,0,0-.7.23L66,72.13a5.61,5.61,0,0,1,2.1-.45A2.21,2.21,0,0,1,69.53,72.1ZM68.18,75a.72.72,0,0,0,.29-.33v-.39h-.74c-.33,0-.49.14-.49.41a.39.39,0,0,0,.13.32.52.52,0,0,0,.36.11A.89.89,0,0,0,68.18,75Z"/><path class="cls-2" d="M73.88,75.89a2.35,2.35,0,0,1-.56.2,3,3,0,0,1-.67.08,1.55,1.55,0,0,1-1.11-.38,1.38,1.38,0,0,1-.42-1V73h-.6V72h.6V70.76h1.61V72H73.8v1H72.73v1.49a.45.45,0,0,0,.1.31.34.34,0,0,0,.27.1,1.76,1.76,0,0,0,.5-.13Z"/><path class="cls-2" d="M78.12,72.32a2.45,2.45,0,0,1,.6,1.74v.25H75.79a.88.88,0,0,0,.32.48.9.9,0,0,0,.53.17,1.38,1.38,0,0,0,1-.42l.84.82a2.23,2.23,0,0,1-.84.58,2.75,2.75,0,0,1-1.1.2,2.72,2.72,0,0,1-1.25-.28,2,2,0,0,1-.81-.78,2.54,2.54,0,0,1,0-2.34,2,2,0,0,1,.81-.79,2.49,2.49,0,0,1,1.2-.28A2.21,2.21,0,0,1,78.12,72.32ZM77,73a.6.6,0,0,0-.48-.21A.61.61,0,0,0,76,73a1.08,1.08,0,0,0-.25.54h1.37A.71.71,0,0,0,77,73Z"/><path class="cls-2" d="M83.62,71.74v4a1.89,1.89,0,0,1-.3,1.06,2,2,0,0,1-.84.7,3,3,0,0,1-1.25.24,3.75,3.75,0,0,1-1.1-.16,3.33,3.33,0,0,1-.9-.41l.54-1.09a2.5,2.5,0,0,0,.64.3,2.37,2.37,0,0,0,.7.1,1.1,1.1,0,0,0,.68-.19.61.61,0,0,0,.25-.51v-.44a1.43,1.43,0,0,1-1.17.52,1.65,1.65,0,0,1-.94-.26,1.79,1.79,0,0,1-.65-.74,2.45,2.45,0,0,1-.24-1.1,2.39,2.39,0,0,1,.23-1.08,1.67,1.67,0,0,1,1.56-1,1.5,1.5,0,0,1,1.2.53v-.47Zm-1.8,2.7a1.17,1.17,0,0,0,0-1.31.66.66,0,0,0-.54-.25.64.64,0,0,0-.53.25,1.17,1.17,0,0,0,0,1.31.67.67,0,0,0,.53.25A.66.66,0,0,0,81.82,74.44Z"/><path class="cls-2" d="M86,69.9a.85.85,0,0,1-1.2,1.2.87.87,0,0,1,0-1.2.84.84,0,0,1,.6-.23A.8.8,0,0,1,86,69.9Zm-1.4,1.84h1.62V76.1H84.57Z"/><path class="cls-2" d="M90.65,72.1a1.43,1.43,0,0,1,.52,1.17V76.1H89.58v-.48a1.3,1.3,0,0,1-.52.41,1.76,1.76,0,0,1-.75.14,1.53,1.53,0,0,1-1.08-.37,1.3,1.3,0,0,1-.39-1,1.17,1.17,0,0,1,.43-1,2,2,0,0,1,1.25-.35h1.06a.49.49,0,0,0-.19-.42.91.91,0,0,0-.56-.15,2.49,2.49,0,0,0-.61.08,4.41,4.41,0,0,0-.7.23l-.4-1.07a5.61,5.61,0,0,1,2.1-.45A2.22,2.22,0,0,1,90.65,72.1ZM89.29,75a.72.72,0,0,0,.29-.33v-.39h-.74c-.33,0-.49.14-.49.41a.39.39,0,0,0,.13.32.52.52,0,0,0,.36.11A.89.89,0,0,0,89.29,75Z"/><path class="cls-2" d="M95.73,71.46a.39.39,0,0,0-.12.3V72h.9v1h-.9v3.1H94V73h-.59V72H94v-.4a1.36,1.36,0,0,1,.47-1.08,1.85,1.85,0,0,1,1.24-.4,3.08,3.08,0,0,1,1,.16l-.18,1.2a1.46,1.46,0,0,0-.46-.1A.46.46,0,0,0,95.73,71.46Zm2.67-1.55a.85.85,0,0,1-1.2,1.2.87.87,0,0,1,0-1.2.84.84,0,0,1,.6-.23.81.81,0,0,1,.59.22ZM97,71.74h1.62V76.1H97Z"/><path class="cls-2" d="M103.41,71.88a1.4,1.4,0,0,1,.55.58,1.88,1.88,0,0,1,.2.87V76.1h-1.62V73.8a.72.72,0,0,0-.17-.51.55.55,0,0,0-.45-.19.69.69,0,0,0-.52.24.94.94,0,0,0-.19.61V76.1H99.59V71.74h1.62v.67a1.53,1.53,0,0,1,.58-.55,1.71,1.71,0,0,1,.8-.19A1.67,1.67,0,0,1,103.41,71.88Z"/><path class="cls-2" d="M108.49,72.1a1.43,1.43,0,0,1,.52,1.17V76.1h-1.58v-.48a1.3,1.3,0,0,1-.52.41,1.76,1.76,0,0,1-.75.14,1.53,1.53,0,0,1-1.08-.37,1.3,1.3,0,0,1-.39-1,1.17,1.17,0,0,1,.43-1,2,2,0,0,1,1.25-.35h1.06a.49.49,0,0,0-.19-.42.91.91,0,0,0-.56-.15,2.49,2.49,0,0,0-.61.08,4.41,4.41,0,0,0-.7.23l-.4-1.07a5.61,5.61,0,0,1,2.1-.45A2.25,2.25,0,0,1,108.49,72.1ZM107.14,75a.72.72,0,0,0,.29-.33v-.39h-.74c-.33,0-.49.14-.49.41a.39.39,0,0,0,.13.32.52.52,0,0,0,.36.11A.89.89,0,0,0,107.14,75Z"/><path class="cls-2" d="M113.69,71.88a1.4,1.4,0,0,1,.55.58,1.88,1.88,0,0,1,.2.87V76.1h-1.62V73.8a.72.72,0,0,0-.17-.51.55.55,0,0,0-.45-.19.69.69,0,0,0-.52.24.94.94,0,0,0-.19.61V76.1h-1.62V71.74h1.62v.67a1.53,1.53,0,0,1,.58-.55,1.71,1.71,0,0,1,.8-.19A1.67,1.67,0,0,1,113.69,71.88Z"/><path class="cls-2" d="M117.71,73.11a.8.8,0,0,0-.4-.11.62.62,0,0,0-.52.26,1.06,1.06,0,0,0-.2.67,1.11,1.11,0,0,0,.2.68.62.62,0,0,0,.52.26.7.7,0,0,0,.69-.48l1.26.63a1.79,1.79,0,0,1-.78.83,2.71,2.71,0,0,1-2.44,0,2,2,0,0,1-.79-.78,2.37,2.37,0,0,1-.28-1.16,2.42,2.42,0,0,1,.28-1.18A2.07,2.07,0,0,1,116,72a2.49,2.49,0,0,1,1.2-.28,2.4,2.4,0,0,1,1.2.3,2,2,0,0,1,.8.84l-1.24.61A.9.9,0,0,0,117.71,73.11Z"/><path class="cls-2" d="M121.19,69.9a.85.85,0,0,1-1.2,1.2.87.87,0,0,1,0-1.2.84.84,0,0,1,.6-.23A.8.8,0,0,1,121.19,69.9Zm-1.4,1.84h1.62V76.1h-1.62Z"/><path class="cls-2" d="M126,72.32a2.45,2.45,0,0,1,.6,1.74v.25h-2.93a.88.88,0,0,0,.32.48.9.9,0,0,0,.53.17,1.38,1.38,0,0,0,1-.42l.84.82a2.23,2.23,0,0,1-.84.58,2.75,2.75,0,0,1-1.1.2,2.72,2.72,0,0,1-1.25-.28,2,2,0,0,1-.81-.78,2.54,2.54,0,0,1,0-2.34,2,2,0,0,1,.81-.79,2.49,2.49,0,0,1,1.2-.28A2.21,2.21,0,0,1,126,72.32Zm-1.18.67a.6.6,0,0,0-.48-.21.61.61,0,0,0-.46.2,1.08,1.08,0,0,0-.25.54H125a.76.76,0,0,0-.17-.52Z"/><path class="cls-2" d="M129.45,71.88a1.66,1.66,0,0,1,.79-.2v1.46H130a1.2,1.2,0,0,0-.8.24.8.8,0,0,0-.29.66V76.1h-1.62V71.74h1.62v.69A1.61,1.61,0,0,1,129.45,71.88Z"/><path class="cls-2" d="M134.19,72.1a1.43,1.43,0,0,1,.52,1.17V76.1h-1.58v-.48a1.3,1.3,0,0,1-.52.41,1.76,1.76,0,0,1-.75.14,1.53,1.53,0,0,1-1.08-.37,1.3,1.3,0,0,1-.39-1,1.17,1.17,0,0,1,.43-1,2,2,0,0,1,1.25-.35h1.06a.49.49,0,0,0-.19-.42.91.91,0,0,0-.56-.15,2.49,2.49,0,0,0-.61.08,4.41,4.41,0,0,0-.7.23l-.4-1.07a5.61,5.61,0,0,1,2.1-.45A2.25,2.25,0,0,1,134.19,72.1ZM132.83,75a.72.72,0,0,0,.29-.33v-.39h-.74c-.33,0-.49.14-.49.41A.4.4,0,0,0,132,75a.52.52,0,0,0,.36.11A.86.86,0,0,0,132.83,75Z"/><path class="cls-2" d="M136.64,74.86a.72.72,0,0,1,.21.54.73.73,0,0,1-.7.76h-.06a.72.72,0,0,1-.54-.21.76.76,0,0,1-.21-.55.72.72,0,0,1,.75-.75A.76.76,0,0,1,136.64,74.86Z"/><path class="cls-2" d="M40.38,81.2h3.19v.61H41v1.61h2.26V84H41v2.1h-.67Z"/><path class="cls-2" d="M44.9,81a.46.46,0,0,1,0,.6.41.41,0,0,1-.58,0h0a.46.46,0,0,1,0-.6.41.41,0,0,1,.58,0Zm-.61,1.36h.65v3.7h-.65Z"/><path class="cls-2" d="M47.38,82.59a1.59,1.59,0,0,1,.8-.21V83a1.19,1.19,0,0,0-1.31,1,.28.28,0,0,0,0,.09v2h-.65v-3.7h.65v.8A1.33,1.33,0,0,1,47.38,82.59Z"/><path class="cls-2" d="M54.66,82.76a1.47,1.47,0,0,1,.36,1V86.1h-.66V84a1,1,0,0,0-.26-.74,1,1,0,0,0-.7-.27,1.06,1.06,0,0,0-.83.37,1.4,1.4,0,0,0-.3.92V86.1h-.66V84a1,1,0,0,0-.25-.74.91.91,0,0,0-.71-.27,1.09,1.09,0,0,0-.83.37,1.34,1.34,0,0,0-.3.92V86.1h-.65V82.4h.65v.78a1.4,1.4,0,0,1,1.38-.8,1.44,1.44,0,0,1,.85.25,1.22,1.22,0,0,1,.46.69,1.41,1.41,0,0,1,1.44-.93A1.31,1.31,0,0,1,54.66,82.76Z"/><path class="cls-2" d="M58.45,86.1v-.52a1.51,1.51,0,0,1-1.3.55,1.56,1.56,0,0,1-.67-.15,1,1,0,0,1-.45-.41,1.08,1.08,0,0,1-.16-.58,1,1,0,0,1,.37-.79,1.62,1.62,0,0,1,1-.3h1.18v-.18a.78.78,0,0,0-.24-.61,1,1,0,0,0-.7-.21,2,2,0,0,0-1.14.4l-.27-.45a3.41,3.41,0,0,1,.74-.37,2.79,2.79,0,0,1,.81-.12,1.58,1.58,0,0,1,1.07.34,1.22,1.22,0,0,1,.38,1V86.1Zm-.39-.73a.86.86,0,0,0,.38-.58v-.37H57.36a1.23,1.23,0,0,0-.65.13.46.46,0,0,0-.21.42.55.55,0,0,0,.22.45.92.92,0,0,0,.58.17A1.3,1.3,0,0,0,58.06,85.37Z"/><path class="cls-2" d="M65.54,80.9v5.2h-.65v-.73a1.4,1.4,0,0,1-.56.57,1.56,1.56,0,0,1-.82.2,1.77,1.77,0,0,1-.93-.24,1.63,1.63,0,0,1-.63-.67,2.15,2.15,0,0,1-.22-1,2,2,0,0,1,.22-1,1.66,1.66,0,0,1,.63-.66,1.86,1.86,0,0,1,.92-.24,1.72,1.72,0,0,1,.83.2,1.4,1.4,0,0,1,.56.57V80.9Zm-1.26,4.5a1.13,1.13,0,0,0,.45-.47,1.45,1.45,0,0,0,.16-.68,1.49,1.49,0,0,0-.16-.69,1.13,1.13,0,0,0-.45-.47,1.33,1.33,0,0,0-1.3,0,1.17,1.17,0,0,0-.44.47,1.48,1.48,0,0,0,0,1.36,1.17,1.17,0,0,0,.44.47,1.34,1.34,0,0,0,1.29,0Z"/><path class="cls-2" d="M69.64,82.88a2.1,2.1,0,0,1,.44,1.41v.21H67.14a1.26,1.26,0,0,0,.42.79,1.21,1.21,0,0,0,.84.29,1.58,1.58,0,0,0,.61-.12,1.49,1.49,0,0,0,.49-.34l.36.37a1.79,1.79,0,0,1-.66.46,2.25,2.25,0,0,1-.85.16,2,2,0,0,1-1-.23,1.61,1.61,0,0,1-.66-.66,2.29,2.29,0,0,1,0-2,1.74,1.74,0,0,1,.65-.67,1.92,1.92,0,0,1,1-.24A1.61,1.61,0,0,1,69.64,82.88ZM69.49,84a1.06,1.06,0,0,0-1.06-1.08h-.09a1.18,1.18,0,0,0-.82.29,1.27,1.27,0,0,0-.39.79Z"/><path class="cls-2" d="M74.34,83a1.33,1.33,0,0,0-.65.16,1.14,1.14,0,0,0-.44.46,1.34,1.34,0,0,0-.16.68,1.45,1.45,0,0,0,.16.68,1.19,1.19,0,0,0,.43.46,1.16,1.16,0,0,0,.63.16,1.73,1.73,0,0,0,.64-.12,1.17,1.17,0,0,0,.48-.34l.37.38a1.59,1.59,0,0,1-.64.48,2.22,2.22,0,0,1-.88.17,2,2,0,0,1-1-.24,1.65,1.65,0,0,1-.65-.66,2.14,2.14,0,0,1,0-1.94,1.68,1.68,0,0,1,.65-.67,2,2,0,0,1,1-.24,2.39,2.39,0,0,1,.84.14,1.59,1.59,0,0,1,.63.42l-.36.45A1.48,1.48,0,0,0,74.34,83Z"/><path class="cls-2" d="M79.1,82.61a1.7,1.7,0,0,1,.67.66,2.2,2.2,0,0,1,0,2,1.8,1.8,0,0,1-.67.67,2.14,2.14,0,0,1-2,0,1.7,1.7,0,0,1-.67-.66,2.1,2.1,0,0,1,0-2,1.7,1.7,0,0,1,.67-.66,2.14,2.14,0,0,1,2,0Zm-1.63.5a1.11,1.11,0,0,0-.44.47,1.45,1.45,0,0,0-.16.68A1.49,1.49,0,0,0,77,85a1.11,1.11,0,0,0,.44.47,1.23,1.23,0,0,0,.65.16,1.32,1.32,0,0,0,.64-.16A1.11,1.11,0,0,0,79.2,85a1.49,1.49,0,0,0,.16-.69,1.45,1.45,0,0,0-.16-.68,1.11,1.11,0,0,0-.44-.47,1.3,1.3,0,0,0-.64-.17A1.34,1.34,0,0,0,77.47,83.11Z"/><path class="cls-2" d="M84,82.75a1.45,1.45,0,0,1,.37,1v2.3h-.65V84a.91.91,0,0,0-.81-1,.61.61,0,0,0-.19,0,1.12,1.12,0,0,0-.81.32,1.25,1.25,0,0,0-.35.81v2h-.65v-3.7h.65v.78A1.43,1.43,0,0,1,83,82.37,1.34,1.34,0,0,1,84,82.75Z"/><path class="cls-2" d="M87.52,85.85a1.59,1.59,0,0,1-.87.27,1,1,0,0,1-.71-.26,1.09,1.09,0,0,1-.27-.79V83h-.52v-.5h.52v-1h.66v1h1.13V83H86.32v1.93a.69.69,0,0,0,.11.44.43.43,0,0,0,.34.13,1.26,1.26,0,0,0,.57-.17Z"/><path class="cls-2" d="M89.48,82.59a1.59,1.59,0,0,1,.8-.21V83A1.19,1.19,0,0,0,89,84.1v2h-.65v-3.7H89v.8A1.36,1.36,0,0,1,89.48,82.59Z"/><path class="cls-2" d="M93.09,86.1v-.52a1.51,1.51,0,0,1-1.3.55,1.56,1.56,0,0,1-.67-.15,1,1,0,0,1-.45-.41,1.08,1.08,0,0,1-.16-.58,1,1,0,0,1,.37-.79,1.62,1.62,0,0,1,1-.3h1.18v-.18a.78.78,0,0,0-.24-.61,1,1,0,0,0-.7-.21,2,2,0,0,0-1.14.4l-.27-.45a3.41,3.41,0,0,1,.74-.37,2.79,2.79,0,0,1,.81-.12,1.58,1.58,0,0,1,1.07.34,1.22,1.22,0,0,1,.38,1V86.1Zm-.39-.73a.86.86,0,0,0,.38-.58v-.37H92a1.23,1.23,0,0,0-.65.13.46.46,0,0,0-.21.42.55.55,0,0,0,.22.45.92.92,0,0,0,.58.17A1.3,1.3,0,0,0,92.7,85.37Z"/><path class="cls-2" d="M96.88,85.85a1.59,1.59,0,0,1-.87.27,1,1,0,0,1-.71-.26,1.09,1.09,0,0,1-.27-.79V83H94.5v-.5H95v-1h.66v1h1.13V83H95.68v1.93a.69.69,0,0,0,.11.44.43.43,0,0,0,.34.13,1.26,1.26,0,0,0,.57-.17Z"/><path class="cls-2" d="M100.15,82.61a1.7,1.7,0,0,1,.67.66,2.2,2.2,0,0,1,0,2,1.8,1.8,0,0,1-.67.67,2.14,2.14,0,0,1-2,0,1.7,1.7,0,0,1-.67-.66,2.1,2.1,0,0,1,0-2,1.7,1.7,0,0,1,.67-.66,2.14,2.14,0,0,1,2,0Zm-1.63.5a1.11,1.11,0,0,0-.44.47,1.45,1.45,0,0,0-.16.68,1.49,1.49,0,0,0,.16.69,1.11,1.11,0,0,0,.44.47,1.23,1.23,0,0,0,.65.16,1.32,1.32,0,0,0,.64-.16,1.11,1.11,0,0,0,.44-.47,1.49,1.49,0,0,0,.16-.69,1.45,1.45,0,0,0-.16-.68,1.11,1.11,0,0,0-.44-.47,1.3,1.3,0,0,0-.64-.17A1.34,1.34,0,0,0,98.52,83.11Z"/><path class="cls-2" d="M102.33,85.47a.44.44,0,0,1,0,.58.36.36,0,0,1-.54,0,.44.44,0,0,1-.11-.29.39.39,0,0,1,.11-.29.39.39,0,0,1,.54,0Z"/><path class="cls-2" d="M56.71,91.63a1.53,1.53,0,0,1,.5,1.22,1.6,1.6,0,0,1-.5,1.27,2,2,0,0,1-1.41.45H54.08V96.1H53.4V91.2h1.89A2.14,2.14,0,0,1,56.71,91.63Zm-.48,2.05a1.12,1.12,0,0,0,0-1.61,1.49,1.49,0,0,0-1-.27H54.08V94h1.19A1.45,1.45,0,0,0,56.23,93.68Z"/><path class="cls-2" d="M59.21,92.59a1.59,1.59,0,0,1,.8-.21V93a1.19,1.19,0,0,0-1.31,1,.28.28,0,0,0,0,.09v2H58v-3.7h.65v.8A1.37,1.37,0,0,1,59.21,92.59Z"/><path class="cls-2" d="M63.5,92.88a2.1,2.1,0,0,1,.44,1.41v.21H61a1.26,1.26,0,0,0,.42.79,1.21,1.21,0,0,0,.84.29,1.58,1.58,0,0,0,.61-.12,1.49,1.49,0,0,0,.49-.34l.36.37a1.79,1.79,0,0,1-.66.46,2.25,2.25,0,0,1-.85.16,2,2,0,0,1-1-.23,1.61,1.61,0,0,1-.66-.66,2.29,2.29,0,0,1,0-2,1.74,1.74,0,0,1,.65-.67,1.92,1.92,0,0,1,1-.24A1.61,1.61,0,0,1,63.5,92.88ZM63.35,94a1.06,1.06,0,0,0-1.06-1.08H62.2a1.18,1.18,0,0,0-.82.29A1.26,1.26,0,0,0,61,94Z"/><path class="cls-2" d="M66.37,93a1.33,1.33,0,0,0-.65.16,1.14,1.14,0,0,0-.44.46,1.34,1.34,0,0,0-.16.68,1.45,1.45,0,0,0,.16.68,1.19,1.19,0,0,0,.43.46,1.16,1.16,0,0,0,.63.16,1.73,1.73,0,0,0,.64-.12,1.17,1.17,0,0,0,.48-.34l.37.38a1.59,1.59,0,0,1-.64.48,2.22,2.22,0,0,1-.88.17,2,2,0,0,1-1-.24,1.65,1.65,0,0,1-.65-.66,2.14,2.14,0,0,1,0-1.94,1.68,1.68,0,0,1,.65-.67,2,2,0,0,1,1-.24,2.39,2.39,0,0,1,.84.14,1.59,1.59,0,0,1,.63.42l-.36.45A1.48,1.48,0,0,0,66.37,93Z"/><path class="cls-2" d="M69.37,91a.46.46,0,0,1,0,.6.41.41,0,0,1-.58,0h0a.46.46,0,0,1,0-.6.41.41,0,0,1,.58,0Zm-.61,1.36h.65v3.7h-.65Z"/><path class="cls-2" d="M73.2,92.61a1.7,1.7,0,0,1,.67.66,2.2,2.2,0,0,1,0,2,1.8,1.8,0,0,1-.67.67,2.14,2.14,0,0,1-2,0,1.7,1.7,0,0,1-.67-.66,2.1,2.1,0,0,1,0-2,1.7,1.7,0,0,1,.67-.66,2.14,2.14,0,0,1,2,0Zm-1.63.5a1.11,1.11,0,0,0-.44.47,1.45,1.45,0,0,0-.16.68,1.49,1.49,0,0,0,.16.69,1.11,1.11,0,0,0,.44.47,1.23,1.23,0,0,0,.65.16,1.32,1.32,0,0,0,.64-.16A1.11,1.11,0,0,0,73.3,95a1.49,1.49,0,0,0,.16-.69,1.45,1.45,0,0,0-.16-.68,1.11,1.11,0,0,0-.44-.47,1.3,1.3,0,0,0-.64-.17A1.34,1.34,0,0,0,71.57,93.11Z"/><path class="cls-2" d="M76.92,91.2h3.19v.61H77.6v1.61h2.26V94H77.6v2.1h-.67Z"/><path class="cls-2" d="M81.45,91a.46.46,0,0,1,0,.6.41.41,0,0,1-.58,0h0a.46.46,0,0,1,0-.6.41.41,0,0,1,.58,0Zm-.61,1.36h.65v3.7h-.65Z"/><path class="cls-2" d="M82.19,96.92a.44.44,0,0,0,.41-.18,1,1,0,0,0,.14-.55v-3.8h.66v3.89a1.3,1.3,0,0,1-.28.89,1,1,0,0,1-.78.31,1.74,1.74,0,0,1-.64-.13l.15-.5A1.28,1.28,0,0,0,82.19,96.92ZM83.35,91a.46.46,0,0,1,0,.6.41.41,0,0,1-.58,0h0a.46.46,0,0,1,0-.6.41.41,0,0,1,.58,0Z"/><path class="cls-2" d="M87.12,92.61a1.7,1.7,0,0,1,.67.66,2.2,2.2,0,0,1,0,2,1.8,1.8,0,0,1-.67.67,2.14,2.14,0,0,1-2,0,1.7,1.7,0,0,1-.67-.66,2.1,2.1,0,0,1,0-2,1.7,1.7,0,0,1,.67-.66,2.14,2.14,0,0,1,2,0Zm-1.63.5a1.11,1.11,0,0,0-.44.47,1.45,1.45,0,0,0-.16.68,1.49,1.49,0,0,0,.16.69,1.11,1.11,0,0,0,.44.47,1.23,1.23,0,0,0,.65.16,1.32,1.32,0,0,0,.64-.16,1.11,1.11,0,0,0,.44-.47,1.49,1.49,0,0,0,.16-.69,1.45,1.45,0,0,0-.16-.68,1.11,1.11,0,0,0-.44-.47,1.3,1.3,0,0,0-.64-.17A1.34,1.34,0,0,0,85.49,93.11Z"/><path class="cls-2" d="M89.3,95.47a.44.44,0,0,1,0,.58.36.36,0,0,1-.54,0,.44.44,0,0,1-.11-.29.39.39,0,0,1,.11-.29.39.39,0,0,1,.54,0Z"/><path class="cls-2" d="M35.12,101.2h3.19v.61H35.79v1.61H38V104H35.79v2.07h-.67Z"/><path class="cls-2" d="M41.82,102.88a2.1,2.1,0,0,1,.44,1.41v.21H39.32a1.26,1.26,0,0,0,.42.79,1.21,1.21,0,0,0,.84.29,1.58,1.58,0,0,0,.61-.12,1.49,1.49,0,0,0,.49-.34l.36.37a1.79,1.79,0,0,1-.66.46,2.25,2.25,0,0,1-.85.16,2,2,0,0,1-1-.23,1.61,1.61,0,0,1-.66-.66,2.14,2.14,0,0,1,0-1.94,1.74,1.74,0,0,1,.65-.67,1.92,1.92,0,0,1,1-.24A1.62,1.62,0,0,1,41.82,102.88ZM41.67,104a1.06,1.06,0,0,0-1.06-1.08h-.09a1.18,1.18,0,0,0-.82.29,1.27,1.27,0,0,0-.39.79Z"/><path class="cls-2" d="M44.69,103a1.33,1.33,0,0,0-.65.16,1.14,1.14,0,0,0-.44.46,1.34,1.34,0,0,0-.16.68,1.45,1.45,0,0,0,.16.68,1.19,1.19,0,0,0,.43.46,1.26,1.26,0,0,0,.63.16,1.73,1.73,0,0,0,.64-.12,1.17,1.17,0,0,0,.48-.34l.37.38a1.59,1.59,0,0,1-.64.48,2.22,2.22,0,0,1-.88.17,2,2,0,0,1-1-.24,1.65,1.65,0,0,1-.65-.66,2.14,2.14,0,0,1,0-1.94,1.68,1.68,0,0,1,.65-.67,2,2,0,0,1,1-.24,2.39,2.39,0,0,1,.84.14,1.59,1.59,0,0,1,.63.42l-.36.45A1.48,1.48,0,0,0,44.69,103Z"/><path class="cls-2" d="M50.2,102.75a1.45,1.45,0,0,1,.37,1v2.29h-.65V104a.91.91,0,0,0-.81-1,.61.61,0,0,0-.19,0,1.11,1.11,0,0,0-.85.36,1.4,1.4,0,0,0-.31.92v1.82h-.65v-5.2h.65v2.29a1.42,1.42,0,0,1,1.41-.82A1.35,1.35,0,0,1,50.2,102.75Z"/><path class="cls-2" d="M54,106.1v-.52a1.51,1.51,0,0,1-1.3.55A1.53,1.53,0,0,1,52,106a1.08,1.08,0,0,1-.61-1,1,1,0,0,1,.37-.79,1.62,1.62,0,0,1,1-.3H54v-.18a.78.78,0,0,0-.24-.61,1,1,0,0,0-.7-.21,2,2,0,0,0-1.14.4l-.27-.45a3.41,3.41,0,0,1,.74-.37,2.79,2.79,0,0,1,.81-.12,1.58,1.58,0,0,1,1.07.34,1.22,1.22,0,0,1,.38,1v2.44Zm-.39-.73a.86.86,0,0,0,.38-.58v-.37H52.9a1.23,1.23,0,0,0-.65.13A.44.44,0,0,0,52,105a.55.55,0,0,0,.22.46.92.92,0,0,0,.58.17,1.32,1.32,0,0,0,.81-.27Z"/><path class="cls-2" d="M58.58,101.6a.57.57,0,0,0-.17.44v.48h1v.5h-1v3.08h-.65V103h-.48v-.5h.48v-.4a1.29,1.29,0,0,1,.17-.69,1.16,1.16,0,0,1,.45-.43,1.39,1.39,0,0,1,.6-.14,1.46,1.46,0,0,1,.64.17l-.15.53a1,1,0,0,0-.48-.12A.59.59,0,0,0,58.58,101.6Zm2.06-.56a.46.46,0,0,1,0,.6.41.41,0,0,1-.58,0h0a.46.46,0,0,1,0-.6.41.41,0,0,1,.58,0ZM60,102.39h.65v3.7H60Z"/><path class="cls-2" d="M61.39,106.92a.44.44,0,0,0,.41-.18,1,1,0,0,0,.14-.55V102.4h.66v3.89a1.27,1.27,0,0,1-.28.88,1,1,0,0,1-.78.31,1.74,1.74,0,0,1-.64-.13l.15-.5A1.28,1.28,0,0,0,61.39,106.92ZM62.55,101a.46.46,0,0,1,0,.6.41.41,0,0,1-.58,0h0a.46.46,0,0,1,0-.6.41.41,0,0,1,.58,0Z"/><path class="cls-2" d="M66,106.1v-.52a1.51,1.51,0,0,1-1.3.55A1.56,1.56,0,0,1,64,106a1.08,1.08,0,0,1-.61-1,1,1,0,0,1,.37-.79,1.62,1.62,0,0,1,1-.3H66v-.18a.78.78,0,0,0-.24-.61,1,1,0,0,0-.7-.21,2,2,0,0,0-1.14.4l-.27-.45a3.41,3.41,0,0,1,.74-.37,2.79,2.79,0,0,1,.81-.12,1.58,1.58,0,0,1,1.07.34,1.22,1.22,0,0,1,.38,1v2.44Zm-.39-.73a.86.86,0,0,0,.38-.58v-.37H65a1.23,1.23,0,0,0-.65.13.46.46,0,0,0-.21.42.55.55,0,0,0,.22.46.92.92,0,0,0,.58.17,1.32,1.32,0,0,0,.72-.24Z"/><path class="cls-2" d="M73.14,100.9v5.19h-.65v-.73a1.4,1.4,0,0,1-.56.57,1.56,1.56,0,0,1-.82.2,1.77,1.77,0,0,1-.93-.24,1.63,1.63,0,0,1-.63-.67,2.15,2.15,0,0,1-.22-1,2,2,0,0,1,.22-1,1.66,1.66,0,0,1,.63-.66,1.86,1.86,0,0,1,.92-.24,1.72,1.72,0,0,1,.83.2,1.4,1.4,0,0,1,.56.57V100.9Zm-1.26,4.5a1.13,1.13,0,0,0,.45-.47,1.55,1.55,0,0,0,0-1.36,1.13,1.13,0,0,0-.45-.47,1.34,1.34,0,0,0-.65-.17,1.24,1.24,0,0,0-.65.17,1.17,1.17,0,0,0-.44.47,1.48,1.48,0,0,0,0,1.36,1.17,1.17,0,0,0,.44.47,1.34,1.34,0,0,0,1.29,0Z"/><path class="cls-2" d="M77.24,102.88a2.1,2.1,0,0,1,.44,1.41v.21H74.74a1.26,1.26,0,0,0,.42.79,1.21,1.21,0,0,0,.84.29,1.58,1.58,0,0,0,.61-.12,1.49,1.49,0,0,0,.49-.34l.36.37a1.79,1.79,0,0,1-.66.46,2.25,2.25,0,0,1-.85.16,2,2,0,0,1-1-.23,1.61,1.61,0,0,1-.66-.66,2.14,2.14,0,0,1,0-1.94,1.74,1.74,0,0,1,.65-.67,1.92,1.92,0,0,1,1-.24A1.62,1.62,0,0,1,77.24,102.88ZM77.09,104A1.06,1.06,0,0,0,76,102.92h-.09a1.18,1.18,0,0,0-.82.29,1.27,1.27,0,0,0-.39.79Z"/><path class="cls-2" d="M83.19,102.88a2.1,2.1,0,0,1,.44,1.41v.21H80.69a1.26,1.26,0,0,0,.42.79,1.21,1.21,0,0,0,.84.29,1.58,1.58,0,0,0,.61-.12,1.49,1.49,0,0,0,.49-.34l.36.37a1.79,1.79,0,0,1-.66.46,2.25,2.25,0,0,1-.85.16,2,2,0,0,1-1-.23,1.61,1.61,0,0,1-.66-.66,2.14,2.14,0,0,1,0-1.94,1.74,1.74,0,0,1,.65-.67,1.92,1.92,0,0,1,1-.24A1.62,1.62,0,0,1,83.19,102.88ZM83,104a1.06,1.06,0,0,0-1.06-1.08h-.09a1.18,1.18,0,0,0-.82.29,1.27,1.27,0,0,0-.39.79Z"/><path class="cls-2" d="M87.6,102.75a1.45,1.45,0,0,1,.37,1v2.29h-.65V104a.91.91,0,0,0-.81-1,.61.61,0,0,0-.19,0,1.12,1.12,0,0,0-.81.32,1.25,1.25,0,0,0-.35.81v2h-.65v-3.7h.65v.78a1.44,1.44,0,0,1,1.41-.8A1.38,1.38,0,0,1,87.6,102.75Z"/><path class="cls-2" d="M91.12,105.85a1.59,1.59,0,0,1-.87.27,1,1,0,0,1-.71-.26,1,1,0,0,1-.27-.79V103h-.52v-.5h.52v-1h.66v1h1.13v.5H89.92v1.93a.69.69,0,0,0,.11.44.43.43,0,0,0,.34.13,1.26,1.26,0,0,0,.57-.17Z"/><path class="cls-2" d="M93.08,102.59a1.59,1.59,0,0,1,.8-.21V103a1.19,1.19,0,0,0-1.31,1,.28.28,0,0,0,0,.09v2h-.65v-3.7h.65v.8A1.33,1.33,0,0,1,93.08,102.59Z"/><path class="cls-2" d="M97.37,102.88a2.1,2.1,0,0,1,.44,1.41v.21H94.88a1.26,1.26,0,0,0,.42.79,1.21,1.21,0,0,0,.84.29,1.58,1.58,0,0,0,.61-.12,1.49,1.49,0,0,0,.49-.34l.36.37a1.79,1.79,0,0,1-.66.46,2.25,2.25,0,0,1-.85.16,2,2,0,0,1-1-.23,1.61,1.61,0,0,1-.66-.66,2.14,2.14,0,0,1,0-1.94,1.74,1.74,0,0,1,.65-.67,1.92,1.92,0,0,1,1-.24A1.65,1.65,0,0,1,97.37,102.88ZM97.22,104a1.06,1.06,0,0,0-1.06-1.08h-.09a1.18,1.18,0,0,0-.82.29,1.27,1.27,0,0,0-.39.79Z"/><path class="cls-2" d="M102,102.39v3.33a1.76,1.76,0,0,1-.23.93,1.55,1.55,0,0,1-.66.61,2.14,2.14,0,0,1-1,.21,2.5,2.5,0,0,1-1.53-.52l.29-.48a2,2,0,0,0,.57.33,2,2,0,0,0,.64.11,1.28,1.28,0,0,0,.92-.32,1.11,1.11,0,0,0,.34-.86v-.52a1.39,1.39,0,0,1-.53.52,1.73,1.73,0,0,1-1.65,0,1.56,1.56,0,0,1-.59-.63,2,2,0,0,1-.21-.93,1.94,1.94,0,0,1,.21-.92,1.53,1.53,0,0,1,.59-.62,1.69,1.69,0,0,1,.88-.22,1.59,1.59,0,0,1,.77.18,1.39,1.39,0,0,1,.53.52v-.68Zm-1.22,2.85a1.18,1.18,0,0,0,.42-.44,1.46,1.46,0,0,0,0-1.29,1.17,1.17,0,0,0-2.06,0,1.32,1.32,0,0,0-.15.65,1.25,1.25,0,0,0,.34.9,1.13,1.13,0,0,0,.85.35,1.15,1.15,0,0,0,.57-.17Z"/><path class="cls-2" d="M105.43,106.1v-.52a1.51,1.51,0,0,1-1.3.55,1.56,1.56,0,0,1-.67-.15,1.08,1.08,0,0,1-.61-1,1,1,0,0,1,.37-.79,1.62,1.62,0,0,1,1-.3h1.18v-.18a.78.78,0,0,0-.24-.61,1,1,0,0,0-.7-.21,2,2,0,0,0-1.14.4l-.27-.45a3.41,3.41,0,0,1,.74-.37,2.79,2.79,0,0,1,.81-.12,1.58,1.58,0,0,1,1.07.34,1.22,1.22,0,0,1,.38,1v2.44Zm-.39-.73a.86.86,0,0,0,.38-.58v-.37h-1.08a1.23,1.23,0,0,0-.65.13.46.46,0,0,0-.21.42.55.55,0,0,0,.22.46.92.92,0,0,0,.58.17,1.32,1.32,0,0,0,.72-.24Z"/><path class="cls-2" d="M107.59,105.47a.44.44,0,0,1,0,.58.36.36,0,0,1-.27.12A.35.35,0,0,1,107,106a.44.44,0,0,1-.11-.29.36.36,0,0,1,.11-.29.39.39,0,0,1,.27-.11A.34.34,0,0,1,107.59,105.47Z"/><circle class="cls-2" cx="54.08" cy="12.77" r="9.77"/><path class="cls-1" d="M55.91,12.92a1.39,1.39,0,0,1,.39,1,1.71,1.71,0,0,1-.28,1,1.78,1.78,0,0,1-.81.65A3,3,0,0,1,54,15.8a4,4,0,0,1-1.24-.2,3.4,3.4,0,0,1-1-.52l.6-1.14a2.88,2.88,0,0,0,.75.45,2.14,2.14,0,0,0,.79.16,1.05,1.05,0,0,0,.6-.15.58.58,0,0,0,.07-.82.46.46,0,0,0-.07-.07,1,1,0,0,0-.61-.16h-1v-.87l1.2-1.15H52V10.11h4v1l-1.42,1.28.28.06A1.87,1.87,0,0,1,55.91,12.92Z"/><g id="Check_credit_card" data-name="Check credit card"><path class="cls-2" d="M84.55,31a.49.49,0,0,0-.49.49v5.92a1.48,1.48,0,0,1-1.48,1.48H71.24V36.45a2.47,2.47,0,0,0-4.93,0v2.47H59.9a1.48,1.48,0,0,1-1.48-1.48V24.62a1.48,1.48,0,0,1,1.48-1.48H75.68a.5.5,0,0,0,0-1H59.9a2.48,2.48,0,0,0-2.47,2.47V37.44a2.48,2.48,0,0,0,2.47,2.47h1.21l-1.26,2.84A2.47,2.47,0,0,0,60,45l1.74,3.13a1.51,1.51,0,0,1,.18.72v.48a.5.5,0,0,0,1,0V48.8a2.52,2.52,0,0,0-.31-1.2l-1.74-3.13a1.46,1.46,0,0,1-.06-1.32l1.44-3.24h4.12v3.45a.49.49,0,0,0,1,0V36.45a1.48,1.48,0,1,1,3,0V49.28a.5.5,0,0,0,1,0V42.11a3,3,0,0,0,2,.75h1.48a.49.49,0,0,0,.49-.49V39.91h7.4a2.48,2.48,0,0,0,2.47-2.47V31.52A.49.49,0,0,0,84.55,31ZM74.2,41.88h-1a2,2,0,0,1-2-2h3Z"/><path class="cls-2" d="M81.6,20.18A5.43,5.43,0,1,0,87,25.6,5.43,5.43,0,0,0,81.6,20.18Zm0,9.86A4.44,4.44,0,1,1,86,25.6,4.43,4.43,0,0,1,81.6,30Z"/><path class="cls-2" d="M83.75,23.74l-3.14,3.14-1.13-1.13a.5.5,0,0,0-.7,0,.51.51,0,0,0,0,.69l1.48,1.48a.5.5,0,0,0,.7,0l3.48-3.49a.49.49,0,0,0,0-.7.5.5,0,0,0-.7,0Z"/><path class="cls-2" d="M66.31,26.59a1.48,1.48,0,0,0-1.48-1.48h-3a1.48,1.48,0,0,0-1.48,1.48v2A1.48,1.48,0,0,0,61.87,30h3a1.48,1.48,0,0,0,1.48-1.48Zm-1,0v.49h-1v-1h.49A.49.49,0,0,1,65.32,26.59Zm-3.94,2v-2a.49.49,0,0,1,.49-.49h1.48v3H61.87A.49.49,0,0,1,61.38,28.56Zm3.45.5h-.49v-1h1v.49A.49.49,0,0,1,64.83,29.06Z"/><path class="cls-2" d="M70.25,26.59h1v2h-1Z"/><path class="cls-2" d="M72.23,26.59h1v2h-1Z"/><path class="cls-2" d="M68.28,26.59h1v2h-1Z"/><path class="cls-2" d="M74.2,26.59h1v2h-1Z"/><path class="cls-2" d="M76.66,37a2.47,2.47,0,0,0,1.48-.5,2.47,2.47,0,1,0,0-3.93,2.4,2.4,0,0,0-1.48-.5,2.47,2.47,0,0,0,0,4.93Zm4.44-2.47A1.47,1.47,0,0,1,79.64,36a1.52,1.52,0,0,1-.85-.26,2.37,2.37,0,0,0,0-2.44,1.48,1.48,0,0,1,2.31,1.22ZM76.66,33a1.48,1.48,0,1,1-1.48,1.48A1.48,1.48,0,0,1,76.66,33Z"/><path class="cls-2" d="M60.39,36h4.93v1H60.39Z"/><path class="cls-2" d="M60.39,34h1v1h-1Z"/><path class="cls-2" d="M62.36,34h1v1h-1Z"/><path class="cls-2" d="M64.34,34h1v1h-1Z"/><path class="cls-2" d="M71.73,36h1v1h-1Z"/><path class="cls-2" d="M64.34,31h2v1h-2Z"/><path class="cls-2" d="M68.28,31h2v1h-2Z"/><path class="cls-2" d="M72.23,31h2v1h-2Z"/></g></svg>