<svg id="Layer_1" data-name="Layer 1" xmlns="http://www.w3.org/2000/svg" viewBox="0 0 142.67 113.44"><defs><style>.cls-1{fill:#6c9e3e;}.cls-2{fill:#fff;}</style></defs><title>Mesa de trabajo 6</title><rect class="cls-1" x="47.13" y="5.55" width="48.19" height="48.19" rx="24.09" ry="24.09"/><path class="cls-2" d="M36.59,59.09a2.54,2.54,0,0,1,1.06,1A2.83,2.83,0,0,1,38,61.55,2.8,2.8,0,0,1,37.64,63a2.56,2.56,0,0,1-1.08,1,3.55,3.55,0,0,1-1.61.35h-2.4V58.75H35A3.43,3.43,0,0,1,36.59,59.09ZM36,62.64a1.6,1.6,0,0,0,.35-1.08A1.56,1.56,0,0,0,36,60.47a1.25,1.25,0,0,0-1-.42h-.76v3h.84A1.16,1.16,0,0,0,36,62.64Z"/><path class="cls-2" d="M42.29,60.58a2.44,2.44,0,0,1,.6,1.74c0,.11,0,.19,0,.25H40a.92.92,0,0,0,.32.48.85.85,0,0,0,.53.17,1.41,1.41,0,0,0,1-.42l.84.82a2.23,2.23,0,0,1-.84.58,2.89,2.89,0,0,1-1.1.2,2.65,2.65,0,0,1-1.25-.28,2,2,0,0,1-.81-.78,2.55,2.55,0,0,1,0-2.34,2,2,0,0,1,.81-.79,2.49,2.49,0,0,1,1.2-.28A2.19,2.19,0,0,1,42.29,60.58Zm-1.18.67a.61.61,0,0,0-.48-.21.61.61,0,0,0-.46.2,1.07,1.07,0,0,0-.25.54h1.37A.74.74,0,0,0,41.12,61.25Z"/><path class="cls-2" d="M45.48,59.71a.39.39,0,0,0-.12.3v.21h.9v1h-.9v3.1h-1.6v-3.1h-.59v-1h.59v-.4a1.34,1.34,0,0,1,.47-1.08,1.85,1.85,0,0,1,1.24-.4,3.2,3.2,0,0,1,1,.16l-.18,1.2a1.64,1.64,0,0,0-.46-.1A.48.48,0,0,0,45.48,59.71Zm2.67-1.55a.83.83,0,0,1-.6,1.43.83.83,0,0,1-.6-.23.88.88,0,0,1,0-1.2.83.83,0,0,1,.6-.23A.81.81,0,0,1,48.15,58.16ZM46.75,60h1.62v4.35H46.75Z"/><path class="cls-2" d="M53.16,60.14a1.4,1.4,0,0,1,.55.58,1.87,1.87,0,0,1,.2.87v2.76H52.29v-2.3a.74.74,0,0,0-.17-.51.58.58,0,0,0-.45-.19.66.66,0,0,0-.52.24.92.92,0,0,0-.19.61v2.15H49.34V60H51v.67a1.6,1.6,0,0,1,.58-.55,1.67,1.67,0,0,1,.8-.19A1.61,1.61,0,0,1,53.16,60.14Z"/><path class="cls-2" d="M58.4,60.58a2.44,2.44,0,0,1,.6,1.74c0,.11,0,.19,0,.25H56.06a.92.92,0,0,0,.32.48.85.85,0,0,0,.53.17,1.41,1.41,0,0,0,1-.42l.84.82a2.23,2.23,0,0,1-.84.58,2.89,2.89,0,0,1-1.1.2,2.65,2.65,0,0,1-1.25-.28,2,2,0,0,1-.81-.78,2.55,2.55,0,0,1,0-2.34,2,2,0,0,1,.81-.79,2.49,2.49,0,0,1,1.2-.28A2.19,2.19,0,0,1,58.4,60.58Zm-1.18.67a.61.61,0,0,0-.48-.21.61.61,0,0,0-.46.2,1.07,1.07,0,0,0-.25.54H57.4A.74.74,0,0,0,57.22,61.25Z"/><path class="cls-2" d="M64.3,64.15a2.19,2.19,0,0,1-.56.2,3,3,0,0,1-.67.08A1.57,1.57,0,0,1,62,64a1.36,1.36,0,0,1-.42-1V61.26h-.6v-1h.6V59h1.61v1.21h1.07v1H63.15v1.49a.45.45,0,0,0,.1.31.35.35,0,0,0,.27.1A1.67,1.67,0,0,0,64,63Z"/><path class="cls-2" d="M69.29,60v4.35H67.67v-.65a1.53,1.53,0,0,1-.56.54,1.59,1.59,0,0,1-.77.18,1.56,1.56,0,0,1-.8-.2,1.4,1.4,0,0,1-.54-.58,1.91,1.91,0,0,1-.19-.88V60h1.62v2.3a.76.76,0,0,0,.16.51A.53.53,0,0,0,67,63a.61.61,0,0,0,.49-.24,1,1,0,0,0,.18-.61V60Z"/><path class="cls-2" d="M75.85,60.23a1.87,1.87,0,0,1,.71.79,2.91,2.91,0,0,1,0,2.35,1.81,1.81,0,0,1-.69.77,2,2,0,0,1-1,.27,1.65,1.65,0,0,1-.7-.14,1.52,1.52,0,0,1-.54-.42v2.06H72V60H73.6v.5a1.47,1.47,0,0,1,.52-.42,1.55,1.55,0,0,1,.67-.14A2,2,0,0,1,75.85,60.23ZM75,62.86a1.24,1.24,0,0,0,0-1.4.7.7,0,0,0-.58-.27.69.69,0,0,0-.57.27,1.24,1.24,0,0,0,0,1.4.69.69,0,0,0,.57.27A.7.7,0,0,0,75,62.86Z"/><path class="cls-2" d="M79.65,60.13a1.59,1.59,0,0,1,.79-.2v1.46l-.28,0a1.22,1.22,0,0,0-.8.24.8.8,0,0,0-.29.66v2.08H77.45V60h1.62v.69A1.66,1.66,0,0,1,79.65,60.13Z"/><path class="cls-2" d="M84.36,60.22a2,2,0,0,1,.84.78,2.45,2.45,0,0,1,0,2.35,2,2,0,0,1-.84.78,2.77,2.77,0,0,1-1.27.28,2.8,2.8,0,0,1-1.28-.28,2,2,0,0,1-.85-.78A2.45,2.45,0,0,1,81,61a2,2,0,0,1,.85-.78,2.8,2.8,0,0,1,1.28-.28A2.77,2.77,0,0,1,84.36,60.22Zm-1.85,1.27a1.25,1.25,0,0,0,0,1.4.71.71,0,0,0,.58.26.7.7,0,0,0,.57-.26,1.25,1.25,0,0,0,0-1.4.69.69,0,0,0-.57-.27A.7.7,0,0,0,82.52,61.49Z"/><path class="cls-2" d="M87.91,65.67a1.9,1.9,0,0,1-1.1.31,2.24,2.24,0,0,1-.74-.12,2.41,2.41,0,0,1-.66-.36l.67-1.08a1,1,0,0,0,.29.19.77.77,0,0,0,.3.06.48.48,0,0,0,.47-.28l.08-.15L85.41,60h1.66l1,2.66L88.83,60h1.61l-1.82,4.72A2,2,0,0,1,87.91,65.67Z"/><path class="cls-2" d="M94.36,60.58a2.44,2.44,0,0,1,.6,1.74c0,.11,0,.19,0,.25H92a.92.92,0,0,0,.32.48.85.85,0,0,0,.53.17,1.41,1.41,0,0,0,1-.42l.84.82a2.23,2.23,0,0,1-.84.58,2.89,2.89,0,0,1-1.1.2,2.65,2.65,0,0,1-1.25-.28,2,2,0,0,1-.81-.78,2.55,2.55,0,0,1,0-2.34,2,2,0,0,1,.81-.79,2.49,2.49,0,0,1,1.2-.28A2.19,2.19,0,0,1,94.36,60.58Zm-1.18.67a.61.61,0,0,0-.48-.21.61.61,0,0,0-.46.2,1.07,1.07,0,0,0-.25.54h1.37A.74.74,0,0,0,93.19,61.25Z"/><path class="cls-2" d="M98,61.37a.75.75,0,0,0-.4-.11.63.63,0,0,0-.52.26,1.06,1.06,0,0,0-.2.67,1.1,1.1,0,0,0,.2.68.62.62,0,0,0,.52.26.7.7,0,0,0,.69-.48l1.26.63a1.8,1.8,0,0,1-.78.83,2.53,2.53,0,0,1-1.25.3,2.47,2.47,0,0,1-1.19-.28,2,2,0,0,1-.79-.78,2.34,2.34,0,0,1-.28-1.16A2.38,2.38,0,0,1,95.55,61a2,2,0,0,1,.8-.79,2.47,2.47,0,0,1,1.2-.28,2.41,2.41,0,0,1,1.2.3,2,2,0,0,1,.8.84l-1.24.61A.84.84,0,0,0,98,61.37Z"/><path class="cls-2" d="M103.08,64.15a2.19,2.19,0,0,1-.56.2,3,3,0,0,1-.67.08,1.57,1.57,0,0,1-1.11-.38,1.36,1.36,0,0,1-.42-1V61.26h-.6v-1h.6V59h1.61v1.21H103v1h-1.07v1.49a.45.45,0,0,0,.1.31.35.35,0,0,0,.27.1,1.67,1.67,0,0,0,.5-.13Z"/><path class="cls-2" d="M107,60.22a2,2,0,0,1,.84.78,2.45,2.45,0,0,1,0,2.35,2,2,0,0,1-.84.78,2.77,2.77,0,0,1-1.27.28,2.8,2.8,0,0,1-1.28-.28,2,2,0,0,1-.85-.78,2.45,2.45,0,0,1,0-2.35,2,2,0,0,1,.85-.78,2.8,2.8,0,0,1,1.28-.28A2.77,2.77,0,0,1,107,60.22Zm-1.85,1.27a1.25,1.25,0,0,0,0,1.4.71.71,0,0,0,.58.26.7.7,0,0,0,.57-.26,1.25,1.25,0,0,0,0-1.4.69.69,0,0,0-.57-.27A.7.7,0,0,0,105.2,61.49Z"/><path class="cls-2" d="M109.9,63.12a.72.72,0,0,1,.21.54.73.73,0,0,1-.76.76.73.73,0,0,1-.54-.21.74.74,0,0,1-.21-.55.72.72,0,0,1,.21-.54.74.74,0,0,1,.54-.21A.75.75,0,0,1,109.9,63.12Z"/><path class="cls-2" d="M63.77,69.89a1.53,1.53,0,0,1,.5,1.22,1.62,1.62,0,0,1-.5,1.27,2,2,0,0,1-1.41.45H61.13v1.53h-.67v-4.9h1.89A2.1,2.1,0,0,1,63.77,69.89Zm-.48,2.05a1,1,0,0,0,.34-.82,1,1,0,0,0-.34-.79,1.51,1.51,0,0,0-1-.27H61.13v2.15h1.19A1.49,1.49,0,0,0,63.29,71.94Z"/><path class="cls-2" d="M65.13,69.16h.65v5.19h-.65Z"/><path class="cls-2" d="M69.35,74.35v-.52a1.52,1.52,0,0,1-1.3.55,1.48,1.48,0,0,1-.67-.15,1.08,1.08,0,0,1-.45-.41,1.09,1.09,0,0,1-.16-.58,1,1,0,0,1,.37-.79,1.65,1.65,0,0,1,1-.3h1.18V72a.76.76,0,0,0-.24-.61,1,1,0,0,0-.7-.21,2,2,0,0,0-1.14.4L67,71.12a3.32,3.32,0,0,1,.74-.37,2.52,2.52,0,0,1,.81-.12A1.55,1.55,0,0,1,69.6,71a1.23,1.23,0,0,1,.38.95v2.44ZM69,73.62a.87.87,0,0,0,.38-.58v-.37H68.26a1.27,1.27,0,0,0-.65.13.46.46,0,0,0-.21.42.54.54,0,0,0,.22.45.92.92,0,0,0,.58.17A1.33,1.33,0,0,0,69,73.62Z"/><path class="cls-2" d="M74.24,71a1.45,1.45,0,0,1,.37,1.05v2.29H74V72.24a.91.91,0,0,0-1-1,1.12,1.12,0,0,0-.81.32,1.25,1.25,0,0,0-.35.81v2h-.65v-3.7h.65v.78a1.43,1.43,0,0,1,1.41-.81A1.36,1.36,0,0,1,74.24,71Z"/><path class="cls-2" d="M78.29,70.87a1.71,1.71,0,0,1,.67.66,1.92,1.92,0,0,1,.24,1,1.94,1.94,0,0,1-.24,1,1.71,1.71,0,0,1-.67.67,2.17,2.17,0,0,1-2,0,1.72,1.72,0,0,1-.67-.66,2.08,2.08,0,0,1,0-1.95,1.72,1.72,0,0,1,.67-.66,2.16,2.16,0,0,1,2,0Zm-1.63.5a1.16,1.16,0,0,0-.44.47,1.41,1.41,0,0,0-.16.67,1.46,1.46,0,0,0,.16.69,1.14,1.14,0,0,0,.44.47,1.27,1.27,0,0,0,.65.16,1.25,1.25,0,0,0,.64-.16,1.14,1.14,0,0,0,.44-.47,1.47,1.47,0,0,0,.16-.69,1.42,1.42,0,0,0-.16-.67,1.17,1.17,0,0,0-.44-.47,1.23,1.23,0,0,0-.64-.17A1.25,1.25,0,0,0,76.66,71.37Z"/><path class="cls-2" d="M81.63,71.25a1.83,1.83,0,0,0-.53-.08.9.9,0,0,0-.47.11.36.36,0,0,0-.18.33.37.37,0,0,0,.2.34,2.9,2.9,0,0,0,.61.24,4.67,4.67,0,0,1,.63.22,1.11,1.11,0,0,1,.42.33.9.9,0,0,1,.17.57.91.91,0,0,1-.4.8,1.69,1.69,0,0,1-1,.27,2.45,2.45,0,0,1-.8-.13,1.83,1.83,0,0,1-.65-.38l.25-.48a1.73,1.73,0,0,0,.57.34,1.89,1.89,0,0,0,.66.13,1,1,0,0,0,.52-.12.4.4,0,0,0,.2-.36.41.41,0,0,0-.21-.38,2.81,2.81,0,0,0-.63-.25,4.25,4.25,0,0,1-.61-.21,1.06,1.06,0,0,1-.4-.32.86.86,0,0,1-.17-.55.88.88,0,0,1,.38-.78,1.64,1.64,0,0,1,.95-.26,2.35,2.35,0,0,1,.66.09,2,2,0,0,1,.56.26l-.24.5A2.23,2.23,0,0,0,81.63,71.25Z"/><path class="cls-2" d="M60.48,84.35,60,83.16H57.38l-.51,1.19h-.71l2.18-4.9H59l2.17,4.9Zm-2.83-1.8H59.7l-1-2.38Z"/><path class="cls-2" d="M63.21,81.21a1.29,1.29,0,0,0-.65.16,1.15,1.15,0,0,0-.44.46,1.39,1.39,0,0,0-.16.68,1.42,1.42,0,0,0,.16.68,1.16,1.16,0,0,0,.43.46,1.21,1.21,0,0,0,.63.17,1.67,1.67,0,0,0,.64-.12,1.22,1.22,0,0,0,.48-.34l.37.38a1.62,1.62,0,0,1-.64.48,2.19,2.19,0,0,1-.88.17,1.92,1.92,0,0,1-1-.24,1.69,1.69,0,0,1-.65-.66,2,2,0,0,1-.23-1,2,2,0,0,1,.23-1,1.68,1.68,0,0,1,.65-.67,1.92,1.92,0,0,1,1-.24,2.35,2.35,0,0,1,.84.14,1.63,1.63,0,0,1,.63.42l-.36.45A1.47,1.47,0,0,0,63.21,81.21Z"/><path class="cls-2" d="M67.68,84.35v-.52a1.52,1.52,0,0,1-1.3.55,1.48,1.48,0,0,1-.67-.15,1.08,1.08,0,0,1-.45-.41,1.09,1.09,0,0,1-.16-.58,1,1,0,0,1,.37-.79,1.65,1.65,0,0,1,1-.3h1.18V82a.76.76,0,0,0-.24-.61,1,1,0,0,0-.7-.21,2,2,0,0,0-1.14.4l-.27-.45a3.32,3.32,0,0,1,.74-.37,2.52,2.52,0,0,1,.81-.12,1.55,1.55,0,0,1,1.07.34,1.23,1.23,0,0,1,.38.95v2.44Zm-.39-.73a.87.87,0,0,0,.38-.58v-.37H66.59a1.27,1.27,0,0,0-.65.13.46.46,0,0,0-.21.42.54.54,0,0,0,.22.45.92.92,0,0,0,.58.17A1.33,1.33,0,0,0,67.29,83.62Z"/><path class="cls-2" d="M72.47,80.87a1.64,1.64,0,0,1,.63.67,2.25,2.25,0,0,1,0,1.95,1.6,1.6,0,0,1-.62.66,1.8,1.8,0,0,1-.92.23,1.7,1.7,0,0,1-.83-.2,1.4,1.4,0,0,1-.56-.56v.74h-.65V79.16h.65v2.23a1.4,1.4,0,0,1,.56-.56,1.65,1.65,0,0,1,.82-.2A1.8,1.8,0,0,1,72.47,80.87Zm-.41,2.77a1.16,1.16,0,0,0,.44-.47,1.43,1.43,0,0,0,.16-.68,1.41,1.41,0,0,0-.16-.67,1.19,1.19,0,0,0-.44-.47,1.21,1.21,0,0,0-.64-.17,1.23,1.23,0,0,0-.64.17,1.17,1.17,0,0,0-.44.47,1.5,1.5,0,0,0,0,1.35,1.18,1.18,0,0,0,.44.47,1.31,1.31,0,0,0,1.28,0Z"/><path class="cls-2" d="M76.49,84.35v-.52a1.52,1.52,0,0,1-1.3.55,1.48,1.48,0,0,1-.67-.15,1.08,1.08,0,0,1-.45-.41,1.09,1.09,0,0,1-.16-.58,1,1,0,0,1,.37-.79,1.65,1.65,0,0,1,1-.3h1.18V82a.76.76,0,0,0-.24-.61,1,1,0,0,0-.7-.21,2,2,0,0,0-1.14.4l-.27-.45a3.32,3.32,0,0,1,.74-.37,2.52,2.52,0,0,1,.81-.12,1.55,1.55,0,0,1,1.07.34,1.23,1.23,0,0,1,.38.95v2.44Zm-.39-.73a.87.87,0,0,0,.38-.58v-.37H75.4a1.27,1.27,0,0,0-.65.13.46.46,0,0,0-.21.42.54.54,0,0,0,.22.45.92.92,0,0,0,.58.17A1.33,1.33,0,0,0,76.11,83.62Z"/><path class="cls-2" d="M81.75,79.16v5.19H81.1v-.74a1.46,1.46,0,0,1-.56.57,1.65,1.65,0,0,1-.82.2,1.77,1.77,0,0,1-.93-.24,1.66,1.66,0,0,1-.63-.67,2.1,2.1,0,0,1-.22-1,2,2,0,0,1,.22-1,1.65,1.65,0,0,1,.63-.66,1.78,1.78,0,0,1,.92-.24,1.7,1.7,0,0,1,.83.2,1.39,1.39,0,0,1,.56.57V79.16Zm-1.26,4.5a1.18,1.18,0,0,0,.45-.47,1.43,1.43,0,0,0,.16-.68,1.44,1.44,0,0,0-.16-.69,1.18,1.18,0,0,0-.45-.47,1.32,1.32,0,0,0-1.29,0,1.22,1.22,0,0,0-.44.47,1.51,1.51,0,0,0,0,1.36,1.19,1.19,0,0,0,.44.47,1.33,1.33,0,0,0,1.29,0Z"/><path class="cls-2" d="M85.58,80.87a1.71,1.71,0,0,1,.67.66,1.92,1.92,0,0,1,.24,1,1.94,1.94,0,0,1-.24,1,1.71,1.71,0,0,1-.67.67,2.17,2.17,0,0,1-2,0,1.72,1.72,0,0,1-.67-.66,2.08,2.08,0,0,1,0-1.95,1.72,1.72,0,0,1,.67-.66,2.16,2.16,0,0,1,2,0Zm-1.63.5a1.16,1.16,0,0,0-.44.47,1.41,1.41,0,0,0-.16.67,1.46,1.46,0,0,0,.16.69,1.14,1.14,0,0,0,.44.47,1.27,1.27,0,0,0,.65.16,1.25,1.25,0,0,0,.64-.16,1.14,1.14,0,0,0,.44-.47,1.47,1.47,0,0,0,.16-.69,1.42,1.42,0,0,0-.16-.67,1.17,1.17,0,0,0-.44-.47,1.23,1.23,0,0,0-.64-.17A1.25,1.25,0,0,0,84,81.37Z"/><path class="cls-2" d="M88.92,81.25a1.83,1.83,0,0,0-.53-.08.9.9,0,0,0-.47.11.36.36,0,0,0-.18.33.37.37,0,0,0,.2.34,2.9,2.9,0,0,0,.61.24,4.67,4.67,0,0,1,.63.22,1.11,1.11,0,0,1,.42.33.9.9,0,0,1,.17.57.91.91,0,0,1-.4.8,1.69,1.69,0,0,1-1,.27,2.45,2.45,0,0,1-.8-.13,1.83,1.83,0,0,1-.65-.38l.25-.48a1.73,1.73,0,0,0,.57.34,1.89,1.89,0,0,0,.66.13,1,1,0,0,0,.52-.12.4.4,0,0,0,.2-.36.41.41,0,0,0-.21-.38,2.81,2.81,0,0,0-.63-.25,4.25,4.25,0,0,1-.61-.21,1.06,1.06,0,0,1-.4-.32.86.86,0,0,1-.17-.55.88.88,0,0,1,.38-.78,1.64,1.64,0,0,1,.95-.26,2.35,2.35,0,0,1,.66.09,2,2,0,0,1,.56.26l-.24.5A2.23,2.23,0,0,0,88.92,81.25Z"/><path class="cls-2" d="M88.56,20.95a.19.19,0,0,0,0-.15v-.05c-.05,0-.05-.1-.1-.15l-6.13-6.13c-.05,0-.1,0-.15-.1h-.05s-.1,0-.15,0H58.41a.48.48,0,0,0-.51.51v4.6h1V15.33H81.41v5.62a.48.48,0,0,0,.51.51h5.62v9.2h1Zm-6.13-.51V16l4.4,4.4Zm0,0"/><path class="cls-2" d="M88.05,35.77H86.62c-.05-.05-.05-.16-.1-.21l1-.92a.49.49,0,0,0,0-.72l-2.15-2.15a.49.49,0,0,0-.71,0l-1,1c-.1,0-.15,0-.2-.1V31.17a.48.48,0,0,0-.51-.51H79.93a.48.48,0,0,0-.51.51v1.38c0,.05-.15.05-.21.1l-1-1a.49.49,0,0,0-.72,0l-2.15,2.15a.5.5,0,0,0,0,.72l1,1c0,.1,0,.15-.1.21H74.76a.48.48,0,0,0-.51.51V39.3a.48.48,0,0,0,.51.51H76.2s0,.15.1.2l-1,1a.49.49,0,0,0,0,.71l2.15,2.15a.49.49,0,0,0,.72,0l1-1c.1.05.15.05.21.1v1.48a.48.48,0,0,0,.51.51h3.07a.48.48,0,0,0,.51-.51V43c0-.05.15-.05.2-.1l1,1a.49.49,0,0,0,.72,0l2.15-2.15a.5.5,0,0,0,0-.72l-1-1c0-.05,0-.15.1-.2h1.43a.48.48,0,0,0,.51-.51V36.28a.48.48,0,0,0-.51-.51Zm-.51,3.06H86.26a.55.55,0,0,0-.51.41,3.06,3.06,0,0,1-.26.61.74.74,0,0,0-.1.31.46.46,0,0,0,.15.36l.87.87L85,42.83,84.12,42a.46.46,0,0,0-.36-.15.55.55,0,0,0-.31.1l-.61.26a.5.5,0,0,0-.41.51V44h-2V42.67a.46.46,0,0,0-.15-.36,3.07,3.07,0,0,0-1.18-.51.47.47,0,0,0-.36.15l-.87.87L76.4,41.39l.87-.87a.46.46,0,0,0,.15-.36.71.71,0,0,0-.1-.31c0-.1-.2-.51-.25-.61a.5.5,0,0,0-.51-.41H75.27v-2h1.28a.47.47,0,0,0,.36-.15,3.07,3.07,0,0,0,.51-1.18.46.46,0,0,0-.15-.36l-.87-.87,1.43-1.43.87.87a.46.46,0,0,0,.36.15.55.55,0,0,0,.31-.1l.61-.25a.49.49,0,0,0,.41-.51V31.68h2V33a.47.47,0,0,0,.16.36,3.07,3.07,0,0,0,1.17.51.46.46,0,0,0,.36-.15l.87-.87,1.43,1.43-.87.87a.47.47,0,0,0-.15.36.75.75,0,0,0,.1.31c.05.1.21.51.26.61a.49.49,0,0,0,.51.41h1.28Zm0,0"/><path class="cls-2" d="M81.41,35.77a2,2,0,1,0,2,2,2,2,0,0,0-2-2Zm0,3.06a1,1,0,1,1,1-1,1,1,0,0,1-1,1Zm0,0"/><path class="cls-2" d="M70.63,27.34l-2-4.09a.53.53,0,0,0-.92,0l-2,4.09a.4.4,0,0,0,0,.41V45h1V28.11h1V45h1V28.11h1V45h1V27.65a.67.67,0,0,0,0-.31Zm-3.73-.25,1.23-2.45,1.23,2.45Zm0,0"/><path class="cls-2" d="M63.52,20.95H58.41a.48.48,0,0,0-.51.51V45h1V43.44h2.56v-1H58.92V38.84h2.56v-1H58.92V33.73h2.56v-1H58.92V28.62h2.56v-1H58.92V24.53h2.56v-1H58.92V22H63V45h1V21.46a.48.48,0,0,0-.51-.51Zm0,0"/><rect class="cls-2" x="60.45" y="16.86" width="6.13" height="1.02"/><rect class="cls-2" x="67.61" y="16.86" width="2.04" height="1.02"/><rect class="cls-2" x="64.54" y="18.91" width="5.11" height="1.02"/><rect class="cls-2" x="75.79" y="23" width="10.22" height="1.02"/><rect class="cls-2" x="72.72" y="25.55" width="9.2" height="1.02"/><rect class="cls-2" x="72.72" y="28.11" width="13.29" height="1.02"/><rect class="cls-2" x="72.72" y="30.15" width="3.07" height="1.02"/><rect class="cls-2" x="82.94" y="25.55" width="3.07" height="1.02"/><circle class="cls-2" cx="48.38" cy="12.77" r="9.77"/><path class="cls-1" d="M50.55,13.37v1.22h-.68v1.14H48.35V14.58H45.89v-1.1l1.48-3.37h1.57l-1.38,3.25h.79V12.23h1.52v1.14Z"/></svg>