<svg id="Layer_1" data-name="Layer 1" xmlns="http://www.w3.org/2000/svg" viewBox="0 0 142.67 113.44"><defs><style>.cls-1{fill:#6c9e3e;}.cls-2{fill:#fff;}</style></defs><title>Mesa de trabajo 7</title><rect class="cls-1" x="47.28" y="7.54" width="48.19" height="48.19" rx="24.09" ry="24.09"/><path class="cls-2" d="M52,60.75h4.93v1.33H55.26v4.28H53.59V62.07H52Z"/><path class="cls-2" d="M59.56,62.13a1.59,1.59,0,0,1,.79-.2v1.46l-.28,0a1.22,1.22,0,0,0-.8.24.8.8,0,0,0-.29.66v2.08H57.36V62H59v.69A1.66,1.66,0,0,1,59.56,62.13Z"/><path class="cls-2" d="M64.3,62.36a1.43,1.43,0,0,1,.52,1.17v2.82H63.24v-.48a1.32,1.32,0,0,1-.52.41,1.83,1.83,0,0,1-.75.14,1.51,1.51,0,0,1-1.08-.37,1.31,1.31,0,0,1-.39-1,1.17,1.17,0,0,1,.43-1,2,2,0,0,1,1.25-.35h1.06v0A.51.51,0,0,0,63,63.3a.89.89,0,0,0-.56-.15,2.75,2.75,0,0,0-.61.08,4.05,4.05,0,0,0-.7.23l-.4-1.07a5.57,5.57,0,0,1,2.1-.45A2.21,2.21,0,0,1,64.3,62.36Zm-1.36,2.89a.69.69,0,0,0,.29-.33v-.39H62.5q-.49,0-.49.41a.4.4,0,0,0,.13.32.53.53,0,0,0,.36.11A.86.86,0,0,0,62.95,65.25Z"/><path class="cls-2" d="M72.36,62.14a1.38,1.38,0,0,1,.54.58,1.89,1.89,0,0,1,.19.87v2.76H71.48v-2.3a.76.76,0,0,0-.16-.51.54.54,0,0,0-.44-.19.62.62,0,0,0-.5.24.94.94,0,0,0-.18.61v2.15H68.58v-2.3a.76.76,0,0,0-.16-.51.54.54,0,0,0-.44-.19.63.63,0,0,0-.5.24.93.93,0,0,0-.19.61v2.15H65.68V62h1.62v.66a1.56,1.56,0,0,1,.57-.54,1.61,1.61,0,0,1,.78-.19,1.56,1.56,0,0,1,.88.25,1.44,1.44,0,0,1,.55.7,1.54,1.54,0,0,1,1.47-.94A1.57,1.57,0,0,1,72.36,62.14Z"/><path class="cls-2" d="M75.35,60.16a.83.83,0,0,1-.6,1.43.83.83,0,0,1-.6-.23.88.88,0,0,1,0-1.2.83.83,0,0,1,.6-.23A.81.81,0,0,1,75.35,60.16ZM73.95,62h1.62v4.35H73.95Z"/><path class="cls-2" d="M79.52,66.15a2.19,2.19,0,0,1-.56.2,3,3,0,0,1-.67.08A1.57,1.57,0,0,1,77.17,66a1.36,1.36,0,0,1-.42-1V63.26h-.6v-1h.6V61h1.61v1.21h1.07v1H78.36v1.49a.45.45,0,0,0,.1.31.35.35,0,0,0,.27.1,1.67,1.67,0,0,0,.5-.13Z"/><path class="cls-2" d="M83.76,62.58a2.44,2.44,0,0,1,.6,1.74c0,.11,0,.19,0,.25H81.42a.92.92,0,0,0,.32.48.85.85,0,0,0,.53.17,1.41,1.41,0,0,0,1-.42l.84.82a2.23,2.23,0,0,1-.84.58,2.89,2.89,0,0,1-1.1.2,2.65,2.65,0,0,1-1.25-.28,2,2,0,0,1-.81-.78,2.55,2.55,0,0,1,0-2.34,2,2,0,0,1,.81-.79,2.49,2.49,0,0,1,1.2-.28A2.19,2.19,0,0,1,83.76,62.58Zm-1.18.67A.61.61,0,0,0,82.1,63a.61.61,0,0,0-.46.2,1.07,1.07,0,0,0-.25.54h1.37A.74.74,0,0,0,82.58,63.25Z"/><path class="cls-2" d="M86.64,63a.47.47,0,0,0-.24.05.17.17,0,0,0-.09.16c0,.08.05.15.16.2a3.53,3.53,0,0,0,.52.17,6.51,6.51,0,0,1,.8.27,1.51,1.51,0,0,1,.55.41,1.05,1.05,0,0,1,.24.71A1.24,1.24,0,0,1,88.06,66a2.28,2.28,0,0,1-1.39.39,3.86,3.86,0,0,1-1.1-.16,3.18,3.18,0,0,1-.95-.46l.5-1a3.59,3.59,0,0,0,.81.4,2.4,2.4,0,0,0,.76.14.56.56,0,0,0,.26-.05.16.16,0,0,0,.1-.15c0-.08-.05-.14-.16-.2a3.06,3.06,0,0,0-.52-.17,6,6,0,0,1-.78-.26,1.5,1.5,0,0,1-.54-.41,1,1,0,0,1-.23-.7,1.27,1.27,0,0,1,.51-1.06,2.15,2.15,0,0,1,1.34-.39,3.76,3.76,0,0,1,1.91.53l-.54,1A3.36,3.36,0,0,0,86.64,63Z"/><path class="cls-2" d="M90.35,65.12a.72.72,0,0,1,.21.54.73.73,0,0,1-.76.76.73.73,0,0,1-.54-.21.74.74,0,0,1-.21-.55.72.72,0,0,1,.21-.54.74.74,0,0,1,.54-.21A.75.75,0,0,1,90.35,65.12Z"/><path class="cls-2" d="M56.46,71.45h.67v4.29h2.14v.61H56.46Z"/><path class="cls-2" d="M60.68,71.29a.45.45,0,0,1,0,.6.41.41,0,0,1-.58,0,.45.45,0,0,1,0-.6.41.41,0,0,1,.58,0Zm-.61,1.36h.65v3.7h-.65Z"/><path class="cls-2" d="M63.52,73.21a1.29,1.29,0,0,0-.65.16,1.15,1.15,0,0,0-.44.46,1.39,1.39,0,0,0-.16.68,1.42,1.42,0,0,0,.16.68,1.16,1.16,0,0,0,.43.46,1.21,1.21,0,0,0,.63.17,1.67,1.67,0,0,0,.64-.12,1.22,1.22,0,0,0,.48-.34l.37.38a1.62,1.62,0,0,1-.64.48,2.19,2.19,0,0,1-.88.17,1.92,1.92,0,0,1-1-.24,1.69,1.69,0,0,1-.65-.66,2,2,0,0,1-.23-1,2,2,0,0,1,.23-1,1.68,1.68,0,0,1,.65-.67,1.92,1.92,0,0,1,1-.24,2.35,2.35,0,0,1,.84.14,1.63,1.63,0,0,1,.63.42l-.36.45A1.47,1.47,0,0,0,63.52,73.21Z"/><path class="cls-2" d="M68.54,73.14A2.08,2.08,0,0,1,69,74.55c0,.09,0,.16,0,.21H66a1.26,1.26,0,0,0,.42.79,1.23,1.23,0,0,0,.84.29,1.57,1.57,0,0,0,.61-.12,1.48,1.48,0,0,0,.49-.34l.36.37a1.87,1.87,0,0,1-.66.46,2.19,2.19,0,0,1-.85.16,2,2,0,0,1-1-.23,1.65,1.65,0,0,1-.66-.66,2,2,0,0,1-.23-1,2,2,0,0,1,.23-1,1.71,1.71,0,0,1,.65-.67,1.89,1.89,0,0,1,1-.24A1.63,1.63,0,0,1,68.54,73.14Zm-.15,1.12a1.07,1.07,0,0,0-1.15-1.08,1.17,1.17,0,0,0-.82.29,1.24,1.24,0,0,0-.39.79Z"/><path class="cls-2" d="M73,73a1.45,1.45,0,0,1,.37,1.05v2.29h-.65V74.24a.91.91,0,0,0-1-1,1.12,1.12,0,0,0-.81.32,1.25,1.25,0,0,0-.35.81v2h-.65v-3.7h.65v.78a1.43,1.43,0,0,1,1.41-.81A1.36,1.36,0,0,1,73,73Z"/><path class="cls-2" d="M76,73.21a1.29,1.29,0,0,0-.65.16,1.15,1.15,0,0,0-.44.46,1.39,1.39,0,0,0-.16.68,1.42,1.42,0,0,0,.16.68,1.16,1.16,0,0,0,.43.46,1.21,1.21,0,0,0,.63.17,1.67,1.67,0,0,0,.64-.12,1.22,1.22,0,0,0,.48-.34l.37.38a1.62,1.62,0,0,1-.64.48,2.19,2.19,0,0,1-.88.17,1.92,1.92,0,0,1-1-.24,1.69,1.69,0,0,1-.65-.66,2,2,0,0,1-.23-1,2,2,0,0,1,.23-1,1.68,1.68,0,0,1,.65-.67,1.92,1.92,0,0,1,1-.24,2.35,2.35,0,0,1,.84.14,1.63,1.63,0,0,1,.63.42l-.36.45A1.47,1.47,0,0,0,76,73.21Z"/><path class="cls-2" d="M79,71.29a.45.45,0,0,1,0,.6.41.41,0,0,1-.58,0,.45.45,0,0,1,0-.6.41.41,0,0,1,.58,0Zm-.61,1.36h.65v3.7h-.65Z"/><path class="cls-2" d="M82.6,76.35v-.52a1.52,1.52,0,0,1-1.3.55,1.48,1.48,0,0,1-.67-.15,1.08,1.08,0,0,1-.45-.41,1.09,1.09,0,0,1-.16-.58,1,1,0,0,1,.37-.79,1.65,1.65,0,0,1,1-.3h1.18V74a.76.76,0,0,0-.24-.61,1,1,0,0,0-.7-.21,2,2,0,0,0-1.14.4l-.27-.45a3.32,3.32,0,0,1,.74-.37,2.52,2.52,0,0,1,.81-.12,1.55,1.55,0,0,1,1.07.34,1.23,1.23,0,0,1,.38.95v2.44Zm-.39-.73a.87.87,0,0,0,.38-.58v-.37H81.5a1.27,1.27,0,0,0-.65.13.46.46,0,0,0-.21.42.54.54,0,0,0,.22.45.92.92,0,0,0,.58.17A1.33,1.33,0,0,0,82.21,75.62Z"/><path class="cls-2" d="M85.92,73.25a1.83,1.83,0,0,0-.53-.08.9.9,0,0,0-.47.11.36.36,0,0,0-.18.33.37.37,0,0,0,.2.34,2.9,2.9,0,0,0,.61.24,4.67,4.67,0,0,1,.63.22,1.11,1.11,0,0,1,.42.33.9.9,0,0,1,.17.57.91.91,0,0,1-.4.8,1.69,1.69,0,0,1-1,.27,2.45,2.45,0,0,1-.8-.13,1.83,1.83,0,0,1-.65-.38l.25-.48a1.73,1.73,0,0,0,.57.34,1.89,1.89,0,0,0,.66.13,1,1,0,0,0,.52-.12.4.4,0,0,0,.2-.36.41.41,0,0,0-.21-.38,2.81,2.81,0,0,0-.63-.25,4.25,4.25,0,0,1-.61-.21,1.06,1.06,0,0,1-.4-.32.86.86,0,0,1-.17-.55.88.88,0,0,1,.38-.78,1.64,1.64,0,0,1,.95-.26,2.35,2.35,0,0,1,.66.09,2,2,0,0,1,.56.26l-.24.5A2.23,2.23,0,0,0,85.92,73.25Z"/><path class="cls-2" d="M59.63,81.89a1.53,1.53,0,0,1,.5,1.22,1.62,1.62,0,0,1-.5,1.27,2,2,0,0,1-1.41.45H57v1.53h-.67v-4.9h1.89A2.1,2.1,0,0,1,59.63,81.89Zm-.48,2.05a1,1,0,0,0,.34-.82,1,1,0,0,0-.34-.79,1.51,1.51,0,0,0-1-.27H57v2.15h1.19A1.49,1.49,0,0,0,59.15,83.94Z"/><path class="cls-2" d="M63.74,83.14a2.08,2.08,0,0,1,.44,1.41c0,.09,0,.16,0,.21H61.25a1.26,1.26,0,0,0,.42.79,1.23,1.23,0,0,0,.84.29,1.57,1.57,0,0,0,.61-.12,1.48,1.48,0,0,0,.49-.34l.36.37a1.87,1.87,0,0,1-.66.46,2.19,2.19,0,0,1-.85.16,2,2,0,0,1-1-.23,1.65,1.65,0,0,1-.66-.66,2,2,0,0,1-.23-1,2,2,0,0,1,.23-1,1.71,1.71,0,0,1,.65-.67,1.89,1.89,0,0,1,1-.24A1.63,1.63,0,0,1,63.74,83.14Zm-.15,1.12a1.07,1.07,0,0,0-1.15-1.08,1.17,1.17,0,0,0-.82.29,1.24,1.24,0,0,0-.39.79Z"/><path class="cls-2" d="M66.24,82.84a1.54,1.54,0,0,1,.8-.21v.63a1.19,1.19,0,0,0-1.32,1.14v2h-.65v-3.7h.65v.8A1.34,1.34,0,0,1,66.24,82.84Z"/><path class="cls-2" d="M73.53,83a1.47,1.47,0,0,1,.36,1v2.29h-.66V84.24A1,1,0,0,0,73,83.5a.93.93,0,0,0-.7-.27,1.06,1.06,0,0,0-.83.37,1.38,1.38,0,0,0-.3.92v1.83h-.66V84.24a1,1,0,0,0-.25-.74.93.93,0,0,0-.71-.27,1.07,1.07,0,0,0-.83.37,1.36,1.36,0,0,0-.3.92v1.83h-.65v-3.7h.65v.78a1.4,1.4,0,0,1,1.38-.8,1.42,1.42,0,0,1,.85.25,1.2,1.2,0,0,1,.46.69,1.41,1.41,0,0,1,1.44-.93A1.31,1.31,0,0,1,73.53,83Z"/><path class="cls-2" d="M75.67,81.29a.45.45,0,0,1,0,.6.41.41,0,0,1-.58,0,.45.45,0,0,1,0-.6.41.41,0,0,1,.58,0Zm-.61,1.36h.65v3.7h-.65Z"/><path class="cls-2" d="M78.49,83.25a1.83,1.83,0,0,0-.53-.08.9.9,0,0,0-.47.11.36.36,0,0,0-.18.33.37.37,0,0,0,.2.34,2.9,2.9,0,0,0,.61.24,4.67,4.67,0,0,1,.63.22,1.11,1.11,0,0,1,.42.33.9.9,0,0,1,.17.57.91.91,0,0,1-.4.8,1.69,1.69,0,0,1-1,.27,2.45,2.45,0,0,1-.8-.13,1.83,1.83,0,0,1-.65-.38l.25-.48a1.73,1.73,0,0,0,.57.34,1.89,1.89,0,0,0,.66.13,1,1,0,0,0,.52-.12.4.4,0,0,0,.2-.36.41.41,0,0,0-.21-.38,2.81,2.81,0,0,0-.63-.25,4.25,4.25,0,0,1-.61-.21,1.06,1.06,0,0,1-.4-.32.86.86,0,0,1-.17-.55.88.88,0,0,1,.38-.78,1.64,1.64,0,0,1,.95-.26,2.35,2.35,0,0,1,.66.09,2,2,0,0,1,.56.26l-.24.5A2.23,2.23,0,0,0,78.49,83.25Z"/><path class="cls-2" d="M82.72,82.87a1.71,1.71,0,0,1,.67.66,1.92,1.92,0,0,1,.24,1,1.94,1.94,0,0,1-.24,1,1.71,1.71,0,0,1-.67.67,2.17,2.17,0,0,1-2,0,1.72,1.72,0,0,1-.67-.66,2.08,2.08,0,0,1,0-1.95,1.72,1.72,0,0,1,.67-.66,2.16,2.16,0,0,1,2,0Zm-1.63.5a1.16,1.16,0,0,0-.44.47,1.41,1.41,0,0,0-.16.67,1.46,1.46,0,0,0,.16.69,1.14,1.14,0,0,0,.44.47,1.27,1.27,0,0,0,.65.16,1.25,1.25,0,0,0,.64-.16,1.14,1.14,0,0,0,.44-.47A1.47,1.47,0,0,0,83,84.5a1.42,1.42,0,0,0-.16-.67,1.17,1.17,0,0,0-.44-.47,1.23,1.23,0,0,0-.64-.17A1.25,1.25,0,0,0,81.08,83.36Z"/><path class="cls-2" d="M86.05,83.25a1.83,1.83,0,0,0-.53-.08.9.9,0,0,0-.47.11.36.36,0,0,0-.18.33.37.37,0,0,0,.2.34,2.9,2.9,0,0,0,.61.24,4.67,4.67,0,0,1,.63.22,1.11,1.11,0,0,1,.42.33.9.9,0,0,1,.17.57.91.91,0,0,1-.4.8,1.69,1.69,0,0,1-1,.27,2.45,2.45,0,0,1-.8-.13,1.83,1.83,0,0,1-.65-.38l.25-.48a1.73,1.73,0,0,0,.57.34,1.89,1.89,0,0,0,.66.13,1,1,0,0,0,.52-.12.4.4,0,0,0,.2-.36A.41.41,0,0,0,86,85a2.81,2.81,0,0,0-.63-.25,4.25,4.25,0,0,1-.61-.21,1.06,1.06,0,0,1-.4-.32.86.86,0,0,1-.17-.55.88.88,0,0,1,.38-.78,1.64,1.64,0,0,1,.95-.26,2.35,2.35,0,0,1,.66.09,2,2,0,0,1,.56.26l-.24.5A2.23,2.23,0,0,0,86.05,83.25Z"/><path class="cls-2" d="M31.76,92.17a1.88,1.88,0,0,0-2.4.77A1.88,1.88,0,0,0,31,95.77a1.92,1.92,0,0,0,.76-.16,2.21,2.21,0,0,0,.66-.43l.41.44a2.72,2.72,0,0,1-.86.57,2.57,2.57,0,0,1-2.28-.13,2.47,2.47,0,0,1-1.25-2.17,2.41,2.41,0,0,1,.34-1.26,2.46,2.46,0,0,1,.93-.9A2.6,2.6,0,0,1,31,91.41a2.64,2.64,0,0,1,1,.19,2.46,2.46,0,0,1,.83.54l-.4.48A2,2,0,0,0,31.76,92.17Z"/><path class="cls-2" d="M36.1,92.87a1.71,1.71,0,0,1,.67.66,1.92,1.92,0,0,1,.24,1,1.94,1.94,0,0,1-.24,1,1.71,1.71,0,0,1-.67.67,2.17,2.17,0,0,1-2,0,1.72,1.72,0,0,1-.67-.66,2.08,2.08,0,0,1,0-1.95,1.72,1.72,0,0,1,.67-.66,2.16,2.16,0,0,1,2,0Zm-1.63.5a1.16,1.16,0,0,0-.44.47,1.41,1.41,0,0,0-.16.67,1.46,1.46,0,0,0,.16.69,1.14,1.14,0,0,0,.44.47,1.27,1.27,0,0,0,.65.16,1.25,1.25,0,0,0,.64-.16,1.14,1.14,0,0,0,.44-.47,1.47,1.47,0,0,0,.16-.69,1.42,1.42,0,0,0-.16-.67,1.17,1.17,0,0,0-.44-.47,1.23,1.23,0,0,0-.64-.17A1.25,1.25,0,0,0,34.47,93.36Z"/><path class="cls-2" d="M41,93a1.45,1.45,0,0,1,.37,1.05v2.29h-.65V94.24a.91.91,0,0,0-1-1,1.12,1.12,0,0,0-.81.32,1.25,1.25,0,0,0-.35.81v2h-.65v-3.7h.65v.78A1.43,1.43,0,0,1,40,92.63,1.36,1.36,0,0,1,41,93Z"/><path class="cls-2" d="M44.05,93.25a1.83,1.83,0,0,0-.53-.08.9.9,0,0,0-.47.11.36.36,0,0,0-.18.33.37.37,0,0,0,.2.34,2.9,2.9,0,0,0,.61.24,4.67,4.67,0,0,1,.63.22,1.11,1.11,0,0,1,.42.33.9.9,0,0,1,.17.57.91.91,0,0,1-.4.8,1.69,1.69,0,0,1-1,.27,2.45,2.45,0,0,1-.8-.13,1.83,1.83,0,0,1-.65-.38l.25-.48a1.73,1.73,0,0,0,.57.34,1.89,1.89,0,0,0,.66.13,1,1,0,0,0,.52-.12.4.4,0,0,0,.2-.36A.41.41,0,0,0,44,95a2.81,2.81,0,0,0-.63-.25,4.25,4.25,0,0,1-.61-.21,1.06,1.06,0,0,1-.4-.32.86.86,0,0,1-.17-.55.88.88,0,0,1,.38-.78,1.64,1.64,0,0,1,.95-.26,2.35,2.35,0,0,1,.66.09,2,2,0,0,1,.56.26l-.24.5A2.23,2.23,0,0,0,44.05,93.25Z"/><path class="cls-2" d="M47.74,96.11a1.6,1.6,0,0,1-.87.27,1,1,0,0,1-.71-.26,1.06,1.06,0,0,1-.27-.79V93.27h-.52v-.5h.52v-1h.66v1h1.13v.5H46.55v1.93a.68.68,0,0,0,.11.44.41.41,0,0,0,.34.13,1.18,1.18,0,0,0,.57-.17Z"/><path class="cls-2" d="M49.7,92.84a1.54,1.54,0,0,1,.8-.21v.63a1.19,1.19,0,0,0-1.32,1.14v2h-.65v-3.7h.65v.8A1.34,1.34,0,0,1,49.7,92.84Z"/><path class="cls-2" d="M54.48,92.65v3.7h-.66v-.78a1.39,1.39,0,0,1-1.37.8,1.33,1.33,0,0,1-1-.38,1.46,1.46,0,0,1-.36-1.05V92.65h.66v2.11a1,1,0,0,0,.26.73.93.93,0,0,0,.7.26,1,1,0,0,0,.82-.37,1.38,1.38,0,0,0,.3-.92V92.65Z"/><path class="cls-2" d="M56.36,91.29a.45.45,0,0,1,0,.6.41.41,0,0,1-.58,0,.45.45,0,0,1,0-.6.41.41,0,0,1,.58,0Zm-.61,1.36h.65v3.7h-.65Z"/><path class="cls-2" d="M63.45,93a1.47,1.47,0,0,1,.36,1v2.29h-.66V94.24a1,1,0,0,0-.26-.74.93.93,0,0,0-.7-.27,1.06,1.06,0,0,0-.83.37,1.38,1.38,0,0,0-.3.92v1.83h-.66V94.24a1,1,0,0,0-.25-.74.93.93,0,0,0-.71-.27,1.07,1.07,0,0,0-.83.37,1.36,1.36,0,0,0-.3.92v1.83h-.65v-3.7h.65v.78a1.4,1.4,0,0,1,1.38-.8,1.42,1.42,0,0,1,.85.25,1.2,1.2,0,0,1,.46.69,1.41,1.41,0,0,1,1.44-.93A1.31,1.31,0,0,1,63.45,93Z"/><path class="cls-2" d="M67.5,92.87a1.71,1.71,0,0,1,.67.66,1.92,1.92,0,0,1,.24,1,1.94,1.94,0,0,1-.24,1,1.71,1.71,0,0,1-.67.67,2.17,2.17,0,0,1-2,0,1.72,1.72,0,0,1-.67-.66,2.08,2.08,0,0,1,0-1.95,1.72,1.72,0,0,1,.67-.66,2.16,2.16,0,0,1,2,0Zm-1.63.5a1.16,1.16,0,0,0-.44.47,1.41,1.41,0,0,0-.16.67,1.46,1.46,0,0,0,.16.69,1.14,1.14,0,0,0,.44.47,1.27,1.27,0,0,0,.65.16,1.25,1.25,0,0,0,.64-.16,1.14,1.14,0,0,0,.44-.47,1.47,1.47,0,0,0,.16-.69,1.42,1.42,0,0,0-.16-.67,1.17,1.17,0,0,0-.44-.47,1.23,1.23,0,0,0-.64-.17A1.25,1.25,0,0,0,65.87,93.36Z"/><path class="cls-2" d="M70.84,93.25a1.83,1.83,0,0,0-.53-.08.9.9,0,0,0-.47.11.36.36,0,0,0-.18.33.37.37,0,0,0,.2.34,2.9,2.9,0,0,0,.61.24,4.67,4.67,0,0,1,.63.22,1.11,1.11,0,0,1,.42.33.9.9,0,0,1,.17.57.91.91,0,0,1-.4.8,1.69,1.69,0,0,1-1,.27,2.45,2.45,0,0,1-.8-.13,1.83,1.83,0,0,1-.65-.38l.25-.48a1.73,1.73,0,0,0,.57.34,1.89,1.89,0,0,0,.66.13,1,1,0,0,0,.52-.12.4.4,0,0,0,.2-.36.41.41,0,0,0-.21-.38,2.81,2.81,0,0,0-.63-.25,4.25,4.25,0,0,1-.61-.21,1.06,1.06,0,0,1-.4-.32.86.86,0,0,1-.17-.55.88.88,0,0,1,.38-.78,1.64,1.64,0,0,1,.95-.26,2.35,2.35,0,0,1,.66.09,2,2,0,0,1,.56.26l-.24.5A2.23,2.23,0,0,0,70.84,93.25Z"/><path class="cls-2" d="M76.37,96.11a1.6,1.6,0,0,1-.87.27,1,1,0,0,1-.71-.26,1.06,1.06,0,0,1-.27-.79V93.27H74v-.5h.52v-1h.66v1H76.3v.5H75.17v1.93a.68.68,0,0,0,.11.44.41.41,0,0,0,.34.13,1.18,1.18,0,0,0,.57-.17Z"/><path class="cls-2" d="M80.43,92.65v3.7h-.66v-.78a1.39,1.39,0,0,1-1.37.8,1.33,1.33,0,0,1-1-.38A1.46,1.46,0,0,1,77,94.94V92.65h.66v2.11a1,1,0,0,0,.26.73.93.93,0,0,0,.7.26,1,1,0,0,0,.82-.37,1.38,1.38,0,0,0,.3-.92V92.65Z"/><path class="cls-2" d="M86.52,92.87a1.64,1.64,0,0,1,.63.67,2.25,2.25,0,0,1,0,1.95,1.6,1.6,0,0,1-.62.66,1.8,1.8,0,0,1-.92.23,1.7,1.7,0,0,1-.83-.2,1.4,1.4,0,0,1-.56-.56v2.09h-.65V92.65h.65v.74a1.4,1.4,0,0,1,.56-.56,1.65,1.65,0,0,1,.82-.2A1.8,1.8,0,0,1,86.52,92.87Zm-.41,2.77a1.16,1.16,0,0,0,.44-.47,1.43,1.43,0,0,0,.16-.68,1.41,1.41,0,0,0-.16-.67,1.19,1.19,0,0,0-.44-.47,1.21,1.21,0,0,0-.64-.17,1.23,1.23,0,0,0-.64.17,1.17,1.17,0,0,0-.44.47,1.5,1.5,0,0,0,0,1.35,1.18,1.18,0,0,0,.44.47,1.31,1.31,0,0,0,1.28,0Z"/><path class="cls-2" d="M89.45,92.84a1.54,1.54,0,0,1,.8-.21v.63a1.19,1.19,0,0,0-1.32,1.14v2h-.65v-3.7h.65v.8A1.34,1.34,0,0,1,89.45,92.84Z"/><path class="cls-2" d="M93.48,92.87a1.71,1.71,0,0,1,.67.66,1.92,1.92,0,0,1,.24,1,1.94,1.94,0,0,1-.24,1,1.71,1.71,0,0,1-.67.67,2.17,2.17,0,0,1-2,0,1.72,1.72,0,0,1-.67-.66,2.08,2.08,0,0,1,0-1.95,1.72,1.72,0,0,1,.67-.66,2.16,2.16,0,0,1,2,0Zm-1.63.5a1.16,1.16,0,0,0-.44.47,1.41,1.41,0,0,0-.16.67,1.46,1.46,0,0,0,.16.69,1.14,1.14,0,0,0,.44.47,1.27,1.27,0,0,0,.65.16,1.25,1.25,0,0,0,.64-.16,1.14,1.14,0,0,0,.44-.47,1.47,1.47,0,0,0,.16-.69,1.42,1.42,0,0,0-.16-.67,1.17,1.17,0,0,0-.44-.47,1.23,1.23,0,0,0-.64-.17A1.25,1.25,0,0,0,91.85,93.36Z"/><path class="cls-2" d="M96,97.52a1.11,1.11,0,0,1-.68.22,1.28,1.28,0,0,1-.43-.07,1.3,1.3,0,0,1-.38-.22l.28-.51a.85.85,0,0,0,.5.17.67.67,0,0,0,.63-.48l.14-.33-1.53-3.66h.69l1.18,3,1.11-3h.67l-1.69,4.23A1.47,1.47,0,0,1,96,97.52Z"/><path class="cls-2" d="M101.43,93.14a2.08,2.08,0,0,1,.44,1.41c0,.09,0,.16,0,.21H98.94a1.26,1.26,0,0,0,.42.79,1.23,1.23,0,0,0,.84.29,1.57,1.57,0,0,0,.61-.12,1.48,1.48,0,0,0,.49-.34l.36.37a1.87,1.87,0,0,1-.66.46,2.19,2.19,0,0,1-.85.16,2,2,0,0,1-1-.23,1.65,1.65,0,0,1-.66-.66,2,2,0,0,1-.23-1,2,2,0,0,1,.23-1,1.71,1.71,0,0,1,.65-.67,1.89,1.89,0,0,1,1-.24A1.63,1.63,0,0,1,101.43,93.14Zm-.15,1.12a1.07,1.07,0,0,0-1.15-1.08,1.17,1.17,0,0,0-.82.29,1.24,1.24,0,0,0-.39.79Z"/><path class="cls-2" d="M104.3,93.21a1.29,1.29,0,0,0-.65.16,1.15,1.15,0,0,0-.44.46,1.39,1.39,0,0,0-.16.68,1.42,1.42,0,0,0,.16.68,1.16,1.16,0,0,0,.43.46,1.21,1.21,0,0,0,.63.17,1.67,1.67,0,0,0,.64-.12,1.22,1.22,0,0,0,.48-.34l.37.38a1.62,1.62,0,0,1-.64.48,2.19,2.19,0,0,1-.88.17,1.92,1.92,0,0,1-1-.24,1.69,1.69,0,0,1-.65-.66,2,2,0,0,1-.23-1,2,2,0,0,1,.23-1,1.68,1.68,0,0,1,.65-.67,1.92,1.92,0,0,1,1-.24,2.35,2.35,0,0,1,.84.14,1.63,1.63,0,0,1,.63.42l-.36.45A1.47,1.47,0,0,0,104.3,93.21Z"/><path class="cls-2" d="M108.68,96.11a1.6,1.6,0,0,1-.87.27,1,1,0,0,1-.71-.26,1.06,1.06,0,0,1-.27-.79V93.27h-.52v-.5h.52v-1h.66v1h1.13v.5h-1.13v1.93a.68.68,0,0,0,.11.44.41.41,0,0,0,.34.13,1.18,1.18,0,0,0,.57-.17Z"/><path class="cls-2" d="M111.95,92.87a1.71,1.71,0,0,1,.67.66,1.92,1.92,0,0,1,.24,1,1.94,1.94,0,0,1-.24,1,1.71,1.71,0,0,1-.67.67,2.17,2.17,0,0,1-2,0,1.72,1.72,0,0,1-.67-.66,2.08,2.08,0,0,1,0-1.95,1.72,1.72,0,0,1,.67-.66,2.16,2.16,0,0,1,2,0Zm-1.63.5a1.16,1.16,0,0,0-.44.47,1.41,1.41,0,0,0-.16.67,1.46,1.46,0,0,0,.16.69,1.14,1.14,0,0,0,.44.47,1.27,1.27,0,0,0,.65.16,1.25,1.25,0,0,0,.64-.16,1.14,1.14,0,0,0,.44-.47,1.47,1.47,0,0,0,.16-.69,1.42,1.42,0,0,0-.16-.67,1.17,1.17,0,0,0-.44-.47,1.23,1.23,0,0,0-.64-.17A1.25,1.25,0,0,0,110.32,93.36Z"/><path class="cls-2" d="M114.13,95.72a.39.39,0,0,1,.11.29.41.41,0,0,1-.11.29.35.35,0,0,1-.27.12.36.36,0,0,1-.27-.12.4.4,0,0,1-.11-.29.39.39,0,0,1,.11-.29.37.37,0,0,1,.27-.11A.36.36,0,0,1,114.13,95.72Z"/><path class="cls-2" d="M80.7,15.75H62.14a1.93,1.93,0,0,0-1.93,1.93V22a8.42,8.42,0,0,0,0,16.19V45.6a1.93,1.93,0,0,0,1.93,1.93H77.31a.68.68,0,0,0,.48-.2l4.64-4.64a.68.68,0,0,0,.2-.48V17.68a1.93,1.93,0,0,0-1.93-1.93ZM62.14,17.11H80.7a.57.57,0,0,1,.57.57v2H61.57v-2a.57.57,0,0,1,.57-.57Zm-6.68,13a7.06,7.06,0,1,1,7.06,7.06,7.07,7.07,0,0,1-7.06-7.06ZM61.57,45.6V38.45a8.41,8.41,0,0,0,7.3-2.84H73a.68.68,0,0,0,0-1.36H69.84a8.36,8.36,0,0,0,1.08-3.44H73a.68.68,0,0,0,0-1.36H70.92a8.36,8.36,0,0,0-1-3.44H73a.68.68,0,0,0,0-1.36H69a8.41,8.41,0,0,0-7.39-2.94v-.64h19.7V41.53H78.56a1.93,1.93,0,0,0-1.93,1.93v2.72H62.14a.57.57,0,0,1-.57-.57ZM78,45.21V43.46a.57.57,0,0,1,.57-.57h1.76Zm0,0"/><path class="cls-2" d="M75.7,26H78a.68.68,0,1,0,0-1.36H75.7a.68.68,0,1,0,0,1.36Zm0,0"/><path class="cls-2" d="M75.7,30.82H78a.68.68,0,1,0,0-1.36H75.7a.68.68,0,1,0,0,1.36Zm0,0"/><path class="cls-2" d="M75.7,35.61H78a.68.68,0,1,0,0-1.36H75.7a.68.68,0,1,0,0,1.36Zm0,0"/><path class="cls-2" d="M78,40.41a.68.68,0,1,0,0-1.36H71.6a.68.68,0,1,0,0,1.36Zm0,0"/><path class="cls-2" d="M67.8,26.66,67,25.83a1.18,1.18,0,0,0-1.67,0L61,30.18,59.76,29a1.18,1.18,0,0,0-1.67,0l-.83.83a1.18,1.18,0,0,0,0,1.67l2.86,2.86a1.18,1.18,0,0,0,1.67,0l6-6a1.18,1.18,0,0,0,0-1.67ZM61,33.25l-2.61-2.61.58-.58,1.56,1.56a.68.68,0,0,0,1,0l4.7-4.7.58.58Zm0,0"/><circle class="cls-2" cx="50.5" cy="12.77" r="9.77"/><path class="cls-1" d="M51.72,12.35a1.76,1.76,0,0,1,.77.6,1.49,1.49,0,0,1,.27.89,1.85,1.85,0,0,1-.29,1,1.89,1.89,0,0,1-.82.69,2.92,2.92,0,0,1-1.23.24,4.17,4.17,0,0,1-2.27-.72l.61-1.15a3.09,3.09,0,0,0,.73.46,1.84,1.84,0,0,0,.75.17.83.83,0,0,0,.54-.16A.55.55,0,0,0,51,14q0-.58-.75-.58l-1.56,0V10.12h3.85v1.3H50.18v.73h.38A3,3,0,0,1,51.72,12.35Z"/></svg>