<?xml version="1.0" encoding="utf-8"?>
<!-- Generator: Adobe Illustrator 21.0.0, SVG Export Plug-In . SVG Version: 6.00 Build 0)  -->
<svg version="1.1" id="Layer_1" xmlns="http://www.w3.org/2000/svg" xmlns:xlink="http://www.w3.org/1999/xlink" x="0px" y="0px"
	 viewBox="0 0 142.7 113.4" style="enable-background:new 0 0 142.7 113.4;" xml:space="preserve">
<style type="text/css">
	.st0{fill:#6C9E3E;}
	.st1{fill:#FFFFFF;}
</style>
<title>Mesa de trabajo 8</title>
<path class="st0" d="M72.8,9.3L72.8,9.3c13.3,0,24.1,10.8,24.1,24.1v0c0,13.3-10.8,24.1-24.1,24.1h0c-13.3,0-24.1-10.8-24.1-24.1v0
	C48.7,20.1,59.5,9.3,72.8,9.3z"/>
<path class="st1" d="M44.9,62.5h4.6v1.3h-2.9v0.9h2.7v1.3h-2.7v0.9h3v1.3h-4.7V62.5z"/>
<path class="st1" d="M54.2,63.9c0.2,0.1,0.4,0.3,0.5,0.6c0.1,0.3,0.2,0.6,0.2,0.9v2.8h-1.6v-2.3c0-0.2-0.1-0.4-0.2-0.5
	c-0.1-0.1-0.3-0.2-0.5-0.2c-0.2,0-0.4,0.1-0.5,0.2C52.1,65.5,52,65.8,52,66v2.2h-1.6v-4.4H52v0.7c0.1-0.2,0.3-0.4,0.6-0.5
	c0.2-0.1,0.5-0.2,0.8-0.2C53.7,63.7,54,63.8,54.2,63.9z"/>
<path class="st1" d="M58.8,67.9c-0.2,0.1-0.4,0.2-0.6,0.2c-0.2,0.1-0.4,0.1-0.7,0.1c-0.4,0-0.8-0.1-1.1-0.4c-0.3-0.3-0.4-0.6-0.4-1
	V65h-0.6v-1H56v-1.2h1.6V64h1.1v1h-1v1.5c0,0.1,0,0.2,0.1,0.3c0.1,0.1,0.2,0.1,0.3,0.1c0.2,0,0.3-0.1,0.5-0.1L58.8,67.9z"/>
<path class="st1" d="M61.6,63.9c0.2-0.1,0.5-0.2,0.8-0.2v1.5h-0.3c-0.3,0-0.6,0.1-0.8,0.2C61.1,65.5,61,65.8,61,66v2.1h-1.6v-4.3H61
	v0.7C61.1,64.2,61.4,64,61.6,63.9z"/>
<path class="st1" d="M66.6,64.3c0.4,0.5,0.6,1.1,0.6,1.7c0,0.1,0,0.2,0,0.2h-2.9c0.1,0.2,0.2,0.4,0.3,0.5c0.2,0.1,0.3,0.2,0.5,0.2
	c0.4,0,0.7-0.2,1-0.4l0.8,0.8c-0.2,0.3-0.5,0.5-0.8,0.6c-0.4,0.1-0.7,0.2-1.1,0.2c-0.4,0-0.9-0.1-1.2-0.3c-0.3-0.2-0.6-0.4-0.8-0.8
	c-0.4-0.7-0.4-1.6,0-2.3c0.2-0.3,0.5-0.6,0.8-0.8c0.4-0.2,0.8-0.3,1.2-0.3C65.6,63.7,66.2,63.9,66.6,64.3z M65.4,65
	c-0.1-0.1-0.3-0.2-0.5-0.2c-0.2,0-0.3,0.1-0.5,0.2c-0.1,0.2-0.2,0.3-0.2,0.5h1.4C65.6,65.3,65.5,65.1,65.4,65z"/>
<path class="st1" d="M72.1,63.8v4c0,0.4-0.1,0.7-0.3,1.1c-0.2,0.3-0.5,0.6-0.8,0.7c-0.4,0.2-0.8,0.3-1.2,0.2c-0.4,0-0.7-0.1-1.1-0.2
	c-0.3-0.1-0.6-0.2-0.9-0.4l0.5-1.1c0.2,0.1,0.4,0.2,0.6,0.3c0.2,0.1,0.5,0.1,0.7,0.1c0.2,0,0.5-0.1,0.7-0.2c0.2-0.1,0.3-0.3,0.2-0.5
	v-0.4c-0.3,0.3-0.7,0.5-1.2,0.5c-0.3,0-0.7-0.1-0.9-0.3c-0.3-0.2-0.5-0.4-0.7-0.7c-0.2-0.3-0.2-0.7-0.2-1.1c0-0.4,0.1-0.7,0.2-1.1
	c0.1-0.3,0.4-0.5,0.6-0.7c0.3-0.2,0.6-0.3,0.9-0.3c0.5,0,0.9,0.2,1.2,0.5v-0.5L72.1,63.8z M70.3,66.5c0.1-0.2,0.2-0.4,0.2-0.7
	c0-0.2-0.1-0.5-0.2-0.7c-0.1-0.2-0.3-0.3-0.5-0.2c-0.2,0-0.4,0.1-0.5,0.2c-0.1,0.2-0.2,0.4-0.2,0.7c0,0.2,0.1,0.5,0.2,0.7
	c0.1,0.2,0.3,0.3,0.5,0.2C70,66.7,70.2,66.6,70.3,66.5L70.3,66.5z"/>
<path class="st1" d="M76.5,64.1c0.3,0.3,0.5,0.7,0.5,1.2v2.8h-1.5v-0.5c-0.1,0.2-0.3,0.3-0.5,0.4c-0.2,0.1-0.5,0.1-0.8,0.1
	c-0.4,0-0.8-0.1-1.1-0.4c-0.3-0.3-0.4-0.6-0.4-1c0-0.4,0.1-0.8,0.4-1c0.4-0.3,0.8-0.4,1.2-0.3h1.1l0,0c0-0.2-0.1-0.3-0.2-0.4
	c-0.2-0.1-0.4-0.2-0.6-0.2c-0.2,0-0.4,0-0.6,0.1c-0.2,0.1-0.5,0.1-0.7,0.2L73,64.1c0.7-0.3,1.4-0.4,2.1-0.5
	C75.6,63.7,76.1,63.8,76.5,64.1z M75.2,67c0.1-0.1,0.2-0.2,0.3-0.3v-0.4h-0.7c-0.3,0-0.5,0.1-0.5,0.4c0,0.1,0,0.2,0.1,0.3
	c0.1,0.1,0.2,0.1,0.4,0.1C74.9,67.1,75,67.1,75.2,67z"/>
<path class="st1" d="M81.6,63.5c-0.1,0.1-0.1,0.2-0.1,0.3V64h0.9v1h-0.9v3.1h-1.6V65h-0.6v-1h0.6v-0.4c0-0.4,0.2-0.8,0.5-1.1
	c0.4-0.3,0.8-0.4,1.2-0.4c0.3,0,0.7,0.1,1,0.2l-0.2,1.2c-0.1-0.1-0.3-0.1-0.5-0.1C81.8,63.4,81.7,63.4,81.6,63.5z"/>
<path class="st1" d="M82.9,63.8h1.6v4.4h-1.6V63.8z M83.9,61.9l1.3,0.5l-1.2,1l-1.1-0.1L83.9,61.9z"/>
<path class="st1" d="M87.1,64.8c-0.1,0-0.2,0-0.2,0.1c-0.1,0-0.1,0.1-0.1,0.2c0,0.1,0.1,0.2,0.2,0.2c0.2,0.1,0.3,0.1,0.5,0.2
	c0.3,0.1,0.5,0.2,0.8,0.3c0.2,0.1,0.4,0.2,0.6,0.4c0.2,0.2,0.3,0.5,0.2,0.7c0,0.4-0.2,0.8-0.5,1.1c-0.4,0.3-0.9,0.4-1.4,0.4
	c-0.4,0-0.8-0.1-1.1-0.2c-0.3-0.1-0.7-0.3-0.9-0.5l0.5-1c0.3,0.2,0.5,0.3,0.8,0.4c0.2,0.1,0.5,0.1,0.8,0.1c0.1,0,0.2,0,0.3-0.1
	c0.1,0,0.1-0.1,0.1-0.2c0-0.1-0.1-0.1-0.2-0.2c-0.2-0.1-0.3-0.1-0.5-0.2c-0.3-0.1-0.5-0.2-0.8-0.3c-0.2-0.1-0.4-0.2-0.5-0.4
	c-0.2-0.2-0.2-0.4-0.2-0.7c0-0.4,0.2-0.8,0.5-1.1c0.4-0.3,0.9-0.4,1.3-0.4c0.7,0,1.3,0.2,1.9,0.5l-0.5,1
	C88.1,65,87.6,64.8,87.1,64.8z"/>
<path class="st1" d="M91.1,61.9c0.3,0.3,0.3,0.8,0,1.2c-0.2,0.2-0.4,0.3-0.6,0.3c-0.2,0-0.4-0.1-0.6-0.2c-0.3-0.3-0.3-0.9,0-1.2
	c0.2-0.2,0.4-0.2,0.6-0.2C90.8,61.7,91,61.8,91.1,61.9z M89.7,63.8h1.6v4.4h-1.6V63.8z"/>
<path class="st1" d="M94.8,65.1c-0.1-0.1-0.3-0.1-0.4-0.1c-0.2,0-0.4,0.1-0.5,0.3c-0.1,0.2-0.2,0.4-0.2,0.7c0,0.2,0.1,0.5,0.2,0.7
	c0.1,0.2,0.3,0.3,0.5,0.3c0.3,0,0.6-0.2,0.7-0.5l1.3,0.6c-0.2,0.4-0.4,0.6-0.8,0.8c-0.4,0.2-0.8,0.3-1.2,0.3c-0.4,0-0.8-0.1-1.2-0.3
	c-0.3-0.2-0.6-0.5-0.8-0.8c-0.2-0.4-0.3-0.8-0.3-1.2c0-0.4,0.1-0.8,0.3-1.2c0.2-0.3,0.5-0.6,0.8-0.8c0.4-0.2,0.8-0.3,1.2-0.3
	c0.4,0,0.8,0.1,1.2,0.3c0.3,0.2,0.6,0.5,0.8,0.8L95,65.4C94.9,65.3,94.9,65.2,94.8,65.1z"/>
<path class="st1" d="M100.3,64.1c0.3,0.3,0.5,0.7,0.5,1.2v2.8h-1.6v-0.5c-0.1,0.2-0.3,0.3-0.5,0.4c-0.2,0.1-0.5,0.1-0.8,0.1
	c-0.4,0-0.8-0.1-1.1-0.4c-0.3-0.3-0.4-0.6-0.4-1c0-0.4,0.1-0.8,0.4-1c0.4-0.3,0.8-0.4,1.2-0.3h1.1l0,0c0-0.2-0.1-0.3-0.2-0.4
	c-0.2-0.1-0.4-0.2-0.6-0.2c-0.2,0-0.4,0-0.6,0.1c-0.2,0.1-0.5,0.1-0.7,0.2l-0.4-1.1c0.7-0.3,1.4-0.4,2.1-0.5
	C99.4,63.6,99.9,63.8,100.3,64.1z M98.9,67c0.1-0.1,0.2-0.2,0.3-0.3v-0.4h-0.7c-0.3,0-0.5,0.1-0.5,0.4c0,0.1,0,0.2,0.1,0.3
	c0.1,0.1,0.2,0.1,0.4,0.1C98.6,67.1,98.8,67.1,98.9,67z"/>
<path class="st1" d="M52.4,79.4c-0.3,0.2-0.7,0.3-1.1,0.3c-0.3,0-0.5,0-0.7-0.1c-0.2-0.1-0.5-0.2-0.7-0.4l0.7-1.1
	c0.1,0.1,0.2,0.1,0.3,0.2c0.1,0,0.2,0.1,0.3,0.1c0.2,0,0.4-0.1,0.5-0.3l0.1-0.2l-1.8-4.2h1.7l1,2.7l0.8-2.7h1.5l-1.8,4.7
	C52.9,78.9,52.7,79.2,52.4,79.4z"/>
<path class="st1" d="M60.6,74.3c0.4,0.5,0.6,1.1,0.6,1.7c0,0.1,0,0.2,0,0.2h-2.9c0.1,0.2,0.2,0.4,0.3,0.5c0.2,0.1,0.3,0.2,0.5,0.2
	c0.4,0,0.7-0.2,1-0.4l0.8,0.8c-0.2,0.3-0.5,0.5-0.8,0.6c-0.4,0.1-0.7,0.2-1.1,0.2c-0.4,0-0.9-0.1-1.2-0.3c-0.3-0.2-0.6-0.4-0.8-0.8
	c-0.4-0.7-0.4-1.6,0-2.3c0.2-0.3,0.5-0.6,0.8-0.8c0.4-0.2,0.8-0.3,1.2-0.3C59.6,73.7,60.2,73.9,60.6,74.3z M59.5,75
	c-0.1-0.1-0.3-0.2-0.5-0.2c-0.2,0-0.3,0.1-0.5,0.2c-0.1,0.2-0.2,0.3-0.2,0.5h1.4C59.7,75.3,59.6,75.1,59.5,75z"/>
<path class="st1" d="M63.5,74.8c-0.1,0-0.2,0-0.2,0.1c-0.1,0-0.1,0.1-0.1,0.2c0,0.1,0,0.2,0.2,0.2c0.2,0.1,0.3,0.1,0.5,0.2
	c0.3,0.1,0.5,0.2,0.8,0.3c0.2,0.1,0.4,0.2,0.6,0.4c0.2,0.2,0.3,0.5,0.2,0.7c0,0.4-0.2,0.8-0.5,1.1c-0.4,0.3-0.9,0.4-1.4,0.4
	c-0.4,0-0.7-0.1-1.1-0.2c-0.3-0.1-0.7-0.3-1-0.5l0.5-1c0.3,0.2,0.5,0.3,0.8,0.4c0.2,0.1,0.5,0.1,0.8,0.1c0.1,0,0.2,0,0.3-0.1
	c0.1,0,0.1-0.1,0.1-0.2c0-0.1,0-0.1-0.2-0.2c-0.2-0.1-0.3-0.1-0.5-0.2c-0.3-0.1-0.5-0.2-0.8-0.3c-0.2-0.1-0.4-0.2-0.5-0.4
	c-0.2-0.2-0.2-0.4-0.2-0.7c0-0.4,0.2-0.8,0.5-1.1c0.4-0.3,0.9-0.4,1.3-0.4c0.7,0,1.3,0.2,1.9,0.5l-0.5,1C64.5,75,64,74.8,63.5,74.8z
	"/>
<path class="st1" d="M68.6,75.1c-0.1-0.1-0.3-0.1-0.4-0.1c-0.2,0-0.4,0.1-0.5,0.3c-0.1,0.2-0.2,0.4-0.2,0.7c0,0.2,0.1,0.5,0.2,0.7
	c0.1,0.2,0.3,0.3,0.5,0.3c0.3,0,0.6-0.2,0.7-0.5l1.3,0.6c-0.2,0.4-0.4,0.6-0.8,0.8c-0.4,0.2-0.8,0.3-1.2,0.3c-0.4,0-0.8-0.1-1.2-0.3
	c-0.3-0.2-0.6-0.5-0.8-0.8c-0.2-0.4-0.3-0.8-0.3-1.2c0-0.4,0.1-0.8,0.3-1.2c0.2-0.3,0.5-0.6,0.8-0.8c0.4-0.2,0.8-0.3,1.2-0.3
	c0.4,0,0.8,0.1,1.2,0.3c0.3,0.2,0.6,0.5,0.8,0.8l-1.2,0.6C68.8,75.3,68.7,75.2,68.6,75.1z"/>
<path class="st1" d="M72.9,73.9c0.2-0.1,0.5-0.2,0.8-0.2v1.5h-0.3c-0.3,0-0.6,0.1-0.8,0.2c-0.2,0.2-0.3,0.4-0.3,0.7v2.1h-1.6v-4.4
	h1.6v0.7C72.4,74.2,72.6,74,72.9,73.9z"/>
<path class="st1" d="M75.6,71.9c0.3,0.3,0.3,0.8,0,1.2c-0.2,0.2-0.4,0.3-0.6,0.3c-0.2,0-0.4-0.1-0.6-0.2c-0.3-0.3-0.3-0.9,0-1.2
	c0.2-0.2,0.4-0.2,0.6-0.2C75.2,71.7,75.5,71.8,75.6,71.9z M74.2,73.8h1.6v4.3h-1.6V73.8z"/>
<path class="st1" d="M79.8,77.9c-0.2,0.1-0.4,0.2-0.6,0.2c-0.2,0.1-0.4,0.1-0.7,0.1c-0.4,0-0.8-0.1-1.1-0.4c-0.3-0.3-0.4-0.6-0.4-1
	V75h-0.6v-1H77v-1.2h1.6V74h1.1v1h-1.1v1.5c0,0.1,0,0.2,0.1,0.3c0.1,0.1,0.2,0.1,0.3,0.1c0.2,0,0.3-0.1,0.5-0.1L79.8,77.9z"/>
<path class="st1" d="M84.8,73.8v4.3h-1.6v-0.7c-0.1,0.2-0.3,0.4-0.6,0.5c-0.2,0.1-0.5,0.2-0.8,0.2c-0.3,0-0.6,0-0.8-0.2
	c-0.2-0.1-0.4-0.3-0.5-0.6c-0.1-0.3-0.2-0.6-0.2-0.9v-2.8h1.6v2.3c0,0.2,0,0.4,0.2,0.5c0.1,0.1,0.3,0.2,0.4,0.2
	c0.2,0,0.4-0.1,0.5-0.2c0.1-0.2,0.2-0.4,0.2-0.6v-2.2H84.8z"/>
<path class="st1" d="M87.9,73.9c0.2-0.1,0.5-0.2,0.8-0.2v1.5h-0.3c-0.3,0-0.6,0.1-0.8,0.2c-0.2,0.2-0.3,0.4-0.3,0.7v2.1h-1.6v-4.4
	h1.6v0.7C87.5,74.2,87.7,74,87.9,73.9z"/>
<path class="st1" d="M92.7,74.1c0.3,0.3,0.5,0.7,0.5,1.2v2.8h-1.6v-0.5c-0.1,0.2-0.3,0.3-0.5,0.4c-0.2,0.1-0.5,0.1-0.8,0.1
	c-0.4,0-0.8-0.1-1.1-0.4c-0.3-0.3-0.4-0.6-0.4-1c0-0.4,0.1-0.8,0.4-1c0.4-0.3,0.8-0.4,1.2-0.3h1.1l0,0c0-0.2-0.1-0.3-0.2-0.4
	c-0.2-0.1-0.4-0.2-0.6-0.2c-0.2,0-0.4,0-0.6,0.1c-0.2,0.1-0.5,0.1-0.7,0.2l-0.4-1.1c0.7-0.3,1.4-0.4,2.1-0.4
	C91.8,73.6,92.3,73.8,92.7,74.1z M91.3,77c0.1-0.1,0.2-0.2,0.3-0.3v-0.4h-0.7c-0.3,0-0.5,0.1-0.5,0.4c0,0.1,0,0.2,0.1,0.3
	c0.1,0.1,0.2,0.1,0.4,0.1C91,77.1,91.2,77.1,91.3,77z"/>
<path class="st1" d="M95.1,76.9c0.1,0.1,0.2,0.3,0.2,0.5c0,0.4-0.3,0.7-0.7,0.8c0,0,0,0-0.1,0c-0.2,0-0.4,0-0.6-0.2
	c-0.1-0.1-0.2-0.3-0.2-0.6c0-0.2,0.1-0.4,0.2-0.5c0.1-0.1,0.3-0.2,0.5-0.2C94.8,76.7,95,76.7,95.1,76.9z"/>
<path class="st1" d="M86.8,44.5h-2.6V32.1c1.4,0.5,2.9-0.2,3.3-1.6c0.4-1,0.1-2.2-0.8-2.9L74.5,17.2c-1-0.8-2.4-0.8-3.4,0L58.9,27.6
	c-1.1,0.9-1.2,2.6-0.3,3.7c0.7,0.8,1.8,1.1,2.8,0.8v12.4h-2.6c-0.5,0-0.9,0.4-0.9,0.9c0,0.5,0.4,0.9,0.9,0.9h28
	c0.5,0,0.9-0.4,0.9-0.9C87.7,44.9,87.3,44.5,86.8,44.5L86.8,44.5z M59.9,30.2c-0.3-0.4-0.3-0.9,0.1-1.2l12.2-10.5
	c0.3-0.3,0.8-0.3,1.1,0l12.2,10.5c0.4,0.3,0.5,0.8,0.2,1.2c-0.3,0.4-0.8,0.5-1.2,0.2c0,0,0,0-0.1-0.1l-11.1-9.5
	c-0.3-0.3-0.8-0.3-1.1,0l-11.1,9.5C60.8,30.6,60.2,30.5,59.9,30.2z M66.7,44.5v-8.8h3.5v8.8H66.7z M71.9,44.5v-9.6
	c0-0.5-0.4-0.9-0.9-0.9l0,0h-5.2c-0.5,0-0.9,0.4-0.9,0.9l0,0v9.6h-1.8V30.8l9.6-8.2l9.6,8.2v13.7L71.9,44.5z"/>
<path class="st1" d="M79.8,34h-5.2c-0.5,0-0.9,0.4-0.9,0.9l0,0v5.2c0,0.5,0.4,0.9,0.9,0.9l0,0h5.2c0.5,0,0.9-0.4,0.9-0.9l0,0v-5.2
	C80.6,34.4,80.3,34,79.8,34C79.8,34,79.8,34,79.8,34z M78.9,39.2h-3.5v-3.5h3.5L78.9,39.2z"/>
<path class="st1" d="M75.4,27.9c0-1.4-1.2-2.6-2.6-2.6s-2.6,1.2-2.6,2.6c0,1.4,1.2,2.6,2.6,2.6S75.4,29.3,75.4,27.9
	C75.4,27.9,75.4,27.9,75.4,27.9z M72.8,28.7c-0.5,0-0.9-0.4-0.9-0.9s0.4-0.9,0.9-0.9c0.5,0,0.9,0.4,0.9,0.9
	C73.7,28.3,73.3,28.7,72.8,28.7C72.8,28.7,72.8,28.7,72.8,28.7z"/>
<circle class="st1" cx="52.4" cy="13.5" r="10.5"/>
<g>
	<path class="st0" d="M50.5,16c-0.4-0.4-0.7-1-0.7-2.1v0c0-1.7,0.8-3.1,2.6-3.1c0.8,0,1.3,0.2,1.9,0.6l-0.7,1.1
		c-0.3-0.3-0.7-0.4-1.1-0.4c-0.7,0-1,0.5-1.1,1.2c0.3-0.2,0.7-0.4,1.2-0.4c1,0,1.8,0.6,1.8,1.7v0c0,1.3-1,2-2.2,2
		C51.4,16.6,50.9,16.4,50.5,16z M52.9,14.7L52.9,14.7c0-0.4-0.3-0.7-0.8-0.7c-0.5,0-0.8,0.3-0.8,0.7v0c0,0.4,0.3,0.7,0.8,0.7
		C52.6,15.4,52.9,15.1,52.9,14.7z"/>
</g>
</svg>
