<?xml version="1.0" encoding="utf-8"?>
<!-- Generator: Adobe Illustrator 21.0.0, SVG Export Plug-In . SVG Version: 6.00 Build 0)  -->
<svg version="1.1" id="Layer_1" xmlns="http://www.w3.org/2000/svg" xmlns:xlink="http://www.w3.org/1999/xlink" x="0px" y="0px"
	 viewBox="0 0 22 22" style="enable-background:new 0 0 22 22;" xml:space="preserve">
<style type="text/css">
	.st0{fill:#FFFFFF;}
</style>
<g>
	<g>
		<path class="st0" d="M11,22C5,22,0.2,17.1,0.2,11.2C0.2,5.2,5,0.3,11,0.3c6,0,10.8,4.9,10.8,10.9C21.8,17.1,17,22,11,22z M11,0.9
			C5.4,0.9,0.8,5.5,0.8,11.2c0,5.6,4.6,10.2,10.2,10.2c5.6,0,10.2-4.6,10.2-10.2C21.2,5.5,16.6,0.9,11,0.9z"/>
	</g>
	<path class="st0" d="M7.4,11.6h2.1v6.3H12v-6.3h2.6V9.1H12V7.7C12,7.3,12.3,7,12.6,7h2.1V4.4h-2.1c-1.7,0-3.1,1.5-3.1,3.4v1.3H7.4
		C7.4,9.1,7.4,11.6,7.4,11.6z"/>
</g>
</svg>
