<?xml version="1.0" encoding="utf-8"?>
<!-- Generator: Adobe Illustrator 16.0.0, SVG Export Plug-In . SVG Version: 6.00 Build 0)  -->
<!DOCTYPE svg PUBLIC "-//W3C//DTD SVG 1.1//EN" "http://www.w3.org/Graphics/SVG/1.1/DTD/svg11.dtd">
<svg version="1.1" id="Layer_1" xmlns="http://www.w3.org/2000/svg" xmlns:xlink="http://www.w3.org/1999/xlink" x="0px" y="0px"
	 width="22.881px" height="22.881px" viewBox="0 0 22.881 22.881" enable-background="new 0 0 22.881 22.881" xml:space="preserve">
<g>
	<path fill="#555555" d="M21.346,5.697c1.023,1.754,1.535,3.668,1.535,5.744c0,2.074-0.512,3.988-1.535,5.742
		c-1.023,1.752-2.41,3.141-4.164,4.162c-1.752,1.023-3.666,1.535-5.741,1.535c-2.077,0-3.991-0.512-5.742-1.535
		c-1.753-1.021-3.142-2.41-4.165-4.162C0.512,15.43,0,13.516,0,11.441c0-2.076,0.512-3.99,1.533-5.744
		c1.023-1.752,2.412-3.141,4.165-4.162C7.449,0.512,9.363,0,11.44,0c2.075,0,3.989,0.512,5.741,1.535
		C18.936,2.557,20.322,3.945,21.346,5.697z M18.456,15.508c0.726-1.242,1.088-2.598,1.088-4.066c0-1.471-0.362-2.826-1.088-4.068
		c-0.726-1.24-1.708-2.223-2.95-2.949c-1.24-0.725-2.596-1.086-4.065-1.086S8.615,3.699,7.374,4.424
		C6.132,5.15,5.148,6.133,4.424,7.373c-0.725,1.242-1.088,2.598-1.088,4.068c0,1.469,0.363,2.824,1.088,4.066
		c0.725,1.24,1.708,2.225,2.95,2.949c1.241,0.725,2.597,1.088,4.066,1.088s2.825-0.363,4.065-1.088
		C16.748,17.732,17.73,16.748,18.456,15.508z M17.16,11.441c0,0.139-0.045,0.252-0.134,0.342l-4.767,4.768
		c-0.09,0.088-0.205,0.133-0.344,0.133c-0.128,0-0.24-0.047-0.334-0.141c-0.096-0.094-0.142-0.207-0.142-0.336v-2.859H6.197
		c-0.131,0-0.241-0.047-0.336-0.143C5.768,13.111,5.719,13,5.719,12.871V10.01c0-0.129,0.049-0.24,0.143-0.334
		c0.095-0.094,0.205-0.143,0.336-0.143h5.243V6.674c0-0.139,0.044-0.254,0.134-0.342c0.09-0.09,0.203-0.135,0.342-0.135
		c0.119,0,0.238,0.049,0.358,0.148l4.752,4.752C17.115,11.188,17.16,11.301,17.16,11.441z"/>
</g>
</svg>
