<?xml version="1.0" encoding="utf-8"?>
<!-- Generator: Adobe Illustrator 23.1.1, SVG Export Plug-In . SVG Version: 6.00 Build 0)  -->
<svg version="1.1" id="Layer_1" xmlns="http://www.w3.org/2000/svg" xmlns:xlink="http://www.w3.org/1999/xlink" x="0px" y="0px"
	 viewBox="0 0 619.4 235.5" style="enable-background:new 0 0 619.4 235.5;" xml:space="preserve">
<style type="text/css">
	.st0{fill:#4DA134;}
	.st1{fill:#FFFFFF;}
</style>
<title>Mesa de trabajo 350</title>
<g>
	<g>
		<g>
			<path class="st0" d="M245.6,113.7c-1.5,2.9-4.1,7.7-7.3,12c8.2,1.4,14.9,4,16.3,5.7c0.3,0.3,0.4,0.6,0.4,0.9
				c-0.1,0.7-0.6,1.3-1.4,1.4c0,0,0,0-0.1,0c-0.6,0-1.1-0.3-1.2-0.7c-0.1,0-0.2-0.1-0.3-0.1H252c-5.5-2.3-9.9-3.4-16.4-3.9
				c-3.3,3.7-7.1,6.4-10.9,6.4c-6.3,0-10.5-7-10.5-17.3c0-18.6,7.9-31.1,10.3-34.5l0.1-0.1c1-1.5,2.4-1.5,3.2-0.9
				c0.7,0.5,1.1,1.2,0.8,1.8c-0.1,0.3-0.4,0.6-0.6,1.1c-2.3,4.3-9.1,17.2-9.1,33.5c0,3.9,0.6,7.4,1.8,10c1.1,2.2,2.5,3.6,3.9,3.6
				c1.7,0,3.9-1.3,6.2-3.7c-1.6,0-3.3-0.1-5.2-0.1c-0.6,0-1.2-0.5-1.4-1.1c-0.2-0.7-0.1-1.8,0.6-2.2c0.8-0.6,2.7-0.6,2.9-0.6
				c2.1,0,4.1,0.1,6.1,0.4c2.6-3.4,5.2-7.9,7.9-13.2c6.1-12.3,9.9-25.4,9.9-33.5v-0.2c0.1-6.2-1.4-11.1-4-13.8
				c-1.7-1.7-3.9-2.6-6.5-2.6c-8.3,0-15.6,9.5-20.3,17.6c-5.4,9.3-8.5,18.4-8.5,19.4c0.1,0.3,0.2,0.6,0.4,0.9c0.2,0.3,0.3,0.6,0.4,1
				c-0.1,1.1-0.6,2.8-1.9,2.8c-0.9,0-1.7-0.9-1.7-3c0-8,3.7-18.3,9.6-27.1c6.4-9.4,14.1-14.9,21-14.9c10.4,0,15.8,7.6,15.8,22
				C255.7,88.5,251.6,102,245.6,113.7z"/>
			<path class="st0" d="M291.6,106.2c-1.6,2.3-9.4,13.7-15.6,13.7c-1.7,0-3.2-0.6-4.3-1.9c-1.2-1.4-1.7-3.3-1.7-5.7
				c0-0.8,0.1-1.6,0.2-2.4l0,0c-2.3,3.2-6.5,9.3-10.1,9.3s-4.9-3.5-4.9-6.4c0-5,2.9-13.2,5.3-13.7c1.1-0.2,2.2,0.4,2.9,1.3
				c0.4,0.6,0.4,1.4,0,1.9c-0.9,1.4-3.9,7.9-3.9,12.5c0,1,0.3,1.6,0.5,1.6c1.1,0,5.1-3.3,12.8-15.9c0.3-0.6,0.6-1,0.8-1.1
				c0.8-0.2,1.8,0,2.4,0.6c0.6,0.5,0.7,1.2,0.5,1.9l-0.1,0.4c-0.6,2-2.4,7.3-2.4,10.6c0,1.5,0.4,4.2,1.7,4.2
				c3.6,0,9.5-6.4,13.9-12.5l0.1-0.1c0.5-0.6,1.4-0.8,2-0.4C291.9,104.6,292.2,105.3,291.6,106.2z"/>
			<path class="st0" d="M362.2,71.5c0.1,0.7-0.5,1.5-1.2,1.7c-0.6,0.2-1.5,0.2-1.8-0.3c-1-0.4-7.6-0.9-10.4-0.9
				c-3.7,0-7.2,0.1-10.5,0.3c-0.8,1.7-1.8,3.8-3,5.9c-4.5,8.5-9.8,16.8-12.6,20.3c-5.3,15.7-7.6,27.8-6.2,33.1v0.1
				c0,0,0.1,0,0.1,0.1c0.5,0.2,0.7,0.7,0.7,1.2c0,0.8-0.9,2.2-2.1,2.2c-0.6,0-1.5-0.4-2.1-2.2c-0.6-1.6-0.7-3.9-0.7-7.1
				c0-4,0.8-11.1,3-18.4c-5.2,7.2-9.4,11.8-12,11.8c-1.6,0.1-3-0.7-3.9-2c-1-1.4-1.4-3.4-1.6-5.3c-4.9,7.1-7.2,8-8.5,8
				c-2.5,0-3.9-2.3-3.9-6.2c0-6.3,5.1-15.6,12.2-15.6c1.8,0,3.5,0.8,4.6,2.3c0.9,1.2,1.4,2.8,1.2,3.5c-0.1,0.6-0.6,0.9-1,1.1
				c-0.2,0-0.4,0-0.6,0c-0.1,0-0.2,0-0.3-0.1c-0.3-0.1-0.6-0.4-0.8-0.6c-0.2-0.3-0.4-0.6-0.5-0.9c-0.4-0.9-0.6-1.5-1.4-1.5
				c-3.4,0-8.9,8.8-8.9,13.1c0,0.4,0.1,0.7,0.2,1.1c1.1-0.5,4.4-5.1,6.1-7.4c1.3-1.7,2.1-2.8,2.6-3.4c0,0,0-0.1,0.1-0.1l0.1-0.1
				c0,0,0.1-0.1,0.2-0.1s0.1-0.1,0.2-0.1c0.5-0.2,1-0.1,1.5,0.1c0.1,0,0.2,0.1,0.3,0.1s0.2,0.1,0.2,0.1c0.6,0.3,1.2,0.7,1,2
				c0,0.1,0,0.3-0.1,0.6c-0.7,4.8-0.6,7.7,0.2,8.6c0.2,0.2,0.4,0.3,0.6,0.3c3.1,0,14-16.1,14-16.1c1.6-5.6,3-10,5.1-15.8
				c1.6-4.3,3.1-8.2,4.7-11.6c-15.2,1.7-24.8,4.5-24.9,4.6s-0.3,0.1-0.5,0.1c-0.8,0-1.5-0.6-1.8-1.2c-0.2-0.4-0.6-1.7,1.3-2.6
				c1.6-0.8,13.4-3.4,27.6-4.7c0.8-1.6,1.6-3,2.3-4.3c3.4-5.8,6.3-8.7,8.9-8.7c0.9-0.1,1.8,0.5,2.3,1.4c0.6,1.4,0.6,4.3-2.3,11
				c1.6,0,3-0.1,4.6-0.1C359.8,68.4,362.1,69.9,362.2,71.5z M333.1,72.5c-2,4.3-4.3,9.7-6.7,16c2.4-3.6,5.5-9.1,8.3-14.8
				c0.2-0.5,0.5-0.9,0.6-1.4C334.4,72.4,333.8,72.4,333.1,72.5z M336.8,68.6c1.7-3.9,2.2-6.1,2.2-6.9c-0.7,0.6-2.3,3.1-4.2,7
				C335.5,68.7,336.2,68.6,336.8,68.6z"/>
			<path class="st0" d="M350.5,96.8c0,0.1,0,1.3-0.6,1.7c-0.3,0.2-0.6,0.1-0.8-0.1c-0.3-0.1-0.5-0.1-0.7,0
				c-3.6,0.9-12.8,9.9-19.1,22c-0.1,0.7-0.7,1.3-1.5,1.3c-0.1,0-0.1,0-0.2,0c-0.7-0.1-1.5-0.7-1.5-2.1c0-4.3,2.1-11,3.4-14.6
				c0.8-2.4,1.7-4.6,2.5-6.4c1.3-2.9,1.7-3,2-3.1c0.9-0.2,1.9,0,2.7,0.6c0.5,0.5,0.6,1,0.6,1.7c-0.1,0.5-0.6,1.6-1.4,3.6
				c-0.7,1.7-1.9,4.6-2.5,6.2c0.3-0.3,0.6-0.6,0.8-0.9c3.4-3.9,9.7-11.1,14.9-11.1C349.6,95.6,350.5,95.9,350.5,96.8z"/>
			<path class="st0" d="M367.3,105.7c0.3,3.1-1.7,8.3-4.3,11.8c-1.7,2.1-3.4,3.3-5,3.3c-0.6,0-5.4-0.2-5.4-7.2
				c0-9.2,6.9-16.6,8.7-17.2c1.2-0.4,2.4-0.2,3.1,0.6c0.5,0.4,0.7,1,0.6,1.6c-0.1,0.3-0.3,0.6-1.1,1.7c-2.1,2.6-7.1,8.5-7.1,15.3
				c0,1,0.2,2.7,1.2,2.7c1.8,0,6.6-6.6,6.6-12.1c0-0.3,0-0.5,0-0.6c0.1-0.6,0-1-0.2-1.6c-0.1-0.1-0.2-0.2-0.3-0.3
				c-0.3-0.3-0.5-0.6-0.3-1.1c0.1-0.5,0.5-0.7,0.9-0.9c0.5-0.1,0.9,0,1.3,0.4c0.6,0.6,4.3,3.1,9.9,3.1c1.4,0,2.8-0.2,4.1-0.6
				c0.2-0.1,0.3-0.1,0.4-0.2c0.3-0.1,0.6-0.1,1,0c0.3,0.1,0.6,0.4,0.6,0.7c0.1,0.3,0.1,0.5,0,0.7s-0.3,0.5-0.6,0.6
				c-1.7,0.7-3.6,1.1-5.4,1.2c-0.2,0-0.5,0-0.6,0C372.7,107.5,369.9,106.9,367.3,105.7z"/>
			<path class="st0" d="M424.8,105.4c-1.7,4.4-13.9,28.3-27.3,28.3c-3.6,0-6.9-1.7-9.3-4.8c-2.6-3.3-3.9-7.8-3.9-13.1
				c0-11.4,4.6-26,12.2-39.1c7.4-12.8,15.8-20.6,21.9-20.6c5.1,0,8.7,4,8.7,9.7c0,3.2-1.4,6.8-1.9,7.7c-0.4,0.7-0.9,0.8-1.3,0.7
				c-0.6-0.3-1-0.9-0.8-1.6c0.1-0.5,0.2-0.9,0.3-1.4c0.3-1.3,0.7-2.9,0.7-4.6c0-0.7-0.1-6.9-3.9-6.9c-4.9,0-12.7,7.8-19.3,19.4
				c-7.2,12.8-11.6,27.1-11.6,38.3c0,4.6,1.7,13.3,8.3,13.3c4.3,0,9.9-4.3,16.1-12.4c3.3-4.4,6.3-9,9-13.8v-0.1
				c0.3-0.6,0.9-0.7,1.5-0.6C424.7,104.2,425,104.8,424.8,105.4z"/>
			<path class="st0" d="M433.3,105.7c0.3,3.1-1.7,8.3-4.3,11.8c-1.7,2.1-3.4,3.3-5,3.3c-0.6,0-5.4-0.2-5.4-7.2
				c0-9.2,6.9-16.6,8.7-17.2c1.2-0.4,2.4-0.2,3.1,0.6c0.5,0.4,0.7,1,0.6,1.6c-0.1,0.3-0.3,0.6-1.1,1.7c-2.1,2.6-7.1,8.5-7.1,15.3
				c0,1,0.2,2.7,1.2,2.7c1.8,0,6.6-6.6,6.6-12.1c0-0.3,0-0.5,0-0.6c0.1-0.6,0-1-0.2-1.6c-0.1-0.1-0.2-0.2-0.3-0.3
				c-0.3-0.3-0.5-0.6-0.3-1.1c0.1-0.5,0.5-0.7,0.9-0.9c0.5-0.1,0.9,0,1.3,0.4c0.6,0.6,4.3,3.1,9.9,3.1c1.4,0,2.8-0.2,4.1-0.6
				c0.2-0.1,0.3-0.1,0.4-0.2c0.3-0.1,0.6-0.1,1,0c0.3,0.1,0.6,0.4,0.6,0.7c0.1,0.3,0.1,0.5,0,0.7s-0.3,0.5-0.6,0.6
				c-1.7,0.7-3.6,1.1-5.4,1.2c-0.2,0-0.5,0-0.6,0C438.7,107.5,435.9,106.9,433.3,105.7z"/>
			<path class="st0" d="M479.6,105.7c0.4,0.4,0.6,1-0.1,1.9c-0.1,0.1-8.7,11.7-14.4,11.7c-3.1,0-6.8-1.7-6.8-10.3
				c0-1.7,0.1-3.2,0.4-4.9c0.1-0.6,0.2-1.2,0.2-1.8c0,0,0,0-0.1,0c-1.5,0.6-9,7.9-15.5,18.4c-0.2,0.6-0.6,0.8-1.3,0.9
				c-0.1,0-0.2,0-0.3,0c-0.6-0.1-1.3-0.7-1.2-2.2c0-2.5,1.2-7.2,3.1-12.7c0.5-1.4,3.1-8.5,4.4-9.3c0.6-0.4,1.5-0.4,2.2,0
				c0.6,0.4,1.1,1,1.2,1.7c0,0.4-0.2,0.7-1.3,3.4c-0.8,1.8-1.9,4.5-3.1,7.6c0.2-0.2,0.4-0.5,0.6-0.7c4.1-5.2,8.8-10.8,11.9-10.8
				c1.7,0,3.4,1.6,3.4,4.5c0,1.7-0.1,3.3-0.2,4.9c-0.2,3.4-0.4,6.7,0.6,7.8c0.3,0.3,0.7,0.5,1.2,0.5c4.8,0,9.9-6.6,12.1-9.4
				c0.4-0.5,0.6-0.9,1.1-1.3C478.3,105.3,479.1,105.2,479.6,105.7z"/>
			<path class="st0" d="M506.3,105.9c0,0.1-0.1,0.1-0.2,0.3c-3.8,4.7-13.6,15.4-22.5,15.4c-6,0-8.6-5.4-8.6-10.5
				c0-5.8,2.7-10.2,4.3-12.3c2.4-3.2,5.3-5.2,7.4-5.2c3,0,5.3,2.1,5.3,4.8c0,2.2-1.4,5.7-2,6.4c-0.5,0.5-1.1,0.6-1.7,0.3
				c-0.5-0.3-0.6-0.8-0.5-1.3c0.1-0.2,0.1-0.3,0.2-0.5c0.6-1.4,1-2.9,0.9-4.5c0-1.4-0.3-1.4-0.6-1.4c-1.4,0-8.9,7-8.9,15.3
				c0,6,2.9,6,3.9,6c7.9,0,16.1-9,19.5-12.8c0.5-0.6,1-1.1,1.6-1.7c0.5-0.5,1.3-0.5,1.7,0C506.8,104.4,506.9,105.1,506.3,105.9z"/>
			<path class="st0" d="M531.2,105.5c-0.6,1.5-9.7,15.3-20.2,15.3c-7.3,0-9.3-6.9-9.3-10.5c0-5.6,4.3-14.2,10.1-14.2
				c3,0,4.4,2,4.4,4c0,5-3.4,8.3-5,9.6c-1.7,1.4-3.4,2.2-4.5,2.2c0.2,3.1,0.9,5.9,4.4,5.9c4.3,0,8.9-3.5,12-6.4
				c2.2-2.1,4.2-4.4,6.1-7c0.4-0.6,1-0.7,1.6-0.5C531.2,104.3,531.5,104.9,531.2,105.5z M513.1,99.4c-1.7,0.1-5.7,4.6-6.3,9.9h0.1
				c1.6,0,6.4-3.9,6.4-8.5v-0.2C513.3,100.2,513.2,99.8,513.1,99.4L513.1,99.4z"/>
			<path class="st0" d="M562.2,103.9c0.1,0.6-0.4,1.1-1.4,1.3c-4.9,0.6-9.5,1.8-14.1,3.7c-1.3,3.4-3.5,6.1-5,7.7
				c-3.2,3.5-7.2,5.9-9.4,5.9c-1.5,0-2.8-0.8-2.8-2.6c0-0.6,0.1-1.2,0.3-1.7c1.2-3.6,6.1-7.2,12.2-10c1.1-2.5,1.7-5,1.7-7
				c0-1.2-0.4-1.4-1-1.4c-1.7,0-8.7,4.7-11.5,12.8c0,0,0,0.1-0.1,0.1c-0.6,1.8-1.2,3.6-1.7,5.3c-6.2,18.9-9.7,33.6-10.6,43.8
				c-0.1,1.1-0.7,1.6-1.4,1.6h-0.1c-0.8,0-1.7-0.7-1.7-2.1c0-22.5,15.9-65.6,17.3-67c0.6-0.6,1.7-0.8,2.5-0.5
				c0.8,0.4,1.5,1.2,1.5,2.1v0.1v0.1c-0.1,0.3-0.3,0.9-0.9,2.5c-0.4,0.9-0.6,1.8-1,2.8c2.9-3.2,5.3-4.7,7.7-4.7c3.4,0,5,3.4,5,6.6
				c0,0.8-0.1,1.7-0.3,2.6c4.3-1.5,8.7-2.4,13.2-2.8C561.8,102.9,562.1,103.5,562.2,103.9z M532.6,118.5c-0.1,0.2-0.1,0.4-0.2,0.5
				c1.7-0.3,4.4-2.7,6.9-6.2c0.2-0.2,0.3-0.5,0.5-0.6C535.7,114.6,533.2,117,532.6,118.5z"/>
			<path class="st0" d="M604.8,72.1c-0.6,0.2-1.5,0.2-1.8-0.3c-1-0.4-7.6-0.9-10.4-0.9c-3.7,0-7.2,0.1-10.5,0.3
				c-0.8,1.7-1.8,3.8-3,5.9c-4.5,8.5-9.8,16.8-12.6,20.3c-5.3,15.7-7.6,27.8-6.2,33.1v0.1c0,0,0.1,0,0.1,0.1
				c0.5,0.2,0.7,0.7,0.7,1.2c0,0.8-0.9,2.2-2.1,2.2c-0.6,0-1.5-0.4-2.1-2.2c-0.6-1.6-0.7-3.9-0.7-7.1c0-8.3,4-25.1,9.8-41.1
				c1.6-4.3,3.1-8.2,4.7-11.6c-15.2,1.7-24.8,4.5-24.9,4.6c-0.1,0.1-0.3,0.1-0.5,0.1c-0.8,0-1.5-0.6-1.8-1.2
				c-0.2-0.4-0.6-1.7,1.3-2.6c1.6-0.8,13.4-3.4,27.6-4.7c0.8-1.6,1.6-3,2.3-4.3c3.4-5.8,6.3-8.7,8.9-8.7c0.9-0.1,1.8,0.5,2.3,1.4
				c0.6,1.4,0.6,4.3-2.3,11c1.6,0,3-0.1,4.6-0.1c15.1,0,17.4,1.5,17.6,3C606.1,71.2,605.5,71.9,604.8,72.1z M579,71.3
				c-0.7,0.1-1.5,0.1-2.2,0.2c-2,4.3-4.3,9.7-6.7,16c2.4-3.6,5.5-9.1,8.3-14.8C578.5,72.2,578.8,71.7,579,71.3z M582.9,60.7
				c-0.7,0.6-2.3,3.1-4.2,7c0.6,0,1.4-0.1,2-0.1C582.2,63.7,582.9,61.5,582.9,60.7z"/>
		</g>
	</g>
	<g>
		
			<rect x="161.5" y="89.3" transform="matrix(0.7071 -0.7071 0.7071 0.7071 -20.773 152.2006)" class="st0" width="23.8" height="23.8"/>
		<path class="st1" d="M72.5,165.8c11.2,0,20.8-2.3,28.7-6.4c-2.8-0.8-5.3-1.8-7.2-2.8c-6.1,5-13.4,6.8-21.6,6.8
			c-21.3,0-37.5-12.2-37.5-61.4c0-49,16.2-63.1,37.5-63.1c9,0,17.1,2.6,23.5,9.4c-14.8,10.9-23.6,29.2-23.6,52.9
			c0,22,7.6,39.4,20.6,50.5c4.2,3.6,8.9,6.5,14.1,8.7c8,3.5,17.2,5.3,27.2,5.3c19.2,0,29.9-2.3,43.1-11.1l-2.1-27.5h-2.3
			c-2.3,27.2-24.1,36.3-38.6,36.3c-8.6,0-17.9-1.7-25.2-9.3c14.4-11.5,21.4-30.4,21.4-52c0-20.5-6.3-39.3-19.3-51.4
			c-2.6,1.7-5.8,4.8-7.9,9.4c4.1,9.7,6.4,23.3,6.4,41.9c0,19.6-2.6,33.3-7.1,42.7c-4.6-9.4-7.5-23.2-7.5-43.6
			c0-13.6,1.3-24.3,3.6-32.7c2.8-10.5,7.1-17.3,12.1-21.8c7-6.1,15.4-7.7,23.5-7.7c14.5,0,33.6,6.8,38.6,36.3h2.3l2.1-27.7
			c-11.3-9.1-24.7-10.9-43.1-10.9c-12.1,0-22.9,2.6-32,7.5c-8.2-4.8-18.2-7.5-30-7.5c-39.4,0-58.2,30-58.2,65.4
			C14.3,137.7,33.1,165.8,72.5,165.8z"/>
		<path class="st1" d="M63.9,168.8c-17.5,0-30.9,5.9-39.9,12.7l1.7,1.9c43.8-22.6,69.3,13.4,119.6,13.4c12.6,0,18.9-3.9,28.7-19.9
			c5.7-9.4,6.5-11.2,6.5-11.2l-3.1-1.2C155.8,199.4,91.4,168.8,63.9,168.8z"/>
	</g>
</g>
</svg>
