<?xml version="1.0" encoding="utf-8"?>
<!-- Generator: Adobe Illustrator 21.0.0, SVG Export Plug-In . SVG Version: 6.00 Build 0)  -->
<svg version="1.1" id="Layer_1" xmlns="http://www.w3.org/2000/svg" xmlns:xlink="http://www.w3.org/1999/xlink" x="0px" y="0px"
	 viewBox="0 0 640 235.4" style="enable-background:new 0 0 640 235.4;" xml:space="preserve">
<style type="text/css">
	.st0{fill:url(#XMLID_2_);}
	.st1{fill:url(#XMLID_3_);}
	.st2{fill:url(#XMLID_4_);}
	.st3{fill:url(#XMLID_5_);}
	.st4{fill:url(#XMLID_6_);}
	.st5{fill:url(#XMLID_7_);}
	.st6{fill:url(#XMLID_8_);}
	.st7{fill:url(#XMLID_9_);}
	.st8{fill:url(#XMLID_10_);}
	.st9{fill:url(#XMLID_11_);}
	.st10{fill:url(#XMLID_12_);}
	.st11{fill:url(#XMLID_13_);}
	.st12{fill:url(#XMLID_14_);}
	.st13{fill:url(#XMLID_16_);}
	.st14{fill:#6FA53B;}
</style>
<g id="XMLID_15_">
	<g id="XMLID_2473_">
		<g id="XMLID_2496_">
			<linearGradient id="XMLID_2_" gradientUnits="userSpaceOnUse" x1="97.4943" y1="202.7243" x2="97.4943" y2="65.6696">
				<stop  offset="3.465347e-02" style="stop-color:#B7B7B7"/>
				<stop  offset="0.2797" style="stop-color:#D2D2D2"/>
				<stop  offset="0.5322" style="stop-color:#525252"/>
				<stop  offset="0.7896" style="stop-color:#D2D2D2"/>
				<stop  offset="1" style="stop-color:#B7B7B7"/>
			</linearGradient>
			<path id="XMLID_2507_" class="st0" d="M121.9,202.8l-23.7-8.3c0,0-26.2-11.1-49.1,7.8l1.6,1.7c3.6-2.5,13.3-7.8,23.3-3.8
				l12.1,5.3c25.2,11,35.7,13.9,47.8,4.5l11.8-9.7l-1.4-1.6C140.4,201.7,133.7,206.7,121.9,202.8z"/>
			<linearGradient id="XMLID_3_" gradientUnits="userSpaceOnUse" x1="91.6952" y1="202.7243" x2="91.6952" y2="65.6696">
				<stop  offset="3.465347e-02" style="stop-color:#B7B7B7"/>
				<stop  offset="0.2797" style="stop-color:#D2D2D2"/>
				<stop  offset="0.5322" style="stop-color:#525252"/>
				<stop  offset="0.7896" style="stop-color:#D2D2D2"/>
				<stop  offset="1" style="stop-color:#B7B7B7"/>
			</linearGradient>
			<path id="XMLID_2504_" class="st1" d="M91.7,184.1c34.5,0,50.9-24.6,50.9-55.8c0-31-16.5-57.4-50.9-57.4s-50.9,26.3-50.9,57.4
				C40.8,159.5,57.2,184.1,91.7,184.1z M91.7,73c18.5,0,32.8,12.4,32.8,55.3c0,43.1-14.3,53.8-32.8,53.8
				c-18.6,0-32.9-10.7-32.9-53.8C58.8,85.4,73,73,91.7,73z"/>
			<linearGradient id="XMLID_4_" gradientUnits="userSpaceOnUse" x1="196.3386" y1="202.7243" x2="196.3386" y2="65.6696">
				<stop  offset="3.465347e-02" style="stop-color:#B7B7B7"/>
				<stop  offset="0.2797" style="stop-color:#D2D2D2"/>
				<stop  offset="0.5322" style="stop-color:#525252"/>
				<stop  offset="0.7896" style="stop-color:#D2D2D2"/>
				<stop  offset="1" style="stop-color:#B7B7B7"/>
			</linearGradient>
			<path id="XMLID_2503_" class="st2" d="M229.1,103.1c0-14.7-0.5-28.7,20.1-28.7v-2h-40.7v2c18.3,0,18.6,13.9,18.6,28.7v42.6
				c0,20.2-12.4,31.3-28.4,31.3c-16.9,0-28.5-11.1-28.5-30.6V88.2c0-12.4,5.6-13.8,12.4-13.8v-2h-39v2c6.9,0,11.1,3,11.1,13.6v57
				c0,25.5,16,39,36.4,39c19.3,0,38.1-10.3,38.1-38.4V103.1z"/>
			<linearGradient id="XMLID_5_" gradientUnits="userSpaceOnUse" x1="279.7986" y1="202.7243" x2="279.7986" y2="65.6696">
				<stop  offset="3.465347e-02" style="stop-color:#B7B7B7"/>
				<stop  offset="0.2797" style="stop-color:#D2D2D2"/>
				<stop  offset="0.5322" style="stop-color:#525252"/>
				<stop  offset="0.7896" style="stop-color:#D2D2D2"/>
				<stop  offset="1" style="stop-color:#B7B7B7"/>
			</linearGradient>
			<path id="XMLID_2502_" class="st3" d="M318.3,168c0,0-19.4-49.5-38.6-95.6h-1.7l-26.2,71.3c-13.6,36.2-17.6,36.8-23.5,37v2h34.9
				v-2c-20.1,0.6-15.8-16-11.6-28.4l0,0l0,0c0.3-1,0.7-2,1-2.9l0.5-2l4-10.9h0l15-41.1l20.5,52h0l6.2,15.7
				c3.6,8.8,5.2,17.7-3.3,17.7v2h35.7v-2C326.8,180.4,323.5,180.5,318.3,168z"/>
			<linearGradient id="XMLID_6_" gradientUnits="userSpaceOnUse" x1="359.0188" y1="202.7243" x2="359.0188" y2="65.6696">
				<stop  offset="3.465347e-02" style="stop-color:#B7B7B7"/>
				<stop  offset="0.2797" style="stop-color:#D2D2D2"/>
				<stop  offset="0.5322" style="stop-color:#525252"/>
				<stop  offset="0.7896" style="stop-color:#D2D2D2"/>
				<stop  offset="1" style="stop-color:#B7B7B7"/>
			</linearGradient>
			<path id="XMLID_2501_" class="st4" d="M311.1,100h2c0.6-25.2,24-25.5,28.8-25.5h9.2v93.1c0,10.3-4.7,13.2-11.3,13.2v2h38.2v-2
				c-6.6,0-11.4-2.8-11.4-13.2V74.5h9.2c2.2,0,28.4,0.3,29,25.5h2V72.4h-95.9V100z"/>
			<linearGradient id="XMLID_7_" gradientUnits="userSpaceOnUse" x1="462.4449" y1="202.7243" x2="462.4449" y2="65.6696">
				<stop  offset="3.465347e-02" style="stop-color:#B7B7B7"/>
				<stop  offset="0.2797" style="stop-color:#D2D2D2"/>
				<stop  offset="0.5322" style="stop-color:#525252"/>
				<stop  offset="0.7896" style="stop-color:#D2D2D2"/>
				<stop  offset="1" style="stop-color:#B7B7B7"/>
			</linearGradient>
			<path id="XMLID_2500_" class="st5" d="M493.3,166.9c-8.1-34.3-19-35.4-29.3-35.9c16.9-1.1,29.1-7.4,29.1-28.7
				c0-26.2-17.2-29.9-48.4-29.9h-29.9v2c6.9,0,9.7,2.2,9.7,11.9v78c0,13.2-3,16.3-9.7,16.3v2h35.1v-2c-6.6,0-10-3.4-10-14.3v-23
				v-11.3v-2v-8.8V74.5h4.9c16.8,0,31.2-0.6,31.2,27.9c0,23.4-9.5,27.1-23,27.6c12,2.3,16.6,13.4,16.6,13.4h0c0.8,1.5,1.5,3.2,2,5.2
				c8.9,34,6.6,34.2,26.6,34.2h11.9v-2C506,180.4,496.1,178.8,493.3,166.9z"/>
			<linearGradient id="XMLID_8_" gradientUnits="userSpaceOnUse" x1="554.5422" y1="202.7243" x2="554.5422" y2="65.6696">
				<stop  offset="3.465347e-02" style="stop-color:#B7B7B7"/>
				<stop  offset="0.2797" style="stop-color:#D2D2D2"/>
				<stop  offset="0.5322" style="stop-color:#525252"/>
				<stop  offset="0.7896" style="stop-color:#D2D2D2"/>
				<stop  offset="1" style="stop-color:#B7B7B7"/>
			</linearGradient>
			<path id="XMLID_2497_" class="st6" d="M554.5,71c-34.5,0-50.9,26.3-50.9,57.4c0,31.2,16.5,55.8,50.9,55.8
				c34.5,0,50.9-24.6,50.9-55.8C605.5,97.3,589,71,554.5,71z M554.5,182.1c-18.6,0-32.9-10.7-32.9-53.8c0-42.9,14.3-55.3,32.9-55.3
				c18.5,0,32.8,12.4,32.8,55.3C587.3,171.5,573,182.1,554.5,182.1z"/>
		</g>
		<g id="XMLID_2480_">
			<linearGradient id="XMLID_9_" gradientUnits="userSpaceOnUse" x1="97.4943" y1="202.7243" x2="97.4943" y2="65.6696">
				<stop  offset="3.465347e-02" style="stop-color:#B7B7B7"/>
				<stop  offset="0.2797" style="stop-color:#D2D2D2"/>
				<stop  offset="0.5322" style="stop-color:#525252"/>
				<stop  offset="0.7896" style="stop-color:#D2D2D2"/>
				<stop  offset="1" style="stop-color:#B7B7B7"/>
			</linearGradient>
			<path id="XMLID_2495_" class="st7" d="M121.9,202.8l-23.7-8.3c0,0-26.2-11.1-49.1,7.8l1.6,1.7c3.6-2.5,13.3-7.8,23.3-3.8
				l12.1,5.3c25.2,11,35.7,13.9,47.8,4.5l11.8-9.7l-1.4-1.6C140.4,201.7,133.7,206.7,121.9,202.8z"/>
			<linearGradient id="XMLID_10_" gradientUnits="userSpaceOnUse" x1="91.6952" y1="202.7243" x2="91.6952" y2="65.6696">
				<stop  offset="3.465347e-02" style="stop-color:#B7B7B7"/>
				<stop  offset="0.2797" style="stop-color:#D2D2D2"/>
				<stop  offset="0.5322" style="stop-color:#525252"/>
				<stop  offset="0.7896" style="stop-color:#D2D2D2"/>
				<stop  offset="1" style="stop-color:#B7B7B7"/>
			</linearGradient>
			<path id="XMLID_2492_" class="st8" d="M91.7,184.1c34.5,0,50.9-24.6,50.9-55.8c0-31-16.5-57.4-50.9-57.4s-50.9,26.3-50.9,57.4
				C40.8,159.5,57.2,184.1,91.7,184.1z M91.7,73c18.5,0,32.8,12.4,32.8,55.3c0,43.1-14.3,53.8-32.8,53.8
				c-18.6,0-32.9-10.7-32.9-53.8C58.8,85.4,73,73,91.7,73z"/>
			<linearGradient id="XMLID_11_" gradientUnits="userSpaceOnUse" x1="196.3386" y1="202.7243" x2="196.3386" y2="65.6696">
				<stop  offset="3.465347e-02" style="stop-color:#B7B7B7"/>
				<stop  offset="0.2797" style="stop-color:#D2D2D2"/>
				<stop  offset="0.5322" style="stop-color:#525252"/>
				<stop  offset="0.7896" style="stop-color:#D2D2D2"/>
				<stop  offset="1" style="stop-color:#B7B7B7"/>
			</linearGradient>
			<path id="XMLID_2491_" class="st9" d="M229.1,103.1c0-14.7-0.5-28.7,20.1-28.7v-2h-40.7v2c18.3,0,18.6,13.9,18.6,28.7v42.6
				c0,20.2-12.4,31.3-28.4,31.3c-16.9,0-28.5-11.1-28.5-30.6V88.2c0-12.4,5.6-13.8,12.4-13.8v-2h-39v2c6.9,0,11.1,3,11.1,13.6v57
				c0,25.5,16,39,36.4,39c19.3,0,38.1-10.3,38.1-38.4V103.1z"/>
			<linearGradient id="XMLID_12_" gradientUnits="userSpaceOnUse" x1="279.7986" y1="202.7243" x2="279.7986" y2="65.6696">
				<stop  offset="3.465347e-02" style="stop-color:#B7B7B7"/>
				<stop  offset="0.2797" style="stop-color:#D2D2D2"/>
				<stop  offset="0.5322" style="stop-color:#525252"/>
				<stop  offset="0.7896" style="stop-color:#D2D2D2"/>
				<stop  offset="1" style="stop-color:#B7B7B7"/>
			</linearGradient>
			<path id="XMLID_2490_" class="st10" d="M318.3,168c0,0-19.4-49.5-38.6-95.6h-1.7l-26.2,71.3c-13.6,36.2-17.6,36.8-23.5,37v2h34.9
				v-2c-20.1,0.6-15.8-16-11.6-28.4l0,0l0,0c0.3-1,0.7-2,1-2.9l0.5-2l4-10.9h0l15-41.1l20.5,52h0l6.2,15.7
				c3.6,8.8,5.2,17.7-3.3,17.7v2h35.7v-2C326.8,180.4,323.5,180.5,318.3,168z"/>
			<linearGradient id="XMLID_13_" gradientUnits="userSpaceOnUse" x1="359.0188" y1="202.7243" x2="359.0188" y2="65.6696">
				<stop  offset="3.465347e-02" style="stop-color:#B7B7B7"/>
				<stop  offset="0.2797" style="stop-color:#D2D2D2"/>
				<stop  offset="0.5322" style="stop-color:#525252"/>
				<stop  offset="0.7896" style="stop-color:#D2D2D2"/>
				<stop  offset="1" style="stop-color:#B7B7B7"/>
			</linearGradient>
			<path id="XMLID_2489_" class="st11" d="M311.1,100h2c0.6-25.2,24-25.5,28.8-25.5h9.2v93.1c0,10.3-4.7,13.2-11.3,13.2v2h38.2v-2
				c-6.6,0-11.4-2.8-11.4-13.2V74.5h9.2c2.2,0,28.4,0.3,29,25.5h2V72.4h-95.9V100z"/>
			<linearGradient id="XMLID_14_" gradientUnits="userSpaceOnUse" x1="462.4449" y1="202.7243" x2="462.4449" y2="65.6696">
				<stop  offset="3.465347e-02" style="stop-color:#B7B7B7"/>
				<stop  offset="0.2797" style="stop-color:#D2D2D2"/>
				<stop  offset="0.5322" style="stop-color:#525252"/>
				<stop  offset="0.7896" style="stop-color:#D2D2D2"/>
				<stop  offset="1" style="stop-color:#B7B7B7"/>
			</linearGradient>
			<path id="XMLID_2484_" class="st12" d="M493.3,166.9c-8.1-34.3-19-35.4-29.3-35.9c16.9-1.1,29.1-7.4,29.1-28.7
				c0-26.2-17.2-29.9-48.4-29.9h-29.9v2c6.9,0,9.7,2.2,9.7,11.9v78c0,13.2-3,16.3-9.7,16.3v2h35.1v-2c-6.6,0-10-3.4-10-14.3v-23
				v-11.3v-2v-8.8V74.5h4.9c16.8,0,31.2-0.6,31.2,27.9c0,23.4-9.5,27.1-23,27.6c12,2.3,16.6,13.4,16.6,13.4h0c0.8,1.5,1.5,3.2,2,5.2
				c8.9,34,6.6,34.2,26.6,34.2h11.9v-2C506,180.4,496.1,178.8,493.3,166.9z"/>
			<linearGradient id="XMLID_16_" gradientUnits="userSpaceOnUse" x1="554.5422" y1="202.7243" x2="554.5422" y2="65.6696">
				<stop  offset="3.465347e-02" style="stop-color:#B7B7B7"/>
				<stop  offset="0.2797" style="stop-color:#D2D2D2"/>
				<stop  offset="0.5322" style="stop-color:#525252"/>
				<stop  offset="0.7896" style="stop-color:#D2D2D2"/>
				<stop  offset="1" style="stop-color:#B7B7B7"/>
			</linearGradient>
			<path id="XMLID_2481_" class="st13" d="M554.5,71c-34.5,0-50.9,26.3-50.9,57.4c0,31.2,16.5,55.8,50.9,55.8
				c34.5,0,50.9-24.6,50.9-55.8C605.5,97.3,589,71,554.5,71z M554.5,182.1c-18.6,0-32.9-10.7-32.9-53.8c0-42.9,14.3-55.3,32.9-55.3
				c18.5,0,32.8,12.4,32.8,55.3C587.3,171.5,573,182.1,554.5,182.1z"/>
		</g>
		<g id="XMLID_2474_">
			
				<rect id="XMLID_2479_" x="223.7" y="18.6" transform="matrix(0.7071 0.7071 -0.7071 0.7071 89.3023 -157.1504)" class="st14" width="21.2" height="21.2"/>
			
				<rect id="XMLID_2478_" x="282.9" y="18.6" transform="matrix(0.7071 0.7071 -0.7071 0.7071 106.6357 -198.9971)" class="st14" width="21.2" height="21.2"/>
			
				<rect id="XMLID_2477_" x="342.1" y="18.6" transform="matrix(0.7071 0.7071 -0.7071 0.7071 123.9692 -240.8438)" class="st14" width="21.2" height="21.2"/>
			
				<rect id="XMLID_2475_" x="401.3" y="18.6" transform="matrix(0.7071 0.7071 -0.7071 0.7071 141.3027 -282.6905)" class="st14" width="21.2" height="21.2"/>
		</g>
	</g>
	<g id="XMLID_1834_">
		<path id="XMLID_2470_" class="st14" d="M240,223.5c-0.2,0.3-0.6,0.6-1.1,1c-0.5,0.4-1,0.7-1.7,1c-0.7,0.3-1.5,0.6-2.5,0.8
			c-0.9,0.2-2,0.3-3.2,0.3c-1.9,0-3.5-0.3-4.9-0.9c-1.4-0.6-2.5-1.4-3.4-2.3c-0.9-1-1.5-2.1-1.9-3.3c-0.4-1.2-0.6-2.5-0.6-3.8
			c0-1.5,0.3-2.9,0.8-4.1c0.5-1.2,1.3-2.3,2.2-3.1c0.9-0.9,2.1-1.5,3.4-2c1.3-0.5,2.8-0.7,4.4-0.7c1.1,0,2.1,0.1,3,0.3
			c0.9,0.2,1.6,0.5,2.3,0.9c0.7,0.4,1.2,0.9,1.6,1.4c0.4,0.5,0.8,1.1,1.1,1.8h-2.1c-0.1-0.4-0.4-0.8-0.7-1.2c-0.3-0.4-0.7-0.7-1.3-1
			c-0.5-0.3-1.1-0.5-1.8-0.7s-1.4-0.3-2.2-0.3c-1.2,0-2.3,0.2-3.3,0.6c-1,0.4-1.9,1-2.6,1.8c-0.7,0.8-1.3,1.7-1.7,2.7
			c-0.4,1.1-0.6,2.2-0.6,3.5c0,1.2,0.2,2.3,0.6,3.4c0.4,1.1,0.9,2.1,1.7,2.9c0.7,0.8,1.7,1.5,2.8,2c1.1,0.5,2.4,0.8,3.9,0.8
			c2.6,0,4.9-0.9,6.8-2.7L240,223.5z"/>
		<path id="XMLID_2467_" class="st14" d="M256,213.2c0.4-1.2,1-2.3,1.9-3.3c0.9-1,1.9-1.8,3.3-2.5c1.3-0.7,2.9-1,4.7-1
			c1.9,0,3.5,0.3,4.8,1c1.4,0.7,2.5,1.5,3.4,2.5c0.9,1,1.6,2.1,2,3.3c0.4,1.2,0.6,2.3,0.6,3.3c0,0.7-0.1,1.4-0.3,2.2
			c-0.2,0.8-0.5,1.5-0.9,2.3c-0.4,0.8-0.9,1.5-1.5,2.2c-0.6,0.7-1.3,1.3-2.1,1.8c-0.8,0.5-1.7,0.9-2.7,1.2c-1,0.3-2.1,0.5-3.4,0.5
			c-1.8,0-3.4-0.3-4.7-1c-1.3-0.7-2.4-1.5-3.3-2.5c-0.9-1-1.5-2.1-1.9-3.3c-0.4-1.2-0.6-2.3-0.6-3.3
			C255.4,215.6,255.6,214.4,256,213.2z M258.7,220.2c0.4,1.1,0.9,2,1.6,2.8c0.7,0.8,1.5,1.4,2.5,1.8c0.9,0.4,2,0.7,3.1,0.7
			c1.1,0,2.1-0.2,3.1-0.7c1-0.4,1.8-1,2.6-1.8c0.7-0.8,1.3-1.7,1.7-2.8c0.4-1.1,0.6-2.3,0.6-3.6c0-1.3-0.2-2.5-0.6-3.6
			c-0.4-1.1-1-2-1.7-2.8c-0.7-0.8-1.6-1.4-2.6-1.8c-1-0.4-2-0.7-3.1-0.7c-1.1,0-2.2,0.2-3.1,0.7c-0.9,0.4-1.8,1-2.5,1.8
			c-0.7,0.8-1.2,1.7-1.6,2.8c-0.4,1.1-0.6,2.3-0.6,3.6C258.1,217.9,258.3,219.1,258.7,220.2z"/>
		<path id="XMLID_2464_" class="st14" d="M311.9,206.8v19.9h-0.1l-15.5-15.3h-0.1v14.9h-1.3v-19.9h0.1l15.5,15.3h0.1v-14.9H311.9z"
			/>
		<path id="XMLID_2413_" class="st14" d="M349.3,223.5c-0.2,0.3-0.6,0.6-1.1,1c-0.5,0.4-1,0.7-1.7,1c-0.7,0.3-1.5,0.6-2.5,0.8
			c-0.9,0.2-2,0.3-3.2,0.3c-1.9,0-3.5-0.3-4.9-0.9c-1.4-0.6-2.5-1.4-3.4-2.3c-0.9-1-1.5-2.1-1.9-3.3c-0.4-1.2-0.6-2.5-0.6-3.8
			c0-1.5,0.3-2.9,0.8-4.1c0.5-1.2,1.3-2.3,2.2-3.1c0.9-0.9,2.1-1.5,3.4-2c1.3-0.5,2.8-0.7,4.4-0.7c1.1,0,2.1,0.1,3,0.3
			c0.9,0.2,1.6,0.5,2.3,0.9c0.7,0.4,1.2,0.9,1.6,1.4c0.4,0.5,0.8,1.1,1.1,1.8h-2.1c-0.1-0.4-0.4-0.8-0.7-1.2c-0.3-0.4-0.7-0.7-1.3-1
			c-0.5-0.3-1.1-0.5-1.8-0.7c-0.7-0.2-1.4-0.3-2.2-0.3c-1.2,0-2.3,0.2-3.3,0.6c-1,0.4-1.9,1-2.6,1.8c-0.7,0.8-1.3,1.7-1.7,2.7
			c-0.4,1.1-0.6,2.2-0.6,3.5c0,1.2,0.2,2.3,0.6,3.4c0.4,1.1,0.9,2.1,1.7,2.9c0.7,0.8,1.7,1.5,2.8,2c1.1,0.5,2.4,0.8,3.9,0.8
			c2.6,0,4.9-0.9,6.8-2.7L349.3,223.5z"/>
		<path id="XMLID_2404_" class="st14" d="M379.3,206.8v1.5h-10.1v7h8.7v1.3h-8.7v8.2h10.1v1.5h-12.6v-19.6H379.3z"/>
		<path id="XMLID_2355_" class="st14" d="M399.4,226.4h-2.5v-19.6h6.5c1.1,0,2,0.2,2.8,0.5c0.8,0.3,1.5,0.7,2,1.3
			c0.5,0.5,0.9,1.2,1.2,1.9c0.3,0.7,0.4,1.5,0.4,2.2c0,0.8-0.1,1.6-0.4,2.3c-0.3,0.7-0.7,1.4-1.3,1.9c-0.6,0.5-1.3,1-2.2,1.3
			c-0.9,0.3-1.9,0.5-3,0.5c-0.7,0-1.3,0-1.8-0.1c-0.6-0.1-1.1-0.2-1.6-0.3V226.4z M399.4,217.1c0.4,0.1,0.8,0.2,1.3,0.3
			c0.5,0,1,0.1,1.6,0.1c0.8,0,1.6-0.1,2.2-0.4c0.6-0.3,1.1-0.6,1.5-1.1c0.4-0.4,0.7-0.9,0.9-1.5c0.2-0.5,0.3-1.1,0.3-1.6
			c0-0.6-0.1-1.1-0.3-1.7c-0.2-0.6-0.5-1.1-0.9-1.5c-0.4-0.5-0.9-0.8-1.5-1.1c-0.6-0.3-1.3-0.4-2.1-0.4h-2.9V217.1z"/>
		<path id="XMLID_2194_" class="st14" d="M432.1,226.4v-18h-7.5v-1.5h17.5v1.5h-7.5v18H432.1z"/>
	</g>
</g>
</svg>
