<?xml version="1.0" encoding="utf-8"?>
<!-- Generator: Adobe Illustrator 23.1.1, SVG Export Plug-In . SVG Version: 6.00 Build 0)  -->
<svg version="1.1" id="Layer_1" xmlns="http://www.w3.org/2000/svg" xmlns:xlink="http://www.w3.org/1999/xlink" x="0px" y="0px"
	 viewBox="0 0 595.3 456.4" style="enable-background:new 0 0 595.3 456.4;" xml:space="preserve">
<style type="text/css">
	.st0{enable-background:new    ;}
	.st1{fill:#4DA134;}
	.st2{fill:none;}
	.st3{fill:#FFFFFF;}
</style>
<g>
	<g class="st0">
		<path class="st1" d="M131.8,393.8c-1.5,3-4.2,7.8-7.4,12.2c8.3,1.4,15.1,4.1,16.6,5.8c0.3,0.3,0.4,0.6,0.4,1
			c-0.1,0.8-0.7,1.3-1.4,1.3c0,0,0,0-0.1,0c-0.6,0-1.1-0.3-1.2-0.8c-0.1,0-0.2-0.1-0.2-0.1h-0.1c-5.6-2.3-10.1-3.4-16.7-3.9
			c-3.4,3.7-7.2,6.5-11,6.5c-6.4,0-10.7-7.1-10.7-17.6c0-18.9,8-31.6,10.4-35l0.1-0.1c1.1-1.5,2.4-1.5,3.3-1
			c0.8,0.4,1.1,1.2,0.8,1.8c-0.1,0.3-0.3,0.7-0.6,1.2c-2.3,4.3-9.2,17.5-9.2,33.9c0,4,0.7,7.6,1.9,10.2c1.1,2.3,2.5,3.6,3.9,3.6
			c1.8,0,3.9-1.3,6.3-3.7c-1.6,0-3.4-0.1-5.3-0.1c-0.7,0-1.3-0.5-1.4-1.1c-0.2-0.8-0.1-1.8,0.6-2.3c0.8-0.5,2.7-0.6,3-0.6
			c2.1,0,4.2,0.1,6.3,0.3c2.6-3.4,5.3-8,8-13.4c6.1-12.4,10.1-25.8,10.1-33.9v-0.2c0.1-6.3-1.4-11.3-4.1-14
			c-1.7-1.7-3.9-2.6-6.6-2.6c-8.4,0-15.8,9.7-20.6,17.8c-5.5,9.4-8.6,18.7-8.6,19.7c0.1,0.3,0.2,0.6,0.3,0.9c0.2,0.3,0.3,0.7,0.3,1
			c-0.1,1.1-0.7,2.9-2,2.9c-0.9,0-1.8-1-1.8-3.1c0-8.1,3.7-18.6,9.8-27.4c6.5-9.5,14.3-15,21.3-15c10.5,0,16,7.7,16,22.3
			C142,368.2,137.8,381.9,131.8,393.8z"/>
		<path class="st1" d="M178.4,386.1c-1.5,2.3-9.6,13.9-15.8,13.9c-1.7,0-3.3-0.7-4.4-2c-1.2-1.4-1.8-3.4-1.8-5.8
			c0-0.8,0.1-1.6,0.1-2.4l0,0c-2.3,3.3-6.6,9.4-10.3,9.4s-5-3.5-5-6.6c0-5,2.9-13.4,5.4-13.9c1.1-0.1,2.3,0.3,2.9,1.3
			c0.4,0.6,0.4,1.4,0,1.9c-0.9,1.4-4,8-4,12.6c0,1,0.3,1.6,0.4,1.6c1.2,0,5.2-3.4,12.9-16.1c0.3-0.7,0.6-1,0.9-1.1
			c0.9-0.2,1.8,0,2.5,0.7c0.5,0.5,0.7,1.2,0.5,1.9l-0.1,0.4c-0.7,2-2.4,7.5-2.4,10.8c0,1.5,0.3,4.3,1.7,4.3c3.6,0,9.7-6.5,14.2-12.6
			l0.1-0.1c0.5-0.6,1.4-0.8,2-0.4C178.7,384.5,179,385.2,178.4,386.1z"/>
		<path class="st1" d="M250,350.9c0.1,0.8-0.4,1.5-1.2,1.7c-0.6,0.2-1.5,0.2-1.9-0.3c-1-0.4-7.7-0.9-10.5-0.9
			c-3.7,0-7.3,0.1-10.6,0.3c-0.8,1.8-1.8,3.8-3,6c-4.6,8.6-10,17.1-12.8,20.6c-5.4,15.9-7.7,28.2-6.4,33.6v0.1c0,0,0.1,0,0.1,0.1
			c0.5,0.2,0.8,0.7,0.7,1.2c0,0.9-1,2.2-2.1,2.2c-0.6,0-1.5-0.4-2.1-2.2c-0.5-1.5-0.8-4-0.8-7.2c0-4.1,0.8-11.3,3-18.7
			c-5.3,7.3-9.5,12-12.1,12c-1.6,0-3.1-0.7-3.9-2c-1-1.4-1.4-3.5-1.5-5.4c-5,7.1-7.2,8.1-8.7,8.1c-2.5,0-3.9-2.3-3.9-6.3
			c0-6.4,5.2-15.8,12.4-15.8c1.8,0,3.5,0.9,4.6,2.3c0.9,1.2,1.4,2.8,1.2,3.5c-0.1,0.5-0.5,1-1.1,1.1c-0.2,0-0.3,0-0.5,0
			c-0.1,0-0.2,0-0.3-0.1c-0.3-0.1-0.6-0.3-0.8-0.6s-0.4-0.6-0.5-0.9c-0.4-0.9-0.6-1.5-1.4-1.5c-3.5,0-9.1,9-9.1,13.3
			c0,0.4,0.1,0.7,0.2,1.1c1.1-0.5,4.5-5.2,6.2-7.5c1.3-1.8,2.1-2.9,2.6-3.4c0,0,0,0,0.1-0.1l0.1-0.1c0,0,0.1-0.1,0.2-0.1
			c0.1,0,0.1-0.1,0.2-0.1c0.5-0.2,1-0.1,1.5,0.1c0.1,0,0.2,0.1,0.2,0.1s0.1,0.1,0.2,0.1c0.6,0.3,1.2,0.7,1,2c0,0.1,0,0.3-0.1,0.6
			c-0.7,4.9-0.7,7.8,0.2,8.8c0.1,0.2,0.4,0.3,0.6,0.3c3.1,0,14.2-16.4,14.2-16.4c1.6-5.7,3-10.1,5.2-16c1.6-4.3,3.2-8.3,4.8-11.8
			c-15.5,1.7-25.1,4.6-25.2,4.6c-0.1,0.1-0.3,0.1-0.4,0.1c-0.8,0-1.5-0.5-1.8-1.2c-0.2-0.4-0.6-1.6,1.3-2.6c1.6-0.8,13.6-3.4,28-4.7
			c0.8-1.6,1.6-3.1,2.4-4.4c3.4-5.9,6.4-8.8,9-8.8c1-0.1,1.9,0.5,2.3,1.4c0.6,1.4,0.6,4.4-2.3,11.2c1.5,0,3.1-0.1,4.6-0.1
			C247.5,347.8,249.8,349.3,250,350.9z M220.4,351.9c-2,4.4-4.4,9.9-6.8,16.2c2.4-3.6,5.6-9.2,8.3-15c0.2-0.5,0.4-0.9,0.6-1.4
			C221.9,351.8,221.2,351.9,220.4,351.9z M224.3,348c1.6-3.9,2.3-6.1,2.3-6.9c-0.8,0.6-2.3,3.1-4.3,7.1
			C222.9,348.1,223.6,348,224.3,348z"/>
		<path class="st1" d="M238.1,376.6c0,0.1,0,1.3-0.7,1.7c-0.3,0.1-0.6,0.1-0.9-0.1c-0.2-0.1-0.5-0.1-0.7,0
			c-3.6,0.9-12.9,10.1-19.4,22.3c-0.1,0.7-0.8,1.3-1.5,1.3c-0.1,0-0.1,0-0.2,0c-0.7-0.1-1.5-0.8-1.5-2.2c0-4.4,2.2-11.2,3.4-14.8
			c0.8-2.4,1.7-4.7,2.6-6.5c1.3-3,1.7-3.1,2-3.1c1-0.2,2,0,2.7,0.7c0.5,0.4,0.7,1,0.5,1.6c-0.1,0.4-0.5,1.5-1.4,3.6
			c-0.8,1.8-2,4.6-2.5,6.3c0.3-0.3,0.5-0.6,0.8-1c3.4-3.9,9.8-11.3,15-11.3C237.2,375.3,238.1,375.7,238.1,376.6z"/>
		<path class="st1" d="M255.1,385.5c0.3,3.1-1.6,8.5-4.3,12c-1.7,2.2-3.5,3.3-5.1,3.3c-0.6,0-5.5-0.2-5.5-7.2c0-9.3,7-16.9,8.8-17.4
			c1.2-0.4,2.4-0.2,3.2,0.5c0.5,0.4,0.7,1,0.7,1.6c-0.1,0.3-0.3,0.6-1.1,1.6c-2.1,2.6-7.1,8.7-7.1,15.6c0,1,0.2,2.7,1.2,2.7
			c1.9,0,6.7-6.7,6.7-12.3c0-0.3,0-0.5,0-0.7c0.1-0.5,0-1.1-0.2-1.6c-0.1-0.1-0.2-0.2-0.3-0.2c-0.3-0.3-0.4-0.7-0.3-1.1
			c0.1-0.4,0.5-0.8,0.9-0.9c0.5-0.1,1,0,1.3,0.4c0.5,0.5,4.3,3.1,10,3.1c1.4,0,2.8-0.2,4.2-0.7c0.2-0.1,0.3-0.1,0.4-0.1
			c0.3-0.1,0.7-0.1,1,0s0.5,0.4,0.7,0.7c0.1,0.2,0.1,0.5,0,0.7s-0.3,0.4-0.5,0.5c-1.8,0.7-3.6,1.1-5.5,1.2c-0.2,0-0.5,0-0.7,0
			C260.6,387.5,257.7,386.8,255.1,385.5z"/>
		<path class="st1" d="M313.4,385.3c-1.7,4.5-14,28.7-27.8,28.7c-3.6,0-6.9-1.7-9.4-4.9c-2.6-3.3-4-7.9-4-13.3
			c0-11.5,4.6-26.3,12.4-39.6c7.5-12.9,16-20.9,22.2-20.9c5.2,0,8.8,4.1,8.8,9.9c0,3.3-1.4,6.8-1.9,7.8c-0.4,0.7-0.9,0.8-1.3,0.7
			c-0.6-0.2-1-0.9-0.9-1.5c0.1-0.5,0.2-1,0.3-1.4c0.3-1.3,0.8-3,0.8-4.7c0-0.7-0.1-7-3.9-7c-5,0-12.8,7.9-19.5,19.6
			c-7.4,12.9-11.8,27.4-11.8,38.9c0,4.7,1.8,13.5,8.5,13.5c4.4,0,10-4.3,16.3-12.5c3.3-4.4,6.4-9.1,9.1-14v-0.1
			c0.3-0.5,0.9-0.8,1.5-0.5C313.4,384.1,313.6,384.7,313.4,385.3z"/>
		<path class="st1" d="M322.1,385.5c0.3,3.1-1.6,8.5-4.3,12c-1.7,2.2-3.5,3.3-5.1,3.3c-0.6,0-5.5-0.2-5.5-7.2c0-9.3,7-16.9,8.8-17.4
			c1.2-0.4,2.4-0.2,3.2,0.5c0.5,0.4,0.7,1,0.7,1.6c-0.1,0.3-0.3,0.6-1.1,1.6c-2.1,2.6-7.1,8.7-7.1,15.6c0,1,0.2,2.7,1.2,2.7
			c1.9,0,6.7-6.7,6.7-12.3c0-0.3,0-0.5,0-0.7c0.1-0.5,0-1.1-0.2-1.6c-0.1-0.1-0.2-0.2-0.3-0.2c-0.3-0.3-0.4-0.7-0.3-1.1
			c0.1-0.4,0.5-0.8,0.9-0.9c0.5-0.1,1,0,1.3,0.4c0.5,0.5,4.3,3.1,10,3.1c1.4,0,2.8-0.2,4.2-0.7c0.2-0.1,0.3-0.1,0.4-0.1
			c0.3-0.1,0.7-0.1,1,0s0.5,0.4,0.7,0.7c0.1,0.2,0.1,0.5,0,0.7s-0.3,0.4-0.5,0.5c-1.8,0.7-3.6,1.1-5.5,1.2c-0.2,0-0.5,0-0.7,0
			C327.6,387.5,324.7,386.8,322.1,385.5z"/>
		<path class="st1" d="M369,385.6c0.4,0.4,0.5,1.1-0.1,2c-0.1,0.1-8.8,11.9-14.6,11.9c-3.1,0-6.9-1.8-6.9-10.4
			c0-1.6,0.1-3.3,0.4-4.9c0.1-0.6,0.1-1.2,0.2-1.8l0,0c-1.5,0.6-9.1,8-15.7,18.7c-0.2,0.5-0.7,0.9-1.3,0.9c-0.1,0-0.2,0-0.2,0
			c-0.6-0.1-1.3-0.8-1.2-2.2c0-2.5,1.2-7.3,3.1-12.8c0.5-1.4,3.1-8.6,4.5-9.4c0.7-0.4,1.5-0.4,2.2,0s1.1,1,1.2,1.8
			c0,0.3-0.2,0.8-1.3,3.5c-0.8,1.9-2,4.5-3.2,7.7c0.2-0.2,0.4-0.5,0.6-0.7c4.2-5.3,8.9-11,12.1-11c1.7,0,3.4,1.6,3.4,4.5
			c0,1.7-0.1,3.4-0.2,5c-0.2,3.5-0.4,6.8,0.7,7.9c0.3,0.3,0.7,0.5,1.2,0.4c4.8,0,10-6.7,12.3-9.5c0.3-0.5,0.7-0.9,1.1-1.3
			C367.7,385.2,368.5,385.1,369,385.6z"/>
		<path class="st1" d="M396.1,385.8c0,0.1-0.1,0.1-0.2,0.2c-3.8,4.7-13.7,15.6-22.8,15.6c-6,0-8.8-5.5-8.8-10.6
			c0-5.8,2.7-10.3,4.3-12.5c2.4-3.2,5.4-5.3,7.6-5.3c3,0,5.4,2.1,5.4,4.8c0,2.2-1.4,5.7-2.1,6.5c-0.4,0.5-1.1,0.6-1.7,0.2
			c-0.5-0.3-0.6-0.8-0.4-1.3c0.1-0.2,0.1-0.3,0.2-0.5c0.7-1.4,1-3,1-4.5c0-1.4-0.3-1.4-0.6-1.4c-1.4,0-9,7-9,15.6
			c0,6.1,3,6.1,3.9,6.1c8,0,16.3-9.1,19.8-13c0.5-0.6,1-1.2,1.6-1.7c0.5-0.5,1.3-0.5,1.8,0C396.6,384.3,396.7,385,396.1,385.8z"/>
		<path class="st1" d="M421.4,385.4c-0.7,1.5-9.9,15.5-20.5,15.5c-7.5,0-9.4-6.9-9.4-10.6c0-5.7,4.4-14.4,10.2-14.4
			c3.1,0,4.5,2.1,4.5,4.1c0,5-3.5,8.5-5,9.7c-1.7,1.4-3.4,2.2-4.6,2.2c0.1,3.1,1,6,4.4,6c4.4,0,9.1-3.6,12.2-6.6
			c2.2-2.2,4.3-4.5,6.1-7c0.3-0.5,1-0.7,1.6-0.4C421.4,384.2,421.6,384.9,421.4,385.4z M403.1,379.3c-1.7,0.1-5.8,4.6-6.4,10h0.1
			c1.5,0,6.5-4,6.5-8.7v-0.2C403.2,380,403.2,379.6,403.1,379.3L403.1,379.3z"/>
		<path class="st1" d="M452.8,383.8c0.1,0.5-0.4,1.1-1.4,1.3c-4.9,0.7-9.7,1.9-14.3,3.7c-1.3,3.4-3.5,6.2-5.1,7.8
			c-3.3,3.5-7.2,6-9.5,6c-1.5,0-2.9-0.8-2.9-2.6c0-0.6,0.1-1.2,0.3-1.8c1.3-3.6,6.2-7.3,12.4-10.1c1.1-2.6,1.8-5,1.8-7
			c0-1.2-0.4-1.4-1.1-1.4c-1.7,0-8.8,4.8-11.6,13c0,0,0,0.1-0.1,0.1c-0.6,1.8-1.2,3.6-1.8,5.4c-6.3,19.2-9.9,34.1-10.8,44.5
			c-0.1,1.1-0.8,1.6-1.4,1.6h-0.1c-0.8,0-1.6-0.8-1.6-2.1c0-22.8,16.1-66.5,17.6-67.9c0.7-0.6,1.7-0.8,2.6-0.5
			c0.9,0.4,1.4,1.2,1.5,2.2v0.1v0.1c-0.1,0.2-0.3,0.9-0.9,2.5c-0.3,0.9-0.7,1.9-1,2.8c3-3.3,5.4-4.8,7.8-4.8c3.5,0,5.1,3.4,5.1,6.7
			c0,0.9-0.1,1.7-0.2,2.6c4.3-1.5,8.8-2.5,13.4-2.9C452.3,382.8,452.7,383.3,452.8,383.8z M422.8,398.6c-0.1,0.2-0.1,0.3-0.2,0.5
			c1.8-0.3,4.5-2.7,6.9-6.3c0.1-0.2,0.3-0.4,0.4-0.7C425.9,394.6,423.5,397.1,422.8,398.6z"/>
		<path class="st1" d="M496,351.5c-0.6,0.2-1.4,0.2-1.9-0.3c-1-0.4-7.7-0.9-10.5-0.9c-3.7,0-7.3,0.1-10.6,0.3c-0.8,1.8-1.8,3.8-3,6
			c-4.6,8.6-10,17.1-12.8,20.6c-5.4,15.9-7.7,28.2-6.3,33.6v0.1c0,0,0.1,0,0.1,0.1c0.5,0.2,0.8,0.7,0.7,1.2c0,0.9-1,2.2-2.1,2.2
			c-0.6,0-1.5-0.4-2.1-2.2c-0.5-1.5-0.8-4-0.8-7.2c0-8.4,4.1-25.5,10-41.6c1.6-4.3,3.2-8.3,4.8-11.8c-15.5,1.7-25.1,4.6-25.2,4.6
			c-0.1,0.1-0.3,0.1-0.4,0.1c-0.8,0-1.5-0.5-1.8-1.2c-0.2-0.4-0.6-1.6,1.3-2.6c1.6-0.8,13.6-3.4,28-4.7c0.8-1.6,1.6-3.1,2.4-4.4
			c3.4-5.9,6.4-8.8,9-8.8c1-0.1,1.9,0.5,2.3,1.4c0.6,1.4,0.6,4.4-2.3,11.2c1.5,0,3.1-0.1,4.7-0.1c15.4,0,17.7,1.5,17.8,3.1
			C497.3,350.6,496.8,351.3,496,351.5z M469.8,350.7c-0.7,0.1-1.5,0.1-2.2,0.2c-2,4.4-4.4,9.9-6.8,16.2c2.4-3.6,5.6-9.2,8.3-15
			C469.4,351.6,469.6,351.2,469.8,350.7z M473.8,340c-0.8,0.6-2.3,3.1-4.3,7.1c0.7,0,1.4-0.1,2-0.1
			C473.1,343.1,473.8,340.9,473.8,340z"/>
	</g>
	<g>
		<path class="st2" d="M263.3,246.1l2.4,0.6c-22.9-19.5-36.2-49.9-36.2-88.5c0-41.6,15.3-73.5,41.2-92.7
			c-11.1-11.8-25.3-16.3-41.1-16.3c-37.3,0-65.8,24.7-65.8,110.5c0,86.1,28.5,107.4,65.8,107.4c14.2,0,27.1-3.2,37.7-11.9
			c-4.5-2.1-7.1-3.8-7.1-3.8L263.3,246.1z"/>
		<path class="st2" d="M275.8,101c-3.9,14.7-6.2,33.4-6.2,57.3c0,35.8,5.1,60,13.2,76.4c7.8-16.5,12.3-40.5,12.3-74.8
			c0-32.7-4.1-56.5-11.3-73.4c-0.9,1.9-1.7,4-2.3,6.3C279.1,101.2,277.1,103,275.8,101z"/>
		
			<rect x="385.5" y="137.5" transform="matrix(0.7071 -0.7071 0.7071 0.7071 7.1184 333.6008)" class="st1" width="41.5" height="41.5"/>
		<path class="st3" d="M229.7,271.3c19.7,0,36.4-4,50.3-11.2c-5-1.5-9.3-3.3-12.6-4.8c-10.6,8.8-23.5,11.9-37.7,11.9
			c-37.3,0-65.8-21.3-65.8-107.4c0-85.8,28.5-110.5,65.8-110.5c15.7,0,29.9,4.5,41.1,16.3c-25.9,19.1-41.2,51-41.2,92.7
			c0,38.5,13.4,68.9,36.2,88.5c7.3,6.3,15.6,11.4,24.7,15.3c14,6,30.1,9.3,47.7,9.3c33.5,0,52.3-4.1,75.5-19.4l-3.8-48.2h-4.1
			c-4.1,47.6-42.3,63.6-67.6,63.6c-15,0-31.3-2.9-44.1-16.3c25.2-20,37.4-53.1,37.4-91.1c0-35.9-11.1-68.7-33.8-89.9
			c-4.5,3.1-10.1,8.3-13.9,16.5c7.1,17,11.3,40.8,11.3,73.4c0,34.3-4.5,58.3-12.3,74.8c-8.1-16.3-13.2-40.6-13.2-76.4
			c0-23.8,2.3-42.6,6.2-57.3c4.9-18.3,12.4-30.4,21.2-38.2c12.2-10.8,27-13.5,41.1-13.5c25.4,0,58.9,11.9,67.6,63.6h4.1l3.8-48.5
			c-19.7-16-43.2-19.1-75.5-19.1c-21.2,0-40.1,4.6-56,13.2c-14.3-8.4-31.8-13.2-52.5-13.2C160.7,45.4,127.8,98,127.8,160
			C127.9,222.1,160.8,271.3,229.7,271.3z"/>
		<path class="st3" d="M214.8,276.7c-30.7,0-54.2,10.3-69.9,22.1l3.1,3.4c76.6-39.5,121.4,23.5,209.4,23.5c22.1,0,33-6.7,50.3-34.9
			c10-16.3,11.4-19.5,11.4-19.5l-5.4-2.1C375.8,330.2,262.9,276.7,214.8,276.7z"/>
	</g>
	<g>
		<path class="st3" d="M417.6,323c-1.9,0-3.6-0.5-5.1-1.4s-2.8-2.1-3.7-3.7c-0.9-1.5-1.4-3.2-1.4-5.1s0.5-3.6,1.4-5.1
			s2.1-2.8,3.7-3.7c1.5-0.9,3.2-1.4,5.1-1.4s3.6,0.5,5.1,1.4s2.7,2.1,3.6,3.7c0.9,1.5,1.4,3.2,1.4,5.1s-0.5,3.6-1.4,5.1
			s-2.1,2.8-3.6,3.7C421.2,322.6,419.5,323,417.6,323z M417.6,321.9c1.6,0,3.1-0.4,4.5-1.2c1.4-0.8,2.4-1.9,3.2-3.3s1.2-2.9,1.2-4.5
			s-0.4-3.2-1.2-4.5c-0.8-1.4-1.9-2.4-3.2-3.2c-1.4-0.8-2.8-1.2-4.5-1.2c-1.6,0-3.1,0.4-4.4,1.2s-2.4,1.9-3.2,3.2
			c-0.8,1.4-1.2,2.9-1.2,4.5s0.4,3.1,1.2,4.5c0.8,1.4,1.9,2.5,3.2,3.3C414.5,321.5,416,321.9,417.6,321.9z M414.4,318v-10.9h4.2
			c1,0,1.6,0.2,2,0.6s0.5,1,0.5,1.8c0,0.7-0.1,1.4-0.5,2c-0.3,0.6-0.9,1-1.9,1c0.2,0.1,0.4,0.4,0.6,0.8s0.4,0.8,0.4,1l1.8,3.6h-1.2
			c-0.2-0.5-0.5-1.1-0.8-1.8s-0.6-1.4-0.9-2s-0.6-1.1-0.8-1.4h-2.3v5.2L414.4,318L414.4,318z M415.4,312.2h1.8
			c1.1,0,1.9-0.2,2.3-0.7s0.5-1.1,0.5-1.9c0-0.6-0.1-1-0.4-1.3s-0.7-0.5-1.4-0.5h-2.7L415.4,312.2L415.4,312.2z"/>
	</g>
</g>
</svg>
