<?xml version="1.0" encoding="utf-8"?>
<!-- Generator: Adobe Illustrator 23.1.1, SVG Export Plug-In . SVG Version: 6.00 Build 0)  -->
<svg version="1.1" id="Layer_1" xmlns="http://www.w3.org/2000/svg" xmlns:xlink="http://www.w3.org/1999/xlink" x="0px" y="0px"
	 viewBox="0 0 619.4 235.5" style="enable-background:new 0 0 619.4 235.5;" xml:space="preserve">
<style type="text/css">
	.st0{fill:#FFFFFF;}
	.st1{fill:#4CA747;}
	.st2{fill:url(#SVGID_1_);}
	.st3{fill:url(#SVGID_2_);}
</style>
<title>Mesa de trabajo 350</title>
<g>
	<g id="XMLID_15_">
		<g id="XMLID_1773_">
			<g id="XMLID_1779_">
				<path id="XMLID_1792_" class="st0" d="M110,196.2l-23-8.1c0,0-25.5-10.8-47.7,7.6l1.5,1.7c3.5-2.4,13-7.6,22.7-3.7l11.7,5.2
					c24.5,10.7,34.8,13.6,46.5,4.4l11.4-9.5l-1.4-1.5C128,195.1,121.5,200,110,196.2z"/>
				<path id="XMLID_1789_" class="st0" d="M80.6,178c33.5,0,49.5-23.9,49.5-54.3c0-30.2-16-55.8-49.5-55.8s-49.5,25.6-49.5,55.8
					C31.1,154.1,47.1,178,80.6,178z M80.6,69.9c18,0,31.9,12,31.9,53.8c0,41.9-13.9,52.3-31.9,52.3c-18.1,0-32-10.4-32-52.3
					C48.6,82,62.5,69.9,80.6,69.9z"/>
				<path id="XMLID_1788_" class="st0" d="M214.3,99.2c0-14.3-0.5-27.9,19.5-27.9v-2h-39.6v2c17.8,0,18.1,13.6,18.1,27.9v41.5
					c0,19.7-12,30.5-27.6,30.5c-16.5,0-27.7-10.8-27.7-29.7V84.7c0-12,5.5-13.4,12-13.4v-2h-38v2c6.7,0,10.8,2.9,10.8,13.3v55.5
					c0,24.8,15.5,38,35.4,38c18.8,0,37-10.1,37-37.3V99.2z"/>
				<path id="XMLID_1787_" class="st0" d="M301.1,162.3c0,0-18.9-48.2-37.5-93h-1.7l-25.5,69.4c-13.3,35.2-17.1,35.8-22.9,36v2h34
					v-2c-19.6,0.6-15.3-15.6-11.3-27.6l0,0l0,0c0.3-1,0.6-1.9,0.9-2.8l0.5-2l3.9-10.6h0l14.6-40l20,50.6h0l6,15.2
					c3.5,8.5,5,17.2-3.2,17.2v2h34.8v-2C309.3,174.4,306.1,174.5,301.1,162.3z"/>
				<path id="XMLID_1786_" class="st0" d="M294,96.2h2c0.6-24.5,23.3-24.8,28.1-24.8h9v90.6c0,10.1-4.6,12.8-11,12.8v2h37.2v-2
					c-6.4,0-11.1-2.7-11.1-12.8V71.3h9c2.1,0,27.6,0.3,28.2,24.8h2V69.3H294V96.2z"/>
				<path id="XMLID_1785_" class="st0" d="M471.3,161.3c-7.9-33.4-18.4-34.5-28.5-34.9c16.5-1.1,28.4-7.2,28.4-27.9
					c0-25.5-16.8-29.1-47.1-29.1h-29.1v2c6.7,0,9.5,2.1,9.5,11.6v75.9c0,12.8-2.9,15.9-9.5,15.9v2h34.1v-2c-6.4,0-9.8-3.4-9.8-13.9
					v-22.4v-11v-2v-8.5V71.3h4.7c16.3,0,30.3-0.6,30.3,27.1c0,22.8-9.2,26.3-22.4,26.9c11.6,2.2,16.2,13.1,16.2,13.1h0
					c0.8,1.5,1.4,3.1,2,5c8.7,33.1,6.4,33.2,25.9,33.2h11.6v-2C483.6,174.4,474,172.8,471.3,161.3z"/>
				<path id="XMLID_1781_" class="st0" d="M530.9,68c-33.5,0-49.5,25.6-49.5,55.8c0,30.3,16,54.3,49.5,54.3
					c33.5,0,49.5-23.9,49.5-54.3C580.4,93.6,564.4,68,530.9,68z M530.9,176c-18.1,0-32-10.4-32-52.3c0-41.8,13.9-53.8,32-53.8
					c18,0,31.9,12,31.9,53.8C562.7,165.7,548.8,176,530.9,176z"/>
			</g>
			<g id="XMLID_1774_">
				
					<rect id="XMLID_1778_" x="209.1" y="17" transform="matrix(0.7071 0.7071 -0.7071 0.7071 83.5648 -147.1209)" class="st1" width="20.6" height="20.6"/>
				
					<rect id="XMLID_1777_" x="266.6" y="17" transform="matrix(0.7071 0.7071 -0.7071 0.7071 100.4265 -187.8288)" class="st1" width="20.6" height="20.6"/>
				
					<rect id="XMLID_1776_" x="324.2" y="17" transform="matrix(0.7071 0.7071 -0.7071 0.7071 117.2883 -228.5367)" class="st1" width="20.6" height="20.6"/>
				
					<rect id="XMLID_1775_" x="381.8" y="17" transform="matrix(0.7071 0.7071 -0.7071 0.7071 134.15 -269.2446)" class="st1" width="20.6" height="20.6"/>
			</g>
		</g>
		<g id="XMLID_929_">
			<g id="XMLID_1771_">
				<path class="st1" d="M184.4,219.4c-0.3,0.4-0.8,0.9-1.5,1.4c-0.7,0.5-1.5,1-2.5,1.5c-1,0.5-2.1,0.8-3.5,1.2
					c-1.3,0.3-2.8,0.5-4.5,0.5c-2.7,0-5-0.4-6.9-1.2s-3.5-1.9-4.7-3.3c-1.2-1.4-2.2-2.9-2.7-4.7c-0.6-1.8-0.9-3.6-0.9-5.4
					c0-2.1,0.4-4.1,1.1-5.8c0.7-1.7,1.8-3.2,3.1-4.4s3-2.2,4.8-2.8c1.9-0.7,4-1,6.3-1c1.6,0,3,0.2,4.2,0.5c1.2,0.3,2.3,0.8,3.2,1.3
					c0.9,0.6,1.7,1.2,2.3,2c0.6,0.8,1.1,1.6,1.5,2.5h-2.9c-0.2-0.6-0.5-1.1-1-1.6c-0.5-0.5-1.1-1-1.8-1.4c-0.7-0.4-1.6-0.8-2.5-1
					c-0.9-0.3-2-0.4-3.1-0.4c-1.7,0-3.2,0.3-4.6,0.9c-1.4,0.6-2.6,1.4-3.7,2.5c-1,1.1-1.8,2.4-2.4,3.9c-0.6,1.5-0.9,3.1-0.9,4.9
					c0,1.7,0.3,3.3,0.8,4.9c0.5,1.6,1.3,2.9,2.4,4.1c1.1,1.2,2.4,2.1,4,2.8c1.6,0.7,3.4,1.1,5.5,1.1c3.7,0,6.9-1.3,9.6-3.8
					L184.4,219.4z"/>
				<path class="st1" d="M172.4,225.6c-2.9,0-5.4-0.5-7.5-1.4c-2.1-0.9-3.9-2.2-5.3-3.7c-1.4-1.5-2.4-3.3-3.1-5.3
					c-0.6-1.9-1-3.9-1-5.9c0-2.4,0.4-4.5,1.2-6.4c0.8-1.9,2-3.6,3.5-5c1.5-1.4,3.3-2.4,5.4-3.2c2.1-0.7,4.3-1.1,6.8-1.1
					c1.7,0,3.3,0.2,4.6,0.5c1.4,0.4,2.6,0.9,3.7,1.5c1.1,0.7,2,1.4,2.7,2.4c0.7,0.9,1.3,1.8,1.8,2.9l1,2.3h-6.7l-0.4-1.1
					c-0.1-0.3-0.3-0.7-0.7-1.1c-0.3-0.4-0.8-0.8-1.4-1.1c-0.6-0.3-1.3-0.6-2.1-0.9c-0.8-0.2-1.7-0.3-2.7-0.3c-1.4,0-2.8,0.3-4,0.8
					c-1.2,0.5-2.2,1.2-3.1,2.2c-0.9,0.9-1.6,2-2,3.3c-0.5,1.3-0.7,2.8-0.7,4.3c0,1.5,0.2,2.9,0.7,4.3c0.5,1.3,1.2,2.5,2.1,3.6
					c0.9,1,2,1.8,3.4,2.4c1.4,0.6,3,0.9,4.8,0.9c3.3,0,6-1.1,8.4-3.3l1.1-1l3.5,3.2l-1.1,1.2c-0.4,0.5-1,1-1.7,1.6
					c-0.8,0.6-1.7,1.2-2.8,1.7c-1.1,0.5-2.4,0.9-3.8,1.3C175.9,225.4,174.2,225.6,172.4,225.6z M161.5,201.4
					c-0.7,0.8-1.3,1.8-1.7,2.8c-0.6,1.5-1,3.2-1,5.1c0,1.7,0.3,3.3,0.8,4.9c0.5,1.5,1.3,2.9,2.4,4.1c0.2,0.2,0.4,0.4,0.6,0.6
					c-1-1.3-1.8-2.7-2.4-4.3c-0.6-1.7-0.9-3.5-0.9-5.4c0-2,0.3-3.8,1-5.5C160.7,202.9,161,202.1,161.5,201.4z"/>
			</g>
			<g id="XMLID_1768_">
				<path class="st1" d="M207,204.8c0.6-1.7,1.5-3.2,2.7-4.6c1.2-1.4,2.8-2.6,4.6-3.5c1.9-0.9,4.1-1.4,6.7-1.4
					c2.6,0,4.9,0.5,6.9,1.4c1.9,0.9,3.5,2.1,4.8,3.5c1.3,1.4,2.2,3,2.8,4.6c0.6,1.7,0.9,3.2,0.9,4.7c0,1-0.1,2-0.4,3.1
					c-0.3,1.1-0.7,2.2-1.2,3.2c-0.5,1.1-1.2,2.1-2.1,3c-0.8,1-1.8,1.8-3,2.6c-1.1,0.7-2.4,1.3-3.9,1.8c-1.4,0.4-3,0.7-4.8,0.7
					c-2.6,0-4.9-0.5-6.7-1.4c-1.9-0.9-3.4-2.1-4.6-3.5c-1.2-1.4-2.1-3-2.7-4.6c-0.6-1.7-0.9-3.2-0.9-4.7
					C206.1,208.1,206.4,206.5,207,204.8z M210.9,214.7c0.6,1.5,1.3,2.9,2.3,4c1,1.1,2.2,2,3.5,2.6c1.3,0.6,2.8,0.9,4.4,0.9
					c1.6,0,3-0.3,4.4-0.9c1.4-0.6,2.6-1.5,3.6-2.6c1-1.1,1.9-2.4,2.5-4c0.6-1.5,0.9-3.2,0.9-5.1c0-1.8-0.3-3.5-0.9-5.1
					c-0.6-1.5-1.4-2.9-2.5-4c-1-1.1-2.3-2-3.6-2.6c-1.4-0.6-2.9-0.9-4.4-0.9c-1.6,0-3,0.3-4.4,0.9s-2.5,1.5-3.5,2.6
					c-1,1.1-1.8,2.4-2.3,4c-0.6,1.5-0.9,3.2-0.9,5.1C210,211.4,210.3,213.1,210.9,214.7z"/>
				<path class="st1" d="M221,225.6c-2.9,0-5.4-0.5-7.5-1.6c-2.1-1-3.8-2.4-5.1-3.9c-1.3-1.6-2.3-3.3-3-5.2
					c-0.6-1.8-0.9-3.6-0.9-5.3c0-1.7,0.3-3.5,0.9-5.3l0,0c0.6-1.9,1.6-3.6,3-5.2c1.4-1.6,3.1-2.9,5.1-3.9c2.1-1,4.6-1.6,7.5-1.6
					c2.9,0,5.4,0.5,7.6,1.6c2.1,1,3.9,2.4,5.3,3.9c1.4,1.6,2.4,3.3,3.1,5.2c0.7,1.9,1,3.6,1,5.3c0,1.1-0.2,2.3-0.5,3.5
					c-0.3,1.2-0.8,2.4-1.4,3.6c-0.6,1.2-1.4,2.3-2.3,3.4c-0.9,1.1-2.1,2-3.3,2.9c-1.3,0.8-2.7,1.5-4.3,2
					C224.7,225.3,222.9,225.6,221,225.6z M221.1,198.7c-1.3,0-2.6,0.3-3.7,0.8c-1.1,0.5-2.1,1.3-3,2.2c-0.8,0.9-1.5,2.1-2,3.4
					c-0.5,1.4-0.7,2.9-0.7,4.5c0,1.6,0.3,3.2,0.7,4.5l0,0c0.5,1.3,1.2,2.5,2,3.4c0.8,0.9,1.8,1.7,3,2.2c1.1,0.5,2.4,0.8,3.7,0.8
					c1.3,0,2.6-0.3,3.7-0.8c1.2-0.5,2.2-1.3,3.1-2.2c0.9-0.9,1.6-2.1,2.1-3.4c0.5-1.3,0.8-2.8,0.8-4.5c0-1.6-0.3-3.1-0.8-4.5
					c-0.5-1.3-1.2-2.5-2.1-3.4c-0.9-0.9-1.9-1.7-3.1-2.2C223.7,198.9,222.4,198.7,221.1,198.7z M209.9,202.7c-0.5,0.8-1,1.7-1.3,2.7
					l0,0c-0.5,1.5-0.8,2.9-0.8,4.3c0,1.3,0.3,2.7,0.8,4.2c0.3,0.9,0.7,1.7,1.2,2.5c-0.2-0.3-0.3-0.7-0.4-1l0,0c-0.6-1.7-1-3.6-1-5.7
					c0-2,0.3-3.9,1-5.7C209.5,203.5,209.7,203.1,209.9,202.7z M232.9,203.2c0.1,0.2,0.2,0.5,0.3,0.7c0.7,1.7,1,3.6,1,5.7
					c0,2-0.3,4-1,5.7c-0.1,0.2-0.1,0.3-0.2,0.5c0.1-0.2,0.2-0.4,0.3-0.6c0.5-1,0.9-1.9,1.1-2.9c0.2-0.9,0.4-1.8,0.4-2.7
					c0-1.3-0.3-2.7-0.8-4.2C233.7,204.7,233.3,203.9,232.9,203.2z"/>
			</g>
			<g id="XMLID_1766_">
				<path class="st1" d="M286.2,195.8v28.2H286l-21.9-21.6h-0.2v21.2h-1.8v-28.2h0.2l21.9,21.6h0.2v-21.2H286.2z"/>
				<path class="st1" d="M287.9,225.6h-2.5l-19.8-19.5v19h-5.1v-31.5h2.5l19.8,19.5v-19h5.1V225.6z M263.7,200.6h1l19.8,19.5v-1.6
					h-1L263.7,199V200.6z"/>
			</g>
			<g id="XMLID_1512_">
				<path class="st1" d="M339.2,219.4c-0.3,0.4-0.8,0.9-1.5,1.4c-0.7,0.5-1.5,1-2.5,1.5c-1,0.5-2.1,0.8-3.5,1.2
					c-1.3,0.3-2.8,0.5-4.5,0.5c-2.7,0-5-0.4-6.9-1.2s-3.5-1.9-4.7-3.3c-1.2-1.4-2.2-2.9-2.7-4.7c-0.6-1.8-0.9-3.6-0.9-5.4
					c0-2.1,0.4-4.1,1.1-5.8c0.7-1.7,1.8-3.2,3.1-4.4c1.3-1.2,3-2.2,4.8-2.8c1.9-0.7,4-1,6.3-1c1.6,0,3,0.2,4.2,0.5
					c1.2,0.3,2.3,0.8,3.2,1.3c0.9,0.6,1.7,1.2,2.3,2c0.6,0.8,1.1,1.6,1.5,2.5h-2.9c-0.2-0.6-0.5-1.1-1-1.6c-0.5-0.5-1.1-1-1.8-1.4
					c-0.7-0.4-1.6-0.8-2.5-1c-0.9-0.3-2-0.4-3.1-0.4c-1.7,0-3.2,0.3-4.6,0.9c-1.4,0.6-2.6,1.4-3.7,2.5c-1,1.1-1.8,2.4-2.4,3.9
					c-0.6,1.5-0.9,3.1-0.9,4.9c0,1.7,0.3,3.3,0.8,4.9c0.5,1.6,1.3,2.9,2.4,4.1c1.1,1.2,2.4,2.1,4,2.8c1.6,0.7,3.4,1.1,5.5,1.1
					c3.7,0,6.9-1.3,9.6-3.8L339.2,219.4z"/>
				<path class="st1" d="M327.2,225.6c-2.9,0-5.4-0.5-7.5-1.4c-2.1-0.9-3.9-2.2-5.3-3.7c-1.4-1.5-2.4-3.3-3.1-5.3
					c-0.6-1.9-1-3.9-1-5.9c0-2.4,0.4-4.5,1.2-6.4c0.8-1.9,2-3.6,3.5-5c1.5-1.4,3.3-2.4,5.4-3.2c2.1-0.7,4.3-1.1,6.8-1.1
					c1.7,0,3.3,0.2,4.6,0.5c1.4,0.4,2.6,0.9,3.7,1.5c1.1,0.7,2,1.4,2.7,2.4c0.7,0.9,1.3,1.8,1.8,2.9l1,2.3h-6.7l-0.4-1.1
					c-0.1-0.3-0.3-0.7-0.7-1.1c-0.3-0.4-0.8-0.8-1.4-1.1c-0.6-0.3-1.3-0.6-2.1-0.9c-0.8-0.2-1.7-0.3-2.7-0.3c-1.4,0-2.8,0.3-4,0.8
					c-1.2,0.5-2.2,1.2-3.1,2.2c-0.9,0.9-1.6,2-2,3.3c-0.5,1.3-0.7,2.8-0.7,4.3c0,1.5,0.2,2.9,0.7,4.3c0.5,1.3,1.2,2.5,2.1,3.6
					c0.9,1,2,1.8,3.4,2.4c1.4,0.6,3,0.9,4.8,0.9c3.3,0,6-1.1,8.4-3.3l1.1-1l3.5,3.2l-1.1,1.2c-0.4,0.5-1,1-1.7,1.6
					c-0.8,0.6-1.7,1.2-2.8,1.7c-1.1,0.5-2.4,0.9-3.8,1.3C330.6,225.4,329,225.6,327.2,225.6z M316.3,201.4c-0.7,0.8-1.3,1.8-1.7,2.8
					c-0.6,1.5-1,3.2-1,5.1c0,1.7,0.3,3.3,0.8,4.9c0.5,1.5,1.3,2.9,2.4,4.1c0.2,0.2,0.4,0.4,0.6,0.6c-1-1.3-1.8-2.7-2.4-4.3
					c-0.6-1.7-0.9-3.5-0.9-5.4c0-2,0.3-3.8,1-5.5C315.4,202.9,315.8,202.1,316.3,201.4z"/>
			</g>
			<g id="XMLID_1402_">
				<path class="st1" d="M381.6,195.8v2.2h-14.3v9.9h12.3v1.8h-12.3v11.6h14.3v2.2h-17.9v-27.7H381.6z"/>
				<path class="st1" d="M383.2,225.1H362v-31h21.2v5.5h-14.3v6.6h12.3v5.1h-12.3v8.3h14.3V225.1z M365.3,221.8h0.3v-24.4h-0.3
					V221.8z"/>
			</g>
			<g id="XMLID_956_">
				<path class="st1" d="M410.1,223.4h-3.6v-27.7h9.3c1.5,0,2.9,0.2,4,0.7c1.1,0.4,2.1,1,2.8,1.8c0.8,0.8,1.3,1.6,1.7,2.6
					c0.4,1,0.6,2.1,0.6,3.2c0,1.2-0.2,2.2-0.6,3.3c-0.4,1-1,1.9-1.9,2.7c-0.8,0.8-1.9,1.4-3.1,1.8c-1.2,0.4-2.7,0.7-4.3,0.7
					c-0.9,0-1.8-0.1-2.6-0.2c-0.8-0.1-1.5-0.3-2.2-0.5V223.4z M410.1,210.3c0.6,0.2,1.2,0.4,1.9,0.4c0.7,0.1,1.4,0.1,2.3,0.1
					c1.2,0,2.2-0.2,3-0.6c0.8-0.4,1.5-0.9,2.1-1.5c0.6-0.6,1-1.3,1.2-2.1c0.2-0.8,0.4-1.5,0.4-2.3c0-0.8-0.1-1.6-0.4-2.4
					c-0.3-0.8-0.7-1.5-1.2-2.2c-0.6-0.6-1.3-1.2-2.1-1.6c-0.8-0.4-1.8-0.6-2.9-0.6h-4.2V210.3z"/>
				<path class="st1" d="M411.7,225.1h-6.9v-31h10.9c1.7,0,3.3,0.3,4.6,0.8c1.3,0.5,2.5,1.3,3.4,2.2c0.9,0.9,1.6,2,2.1,3.3
					c0.4,1.2,0.7,2.5,0.7,3.7c0,1.4-0.3,2.7-0.8,3.9c-0.5,1.2-1.3,2.3-2.3,3.3c-1,0.9-2.2,1.7-3.7,2.2c-1.4,0.5-3,0.8-4.8,0.8
					c-1,0-2-0.1-2.9-0.2c-0.1,0-0.2,0-0.3,0V225.1z M408.1,221.8h0.3v-24.4h-0.3V221.8z M411.7,209c0.1,0,0.2,0,0.4,0
					c0.6,0.1,1.3,0.1,2.1,0.1c0.9,0,1.7-0.1,2.3-0.4c0.6-0.3,1.2-0.7,1.6-1.1c0.4-0.5,0.7-1,0.9-1.5c0.2-0.6,0.3-1.2,0.3-1.8
					c0-0.6-0.1-1.2-0.3-1.9c-0.2-0.6-0.5-1.1-0.9-1.6c-0.4-0.5-0.9-0.8-1.5-1.1c-0.6-0.3-1.4-0.4-2.2-0.4h-2.5V209z M420.7,198.8
					c0.6,0.7,1,1.6,1.3,2.5c0.3,1,0.5,2,0.5,2.9c0,0.9-0.2,1.9-0.5,2.8c-0.2,0.5-0.4,1-0.6,1.4c0.5-0.5,0.9-1.1,1.2-1.8
					c0.3-0.8,0.5-1.7,0.5-2.6c0-0.9-0.1-1.8-0.5-2.6c-0.3-0.8-0.7-1.5-1.3-2C421.2,199.2,420.9,199,420.7,198.8z"/>
			</g>
			<g id="XMLID_954_">
				<path class="st1" d="M456.3,223.4v-25.5h-10.6v-2.2h24.8v2.2h-10.6v25.5H456.3z"/>
				<path class="st1" d="M461.6,225.1h-6.9v-25.5h-10.6v-5.5h28.1v5.5h-10.6V225.1z M458,221.8h0.3v-24.4H458V221.8z"/>
			</g>
		</g>
	</g>
	<linearGradient id="SVGID_1_" gradientUnits="userSpaceOnUse" x1="583.2549" y1="155.3138" x2="583.2549" y2="186.4478">
		<stop  offset="3.465347e-02" style="stop-color:#B7B7B7"/>
		<stop  offset="0.2797" style="stop-color:#D2D2D2"/>
		<stop  offset="0.5322" style="stop-color:#525252"/>
		<stop  offset="0.7896" style="stop-color:#D2D2D2"/>
		<stop  offset="1" style="stop-color:#B7B7B7"/>
	</linearGradient>
	<path class="st2" d="M583.3,177.3c-4.2,0-7.7-3.4-7.7-7.7c0-4.2,3.4-7.7,7.7-7.7c4.2,0,7.7,3.4,7.7,7.7
		C590.9,173.9,587.5,177.3,583.3,177.3z M583.3,163.7c-3.3,0-5.9,2.7-5.9,5.9c0,3.3,2.7,5.9,5.9,5.9c3.3,0,5.9-2.7,5.9-5.9
		C589.2,166.4,586.5,163.7,583.3,163.7z"/>
	<linearGradient id="SVGID_2_" gradientUnits="userSpaceOnUse" x1="583.6157" y1="155.3138" x2="583.6157" y2="186.4478">
		<stop  offset="3.465347e-02" style="stop-color:#B7B7B7"/>
		<stop  offset="0.2797" style="stop-color:#D2D2D2"/>
		<stop  offset="0.5322" style="stop-color:#525252"/>
		<stop  offset="0.7896" style="stop-color:#D2D2D2"/>
		<stop  offset="1" style="stop-color:#B7B7B7"/>
	</linearGradient>
	<path class="st3" d="M586.5,173.5c-0.2-0.3-0.4-1.2-0.6-2.2c-0.2-0.7-0.5-1.3-0.9-1.6c0.8-0.5,1.3-1.2,1.3-2.2
		c0-0.7-0.3-1.4-0.8-1.8c-0.6-0.5-1.4-0.8-2.6-0.8c-0.8,0-1.6,0.1-2.2,0.2l-0.2,0v8.9h1.7v-3.7h0.7c0.8,0,1.2,0.4,1.4,1.4
		c0.3,1.3,0.5,1.9,0.6,2.1l0.1,0.1h1.8L586.5,173.5z M584.6,167.6c0,0.8-0.6,1.3-1.6,1.3h-0.8v-2.5c0.2,0,0.4,0,0.8,0
		C584,166.3,584.6,166.7,584.6,167.6z"/>
</g>
</svg>
