<?xml version="1.0" encoding="utf-8"?>
<!-- Generator: Adobe Illustrator 16.0.0, SVG Export Plug-In . SVG Version: 6.00 Build 0)  -->
<!DOCTYPE svg PUBLIC "-//W3C//DTD SVG 1.1//EN" "http://www.w3.org/Graphics/SVG/1.1/DTD/svg11.dtd">
<svg version="1.1" id="Layer_1" xmlns="http://www.w3.org/2000/svg" xmlns:xlink="http://www.w3.org/1999/xlink" x="0px" y="0px"
	 width="31.848px" height="31.847px" viewBox="0 0 31.848 31.847" enable-background="new 0 0 31.848 31.847" xml:space="preserve">
<path fill="#030104" d="M15.924,0C7.13,0,0,7.129,0,15.924c0,8.794,7.13,15.923,15.924,15.923s15.924-7.129,15.924-15.923
	C31.848,7.129,24.718,0,15.924,0z M23.966,18.107h-5.859v5.859c0,1.205-0.977,2.182-2.183,2.182l0,0
	c-1.206,0-2.183-0.977-2.183-2.182v-5.859H7.882c-1.206,0-2.184-0.979-2.184-2.183c0-1.206,0.978-2.184,2.184-2.184h5.859V7.882
	c0-1.206,0.977-2.184,2.183-2.184l0,0c1.206,0,2.183,0.978,2.183,2.184v5.858h5.859c1.205,0,2.183,0.978,2.183,2.184
	C26.148,17.128,25.171,18.107,23.966,18.107z"/>
</svg>
