<?xml version="1.0" encoding="utf-8"?>
<!-- Generator: Adobe Illustrator 16.0.0, SVG Export Plug-In . SVG Version: 6.00 Build 0)  -->
<!DOCTYPE svg PUBLIC "-//W3C//DTD SVG 1.1//EN" "http://www.w3.org/Graphics/SVG/1.1/DTD/svg11.dtd">
<svg version="1.1" id="Layer_1" xmlns="http://www.w3.org/2000/svg" xmlns:xlink="http://www.w3.org/1999/xlink" x="0px" y="0px"
	 width="31px" height="31px" viewBox="0 0 31 31" enable-background="new 0 0 31 31" xml:space="preserve">
<path fill="#FFFFFF" d="M15.369,0C6.88,0,0,6.872,0,15.35c0,8.477,6.88,15.35,15.369,15.35c8.488,0,15.37-6.873,15.37-15.35
	C30.739,6.872,23.857,0,15.369,0z M23.132,17.453h-5.656v5.648c0,1.162-0.943,2.105-2.106,2.105l0,0
	c-1.163,0-2.107-0.943-2.107-2.105v-5.648H7.607c-1.164,0-2.107-0.941-2.107-2.104c0-1.163,0.943-2.105,2.107-2.105h5.655V7.597
	c0-1.162,0.945-2.104,2.107-2.104l0,0c1.163,0,2.106,0.942,2.106,2.104v5.647h5.656c1.163,0,2.106,0.942,2.106,2.105
	C25.238,16.512,24.295,17.453,23.132,17.453z"/>
</svg>
