<?xml version="1.0" encoding="utf-8"?>
<!-- Generator: Adobe Illustrator 16.0.0, SVG Export Plug-In . SVG Version: 6.00 Build 0)  -->
<!DOCTYPE svg PUBLIC "-//W3C//DTD SVG 1.1//EN" "http://www.w3.org/Graphics/SVG/1.1/DTD/svg11.dtd">
<svg version="1.1" id="Layer_1" xmlns="http://www.w3.org/2000/svg" xmlns:xlink="http://www.w3.org/1999/xlink" x="0px" y="0px"
	 width="65.655px" height="70.521px" viewBox="0 0 65.655 70.521" enable-background="new 0 0 65.655 70.521" xml:space="preserve">
<g>
	<g>
		<path id="XMLID_32_" fill="#030104" d="M32.851,0L0,70.521h11.583l5.786-12.83l6.175-13.812h-0.006l1.209-2.691l0,0l0,0
			l5.74-12.783c0.433-1.082,0.857-2.264,1.274-3.545s0.812-2.664,1.183-4.146c0.432,1.574,0.863,3.004,1.297,4.285
			c0.432,1.283,0.85,2.418,1.25,3.406l5.334,11.875l0,0v0.002l1.617,3.598h-0.056l5.99,13.812l5.649,12.83h11.629L32.851,0z"/>
		<polygon id="XMLID_31_" fill="#030104" points="34.3,41.945 27.065,41.945 14.204,70.521 21.438,70.521 		"/>
		<polygon id="XMLID_30_" fill="#030104" points="33.253,49.087 23.606,70.521 30.841,70.521 40.487,49.087 		"/>
		<polygon id="XMLID_29_" fill="#030104" points="39.702,56.232 33.271,70.521 40.505,70.521 46.937,56.232 		"/>
	</g>
</g>
</svg>
