<?xml version="1.0" encoding="utf-8"?>
<!-- Generator: Adobe Illustrator 16.0.0, SVG Export Plug-In . SVG Version: 6.00 Build 0)  -->
<!DOCTYPE svg PUBLIC "-//W3C//DTD SVG 1.1//EN" "http://www.w3.org/Graphics/SVG/1.1/DTD/svg11.dtd">
<svg version="1.1" id="Layer_1" xmlns="http://www.w3.org/2000/svg" xmlns:xlink="http://www.w3.org/1999/xlink" x="0px" y="0px"
	 width="237.44px" height="255.034px" viewBox="0 0 237.44 255.034" enable-background="new 0 0 237.44 255.034"
	 xml:space="preserve">
<g opacity="0.1">
	<path id="XMLID_72_" fill="#BDAE97" d="M118.817,1.131L0.013,256.165h41.891l20.924-46.402l22.328-49.947h-0.02l4.371-9.733
		l0-0.002l0,0l20.762-46.231c1.563-3.909,3.101-8.182,4.608-12.818c1.509-4.635,2.933-9.636,4.273-14.998
		c1.563,5.698,3.126,10.866,4.69,15.5c1.564,4.637,3.072,8.742,4.525,12.316l19.289,42.949l0,0v0.002l5.846,13.016h-0.201
		l21.662,49.952l20.43,46.397h42.06L118.817,1.131z"/>
	<polygon id="XMLID_71_" fill="#BDAE97" points="124.057,152.817 97.896,152.817 51.379,256.165 77.541,256.165 	"/>
	<polygon id="XMLID_70_" fill="#BDAE97" points="120.272,178.654 85.384,256.165 111.546,256.165 146.434,178.654 	"/>
	<polygon id="XMLID_62_" fill="#BDAE97" points="143.593,204.491 120.334,256.165 146.497,256.165 169.755,204.491 	"/>
</g>
</svg>
