<svg xmlns="http://www.w3.org/2000/svg" viewBox="0 0 564.71 377.98"><defs><style>.cls-1{isolation:isolate;}.cls-2{fill:#727272;}.cls-3{mix-blend-mode:multiply;}</style></defs><title>Mesa de trabajo 60</title><g class="cls-1"><g id="Layer_1" data-name="Layer 1"><g id="_Grupo_" data-name="&lt;Grupo&gt;"><g id="_Grupo_2" data-name="&lt;Grupo&gt;"><g id="_Grupo_3" data-name="&lt;Grupo&gt;"><path id="_Trazado_" data-name="&lt;Trazado&gt;" class="cls-2" d="M81.18,239.38l-23.66-8.31S31.34,220,8.46,238.91L10,240.64c3.6-2.51,13.32-7.84,23.35-3.76l12.07,5.33c25.23,11,35.73,13.95,47.8,4.54L105,237l-1.41-1.57C99.67,238.29,92.93,243.3,81.18,239.38Z"/><path id="_Trazado_compuesto_" data-name="&lt;Trazado compuesto&gt;" class="cls-2" d="M50.93,220.74c34.48,0,50.93-24.6,50.93-55.79,0-31-16.46-57.36-50.93-57.36S0,133.92,0,164.95C0,196.13,16.46,220.74,50.93,220.74Zm0-111.11c18.49,0,32.75,12.38,32.75,55.32,0,43.1-14.26,53.75-32.75,53.75C32.28,218.7,18,208,18,164.95,18,122,32.28,109.63,50.93,109.63Z"/><path id="_Trazado_2" data-name="&lt;Trazado&gt;" class="cls-2" d="M188.33,139.72c0-14.73-.47-28.68,20.06-28.68v-2H167.64v2c18.33,0,18.65,13.95,18.65,28.68v42.63c0,20.22-12.38,31.34-28.37,31.34-16.93,0-28.52-11.13-28.52-30.56v-58.3c0-12.38,5.64-13.79,12.38-13.79v-2h-39v2c6.9,0,11.13,3,11.13,13.63v57c0,25.54,16,39,36.36,39,19.28,0,38.08-10.34,38.08-38.39Z"/><path id="_Trazado_3" data-name="&lt;Trazado&gt;" class="cls-2" d="M277.59,204.59S258.15,155.07,239,109h-1.72l-26.17,71.3c-13.63,36.2-17.55,36.83-23.51,37v2h34.95v-2c-20.14.58-15.76-16-11.64-28.4h0v0c.33-1,.66-2,1-2.9l.47-2,4-10.93h0l15-41.1,20.53,52h0L258,199.58c3.6,8.78,5.17,17.71-3.29,17.71v2h35.73v-2C286,217,282.76,217.13,277.59,204.59Z"/><path id="_Trazado_4" data-name="&lt;Trazado&gt;" class="cls-2" d="M270.3,136.58h2c.63-25.23,24-25.54,28.84-25.54h9.25v93.09c0,10.34-4.7,13.16-11.28,13.16v2h38.24v-2c-6.58,0-11.44-2.82-11.44-13.16V111h9.25c2.19,0,28.36.31,29,25.54h2V109H270.3Z"/><path id="_Trazado_5" data-name="&lt;Trazado&gt;" class="cls-2" d="M452.55,203.5c-8.15-34.32-19-35.42-29.3-35.89,16.92-1.1,29.15-7.37,29.15-28.68C452.4,112.76,435.16,109,404,109H374v2c6.9,0,9.72,2.19,9.72,11.91v78c0,13.16-3,16.3-9.72,16.3v2h35.1v-2c-6.58,0-10-3.45-10-14.26V111H404c16.77,0,31.19-.63,31.19,27.89,0,23.4-9.49,27.06-23,27.63,12,2.3,16.6,13.42,16.6,13.42h0a24.47,24.47,0,0,1,2,5.18c8.93,34,6.58,34.16,26.64,34.16h11.91v-2C465.25,217,455.37,215.41,452.55,203.5Z"/><path id="_Trazado_compuesto_2" data-name="&lt;Trazado compuesto&gt;" class="cls-2" d="M513.78,107.59c-34.48,0-50.93,26.33-50.93,57.36,0,31.19,16.46,55.79,50.93,55.79s50.93-24.6,50.93-55.79C564.71,133.92,548.26,107.59,513.78,107.59Zm0,111.11c-18.65,0-32.91-10.66-32.91-53.75,0-42.94,14.26-55.32,32.91-55.32,18.49,0,32.75,12.38,32.75,55.32C546.53,208,532.27,218.7,513.78,218.7Z"/></g><g id="_Grupo_4" data-name="&lt;Grupo&gt;" class="cls-3"><path id="_Trazado_6" data-name="&lt;Trazado&gt;" class="cls-2" d="M81.18,239.38l-23.66-8.31S31.34,220,8.46,238.91L10,240.64c3.6-2.51,13.32-7.84,23.35-3.76l12.07,5.33c25.23,11,35.73,13.95,47.8,4.54L105,237l-1.41-1.57C99.67,238.29,92.93,243.3,81.18,239.38Z"/><path id="_Trazado_compuesto_3" data-name="&lt;Trazado compuesto&gt;" class="cls-2" d="M50.93,220.74c34.48,0,50.93-24.6,50.93-55.79,0-31-16.46-57.36-50.93-57.36S0,133.92,0,164.95C0,196.13,16.46,220.74,50.93,220.74Zm0-111.11c18.49,0,32.75,12.38,32.75,55.32,0,43.1-14.26,53.75-32.75,53.75C32.28,218.7,18,208,18,164.95,18,122,32.28,109.63,50.93,109.63Z"/><path id="_Trazado_7" data-name="&lt;Trazado&gt;" class="cls-2" d="M188.33,139.72c0-14.73-.47-28.68,20.06-28.68v-2H167.64v2c18.33,0,18.65,13.95,18.65,28.68v42.63c0,20.22-12.38,31.34-28.37,31.34-16.93,0-28.52-11.13-28.52-30.56v-58.3c0-12.38,5.64-13.79,12.38-13.79v-2h-39v2c6.9,0,11.13,3,11.13,13.63v57c0,25.54,16,39,36.36,39,19.28,0,38.08-10.34,38.08-38.39Z"/><path id="_Trazado_8" data-name="&lt;Trazado&gt;" class="cls-2" d="M277.59,204.59S258.15,155.07,239,109h-1.72l-26.17,71.3c-13.63,36.2-17.55,36.83-23.51,37v2h34.95v-2c-20.14.58-15.76-16-11.64-28.4h0v0c.33-1,.66-2,1-2.9l.47-2,4-10.93h0l15-41.1,20.53,52h0L258,199.58c3.6,8.78,5.17,17.71-3.29,17.71v2h35.73v-2C286,217,282.76,217.13,277.59,204.59Z"/><path id="_Trazado_9" data-name="&lt;Trazado&gt;" class="cls-2" d="M270.3,136.58h2c.63-25.23,24-25.54,28.84-25.54h9.25v93.09c0,10.34-4.7,13.16-11.28,13.16v2h38.24v-2c-6.58,0-11.44-2.82-11.44-13.16V111h9.25c2.19,0,28.36.31,29,25.54h2V109H270.3Z"/><path id="_Trazado_10" data-name="&lt;Trazado&gt;" class="cls-2" d="M452.55,203.5c-8.15-34.32-19-35.42-29.3-35.89,16.92-1.1,29.15-7.37,29.15-28.68C452.4,112.76,435.16,109,404,109H374v2c6.9,0,9.72,2.19,9.72,11.91v78c0,13.16-3,16.3-9.72,16.3v2h35.1v-2c-6.58,0-10-3.45-10-14.26V111H404c16.77,0,31.19-.63,31.19,27.89,0,23.4-9.49,27.06-23,27.63,12,2.3,16.6,13.42,16.6,13.42h0a24.47,24.47,0,0,1,2,5.18c8.93,34,6.58,34.16,26.64,34.16h11.91v-2C465.25,217,455.37,215.41,452.55,203.5Z"/><path id="_Trazado_compuesto_4" data-name="&lt;Trazado compuesto&gt;" class="cls-2" d="M513.78,107.59c-34.48,0-50.93,26.33-50.93,57.36,0,31.19,16.46,55.79,50.93,55.79s50.93-24.6,50.93-55.79C564.71,133.92,548.26,107.59,513.78,107.59Zm0,111.11c-18.65,0-32.91-10.66-32.91-53.75,0-42.94,14.26-55.32,32.91-55.32,18.49,0,32.75,12.38,32.75,55.32C546.53,208,532.27,218.7,513.78,218.7Z"/></g><g id="_Grupo_5" data-name="&lt;Grupo&gt;"><rect id="_Rectángulo_" data-name="&lt;Rectángulo&gt;" class="cls-2" x="182.98" y="55.21" width="21.2" height="21.2" transform="translate(103.23 -117.61) rotate(45)"/><rect id="_Rectángulo_2" data-name="&lt;Rectángulo&gt;" class="cls-2" x="242.16" y="55.21" width="21.2" height="21.2" transform="translate(120.57 -159.46) rotate(45)"/><rect id="_Rectángulo_3" data-name="&lt;Rectángulo&gt;" class="cls-2" x="301.34" y="55.21" width="21.2" height="21.2" transform="translate(137.9 -201.3) rotate(45)"/><rect id="_Rectángulo_4" data-name="&lt;Rectángulo&gt;" class="cls-2" x="360.52" y="55.21" width="21.2" height="21.2" transform="translate(155.23 -243.15) rotate(45)"/></g></g><g id="_Grupo_6" data-name="&lt;Grupo&gt;"><path id="_Trazado_compuesto_5" data-name="&lt;Trazado compuesto&gt;" class="cls-2" d="M199.24,260.13a8.36,8.36,0,0,1-1.06,1,8.65,8.65,0,0,1-1.75,1A12.89,12.89,0,0,1,194,263a13.87,13.87,0,0,1-3.2.34,12.22,12.22,0,0,1-4.86-.88,9.61,9.61,0,0,1-3.35-2.32,9.2,9.2,0,0,1-1.94-3.3A11.81,11.81,0,0,1,180,253a10.31,10.31,0,0,1,.78-4.09,8.93,8.93,0,0,1,2.21-3.13,9.81,9.81,0,0,1,3.42-2,13.34,13.34,0,0,1,4.43-.7,12.14,12.14,0,0,1,3,.34,8.57,8.57,0,0,1,2.29.92,6.17,6.17,0,0,1,1.63,1.4,7.79,7.79,0,0,1,1.08,1.76h-2.07a3.53,3.53,0,0,0-.68-1.16,4.83,4.83,0,0,0-1.26-1,7.6,7.6,0,0,0-1.76-.73,8.64,8.64,0,0,0-5.45.36,7.74,7.74,0,0,0-2.58,1.79,8.06,8.06,0,0,0-1.69,2.72,9.7,9.7,0,0,0-.6,3.48,10.39,10.39,0,0,0,.57,3.44,8.53,8.53,0,0,0,1.69,2.91,8.14,8.14,0,0,0,2.79,2,9.31,9.31,0,0,0,3.86.75,9.53,9.53,0,0,0,6.76-2.68Z"/><path id="_Trazado_compuesto_6" data-name="&lt;Trazado compuesto&gt;" class="cls-2" d="M215.2,249.82a9.78,9.78,0,0,1,1.89-3.28,10.18,10.18,0,0,1,3.27-2.47,10.64,10.64,0,0,1,4.75-1,11,11,0,0,1,4.85,1,10.7,10.7,0,0,1,3.39,2.5,10.1,10.1,0,0,1,2,3.28,9.84,9.84,0,0,1,.64,3.34,8.78,8.78,0,0,1-.29,2.18,11.21,11.21,0,0,1-.87,2.28,10.37,10.37,0,0,1-1.47,2.15,9.93,9.93,0,0,1-2.11,1.8,10.82,10.82,0,0,1-2.74,1.24,11.69,11.69,0,0,1-3.39.46,10.53,10.53,0,0,1-4.75-1,10.24,10.24,0,0,1-3.27-2.5,10,10,0,0,1-1.89-3.28,10.42,10.42,0,0,1-.6-3.34A10.62,10.62,0,0,1,215.2,249.82Zm2.74,7a8.63,8.63,0,0,0,1.65,2.81,7.47,7.47,0,0,0,2.47,1.83,7.31,7.31,0,0,0,3.1.66,7.53,7.53,0,0,0,3.12-.66,8,8,0,0,0,2.57-1.83,8.7,8.7,0,0,0,1.75-2.81,10.35,10.35,0,0,0,0-7.18,8.7,8.7,0,0,0-1.75-2.81,8,8,0,0,0-2.57-1.83,7.54,7.54,0,0,0-3.12-.66,7.32,7.32,0,0,0-3.1.66,7.47,7.47,0,0,0-2.47,1.83,8.63,8.63,0,0,0-1.65,2.81,11,11,0,0,0,0,7.18Z"/><path id="_Trazado_compuesto_7" data-name="&lt;Trazado compuesto&gt;" class="cls-2" d="M271.18,243.42v19.89H271L255.53,248h-.11V263h-1.29V243.08h.14l15.51,15.28h.11V243.42Z"/><path id="_Trazado_compuesto_8" data-name="&lt;Trazado compuesto&gt;" class="cls-2" d="M308.59,260.13a8.36,8.36,0,0,1-1.06,1,8.65,8.65,0,0,1-1.75,1,12.89,12.89,0,0,1-2.46.82,13.87,13.87,0,0,1-3.2.34,12.22,12.22,0,0,1-4.86-.88,9.61,9.61,0,0,1-3.35-2.32,9.2,9.2,0,0,1-1.94-3.3,11.81,11.81,0,0,1-.63-3.81,10.31,10.31,0,0,1,.78-4.09,8.93,8.93,0,0,1,2.21-3.13,9.81,9.81,0,0,1,3.42-2,13.34,13.34,0,0,1,4.43-.7,12.14,12.14,0,0,1,3,.34,8.57,8.57,0,0,1,2.29.92,6.17,6.17,0,0,1,1.63,1.4,7.79,7.79,0,0,1,1.08,1.76H306.1a3.53,3.53,0,0,0-.68-1.16,4.83,4.83,0,0,0-1.26-1,7.6,7.6,0,0,0-1.76-.73,8.64,8.64,0,0,0-5.45.36,7.74,7.74,0,0,0-2.58,1.79,8.06,8.06,0,0,0-1.69,2.72,9.7,9.7,0,0,0-.6,3.48,10.39,10.39,0,0,0,.57,3.44,8.53,8.53,0,0,0,1.69,2.91,8.14,8.14,0,0,0,2.79,2,9.31,9.31,0,0,0,3.86.75,9.53,9.53,0,0,0,6.76-2.68Z"/><path id="_Trazado_compuesto_9" data-name="&lt;Trazado compuesto&gt;" class="cls-2" d="M338.53,243.42V245H328.45v7h8.66v1.29h-8.66v8.19h10.09V263H325.91V243.42Z"/><path id="_Trazado_compuesto_10" data-name="&lt;Trazado compuesto&gt;" class="cls-2" d="M358.68,263h-2.54V243.42h6.54a7.66,7.66,0,0,1,2.82.47,5.81,5.81,0,0,1,2,1.27,5.07,5.07,0,0,1,1.19,1.87,6.54,6.54,0,0,1,.39,2.25,6,6,0,0,1-.45,2.3,5.44,5.44,0,0,1-1.33,1.9,6.29,6.29,0,0,1-2.19,1.3,8.83,8.83,0,0,1-3,.47,12.44,12.44,0,0,1-1.84-.13,14,14,0,0,1-1.56-.32Zm0-9.3A5,5,0,0,0,360,254q.73.07,1.59.07a5,5,0,0,0,2.15-.42,4.43,4.43,0,0,0,1.48-1.09,4.21,4.21,0,0,0,.85-1.49,5.32,5.32,0,0,0,.26-1.63,5.18,5.18,0,0,0-.29-1.69,4.7,4.7,0,0,0-.88-1.54,4.36,4.36,0,0,0-1.48-1.1,4.82,4.82,0,0,0-2.07-.42h-2.93Z"/><path id="_Trazado_compuesto_11" data-name="&lt;Trazado compuesto&gt;" class="cls-2" d="M391.36,263V245h-7.49v-1.54h17.52V245h-7.49v18Z"/></g></g></g></g></svg>