<?xml version="1.0" encoding="utf-8"?>
<!-- Generator: Adobe Illustrator 21.0.0, SVG Export Plug-In . SVG Version: 6.00 Build 0)  -->
<svg version="1.1" id="Layer_1" xmlns="http://www.w3.org/2000/svg" xmlns:xlink="http://www.w3.org/1999/xlink" x="0px" y="0px"
	 viewBox="0 0 22 22" style="enable-background:new 0 0 22 22;" xml:space="preserve">
<style type="text/css">
	.st0{fill:#FFFFFF;}
</style>
<g>
	<path class="st0" d="M11,21.7c-6,0-10.9-4.9-10.9-10.8S5,0,11,0s10.8,4.9,10.8,10.8S17,21.7,11,21.7z M11,0.6
		C5.3,0.6,0.7,5.2,0.7,10.8c0,5.7,4.6,10.3,10.3,10.3s10.3-4.6,10.3-10.3C21.2,5.2,16.6,0.6,11,0.6z"/>
</g>
<g>
	<path class="st0" d="M16,13.2c0,0.8-0.2,1.6-0.8,2.2c-0.6,0.6-1.3,0.8-2.2,0.8c-0.7,0-1.4,0-2.1,0s-1.4,0-2.1,0
		c-0.8,0-1.6-0.2-2.2-0.8C6,14.7,5.8,14,5.8,13.2c0-0.7,0-1.4,0-2.1s0-1.4,0-2.1c0-0.8,0.2-1.6,0.8-2.2C7.2,6.2,7.9,6,8.8,5.9
		c0.7,0,1.4,0,2.1,0s1.4,0,2.1,0c0.8,0,1.6,0.2,2.2,0.8C15.8,7.4,16,8.1,16,8.9c0,0.7,0,1.4,0,2.1S16,12.5,16,13.2z M7.9,7
		C7.6,7.1,7.5,7.2,7.3,7.4C7.1,7.6,7,7.8,6.9,8c-0.3,0.7-0.2,2.3-0.2,3s-0.1,2.4,0.2,3c0.1,0.2,0.2,0.4,0.4,0.6s0.4,0.3,0.6,0.4
		c0.7,0.3,2.3,0.2,3,0.2s2.4,0.1,3-0.2c0.2-0.1,0.4-0.2,0.6-0.4s0.3-0.4,0.4-0.6c0.3-0.7,0.2-2.3,0.2-3s0.1-2.4-0.2-3
		c-0.1-0.2-0.2-0.4-0.4-0.6S14.1,7.1,13.9,7c-0.7-0.3-2.3-0.2-3-0.2S8.5,6.8,7.9,7z M10.9,13.7c-1.5,0-2.6-1.2-2.6-2.6
		s1.2-2.6,2.6-2.6s2.6,1.2,2.6,2.6S12.4,13.7,10.9,13.7z M10.9,9.3c-0.9,0-1.7,0.8-1.7,1.7s0.8,1.7,1.7,1.7s1.7-0.8,1.7-1.7
		S11.8,9.3,10.9,9.3z M13.6,8.9c-0.3,0-0.6-0.3-0.6-0.6s0.3-0.6,0.6-0.6s0.6,0.3,0.6,0.6C14.3,8.6,14,8.9,13.6,8.9z"/>
</g>
</svg>
